<svg xmlns="http://www.w3.org/2000/svg" viewBox="0 0 120 120" fill="none"><g clip-path="url(#aaesvg_b907f35804__clip0_52_9152)"><path fill="#fff" d="M0 0h120v120H0z"/><g filter="url(#aaesvg_b907f35804__filter0_dii_52_9152)"><path d="M8 23c0-5.523 4.477-10 10-10h79.997c5.523 0 10 4.477 10 10v15.55L108 92c0 5.523-4.477 10-10 10H18.002c-5.523 0-10-4.477-10-10L8 23z" fill="url(#aaesvg_b907f35804__paint0_linear_52_9152)"/></g><path fill-rule="evenodd" clip-rule="evenodd" d="M18.002 101.4H98a9.4 9.4 0 009.4-9.4l-.003-69a9.4 9.4 0 00-9.4-9.4H18A9.4 9.4 0 008.6 23l.002 69a9.4 9.4 0 009.4 9.4zM18 13c-5.523 0-10 4.477-10 10l.002 69c0 5.523 4.478 10 10 10H98c5.523 0 10-4.477 10-10l-.003-69c0-5.523-4.477-10-10-10H18z" fill="url(#aaesvg_b907f35804__paint1_linear_52_9152)"/><g filter="url(#aaesvg_b907f35804__filter1_di_52_9152)"><circle cx="19.5" cy="23.5" r="3.5" fill="url(#aaesvg_b907f35804__paint2_linear_52_9152)"/></g><path fill-rule="evenodd" clip-rule="evenodd" d="M19.5 26.7a3.2 3.2 0 100-6.4 3.2 3.2 0 000 6.4zm0 .3a3.5 3.5 0 100-7 3.5 3.5 0 000 7z" fill="url(#aaesvg_b907f35804__paint3_linear_52_9152)"/><g filter="url(#aaesvg_b907f35804__filter2_di_52_9152)"><circle cx="30.5" cy="23.5" r="3.5" fill="url(#aaesvg_b907f35804__paint4_linear_52_9152)"/></g><path fill-rule="evenodd" clip-rule="evenodd" d="M30.5 26.7a3.2 3.2 0 100-6.4 3.2 3.2 0 000 6.4zm0 .3a3.5 3.5 0 100-7 3.5 3.5 0 000 7z" fill="url(#aaesvg_b907f35804__paint5_linear_52_9152)"/><g filter="url(#aaesvg_b907f35804__filter3_di_52_9152)"><circle cx="41.5" cy="23.5" r="3.5" fill="url(#aaesvg_b907f35804__paint6_linear_52_9152)"/></g><path fill-rule="evenodd" clip-rule="evenodd" d="M41.5 26.7a3.2 3.2 0 100-6.4 3.2 3.2 0 000 6.4zm0 .3a3.5 3.5 0 100-7 3.5 3.5 0 000 7z" fill="url(#aaesvg_b907f35804__paint7_linear_52_9152)"/><path d="M16 37a6 6 0 016-6h72a6 6 0 016 6v53a6 6 0 01-6 6H22a6 6 0 01-6-6V37z" fill="url(#aaesvg_b907f35804__paint8_linear_52_9152)"/><path fill-rule="evenodd" clip-rule="evenodd" d="M94 31.604H22A5.396 5.396 0 0016.604 37v53A5.396 5.396 0 0022 95.396h72A5.396 5.396 0 0099.396 90V37A5.396 5.396 0 0094 31.604zM22 31a6 6 0 00-6 6v53a6 6 0 006 6h72a6 6 0 006-6V37a6 6 0 00-6-6H22z" fill="url(#aaesvg_b907f35804__paint9_linear_52_9152)"/><path d="M40.632 51.2a.3.3 0 01.3.3v3.667a.3.3 0 01-.3.3h-9.045a.3.3 0 00-.3.294l-.09 4.16a.3.3 0 00.3.306h2.43c5.543 0 8.33 3.179 8.33 7.157 0 5.117-3.875 8.04-8.686 8.04-3.452 0-6.295-1.25-8.262-3.365a.294.294 0 01-.012-.384l2.207-2.744a.314.314 0 01.462-.022c1.328 1.29 3.51 2.266 5.57 2.266 2.653 0 3.962-1.564 3.962-3.451 0-1.785-1.122-3.35-4.845-3.35h-5.355a.3.3 0 01-.3-.305l.243-12.575a.3.3 0 01.3-.294h13.09zM55.824 50.775c5.678 0 10.268 4.624 10.268 12.325 0 7.7-4.59 12.325-10.268 12.325-5.695 0-10.25-4.624-10.25-12.325s4.555-12.325 10.25-12.325zm0 4.403c-3.043 0-5.474 2.72-5.474 7.922s2.431 7.922 5.474 7.922c3.06 0 5.474-2.72 5.474-7.922s-2.414-7.922-5.474-7.922zM79.83 50.775c5.678 0 10.268 4.624 10.268 12.325 0 7.7-4.59 12.325-10.268 12.325-5.695 0-10.251-4.624-10.251-12.325s4.556-12.325 10.251-12.325zm0 4.403c-3.043 0-5.474 2.72-5.474 7.922s2.431 7.922 5.474 7.922c3.06 0 5.474-2.72 5.474-7.922s-2.414-7.922-5.474-7.922z" fill="#ABB2D0"/><path fill-rule="evenodd" clip-rule="evenodd" d="M41.313 51.5v3.667c0 .376-.305.68-.681.68h-8.966l-.086 3.999h2.348c2.843 0 5.027.817 6.503 2.189 1.477 1.373 2.208 3.269 2.208 5.349 0 2.662-1.012 4.78-2.67 6.226-1.652 1.442-3.918 2.196-6.398 2.196-3.549 0-6.495-1.29-8.54-3.487a.675.675 0 01-.03-.883l2.206-2.743a.695.695 0 011.025-.057c1.26 1.224 3.348 2.158 5.305 2.158 1.25 0 2.139-.367 2.712-.913.573-.545.868-1.303.868-2.157 0-.809-.25-1.525-.888-2.05-.65-.535-1.76-.918-3.576-.918h-5.355a.681.681 0 01-.681-.694l.243-12.575a.681.681 0 01.681-.668h13.09c.377 0 .682.305.682.681zm22.06 2.298c1.93 2.2 3.1 5.376 3.1 9.302 0 3.926-1.17 7.101-3.1 9.301-1.93 2.202-4.601 3.405-7.549 3.405-2.956 0-5.624-1.203-7.548-3.405-1.922-2.2-3.084-5.376-3.084-9.301s1.162-7.1 3.084-9.301c1.924-2.203 4.592-3.405 7.548-3.405 2.948 0 5.62 1.203 7.55 3.404zm-11.121 3.617c-.926 1.246-1.521 3.139-1.521 5.685s.595 4.439 1.52 5.685c.92 1.237 2.177 1.856 3.573 1.856 1.406 0 2.662-.62 3.579-1.856.923-1.246 1.514-3.138 1.514-5.685 0-2.547-.591-4.44-1.514-5.685-.917-1.236-2.173-1.856-3.579-1.856-1.396 0-2.653.62-3.572 1.856zm35.128-3.617c1.928 2.2 3.099 5.376 3.099 9.302 0 3.926-1.17 7.101-3.1 9.301-1.93 2.202-4.602 3.405-7.549 3.405-2.956 0-5.624-1.203-7.548-3.405-1.922-2.2-3.084-5.376-3.084-9.301s1.162-7.1 3.084-9.301c1.924-2.203 4.592-3.405 7.548-3.405 2.948 0 5.62 1.203 7.55 3.404zm-11.122 3.617c-.926 1.246-1.521 3.139-1.521 5.685s.595 4.439 1.52 5.685c.92 1.237 2.176 1.856 3.573 1.856 1.406 0 2.662-.62 3.579-1.856.923-1.246 1.514-3.138 1.514-5.685 0-2.547-.591-4.44-1.514-5.685-.917-1.236-2.174-1.856-3.579-1.856-1.397 0-2.653.62-3.572 1.856zm-20.434-6.64c5.678 0 10.268 4.624 10.268 12.325s-4.59 12.325-10.268 12.325c-5.695 0-10.25-4.624-10.25-12.325s4.555-12.325 10.25-12.325zm0 4.403c-3.043 0-5.474 2.72-5.474 7.922s2.431 7.922 5.474 7.922c3.06 0 5.474-2.72 5.474-7.922s-2.414-7.922-5.474-7.922zM40.632 51.2a.3.3 0 01.3.3v3.667a.3.3 0 01-.3.3h-9.045a.3.3 0 00-.3.294l-.09 4.16a.3.3 0 00.3.306h2.43c5.543 0 8.33 3.179 8.33 7.157 0 5.117-3.875 8.041-8.686 8.041-3.452 0-6.295-1.252-8.262-3.366a.294.294 0 01-.011-.384l2.206-2.744a.314.314 0 01.462-.022c1.328 1.29 3.51 2.266 5.57 2.266 2.653 0 3.962-1.564 3.962-3.451 0-1.785-1.122-3.349-4.845-3.349h-5.355a.3.3 0 01-.3-.306l.243-12.575a.3.3 0 01.3-.294h13.09zm49.466 11.9c0-7.701-4.59-12.325-10.268-12.325-5.695 0-10.251 4.624-10.251 12.325s4.556 12.325 10.251 12.325c5.678 0 10.268-4.624 10.268-12.325zm-15.742 0c0-5.202 2.431-7.922 5.474-7.922 3.06 0 5.474 2.72 5.474 7.922s-2.414 7.922-5.474 7.922c-3.043 0-5.474-2.72-5.474-7.922z" fill="url(#aaesvg_b907f35804__paint10_linear_52_9152)"/><g filter="url(#aaesvg_b907f35804__filter4_d_52_9152)"><g filter="url(#aaesvg_b907f35804__filter5_dii_52_9152)"><circle cx="100" cy="89" r="16" transform="rotate(6.375 100 89)" fill="url(#aaesvg_b907f35804__paint11_linear_52_9152)"/></g><path fill-rule="evenodd" clip-rule="evenodd" d="M101.755 73.297c-8.672-.968-16.488 5.276-17.457 13.948-.969 8.672 5.276 16.488 13.948 17.457 8.672.969 16.488-5.276 17.456-13.948.969-8.672-5.275-16.488-13.947-17.457zM83.9 87.201c.994-8.892 9.007-15.295 17.899-14.301 8.892.993 15.294 9.007 14.301 17.899-.993 8.891-9.007 15.294-17.899 14.301-8.891-.994-15.294-9.007-14.3-17.9z" fill="url(#aaesvg_b907f35804__paint12_linear_52_9152)"/></g><g filter="url(#aaesvg_b907f35804__filter6_d_52_9152)"><path d="M106.617 83.753a1.658 1.658 0 00-2.39-.194l-3.964 3.477-3.218-3.91a1.658 1.658 0 00-2.39-.195 1.79 1.79 0 00-.2 2.466l3.217 3.912-3.808 3.34a1.79 1.79 0 00-.2 2.466 1.659 1.659 0 002.39.195l3.807-3.34 3.35 4.073a1.659 1.659 0 002.39.194 1.79 1.79 0 00.201-2.467l-3.35-4.072 3.965-3.478a1.79 1.79 0 00.2-2.467z" fill="url(#aaesvg_b907f35804__paint13_linear_52_9152)"/><path fill-rule="evenodd" clip-rule="evenodd" d="M100.231 87.42l-3.393-4.125a1.391 1.391 0 00-2.007-.163 1.523 1.523 0 00-.17 2.096l3.382 4.11-4.003 3.511a1.523 1.523 0 00-.17 2.096 1.391 1.391 0 002.007.164l4.015-3.522 3.526 4.286a1.39 1.39 0 002.007.163 1.522 1.522 0 00.171-2.096l-3.515-4.272 4.159-3.649a1.523 1.523 0 00.171-2.096 1.39 1.39 0 00-2.007-.163l-4.173 3.66zm2.98 8.623a1.659 1.659 0 002.39.194 1.79 1.79 0 00.201-2.467l-3.35-4.072 3.965-3.478a1.79 1.79 0 00.2-2.467 1.658 1.658 0 00-2.39-.194l-3.964 3.477-3.218-3.91a1.658 1.658 0 00-2.39-.195 1.79 1.79 0 00-.2 2.466l3.217 3.912-3.808 3.34a1.79 1.79 0 00-.2 2.466 1.659 1.659 0 002.39.195l3.807-3.34 3.35 4.073z" fill="url(#aaesvg_b907f35804__paint14_linear_52_9152)"/></g></g><defs><linearGradient id="aaesvg_b907f35804__paint0_linear_52_9152" x1="89.954" y1="21.354" x2="36.877" y2="122.171" gradientUnits="userSpaceOnUse"><stop stop-color="#EBEBEC"/><stop offset=".855" stop-color="#EDEDEE"/></linearGradient><linearGradient id="aaesvg_b907f35804__paint1_linear_52_9152" x1="19.02" y1="2.851" x2="68.602" y2="97.981" gradientUnits="userSpaceOnUse"><stop stop-color="#E0DEDE"/><stop offset=".192" stop-color="#E7E7E7"/><stop offset=".704" stop-color="#D9D9D9"/><stop offset=".963" stop-color="#C3C3C7"/></linearGradient><linearGradient id="aaesvg_b907f35804__paint2_linear_52_9152" x1="17.75" y1="20.875" x2="26.761" y2="26.79" gradientUnits="userSpaceOnUse"><stop stop-color="#fff"/><stop offset=".855" stop-color="#F3F3F3"/></linearGradient><linearGradient id="aaesvg_b907f35804__paint3_linear_52_9152" x1="16.709" y1="19.504" x2="20.55" y2="26.509" gradientUnits="userSpaceOnUse"><stop stop-color="#E3E3E3"/><stop offset=".963" stop-color="#B4B4B4"/></linearGradient><linearGradient id="aaesvg_b907f35804__paint4_linear_52_9152" x1="28.75" y1="20.875" x2="37.761" y2="26.79" gradientUnits="userSpaceOnUse"><stop stop-color="#fff"/><stop offset=".855" stop-color="#F3F3F3"/></linearGradient><linearGradient id="aaesvg_b907f35804__paint5_linear_52_9152" x1="27.709" y1="19.504" x2="31.55" y2="26.509" gradientUnits="userSpaceOnUse"><stop stop-color="#E3E3E3"/><stop offset=".963" stop-color="#B4B4B4"/></linearGradient><linearGradient id="aaesvg_b907f35804__paint6_linear_52_9152" x1="39.75" y1="20.875" x2="48.761" y2="26.79" gradientUnits="userSpaceOnUse"><stop stop-color="#fff"/><stop offset=".855" stop-color="#F3F3F3"/></linearGradient><linearGradient id="aaesvg_b907f35804__paint7_linear_52_9152" x1="38.709" y1="19.504" x2="42.55" y2="26.509" gradientUnits="userSpaceOnUse"><stop stop-color="#E3E3E3"/><stop offset=".963" stop-color="#B4B4B4"/></linearGradient><linearGradient id="aaesvg_b907f35804__paint8_linear_52_9152" x1="85.452" y1="40.208" x2="53.698" y2="115.464" gradientUnits="userSpaceOnUse"><stop stop-color="#fff"/><stop offset=".855" stop-color="#fff"/></linearGradient><linearGradient id="aaesvg_b907f35804__paint9_linear_52_9152" x1="24.513" y1="27.468" x2="54.137" y2="98.386" gradientUnits="userSpaceOnUse"><stop stop-color="#E2E2E2"/><stop offset=".192" stop-color="#EEE"/><stop offset=".704" stop-color="#E3E3E3"/><stop offset=".963" stop-color="#C3C3C7"/></linearGradient><linearGradient id="aaesvg_b907f35804__paint10_linear_52_9152" x1="50.205" y1="55.345" x2="54.444" y2="74.893" gradientUnits="userSpaceOnUse"><stop offset=".01" stop-color="#9DA6C7"/><stop offset="1" stop-color="#939BBC"/></linearGradient><linearGradient id="aaesvg_b907f35804__paint11_linear_52_9152" x1="95.176" y1="71.741" x2="114.485" y2="97.432" gradientUnits="userSpaceOnUse"><stop stop-color="#6397FD"/><stop offset="1" stop-color="#216BFA"/></linearGradient><linearGradient id="aaesvg_b907f35804__paint12_linear_52_9152" x1="96.869" y1="81.819" x2="107.307" y2="101.074" gradientUnits="userSpaceOnUse"><stop stop-color="#6C9EFF"/><stop offset="1" stop-color="#154CB7"/></linearGradient><linearGradient id="aaesvg_b907f35804__paint13_linear_52_9152" x1="104.728" y1="84.735" x2="95.837" y2="98.573" gradientUnits="userSpaceOnUse"><stop stop-color="#fff"/><stop offset=".855" stop-color="#fff"/></linearGradient><linearGradient id="aaesvg_b907f35804__paint14_linear_52_9152" x1="95.26" y1="81.514" x2="102.166" y2="95.381" gradientUnits="userSpaceOnUse"><stop stop-color="#fff"/><stop offset=".963" stop-color="#EAEAEA"/></linearGradient><filter id="aaesvg_b907f35804__filter0_dii_52_9152" x="7.529" y="12.529" width="101.883" height="91.355" filterUnits="userSpaceOnUse" color-interpolation-filters="sRGB"><feFlood flood-opacity="0" result="BackgroundImageFix"/><feColorMatrix in="SourceAlpha" values="0 0 0 0 0 0 0 0 0 0 0 0 0 0 0 0 0 0 127 0" result="hardAlpha"/><feOffset dx=".471" dy=".942"/><feGaussianBlur stdDeviation=".471"/><feComposite in2="hardAlpha" operator="out"/><feColorMatrix values="0 0 0 0 0 0 0 0 0 0 0 0 0 0 0 0 0 0 0.1 0"/><feBlend in2="BackgroundImageFix" result="effect1_dropShadow_52_9152"/><feBlend in="SourceGraphic" in2="effect1_dropShadow_52_9152" result="shape"/><feColorMatrix in="SourceAlpha" values="0 0 0 0 0 0 0 0 0 0 0 0 0 0 0 0 0 0 127 0" result="hardAlpha"/><feOffset dx="1.413" dy="1.413"/><feGaussianBlur stdDeviation=".471"/><feComposite in2="hardAlpha" operator="arithmetic" k2="-1" k3="1"/><feColorMatrix values="0 0 0 0 1 0 0 0 0 1 0 0 0 0 1 0 0 0 1 0"/><feBlend in2="shape" result="effect2_innerShadow_52_9152"/><feColorMatrix in="SourceAlpha" values="0 0 0 0 0 0 0 0 0 0 0 0 0 0 0 0 0 0 127 0" result="hardAlpha"/><feOffset dx="-1.413" dy="-1.413"/><feGaussianBlur stdDeviation=".236"/><feComposite in2="hardAlpha" operator="arithmetic" k2="-1" k3="1"/><feColorMatrix values="0 0 0 0 0.879167 0 0 0 0 0.879167 0 0 0 0 0.879167 0 0 0 1 0"/><feBlend in2="effect2_innerShadow_52_9152" result="effect3_innerShadow_52_9152"/></filter><filter id="aaesvg_b907f35804__filter1_di_52_9152" x="15.4" y="19.9" width="8.606" height="8.2" filterUnits="userSpaceOnUse" color-interpolation-filters="sRGB"><feFlood flood-opacity="0" result="BackgroundImageFix"/><feColorMatrix in="SourceAlpha" values="0 0 0 0 0 0 0 0 0 0 0 0 0 0 0 0 0 0 127 0" result="hardAlpha"/><feOffset dy=".5"/><feGaussianBlur stdDeviation=".3"/><feComposite in2="hardAlpha" operator="out"/><feColorMatrix values="0 0 0 0 0 0 0 0 0 0 0 0 0 0 0 0 0 0 0.12 0"/><feBlend in2="BackgroundImageFix" result="effect1_dropShadow_52_9152"/><feBlend in="SourceGraphic" in2="effect1_dropShadow_52_9152" result="shape"/><feColorMatrix in="SourceAlpha" values="0 0 0 0 0 0 0 0 0 0 0 0 0 0 0 0 0 0 127 0" result="hardAlpha"/><feOffset dx="1.51" dy="1.51"/><feGaussianBlur stdDeviation=".503"/><feComposite in2="hardAlpha" operator="arithmetic" k2="-1" k3="1"/><feColorMatrix values="0 0 0 0 1 0 0 0 0 1 0 0 0 0 1 0 0 0 1 0"/><feBlend in2="shape" result="effect2_innerShadow_52_9152"/></filter><filter id="aaesvg_b907f35804__filter2_di_52_9152" x="26.4" y="19.9" width="8.606" height="8.2" filterUnits="userSpaceOnUse" color-interpolation-filters="sRGB"><feFlood flood-opacity="0" result="BackgroundImageFix"/><feColorMatrix in="SourceAlpha" values="0 0 0 0 0 0 0 0 0 0 0 0 0 0 0 0 0 0 127 0" result="hardAlpha"/><feOffset dy=".5"/><feGaussianBlur stdDeviation=".3"/><feComposite in2="hardAlpha" operator="out"/><feColorMatrix values="0 0 0 0 0 0 0 0 0 0 0 0 0 0 0 0 0 0 0.12 0"/><feBlend in2="BackgroundImageFix" result="effect1_dropShadow_52_9152"/><feBlend in="SourceGraphic" in2="effect1_dropShadow_52_9152" result="shape"/><feColorMatrix in="SourceAlpha" values="0 0 0 0 0 0 0 0 0 0 0 0 0 0 0 0 0 0 127 0" result="hardAlpha"/><feOffset dx="1.51" dy="1.51"/><feGaussianBlur stdDeviation=".503"/><feComposite in2="hardAlpha" operator="arithmetic" k2="-1" k3="1"/><feColorMatrix values="0 0 0 0 1 0 0 0 0 1 0 0 0 0 1 0 0 0 1 0"/><feBlend in2="shape" result="effect2_innerShadow_52_9152"/></filter><filter id="aaesvg_b907f35804__filter3_di_52_9152" x="37.4" y="19.9" width="8.606" height="8.2" filterUnits="userSpaceOnUse" color-interpolation-filters="sRGB"><feFlood flood-opacity="0" result="BackgroundImageFix"/><feColorMatrix in="SourceAlpha" values="0 0 0 0 0 0 0 0 0 0 0 0 0 0 0 0 0 0 127 0" result="hardAlpha"/><feOffset dy=".5"/><feGaussianBlur stdDeviation=".3"/><feComposite in2="hardAlpha" operator="out"/><feColorMatrix values="0 0 0 0 0 0 0 0 0 0 0 0 0 0 0 0 0 0 0.12 0"/><feBlend in2="BackgroundImageFix" result="effect1_dropShadow_52_9152"/><feBlend in="SourceGraphic" in2="effect1_dropShadow_52_9152" result="shape"/><feColorMatrix in="SourceAlpha" values="0 0 0 0 0 0 0 0 0 0 0 0 0 0 0 0 0 0 127 0" result="hardAlpha"/><feOffset dx="1.51" dy="1.51"/><feGaussianBlur stdDeviation=".503"/><feComposite in2="hardAlpha" operator="arithmetic" k2="-1" k3="1"/><feColorMatrix values="0 0 0 0 1 0 0 0 0 1 0 0 0 0 1 0 0 0 1 0"/><feBlend in2="shape" result="effect2_innerShadow_52_9152"/></filter><filter id="aaesvg_b907f35804__filter4_d_52_9152" x="79.799" y="69.798" width="40.402" height="40.403" filterUnits="userSpaceOnUse" color-interpolation-filters="sRGB"><feFlood flood-opacity="0" result="BackgroundImageFix"/><feColorMatrix in="SourceAlpha" values="0 0 0 0 0 0 0 0 0 0 0 0 0 0 0 0 0 0 127 0" result="hardAlpha"/><feOffset dy="1"/><feGaussianBlur stdDeviation="2"/><feComposite in2="hardAlpha" operator="out"/><feColorMatrix values="0 0 0 0 0 0 0 0 0 0 0 0 0 0 0 0 0 0 0.2 0"/><feBlend in2="BackgroundImageFix" result="effect1_dropShadow_52_9152"/><feBlend in="SourceGraphic" in2="effect1_dropShadow_52_9152" result="shape"/></filter><filter id="aaesvg_b907f35804__filter5_dii_52_9152" x="83.199" y="72.198" width="33.603" height="34.003" filterUnits="userSpaceOnUse" color-interpolation-filters="sRGB"><feFlood flood-opacity="0" result="BackgroundImageFix"/><feColorMatrix in="SourceAlpha" values="0 0 0 0 0 0 0 0 0 0 0 0 0 0 0 0 0 0 127 0" result="hardAlpha"/><feOffset dy=".4"/><feGaussianBlur stdDeviation=".4"/><feComposite in2="hardAlpha" operator="out"/><feColorMatrix values="0 0 0 0 0.705801 0 0 0 0 0.705801 0 0 0 0 0.720866 0 0 0 1 0"/><feBlend in2="BackgroundImageFix" result="effect1_dropShadow_52_9152"/><feBlend in="SourceGraphic" in2="effect1_dropShadow_52_9152" result="shape"/><feColorMatrix in="SourceAlpha" values="0 0 0 0 0 0 0 0 0 0 0 0 0 0 0 0 0 0 127 0" result="hardAlpha"/><feOffset dx=".8" dy=".5"/><feGaussianBlur stdDeviation=".4"/><feComposite in2="hardAlpha" operator="arithmetic" k2="-1" k3="1"/><feColorMatrix values="0 0 0 0 0.658333 0 0 0 0 0.775 0 0 0 0 1 0 0 0 1 0"/><feBlend in2="shape" result="effect2_innerShadow_52_9152"/><feColorMatrix in="SourceAlpha" values="0 0 0 0 0 0 0 0 0 0 0 0 0 0 0 0 0 0 127 0" result="hardAlpha"/><feOffset dx="-.4" dy="-.8"/><feGaussianBlur stdDeviation=".4"/><feComposite in2="hardAlpha" operator="arithmetic" k2="-1" k3="1"/><feColorMatrix values="0 0 0 0 0.0750695 0 0 0 0 0.314483 0 0 0 0 0.783333 0 0 0 1 0"/><feBlend in2="effect2_innerShadow_52_9152" result="effect3_innerShadow_52_9152"/></filter><filter id="aaesvg_b907f35804__filter6_d_52_9152" x="92.763" y="82.512" width="14.755" height="15.145" filterUnits="userSpaceOnUse" color-interpolation-filters="sRGB"><feFlood flood-opacity="0" result="BackgroundImageFix"/><feColorMatrix in="SourceAlpha" values="0 0 0 0 0 0 0 0 0 0 0 0 0 0 0 0 0 0 127 0" result="hardAlpha"/><feOffset dy=".5"/><feGaussianBlur stdDeviation=".25"/><feComposite in2="hardAlpha" operator="out"/><feColorMatrix values="0 0 0 0 0.161944 0 0 0 0 0.407217 0 0 0 0 0.883333 0 0 0 1 0"/><feBlend in2="BackgroundImageFix" result="effect1_dropShadow_52_9152"/><feBlend in="SourceGraphic" in2="effect1_dropShadow_52_9152" result="shape"/></filter><clipPath id="aaesvg_b907f35804__clip0_52_9152"><path fill="#fff" d="M0 0h120v120H0z"/></clipPath></defs></svg>
