<svg xmlns="http://www.w3.org/2000/svg" viewBox="0 0 48 48" fill="none"><path fill-rule="evenodd" clip-rule="evenodd" d="M24.854 1.255l.145.092 1.077.757c.083.059.162.123.234.194-.104-.101-.018-.045-.078-.085l-.024-.017.076.051.11.073.124.08c.373.24.816.51 1.318.796a37.83 37.83 0 004.824 2.306c1.659.654 3.43 1.093 5.19 1.353.619.092 1.191.154 1.7.192.252.02.47.03.564.033h.036l1.783.03a1.91 1.91 0 011.879 1.907v.025l.001 1.812.002 4.38v1.93l.001.187v1.933l.002 3.656v3.689l-.001.046v.014c-.014 9.194-11.785 20.13-19.911 20.13-8.042 0-19.661-10.723-19.902-19.86L4 26.673V9.018a1.91 1.91 0 011.731-1.901l.148-.008 1.818-.028c.026 0 .275-.012.568-.034.509-.038 1.08-.1 1.7-.192 1.759-.26 3.53-.699 5.184-1.352a38.254 38.254 0 004.825-2.31 26.63 26.63 0 001.717-1.056l.038-.028 1.068-.757a1.91 1.91 0 012.057-.097zm-.951 3.994a28.96 28.96 0 01-2.04 1.261 42.053 42.053 0 01-5.31 2.544c-1.953.77-4 1.278-6.03 1.579a26.12 26.12 0 01-2.58.261l-.125.004v15.774C7.818 33.695 17.828 43 23.906 43c6.01 0 15.858-9.086 16.089-16.08l.004-.248v-.632l.001-.125v-1.999l-.001-4.174-.001-1.896-.001-2.61-.002-4.339c-.531-.012-1.565-.096-2.703-.264-2.03-.3-4.078-.808-6.033-1.58-3.093-1.22-6.283-2.988-7.356-3.804zM24 13.5a4.5 4.5 0 014.5 4.5v3H31a2 2 0 012 2v9a2 2 0 01-2 2H17a2 2 0 01-2-2v-9a2 2 0 012-2h2.5v-3a4.5 4.5 0 014.288-4.495L24 13.5zM29 25H19v5h10v-5zm-5-8.5a1.5 1.5 0 00-1.5 1.5v3h3v-3a1.5 1.5 0 00-1.355-1.493L24 16.5z" fill="currentColor"/></svg>
