<svg xmlns="http://www.w3.org/2000/svg" viewBox="0 -0.5 49 49" fill="none"><path d="M35.472 35.26c4.64-3.04 7.703-8.284 7.703-14.245 0-9.4-7.62-17.019-17.019-17.019-7.413 0-13.719 4.74-16.053 11.353L5.072 26.88a2.12 2.12 0 001.943 2.968H9.51v6.068c0 1.17.949 2.12 2.12 2.12h4.928v5.961h18.913v-8.735z" fill="url(#aagsvg_88fa1f123a__paint0_linear_7496_35610)"/><mask id="aaga" style="mask-type:alpha" maskUnits="userSpaceOnUse" x="4" y="3" width="40" height="41"><path d="M35.472 35.26c4.64-3.04 7.703-8.284 7.703-14.245 0-9.4-7.62-17.019-17.019-17.019-7.413 0-13.719 4.74-16.053 11.353L5.072 26.88a2.12 2.12 0 001.943 2.968H9.51v6.068c0 1.17.949 2.12 2.12 2.12h4.928v5.961h18.913v-8.735z" fill="url(#aagsvg_88fa1f123a__paint1_linear_7496_35610)"/></mask><g mask="url(#aaga)"><path fill-rule="evenodd" clip-rule="evenodd" d="M32.645 12.991a3.617 3.617 0 110-3h10.65v3h-10.65zm12.814 8.832H25.746v-3H45.46v3zm-13.95 8.83h13.95v-3H31.51v3z" fill="#B5BCC9"/><g filter="url(#aagsvg_88fa1f123a__filter0_d_7496_35610)"><circle cx="23.281" cy="20.323" r="3.617" fill="#fff"/></g><g filter="url(#aagsvg_88fa1f123a__filter1_d_7496_35610)"><circle cx="29.353" cy="29.155" r="3.617" fill="#fff"/></g></g><defs><linearGradient id="aagsvg_88fa1f123a__paint0_linear_7496_35610" x1="24.034" y1="3.996" x2="24.034" y2="43.996" gradientUnits="userSpaceOnUse"><stop stop-color="#818A9C"/><stop offset="1" stop-color="#353D51"/></linearGradient><linearGradient id="aagsvg_88fa1f123a__paint1_linear_7496_35610" x1="24.034" y1="3.996" x2="24.034" y2="43.996" gradientUnits="userSpaceOnUse"><stop stop-color="#818A9C"/><stop offset="1" stop-color="#353D51"/></linearGradient><filter id="aagsvg_88fa1f123a__filter0_d_7496_35610" x="11.664" y="10.706" width="23.233" height="23.233" filterUnits="userSpaceOnUse" color-interpolation-filters="sRGB"><feFlood flood-opacity="0" result="BackgroundImageFix"/><feColorMatrix in="SourceAlpha" values="0 0 0 0 0 0 0 0 0 0 0 0 0 0 0 0 0 0 127 0" result="hardAlpha"/><feOffset dy="2"/><feGaussianBlur stdDeviation="4"/><feComposite in2="hardAlpha" operator="out"/><feColorMatrix values="0 0 0 0 0 0 0 0 0 0 0 0 0 0 0 0 0 0 0.15 0"/><feBlend in2="BackgroundImageFix" result="effect1_dropShadow_7496_35610"/><feBlend in="SourceGraphic" in2="effect1_dropShadow_7496_35610" result="shape"/></filter><filter id="aagsvg_88fa1f123a__filter1_d_7496_35610" x="17.736" y="19.538" width="23.233" height="23.233" filterUnits="userSpaceOnUse" color-interpolation-filters="sRGB"><feFlood flood-opacity="0" result="BackgroundImageFix"/><feColorMatrix in="SourceAlpha" values="0 0 0 0 0 0 0 0 0 0 0 0 0 0 0 0 0 0 127 0" result="hardAlpha"/><feOffset dy="2"/><feGaussianBlur stdDeviation="4"/><feComposite in2="hardAlpha" operator="out"/><feColorMatrix values="0 0 0 0 0 0 0 0 0 0 0 0 0 0 0 0 0 0 0.15 0"/><feBlend in2="BackgroundImageFix" result="effect1_dropShadow_7496_35610"/><feBlend in="SourceGraphic" in2="effect1_dropShadow_7496_35610" result="shape"/></filter></defs></svg>
