<svg xmlns="http://www.w3.org/2000/svg" viewBox="0 0 20 20" fill="none"><path fill-rule="evenodd" clip-rule="evenodd" d="M9.588 1.734a.776.776 0 01.623 0l6.647 2.91a.776.776 0 01.465.71V8.39c0 3.22-1.067 5.326-2.456 7.035-1.258 1.548-3.03 2.724-4.759 3.294a.664.664 0 01-.417.002c-.692-.227-2.97-1.107-4.758-3.316-1.78-2.198-2.43-4.335-2.43-7.171L2.5 6.63 2.5 5.354c0-.308.182-.587.464-.71l6.624-2.91zm.528 4.085a.218.218 0 00-.41 0L8.725 8.49a.218.218 0 01-.13.13L5.924 9.6c-.19.07-.19.34 0 .41l2.671.981c.06.022.108.07.13.13l.981 2.671c.07.19.34.19.41 0l.981-2.671a.218.218 0 01.13-.13l2.671-.981c.19-.07.19-.34 0-.41l-2.671-.981a.218.218 0 01-.13-.13l-.981-2.671z" fill="currentColor"/></svg>
