<svg xmlns="http://www.w3.org/2000/svg" viewBox="0 -0.5 49 49" fill="none"><path fill-rule="evenodd" clip-rule="evenodd" d="M31.146 42.806h4.432V44H16.665v-5.962h-4.928a2.12 2.12 0 01-2.12-2.12v-6.067H7.12a2.12 2.12 0 01-1.943-2.968l5.031-11.53C12.543 8.74 18.849 4 26.262 4c9.4 0 17.02 7.62 17.02 17.02 0 .992-.085 1.965-.249 2.91H31.414l-.558-2.694H19.998v16.909h13.82c.38-.303.759-.62 1.134-.954a23.025 23.025 0 001.573-1.535c-.411-.522-.8-1.076-1.166-1.663l-.002-.003a19.518 19.518 0 01-1.09-2.095h-1.378v-2.091h3.713l-.02-.06-.002-.003a2.212 2.212 0 00-.126-.32l-.26-.477h2.883l.084.198a13.095 13.095 0 01.236.661h3.707v2.092h-1.31a13.541 13.541 0 01-.975 2.038c-.357.611-.75 1.195-1.18 1.751.449.477.928.948 1.438 1.415.584.535 1.207 1.08 1.869 1.637l.68.57h-3.438l-.09-.075a63.125 63.125 0 01-1.164-1.004l-.002-.002a20.544 20.544 0 01-.835-.797c-.3.3-.603.584-.912.853-.38.337-.763.656-1.15.958l-.088.068h-2.389l-2.412 3.499zm5.7-10.911c.158.315.33.625.517.928.212.336.441.668.688.997.254-.346.485-.691.694-1.036l.002-.003c.186-.3.349-.595.489-.886h-2.39z" fill="currentColor"/><g opacity=".5"><path d="M25.472 31.154l1.237-4.009 1.241 4.009h-2.478z" fill="currentColor"/><path fill-rule="evenodd" clip-rule="evenodd" d="M19.998 21.236h10.858l.558 2.694h13.003v18.876h-13.27l2.411-3.5h2.389l.087-.067c.388-.302.771-.621 1.151-.958.309-.269.613-.553.912-.853.272.275.55.54.835.797l.002.002c.37.328.759.662 1.164 1.004l.09.076h3.437l-.68-.571a58.588 58.588 0 01-1.868-1.637c-.51-.467-.99-.938-1.439-1.415.43-.556.824-1.14 1.18-1.751.378-.641.703-1.32.976-2.038h1.31v-2.091h-3.707a13.095 13.095 0 00-.236-.662l-.084-.198h-2.884l.261.478c.028.051.07.153.126.319l.001.004.02.059H32.89v2.09h1.377c.347.77.71 1.469 1.091 2.096l.002.003c.366.587.755 1.141 1.166 1.663a23.025 23.025 0 01-1.573 1.535c-.375.333-.753.651-1.133.953h-13.82V21.236zm8.016 2.695l4.256 11.518h-2.99l-.666-2.151H24.81l-.664 2.151h-2.983l4.233-11.518h2.618z" fill="currentColor"/><path d="M37.363 32.823a12.233 12.233 0 01-.517-.928h2.39c-.14.29-.303.586-.49.886l-.001.003c-.21.345-.44.69-.694 1.036a14.845 14.845 0 01-.688-.997z" fill="currentColor"/></g></svg>
