<svg xmlns="http://www.w3.org/2000/svg" viewBox="0 0 24 24" fill="none"><path fill-rule="evenodd" clip-rule="evenodd" d="M11.883 1.38a.9.9 0 00-.573.12l-.028.013a.9.9 0 00-.262.182L6.716 6H2a1 1 0 00-1 1v14a1 1 0 001 1h20a1 1 0 001-1V7a1 1 0 00-1-1h-5.227l-4.364-4.363a.9.9 0 00-.526-.258zM14.227 6l-2.483-2.483L9.261 6h4.966zM12.5 15a.5.5 0 01.5.5v1a.5.5 0 01-.5.5h-5a.5.5 0 01-.5-.5v-1a.5.5 0 01.5-.5h5zm4-4a.5.5 0 01.5.5v1a.5.5 0 01-.5.5h-9a.5.5 0 01-.5-.5v-1a.5.5 0 01.5-.5h9z" fill="currentColor"/></svg>
