<svg xmlns="http://www.w3.org/2000/svg" viewBox="0 0 24 24" fill="none"><g clip-path="url(#aalsvg_db97423871__clip0_7851_158)"><path d="M18 0H6a6 6 0 00-6 6v12a6 6 0 006 6h12a6 6 0 006-6V6a6 6 0 00-6-6z" fill="#F1F3F5"/><path fill-rule="evenodd" clip-rule="evenodd" d="M1.86 16.186c-.119.303-.196.586-.168.643.04.058 3.907.077 10.217.063l10.16-.028v-1.226H2.079l-.218.548zm.578-1.563c-.132.171-.216.387-.188.453.038.112.274.14 1.137.14.593 0 1.104-.035 1.141-.084.028-.05 0-.2-.056-.321-.084-.19-.066-.34.103-.783.064-.195.392-1.09.67-1.855l.387-1.06c.16-.465.359-.955.424-1.076L6.17 9.8l.103.265c.044.143.668 1.964.696 2.039.047.122-.056.14-.727.112-.895-.037-.904-.028-1.15.717-.256.783-.246.793 1.225.755l1.282-.028.134.473c.075.265.131.603.113.755l-.02.281h6.409l-.038-.28c-.01-.153-.047-1.644-.075-3.294l-.037-3.01.593.066c1.132.113 1.65.755 1.565 1.943-.028.441-.094.633-.32.914-.303.378-1.037.802-1.255.727-.253-.087-.386.16-.386.708 0 .293.046.586.112.651.152.15 1.219.141 1.915-.018a3.6 3.6 0 001.905-1.133c.652-.717.945-1.877.69-2.725-.254-.858-.394-1.085-1.027-1.594-.34-.274-.877-.621-1.095-.727-.239-.12-1.394-.293-3.452-.293-2.377 0-2.473.029-2.208.528.115.227.143.81.143 3.48 0 1.763-.028 3.368-.056 3.565l-.066.359-.293-.5c-.162-.271-2.632-6.801-2.66-6.96-.035-.15-.112-.322-.178-.378-.075-.065-.661-.094-1.566-.075l-1.453.028.019.33c.01.179-.066.568-.169.85-.094.285-2.27 6.126-2.404 6.292zm16.46.188c-.085.162-.132.32-.104.349.068.075 3.37.075 3.443 0 .026-.038-.03-.227-.133-.434-.178-.34-.188-.546-.178-3.583.011-3.094.02-3.225.208-3.48.387-.521.265-.559-1.612-.559-1.784 0-1.945.038-1.624.415.133.15.152.575.152 3.584 0 2.972-.019 3.443-.152 3.708z" fill="#3C3A7E"/><path d="M1.692 16.83c-.028-.057.05-.34.169-.643l.218-.548h19.99v1.226l-10.16.027c-6.31.015-10.177-.004-10.217-.063z" fill="#E3322B"/></g><defs><clipPath id="aalsvg_db97423871__clip0_7851_158"><path fill="#fff" d="M0 0h24v24H0z"/></clipPath></defs></svg>
