<svg xmlns="http://www.w3.org/2000/svg" viewBox="0 0 20 20" fill="none"><style>.aassvg_991c8fb340__svg_b6e0603c15__st0,.aassvg_991c8fb340__svg_b6e0603c15__st1{fill:currentColor}.aassvg_991c8fb340__svg_b6e0603c15__st1{opacity:.5;enable-background:new}</style><path class="aassvg_991c8fb340__svg_b6e0603c15__st0" d="M9.2 8.3V7.1c-1 .3-1.8 1.1-2.1 2.1h1.2c.5 0 .9-.4.9-.9zM9.2 5.1V3.4c0-.5-.4-.9-.9-.9h-5c-.5 0-.9.4-.9.9v5c0 .5.4.9.9.9H5c.4-2.2 2.1-3.9 4.2-4.2zM8.3 10.8H7.1c.3 1 1.1 1.8 2.1 2.1v-1.2c0-.5-.4-.9-.9-.9zM5.1 10.8H3.4c-.5 0-.9.4-.9.9v5c0 .5.4.9.9.9h5c.5 0 .9-.4.9-.9V15c-2.2-.4-3.9-2.1-4.2-4.2zM16.6 10.8h-1.7c-.1.8-.4 1.5-.9 2.1l2.9 2.9-1.3 1.3-2.9-2.9c-.6.4-1.2.6-2 .8v1.7c0 .5.4.9.9.9h5c.5 0 .9-.4.9-.9v-5c0-.5-.4-.9-.9-.9zM10.8 11.7v1.2c1-.3 1.8-1.1 2.1-2.1h-1.2c-.5 0-.9.4-.9.9z" fill="currentColor"/><path class="aassvg_991c8fb340__svg_b6e0603c15__st1" d="M11.7 9.2h1.2c-.3-1-1.1-1.8-2.1-2.1v1.2c0 .5.4.9.9.9zM14.9 9.2h1.7c.5 0 .9-.4.9-.9v-5c0-.5-.4-.9-.9-.9h-5c-.5 0-.9.4-.9.9V5c2.2.4 3.9 2.1 4.2 4.2z" fill="currentColor"/></svg>
