<svg xmlns="http://www.w3.org/2000/svg" viewBox="0 0 48 48" fill="none"><path d="M24.118 0c-.75 0-1.382.523-1.457 1.216-.015.125-.026.253-.041.377-.505 4.993-.784 9.998-.531 15.006.128 2.5.99 27.074 1.107 30.516a.914.914 0 00.922.885.912.912 0 00.912-.885c.131-3.879.99-28.016 1.118-30.516.252-5.012-.026-10.013-.531-15.006-.015-.124-.026-.252-.041-.377C25.5.523 24.864 0 24.118 0z" fill="url(#aatsvg_060074546d__paint0_linear_77989_2919)"/><path d="M13.352 25.629c-.124-.908-.207-1.785-.433-2.636-.136-.512-.625-.877-1.194-.877-.568 0-1.058.365-1.193.877-.226.855-.31 1.732-.434 2.636-.248 1.634.034 3.253.181 4.869.106 1.216.366 4.03.52 5.238.026.215.056.43.087.648a.846.846 0 00.84.783c.444 0 .809-.347.839-.784.026-.214.056-.429.087-.647.154-1.209.414-4.022.52-5.238.146-1.616.428-3.235.18-4.869z" fill="url(#aatsvg_060074546d__paint1_linear_77989_2919)"/><path d="M32.09 10.706c-.023-.211-.064-.415-.098-.625-.09-.565-.61-.98-1.224-.98h-.083c-.614 0-1.13.419-1.224.98-.034.207-.075.414-.098.625-.523 5.083-.62 6.435-.482 11.274.034 1.152.539 14.588.92 20.33.03.46.414.817.877.817.018 0 .034-.003.052-.003.02 0 .034.003.053.003a.877.877 0 00.877-.817c.38-5.742.885-19.178.92-20.33.139-4.839.037-6.19-.483-11.274h-.007z" fill="url(#aatsvg_060074546d__paint2_linear_77989_2919)"/><path d="M38.133 25.629c-.124-.908-.207-1.785-.433-2.636-.135-.512-.625-.877-1.194-.877-.568 0-1.058.365-1.193.877-.226.855-.309 1.732-.433 2.636-.249 1.634.034 3.253.18 4.869.106 1.216.366 4.03.52 5.238.027.215.057.43.087.648a.846.846 0 00.84.783c.444 0 .81-.347.84-.784.026-.214.056-.429.086-.647.154-1.209.414-4.022.52-5.238.146-1.616.429-3.235.18-4.869z" fill="url(#aatsvg_060074546d__paint3_linear_77989_2919)"/><path d="M18.872 10.706c-.023-.211-.064-.415-.098-.625-.09-.565-.61-.98-1.224-.98h-.083c-.613 0-1.13.419-1.223.98-.034.207-.076.414-.098.625-.524 5.083-.622 6.435-.482 11.274.034 1.152.538 14.588.918 20.33.03.46.415.817.878.817.019 0 .034-.003.053-.003.018 0 .034.003.052.003a.877.877 0 00.878-.817c.38-5.742.885-19.178.918-20.33.14-4.839.038-6.19-.482-11.274h-.007z" fill="url(#aatsvg_060074546d__paint4_linear_77989_2919)"/><defs><linearGradient id="aatsvg_060074546d__paint0_linear_77989_2919" x1="24.118" y1="54.518" x2="24.118" y2="1.585" gradientUnits="userSpaceOnUse"><stop offset=".12" stop-color="#CB63FF"/><stop offset=".24" stop-color="#936CFF"/><stop offset=".38" stop-color="#5476FF"/><stop offset=".5" stop-color="#267DFF"/><stop offset=".6" stop-color="#0A82FF"/><stop offset=".65" stop-color="#0084FF"/><stop offset=".96" stop-color="#25DFF7"/></linearGradient><linearGradient id="aatsvg_060074546d__paint1_linear_77989_2919" x1="11.725" y1="54.519" x2="11.725" y2="1.586" gradientUnits="userSpaceOnUse"><stop offset=".12" stop-color="#CB63FF"/><stop offset=".24" stop-color="#936CFF"/><stop offset=".38" stop-color="#5476FF"/><stop offset=".5" stop-color="#267DFF"/><stop offset=".6" stop-color="#0A82FF"/><stop offset=".65" stop-color="#0084FF"/><stop offset=".96" stop-color="#25DFF7"/></linearGradient><linearGradient id="aatsvg_060074546d__paint2_linear_77989_2919" x1="30.727" y1="54.518" x2="30.727" y2="1.585" gradientUnits="userSpaceOnUse"><stop offset=".12" stop-color="#CB63FF"/><stop offset=".24" stop-color="#936CFF"/><stop offset=".38" stop-color="#5476FF"/><stop offset=".5" stop-color="#267DFF"/><stop offset=".6" stop-color="#0A82FF"/><stop offset=".65" stop-color="#0084FF"/><stop offset=".96" stop-color="#25DFF7"/></linearGradient><linearGradient id="aatsvg_060074546d__paint3_linear_77989_2919" x1="36.507" y1="54.519" x2="36.507" y2="1.586" gradientUnits="userSpaceOnUse"><stop offset=".12" stop-color="#CB63FF"/><stop offset=".24" stop-color="#936CFF"/><stop offset=".38" stop-color="#5476FF"/><stop offset=".5" stop-color="#267DFF"/><stop offset=".6" stop-color="#0A82FF"/><stop offset=".65" stop-color="#0084FF"/><stop offset=".96" stop-color="#25DFF7"/></linearGradient><linearGradient id="aatsvg_060074546d__paint4_linear_77989_2919" x1="17.509" y1="54.518" x2="17.509" y2="1.585" gradientUnits="userSpaceOnUse"><stop offset=".12" stop-color="#CB63FF"/><stop offset=".24" stop-color="#936CFF"/><stop offset=".38" stop-color="#5476FF"/><stop offset=".5" stop-color="#267DFF"/><stop offset=".6" stop-color="#0A82FF"/><stop offset=".65" stop-color="#0084FF"/><stop offset=".96" stop-color="#25DFF7"/></linearGradient></defs></svg>
