<svg xmlns="http://www.w3.org/2000/svg" viewBox="0 -0.5 49 49" fill="none"><path fill-rule="evenodd" clip-rule="evenodd" d="M8.605 43.152a2.57 2.57 0 11-3.813-3.45l11.242-12.43a3.085 3.085 0 014.258-.304l5.574 4.624 10.605-13.188H24.696c-.71 0-1.285-.575-1.285-1.285V14.57c0-.71.575-1.285 1.285-1.285h19.289a1.282 1.282 0 011.286 1.286v19.181c0 .71-.576 1.286-1.286 1.286h-2.572c-.71 0-1.286-.576-1.286-1.286v-11.69L28.565 36.44a3.085 3.085 0 01-4.374.441l-5.665-4.699-9.92 10.969z" fill="#141414" fill-opacity=".08"/><path fill-rule="evenodd" clip-rule="evenodd" d="M8.605 40.152a2.57 2.57 0 11-3.813-3.45l11.242-12.43a3.085 3.085 0 014.258-.304l5.574 4.624 10.605-13.188H24.696c-.71 0-1.285-.575-1.285-1.285V11.57c0-.71.575-1.285 1.285-1.285h19.289a1.282 1.282 0 011.286 1.286v19.181c0 .71-.576 1.286-1.286 1.286h-2.572c-.71 0-1.286-.576-1.286-1.286v-11.69L28.565 33.44a3.085 3.085 0 01-4.374.441l-5.665-4.699-9.92 10.969z" fill="#D7312A"/></svg>
