<svg xmlns="http://www.w3.org/2000/svg" viewBox="0 0 48 48" fill="none"><path fill-rule="evenodd" clip-rule="evenodd" d="M11.558 6.447a1 1 0 01.442.83V43a1 1 0 01-1 1H9a1 1 0 01-1-1V18H3.17a.6.6 0 01-.487-.95L10.01 6.873c.056-.077.122-.145.193-.201l.038-.048a1 1 0 011.317-.178zM43 36a1 1 0 011 1v2a1 1 0 01-1 1H17a1 1 0 01-1-1v-2a1 1 0 011-1h26zm-6-13a1 1 0 011 1v2a1 1 0 01-1 1H17a1 1 0 01-1-1v-2a1 1 0 011-1h20zm-6-13a1 1 0 011 1v2a1 1 0 01-1 1H17a1 1 0 01-1-1v-2a1 1 0 011-1h14z" fill="currentColor"/></svg>
