<svg xmlns="http://www.w3.org/2000/svg" viewBox="0 0 24 24" fill="none"><path d="M14.138 19.265c.101-.303.455-.841.455-.841l-.404-.843-.539.54-.64.354.505.841c-.034 0 .522.253.623-.05zm-1.498.253l-.69-.842-.69-.842h-.355l.741 1.246c.152.253.69.943.69.943s.64.303.994.354c.354.05.539.05.539.05l.842.152-1.045-.505-1.026-.556zm2.239-.151l.05-.539-.454.588.404-.05zM5.484 4.397c.64-.1 1.347-.538 1.347-.538l-1.195.05s-.943.202-1.146.455c-.2.253-.302.54-.302.54l.538.1c.017-.017.102-.505.758-.606zm12.477 14.717c-.304-.252-.893.05-.893.05l-.354-.404-.201.59.74.404.404.538.59.303.201-.302.505.505.152-.539-.505-.59s-.337-.302-.64-.555zM22.708 5.29H21.53l-1.196-.253-1.245-.354-.253-.404-.993-.1h-.54l.253.64-1.195.1s-.303-.505-.54-.505c-.251 0-1.194.05-1.194.05s-.64-.15-.843-.354c-.201-.201-1.295-.353-1.295-.353l-.894-.505-1.094-.05-.252.15 1.045.54s-.59.303-.844.303c-.252 0-.891.1-.891.1l-1.045.355-1.195.1-.74.355-.943.352-1.146-.151-.993.05-.842.202-.91-.268H1.73c1.885 3.822 18.352 2.576 20.98 0zM.803 6.89l-.152.79.892.791.64.943-.1.64.454.64s-.538.152-.842.05c-.303-.1-.993.152-.993.152L.5 11.84l.892-.05.253.64.69 1.582s.943 1.987.842 2.392c0 0 1.095-.405 1.448-.792.354-.404.64-1.045.64-1.045l-.404-.588-.943-.355-.943-.79-.64-.539.303-.455s.354-.354.54-.151c.2.2.1.538.403.74.303.202.59.843.892.943.304.101.792.539 1.246.539.455 0 .893.101 1.095.303.202.202.64.506.59.742-.051.252.2 1.295.538 1.633.354.353.842.943.842.943s-.152-.506-.252-.792c-.102-.303 0-.74.2-.943.203-.201.54-.505.69-.792.153-.303.844-.505 1.045-.151.203.355.59.792.59.792l.201.74.203.994.64.942-.101-.64s-.69-1.093-.303-1.447c.404-.355.943-.202.943-.202v.538l-.202.539.639-.74-.201-.792-.304-.589.455-.102-.202-.353s.792.253 1.045.05c.184-.15.537-.504.723-.69l.118.54.201-.54-.201-.084.016-.017.253-.74-.253-1.045v-.403l-.252-.64s.455-.202.64.05c.202.253.455 1.145.455 1.145l.69-.539-.252-.589s.302-.303.538-.455c.252-.152.993-.942.993-.942l.404-.102.354-.74s-.253-.54-.505-.59c-.253-.05-.539-.454-.539-.454s.944-.355 1.195-.455c.253-.101 1.146 0 1.146 0l.892-.303-.152.59-.1 1.245.538-.505.505-.69.505-.455 1.55-.303.168-.236c-.169-.875-.824-1.397-.824-1.397-.607.422-19.92 1.802-20.93.05 0 0-.59.522-.943 1.6zm13.824 8.35l.2.843.355.538.202.792s.202 0 .202-.405c0-.404-.539-1.195-.539-1.195l-.42-.573zm2.087-2.896c.506-.201 1.044-.505 1.044-.505s.152-.59.253-.841c.101-.253.404-.405.404-.405v-.59s-.303-.05-.505.254c-.201.303-.505.943-.505.943s-.405.352-.59.454c-.2.1-.74.792-.74.792l.303.403c-.017 0-.152-.303.336-.505zm2.391 7.46l.792.05-.455-.455-.337.405z" fill="currentColor"/></svg>
