<svg xmlns="http://www.w3.org/2000/svg" viewBox="0 0 20 20" fill="none"><style>.abasvg_3d3fffe3fb__svg_695c02e4c3__st0{fill:currentColor}</style><circle class="abasvg_3d3fffe3fb__svg_695c02e4c3__st0" cx="10" cy="10" r="3" fill="currentColor"/><path class="abasvg_3d3fffe3fb__svg_695c02e4c3__st0" d="M18.9 12c0-1.5-.8-2.8-2-3.6-.4-3.3-3.3-5.9-6.8-5.9-3.3 0-6.1 2.4-6.7 5.6C1.9 8.8.8 10.2.8 12c0 2.3 1.9 4.2 4.2 4.2h9.7l-2-2c-.7.5-1.7.8-2.7.8-2.8 0-5-2.2-5-5s2.2-5 5-5 5 2.2 5 5c0 1.1-.3 2.1-.9 2.9l2.7 2.7c1.2-.7 2.1-2.1 2.1-3.6z" fill="currentColor"/></svg>
