<svg xmlns="http://www.w3.org/2000/svg" viewBox="0 -0.5 49 49" fill="none"><path d="M23.086 3.246a2 2 0 011.986 0l16.635 9.517a2 2 0 011.007 1.736v19.003a2 2 0 01-1.007 1.736l-16.635 9.517a2 2 0 01-1.986 0L6.45 35.238a2 2 0 01-1.007-1.736V14.5a2 2 0 011.007-1.736l16.636-9.517z" fill="url(#ambsvg_9b48b4925c__paint0_linear_7496_35602)"/><path fill-rule="evenodd" clip-rule="evenodd" d="M24.157 13.327a3.331 3.331 0 01-3.331 3.331c-.669 0-1.372.123-1.845.596l-.546.546c-.637.637-.702 1.63-.65 2.529a3.383 3.383 0 010 .393c-.052.9.013 1.892.65 2.529l.549.548c.472.472 1.174.595 1.842.595a3.331 3.331 0 11-3.268 2.682c.183-.927.202-2.003-.466-2.671-.581-.58-1.482-.645-2.3-.564a3.331 3.331 0 110-6.63c.817.08 1.718.016 2.3-.565.667-.668.649-1.743.466-2.67a3.331 3.331 0 116.6-.649z" fill="#B5BCC9"/><g filter="url(#ambsvg_9b48b4925c__filter0_d_7496_35602)"><path fill-rule="evenodd" clip-rule="evenodd" d="M24.003 20.276a3.331 3.331 0 003.331 3.332c.669 0 1.372.122 1.845.595l.546.546c.637.637.702 1.63.65 2.53a3.383 3.383 0 000 .393c.052.899-.013 1.891-.65 2.528l-.549.549c-.472.472-1.174.595-1.842.595a3.331 3.331 0 103.268 2.68c-.183-.926-.202-2.002.466-2.67.581-.58 1.482-.645 2.3-.564a3.331 3.331 0 100-6.63c-.817.081-1.718.017-2.299-.564-.668-.669-.65-1.744-.467-2.67a3.331 3.331 0 10-6.6-.649z" fill="#fff"/></g><defs><linearGradient id="ambsvg_9b48b4925c__paint0_linear_7496_35602" x1="24.079" y1="2.678" x2="24.079" y2="45.324" gradientUnits="userSpaceOnUse"><stop stop-color="#353D51"/><stop offset="1" stop-color="#818A9C"/></linearGradient><filter id="ambsvg_9b48b4925c__filter0_d_7496_35602" x="17.088" y="11.759" width="26.858" height="34.891" filterUnits="userSpaceOnUse" color-interpolation-filters="sRGB"><feFlood flood-opacity="0" result="BackgroundImageFix"/><feColorMatrix in="SourceAlpha" values="0 0 0 0 0 0 0 0 0 0 0 0 0 0 0 0 0 0 127 0" result="hardAlpha"/><feOffset dy="1.729"/><feGaussianBlur stdDeviation="3.458"/><feComposite in2="hardAlpha" operator="out"/><feColorMatrix values="0 0 0 0 0 0 0 0 0 0 0 0 0 0 0 0 0 0 0.15 0"/><feBlend in2="BackgroundImageFix" result="effect1_dropShadow_7496_35602"/><feBlend in="SourceGraphic" in2="effect1_dropShadow_7496_35602" result="shape"/></filter></defs></svg>
