<svg xmlns="http://www.w3.org/2000/svg" viewBox="0 0 50 50" fill="none"><g clip-path="url(#amesvg_c94c0dc969__clip0_18705_56625)"><rect opacity=".06" width="50" height="50" rx="4" fill="url(#amesvg_c94c0dc969__paint0_linear_18705_56625)"/><g clip-path="url(#amesvg_c94c0dc969__clip1_18705_56625)"><path fill-rule="evenodd" clip-rule="evenodd" d="M23.693 24.919a7.243 7.243 0 100-14.486 7.243 7.243 0 000 14.486zm0 2.136c-6.538 0-13.638 4.494-13.638 9.04v.69c0 .874.709 1.583 1.583 1.583H35.75c.875 0 1.584-.709 1.584-1.583v-.69c0-4.546-7.1-9.04-13.64-9.04z" fill="url(#amesvg_c94c0dc969__paint1_linear_18705_56625)"/><circle cx="33.967" cy="33.589" r="5.978" fill="#97BCFF"/><path d="M31.381 33.59h5.173" stroke="#fff" stroke-width="1.583"/></g></g><defs><linearGradient id="amesvg_c94c0dc969__paint0_linear_18705_56625" x1="25" y1="1.786" x2="25" y2="50" gradientUnits="userSpaceOnUse"><stop stop-color="#528CFF"/><stop offset="1" stop-color="#1664FF"/></linearGradient><linearGradient id="amesvg_c94c0dc969__paint1_linear_18705_56625" x1="23.694" y1="11.43" x2="23.694" y2="38.368" gradientUnits="userSpaceOnUse"><stop stop-color="#528CFF"/><stop offset="1" stop-color="#1664FF"/></linearGradient><clipPath id="amesvg_c94c0dc969__clip0_18705_56625"><path fill="#fff" d="M0 0h50v50H0z"/></clipPath><clipPath id="amesvg_c94c0dc969__clip1_18705_56625"><path fill="#fff" transform="translate(6 6)" d="M0 0h38v38H0z"/></clipPath></defs></svg>
