<svg xmlns="http://www.w3.org/2000/svg" viewBox="0 0 48 48" fill="none"><path fill-rule="evenodd" clip-rule="evenodd" d="M32.512 13.498c0 5.736-4.65 10.386-10.386 10.386-5.736 0-10.386-4.65-10.386-10.386 0-5.736 4.65-10.386 10.386-10.386 5.736 0 10.386 4.65 10.386 10.386zm-10.385 13.45c-9.909 0-19.25 6.749-19.25 13.268v1.26a2 2 0 002 2H27.552a11.687 11.687 0 01-2.435-7.16c0-3.324 1.382-6.325 3.602-8.46a24.841 24.841 0 00-6.593-.909zm23.302 9.368a8.572 8.572 0 11-17.145 0 8.572 8.572 0 0117.145 0zm-4.863.5a1 1 0 01-1 1h-5.417a1 1 0 01-1-1v-1a1 1 0 011-1h5.417a1 1 0 011 1v1z" fill="currentColor"/></svg>
