<svg xmlns="http://www.w3.org/2000/svg" viewBox="0 0 48 48" fill="none"><path fill-rule="evenodd" clip-rule="evenodd" d="M21.753 7.277a6.486 6.486 0 100 12.973 6.486 6.486 0 000-12.973zm-10.487 6.486c0-5.791 4.695-10.486 10.487-10.486 5.791 0 10.486 4.695 10.486 10.486 0 5.792-4.695 10.487-10.486 10.487-5.792 0-10.487-4.695-10.487-10.487zM24.505 26.449a20.144 20.144 0 00-2.751-.193c-4.317 0-8.754 1.483-12.136 3.71-3.286 2.163-6.1 5.402-6.1 9.146v.73a4 4 0 004 4H24.669a13.49 13.49 0 01-2.381-4H7.519v-.73c0-1.716 1.412-3.906 4.298-5.805 2.79-1.836 6.47-3.051 9.937-3.051.176 0 .352.003.53.01a13.482 13.482 0 012.221-3.817z" fill="currentColor"/><path fill-rule="evenodd" clip-rule="evenodd" d="M34.905 28.694a6.362 6.362 0 100 12.724 6.362 6.362 0 000-12.724zm-10.362 6.362c0-5.723 4.64-10.362 10.362-10.362 5.723 0 10.362 4.64 10.362 10.362 0 5.723-4.64 10.362-10.362 10.362-5.723 0-10.362-4.64-10.362-10.362z" fill="currentColor"/><path fill-rule="evenodd" clip-rule="evenodd" d="M38.217 36.083a1 1 0 01-1 1h-4.622a1 1 0 01-1-1v-2.054a1 1 0 011-1h4.622a1 1 0 011 1v2.054z" fill="currentColor"/></svg>
