<svg xmlns="http://www.w3.org/2000/svg" viewBox="0 0 48 48" fill="none"><path fill-rule="evenodd" clip-rule="evenodd" d="M45 25a1 1 0 011 1v16a1 1 0 01-1 1H23a1 1 0 01-1-1V26a1 1 0 011-1h22zM28 6c9.62 0 17.477 7.546 17.975 17.042h-4.007C41.475 15.757 35.41 10 28 10a14.007 14.007 0 00-13.312 9.65l-.673 2.06-2.094.562A8.005 8.005 0 006 30a8 8 0 008 8h4.999v4H14C7.373 42 2 36.627 2 30c0-5.55 3.768-10.22 8.886-11.592C13.238 11.205 20.01 6 28 6zm14 23H26v10h16V29zm-9 3v4h-4v-4h4zm7 0v4h-4v-4h4z" fill="currentColor"/></svg>
