<svg xmlns="http://www.w3.org/2000/svg" viewBox="0 0 24 24" fill="none"><g clip-path="url(#aaysvg_77b6122781__clip0_7850_2)"><path fill-rule="evenodd" clip-rule="evenodd" d="M.004 11.99C.004 5.37 5.374.003 12 .003c6.625 0 11.996 5.367 11.996 11.987 0 6.58-5.303 11.92-11.87 11.987a5.979 5.979 0 01-1.618-.091C4.585 23.151.003 18.105.003 11.99zm22.052-2.153v-.004c.004.179.001.371-.01.575.123.577.201 1.163.235 1.752v-.01.01a10.321 10.321 0 00-.225-2.328v.005zM1.022 11.995c0 5.418 3.925 9.918 9.087 10.82.384-.131.875-.209 1.456-.197-.066-.511-.098-1.15-.086-1.94 0 0-2.575-1.84-2.575-3.034 0-.51.06-.905.103-1.189.058-.381.086-.564-.103-.564-.246 0-.484.055-.693.103-.352.082-.624.144-.72-.103-.439-1.14-1.362-1.49-1.41-1.49-1.745-.031-1.814-2.09-1.814-4.008 0-.42-.342-.565-.717-.722-.143-.06-.292-.123-.427-.204-.272.758-1.391.77-1.866.263-.154.73-.235 1.49-.235 2.265zM13.96 22.332c.454-.12.704.033.76.312a11.01 11.01 0 007.858-7.601c-.846 1.811-2.56 2.238-2.194 1.17-.337-.546-.853-1.306-1.395-1.812-1.029-.961-1.83-2.641 1.302-5.05-.585-1.565 1.14-2.849 1.849-1.075.098.01.19.052.262.12-1.477-4.26-5.504-7.328-10.256-7.384 2.35.246 2.523 2.544.943 2.297-.038.56-.095 1.312-.162 1.963-.072.69-.598.843-1.083.984-.313.09-.609.176-.755.398-.363.552.675 1.14 1.848.868.171-.04.164-.159.157-.27-.006-.095-.012-.184.087-.217.647-.217 1.454-.133 1.494-.032.048.127-.317.769-.824 1.661-.217.383-.461.812-.71 1.267-.144.264-.09.68-.042 1.044.022.165.042.32.042.446 0 2.393-.773.995-1.319.007-.231-.419-.422-.764-.496-.714-.15.1-.55.001-.947-.097-.305-.076-.609-.15-.799-.136-.22.018-.278.252-.335.482-.058.234-.114.464-.341.458-.52-.012-.643-.098-.657-.083-.008.01.022.053.03.167.007.085.018.198.033.338.05.49.132 1.302.132 2.347 0 .247.314.158.696.05.264-.075.56-.16.81-.15.461.017.81.277 1.126.511.156.116.304.226.453.297.396.188.774.545 1.126.876.397.375.76.716 1.071.742.281.024.332.246.381.46.054.233.105.456.448.405.834-.125 1.8.932.704 1.882-.726.63-.919 1.451-1.253 2.879-.014.062-.03.125-.044.19z" fill="currentColor"/></g><defs><clipPath id="aaysvg_77b6122781__clip0_7850_2"><path d="M0 0h24v24H0z" fill="currentColor"/></clipPath></defs></svg>
