<svg xmlns="http://www.w3.org/2000/svg" viewBox="0 0 48 48" fill="none"><path d="M39.524 3.915L8.473 3a2.281 2.281 0 00-.584.123c-.12.014-.238.039-.353.072-.29.122-.555.3-.78.525H6.74A2.549 2.549 0 006 5.52v34.953a2.57 2.57 0 00.727 1.79c.463.475 1.092.74 1.746.739L30.737 45a2.433 2.433 0 001.748-.737 2.571 2.571 0 00.727-1.792V15.6a2.57 2.57 0 00-.727-1.792 2.433 2.433 0 00-1.748-.737l-17.187-.93c-1.065-.042-1.907-.94-1.907-2.036 0-1.094.842-1.993 1.907-2.035l20.827.9h1.51c.645 0 1.167.537 1.167 1.2v27.9c0 1.403 1.107 2.541 2.473 2.541 1.366 0 2.473-1.138 2.473-2.541V6.456c-.003-1.403-1.11-2.54-2.476-2.541z" fill="currentColor"/></svg>
