<svg xmlns="http://www.w3.org/2000/svg" viewBox="0 0 48 48" fill="none"><rect opacity=".4" x="4" y="4" width="4" height="4" rx="1" fill="currentColor"/><rect opacity=".4" x="10" y="4" width="4" height="4" rx="1" fill="currentColor"/><rect opacity=".4" x="4" y="10" width="4" height="4" rx="1" fill="currentColor"/><rect opacity=".4" x="16" y="4" width="4" height="4" rx="1" fill="currentColor"/><rect opacity=".4" x="10" y="40" width="4" height="4" rx="1" fill="currentColor"/><rect opacity=".4" x="16" y="40" width="4" height="4" rx="1" fill="currentColor"/><rect opacity=".4" x="4" y="16" width="4" height="4" rx="1" fill="currentColor"/><rect opacity=".4" x="4" y="22" width="4" height="4" rx="1" fill="currentColor"/><rect opacity=".4" x="10" y="22" width="4" height="4" rx="1" fill="currentColor"/><rect opacity=".4" x="16" y="22" width="4" height="4" rx="1" fill="currentColor"/><rect opacity=".4" x="22" y="22" width="4" height="4" rx="1" fill="currentColor"/><rect opacity=".4" x="28" y="22" width="4" height="4" rx="1" fill="currentColor"/><rect opacity=".4" x="34" y="22" width="4" height="4" rx="1" fill="currentColor"/><rect opacity=".4" x="40" y="22" width="4" height="4" rx="1" fill="currentColor"/><rect opacity=".4" x="4" y="28" width="4" height="4" rx="1" fill="currentColor"/><rect opacity=".4" x="4" y="34" width="4" height="4" rx="1" fill="currentColor"/><rect opacity=".4" x="40" y="10" width="4" height="4" rx="1" fill="currentColor"/><rect opacity=".4" x="40" y="16" width="4" height="4" rx="1" fill="currentColor"/><rect opacity=".4" x="40" y="28" width="4" height="4" rx="1" fill="currentColor"/><rect opacity=".4" x="40" y="34" width="4" height="4" rx="1" fill="currentColor"/><rect opacity=".4" x="22" y="10" width="4" height="4" rx="1" fill="currentColor"/><rect opacity=".4" x="22" y="16" width="4" height="4" rx="1" fill="currentColor"/><rect opacity=".4" x="22" y="28" width="4" height="4" rx="1" fill="currentColor"/><rect opacity=".4" x="22" y="34" width="4" height="4" rx="1" fill="currentColor"/><rect opacity=".4" x="4" y="40" width="4" height="4" rx="1" fill="currentColor"/><rect opacity=".4" x="28" y="4" width="4" height="4" rx="1" fill="currentColor"/><rect opacity=".4" x="22" y="4" width="4" height="4" rx="1" fill="currentColor"/><rect opacity=".4" x="34" y="4" width="4" height="4" rx="1" fill="currentColor"/><rect opacity=".4" x="40" y="4" width="4" height="4" rx="1" fill="currentColor"/><rect opacity=".4" x="28" y="40" width="4" height="4" rx="1" fill="currentColor"/><rect opacity=".4" x="22" y="40" width="4" height="4" rx="1" fill="currentColor"/><rect opacity=".4" x="34" y="40" width="4" height="4" rx="1" fill="currentColor"/><rect opacity=".4" x="40" y="40" width="4" height="4" rx="1" fill="currentColor"/><rect x="44" y="40" width="4" height="40" rx="1" transform="rotate(90 44 40)" fill="currentColor"/></svg>
