<svg xmlns="http://www.w3.org/2000/svg" viewBox="0 0 48 48" fill="none"><path fill-rule="evenodd" clip-rule="evenodd" d="M14.5 13.332l-.5.288V25.9l1.675-1.531a17.445 17.445 0 012.751-2.057l.007-.004.007-.005a2 2 0 112.06 3.429l-.007.005-.008.005a13.448 13.448 0 00-6.038 8.067l-.18.678.577.4a5 5 0 11-5.343-.218l.499-.29V13.622l-.5-.29a5 5 0 114.999 0zm13.914-8.746L33 9.172l4.586-4.586a2 2 0 112.828 2.828L35.828 12l4.586 4.586a2 2 0 11-2.828 2.828L33 14.828l-4.586 4.586a2 2 0 11-2.828-2.828L30.172 12l-4.586-4.586a2 2 0 112.828-2.828z" fill="currentColor"/></svg>
