<svg xmlns="http://www.w3.org/2000/svg" viewBox="0 0 48 48" fill="none"><path fill-rule="evenodd" clip-rule="evenodd" d="M13 3a1 1 0 011 1v3h20V4a1 1 0 011-1h2a1 1 0 011 1v3h4a2 2 0 012 2v34a2 2 0 01-2 2H6a2 2 0 01-2-2V9a2 2 0 012-2h4V4a1 1 0 011-1h2zm11.012 28.05v3.45H13.273v-2.984l.11-.137 6.662-8.336c.225-.294.374-.557.436-.744.055-.238.081-.46.081-.662 0-.525-.158-.97-.475-1.348-.316-.364-.767-.554-1.38-.566-.545 0-.979.166-1.335.51-.367.343-.59.837-.664 1.505l-.049.446h-3.408l.023-.522c.068-1.54.591-2.832 1.574-3.858.992-1 2.223-1.513 3.677-1.53 1.596.016 2.914.535 3.92 1.55 1.025 1.008 1.55 2.295 1.567 3.836a5.225 5.225 0 01-1.14 3.312l-4.85 6.079h5.99zm7.448-7.698c.599.017 1.13.123 1.594.321.45.193.843.436 1.173.731.326.29.599.616.816.976.208.343.372.681.493 1.014a5.218 5.218 0 01.323 1.63v.673c0 .157-.002.315-.006.476a8.2 8.2 0 01-.022.456c-.01.065-.035.21-.08.449a5.94 5.94 0 01-.255.897 6.75 6.75 0 01-.525 1.102 5.095 5.095 0 01-.92 1.144c-.384.362-.845.67-1.383.926-.55.262-1.195.421-1.929.48-.769.068-1.458.016-2.068-.158a4.989 4.989 0 01-1.574-.744 4.753 4.753 0 01-1.112-1.12 5.877 5.877 0 01-1.017-2.533 4.195 4.195 0 01-.03-1.066c.047-.392.1-.744.156-1.054a10.842 10.842 0 01.466-1.747c.096-.273.208-.568.335-.887.037-.093.125-.283.271-.587l.522-1.085c.208-.432.442-.907.7-1.424.258-.514.515-1.036.773-1.568.61-1.235 1.293-2.614 2.051-4.138l.138-.278h3.076c.571.434.571.434.494.585-.014.067-.014.067-.025.096-.017.046-.017.046-.034.084a6.575 6.575 0 01-.097.207l-.334.684c-.141.291-.306.625-.495 1.002l-.591 1.183a194.193 194.193 0 01-1.678 3.274c.243-.013.508-.013.794-.001zm.974 5.89c0-.285-.012-.603-.034-.952a2.322 2.322 0 00-.218-.845c-.113-.24-.3-.451-.573-.637-.262-.179-.668-.296-1.223-.337a1.445 1.445 0 00-.602.067 1.732 1.732 0 00-.501.272c-.15.12-.28.255-.39.408-.12.169-.219.334-.296.494-.075.158-.128.3-.158.424-.03.125-.044.213-.044.25 0 .19.003.402.011.635.007.214.03.428.069.642a2.4 2.4 0 00.18.573c.073.16.177.304.316.43.137.127.322.235.557.323.232.086.54.132.932.132.292.007.536-.03.734-.103.212-.079.385-.176.524-.291a1.63 1.63 0 00.346-.39c.1-.16.177-.313.23-.46a2.17 2.17 0 00.14-.635z" fill="currentColor"/></svg>
