<svg xmlns="http://www.w3.org/2000/svg" viewBox="0 0 48 48" fill="none"><path fill-rule="evenodd" clip-rule="evenodd" d="M15 4a1 1 0 011 1v2h16V5a1 1 0 011-1h2a1 1 0 011 1v2h6a2 2 0 012 2v34a2 2 0 01-2 2H6a2 2 0 01-2-2V9a2 2 0 012-2h6V5a1 1 0 011-1h2zm-3 7H8v30h32V11h-4v2a1 1 0 01-1 1h-2a1 1 0 01-1-1v-2H16v2a1 1 0 01-1 1h-2a1 1 0 01-1-1v-2zm12.012 21.05v3.45H13.273v-2.984l6.772-8.473c.225-.294.374-.557.436-.744.055-.238.081-.46.081-.662 0-.525-.158-.97-.475-1.348-.316-.364-.767-.554-1.38-.566-.545 0-.979.166-1.335.51-.367.343-.59.837-.664 1.505l-.049.446h-3.408l.023-.522c.068-1.54.591-2.832 1.574-3.858.992-1 2.223-1.513 3.677-1.53 1.596.016 2.914.535 3.92 1.55 1.025 1.008 1.55 2.295 1.567 3.836a5.225 5.225 0 01-1.14 3.312l-4.85 6.079h5.99zm7.448-7.698c.599.017 1.13.123 1.594.321.45.193.843.436 1.173.731.326.29.599.616.816.976.208.343.372.681.493 1.014a5.218 5.218 0 01.323 1.63v.673l-.006.476-.012.306a6.31 6.31 0 01-.01.15l-.08.449c-.048.26-.133.558-.255.897a6.75 6.75 0 01-.525 1.102 5.095 5.095 0 01-.92 1.144c-.384.362-.845.67-1.383.926-.55.262-1.195.421-1.929.48-.769.068-1.458.016-2.068-.158a4.989 4.989 0 01-1.574-.744 4.753 4.753 0 01-1.112-1.12 5.875 5.875 0 01-1.017-2.533 4.195 4.195 0 01-.03-1.066c.047-.392.1-.744.156-1.054a10.842 10.842 0 01.466-1.747c.064-.182.135-.374.213-.576l.122-.31c.021-.054.06-.139.115-.258l.678-1.415c.156-.324.327-.672.511-1.044l.575-1.157 1.884-3.814.692-1.393h3.076l.361.28c.204.167.188.197.133.305l-.025.096-.034.084-.66 1.36-1.172 2.342-.533 1.048-.83 1.6c.243-.013.508-.013.794-.001zm.974 5.89c0-.285-.012-.603-.034-.952a2.322 2.322 0 00-.218-.845c-.113-.24-.3-.451-.573-.637-.262-.179-.668-.296-1.223-.337a1.445 1.445 0 00-.602.067 1.732 1.732 0 00-.501.272c-.15.12-.28.255-.39.408-.12.169-.219.334-.296.494-.075.158-.128.3-.158.424l-.034.158a.617.617 0 00-.01.093l.005.408.006.226c.007.214.03.428.069.642a2.4 2.4 0 00.18.573c.073.16.177.304.316.43.137.127.322.235.557.323.232.086.54.132.932.132.292.007.536-.03.734-.103.212-.079.385-.176.524-.291a1.63 1.63 0 00.346-.39c.1-.16.177-.313.23-.46a2.17 2.17 0 00.11-.393l.022-.152a.86.86 0 00.008-.09z" fill="currentColor"/></svg>
