<svg xmlns="http://www.w3.org/2000/svg" viewBox="0 -0.5 49 49" fill="none"><path opacity=".5" d="M19.195 5L5.76 18.435V7.11C5.76 5.945 6.705 5 7.87 5h11.325z" fill="currentColor"/><g opacity=".5"><path d="M24.877 23.118c.324-.725.505-1.53.505-2.38 0-.848-.18-1.653-.505-2.378.888-1.987 2.854-3.368 5.137-3.368 3.115 0 5.641 2.573 5.641 5.747s-2.526 5.747-5.641 5.747c-2.283 0-4.249-1.381-5.137-3.368zM26.58 36.793h10.274v-2.87A6.957 6.957 0 0024.76 29.23a6.933 6.933 0 011.82 4.692v2.871z" fill="currentColor"/></g><path fill-rule="evenodd" clip-rule="evenodd" d="M5.76 40.889V18.435L19.193 5h22.454c1.166 0 2.111.945 2.111 2.111V40.89A2.111 2.111 0 0141.65 43H7.87a2.111 2.111 0 01-2.11-2.111zm19.621-20.15c0 3.174-2.526 5.747-5.641 5.747-3.116 0-5.641-2.573-5.641-5.747s2.525-5.747 5.64-5.747c3.116 0 5.642 2.573 5.642 5.747zM12.665 33.922a6.958 6.958 0 0113.915 0v2.871H12.665v-2.87zM25.381 20.74c0 .848-.18 1.654-.504 2.379.888 1.987 2.854 3.368 5.137 3.368 3.115 0 5.641-2.573 5.641-5.747s-2.526-5.747-5.641-5.747c-2.283 0-4.249 1.381-5.137 3.368.324.725.504 1.53.504 2.379zm11.473 16.054H26.58v-2.87c0-1.809-.69-3.456-1.82-4.693a6.957 6.957 0 0112.094 4.693v2.87z" fill="currentColor"/></svg>
