<svg xmlns="http://www.w3.org/2000/svg" viewBox="0 0 48 48" fill="none"><path opacity=".5" d="M18.435 5L5 18.435V7.11C5 5.945 5.945 5 7.111 5h11.324z" fill="currentColor"/><path fill-rule="evenodd" clip-rule="evenodd" d="M5 40.889V18.435L18.435 5h22.454C42.055 5 43 5.945 43 7.111V40.89A2.111 2.111 0 0140.889 43H7.11A2.111 2.111 0 015 40.889zM29.278 19.25A5.27 5.27 0 0124 24.528a5.27 5.27 0 01-5.278-5.278A5.27 5.27 0 0124 13.972a5.27 5.27 0 015.278 5.278zM13.444 32.269c0-3.519 7.037-5.454 10.556-5.454 3.518 0 10.556 1.935 10.556 5.454v1.759H13.444v-1.76z" fill="currentColor"/><path fill-rule="evenodd" clip-rule="evenodd" d="M5 40.889V18.435L18.435 5h22.454C42.055 5 43 5.945 43 7.111V40.89A2.111 2.111 0 0140.889 43H7.11A2.111 2.111 0 015 40.889zM29.278 19.25A5.27 5.27 0 0124 24.528a5.27 5.27 0 01-5.278-5.278A5.27 5.27 0 0124 13.972a5.27 5.27 0 015.278 5.278zM13.444 32.269c0-3.519 7.037-5.454 10.556-5.454 3.518 0 10.556 1.935 10.556 5.454v1.759H13.444v-1.76z" fill="currentColor"/></svg>
