<svg xmlns="http://www.w3.org/2000/svg" viewBox="0 0 50 50" fill="none"><g clip-path="url(#aoosvg_9dd33e1b04__clip0_18705_56627)"><rect opacity=".06" width="50" height="50" rx="4" fill="url(#aoosvg_9dd33e1b04__paint0_linear_18705_56627)"/><path d="M24.34 10.763a1.583 1.583 0 011.272 0l10.893 4.767c.576.252.949.822.948 1.45v4.918c0 5.414-1.793 8.952-4.128 11.824-2.097 2.58-5.04 4.544-7.924 5.51a1.328 1.328 0 01-.85.005c-1.243-.419-4.978-1.912-7.923-5.55-2.99-3.693-4.084-7.284-4.084-12.052l-.004-4.656c0-.628.37-1.197.946-1.45l10.855-4.766z" fill="url(#aoosvg_9dd33e1b04__paint1_linear_18705_56627)"/><path fill-rule="evenodd" clip-rule="evenodd" d="M30.839 21.732a.216.216 0 01.002.306l-7.406 7.49a.217.217 0 01-.308 0l-4.213-4.255a.217.217 0 01.002-.307l1.486-1.47a.216.216 0 01.306.002l2.42 2.44a.217.217 0 00.307 0l5.61-5.674a.217.217 0 01.307-.002l1.487 1.47z" fill="#fff"/></g><defs><linearGradient id="aoosvg_9dd33e1b04__paint0_linear_18705_56627" x1="25" y1="1.786" x2="25" y2="50" gradientUnits="userSpaceOnUse"><stop stop-color="#528CFF"/><stop offset="1" stop-color="#1664FF"/></linearGradient><linearGradient id="aoosvg_9dd33e1b04__paint1_linear_18705_56627" x1="24.997" y1="11.653" x2="24.997" y2="39.305" gradientUnits="userSpaceOnUse"><stop stop-color="#528CFF"/><stop offset="1" stop-color="#1664FF"/></linearGradient><clipPath id="aoosvg_9dd33e1b04__clip0_18705_56627"><path fill="#fff" d="M0 0h50v50H0z"/></clipPath></defs></svg>
