<svg xmlns="http://www.w3.org/2000/svg" viewBox="0 0 48 48" fill="none"><path fill-rule="evenodd" clip-rule="evenodd" d="M25.769 4.077c-.909 1.429-2.102 2.82-3.327 3.102-1.02.236-1.61.252-2.058.265-.441.012-.744.02-1.185.232-.06 1.263.218 1.821.498 2.383.145.292.29.585.39.977.42 1.66.192 3.434-.888 4.65-1.381 1.552-3.006 1.344-4.654 0-.626-.511-1.112-1.428-1.531-2.22-.381-.72-.708-1.336-1.037-1.456-.207-.075-.597-.06-1.072-.042-.802.03-1.844.07-2.652-.3A19.914 19.914 0 004 24c0 11.046 8.954 20 20 20s20-8.954 20-20c0-10.45-8.014-19.027-18.231-19.923zM37.866 33.59c1.153.497 1.999 1.451 2.401 2.043a20.01 20.01 0 01-12.159 7.93 3.924 3.924 0 00-.65-.746c-.39-.355-.834-.684-1.29-1.022-1.655-1.225-3.47-2.57-3.47-5.71 0-4.005 4.366-5.614 7.091-5.023 1.65.358 2.386 1.174 2.935 1.783.358.397.637.706 1.038.745.353.034.752-.042 1.194-.126.833-.159 1.816-.346 2.91.126zM8 18h2.326v4.688h3.08V18h2.326v12h-2.326v-4.688h-3.08V30H8V18zm8.638 2.625V18h7.448v2.625h-2.578V30h-2.293v-9.375h-2.577zM24.762 18v2.625h2.578V30h2.293v-9.375h2.577V18h-7.448zm8.36 12V18h3.698c.636 0 1.193.176 1.67.527.477.352.847.846 1.112 1.483.266.636.398 1.38.398 2.232 0 .86-.137 1.604-.41 2.233-.27.628-.651 1.113-1.142 1.453-.489.34-1.059.51-1.712.51h-1.288V30H33.12zm3.146-6.094h-.82v-3.304h.82a1.2 1.2 0 01.699.199c.195.129.344.316.447.562.106.242.16.535.16.88 0 .339-.054.634-.16.884-.103.25-.252.443-.447.58a1.2 1.2 0 01-.7.2z" fill="currentColor"/><g opacity=".5"><path d="M25.78 4.065c-.91 1.434-2.107 2.834-3.338 3.118-1.02.235-1.61.252-2.058.265-.44.012-.744.02-1.185.232-.06 1.263.218 1.821.498 2.383.145.292.291.585.39.977.42 1.66.193 3.434-.888 4.65-1.38 1.552-3.006 1.344-4.654 0-.626-.511-1.111-1.428-1.531-2.22-.38-.72-.708-1.337-1.036-1.456-.207-.075-.598-.06-1.072-.042-.804.03-1.848.07-2.656-.302 3.66-4.677 9.358-7.683 15.758-7.683.597 0 1.188.026 1.772.078zM40.267 35.636c-.402-.592-1.248-1.546-2.4-2.043-1.095-.472-2.077-.285-2.91-.126-.442.084-.842.16-1.194.126-.402-.039-.68-.348-1.038-.745-.55-.61-1.285-1.425-2.935-1.783-2.725-.59-7.092 1.018-7.092 5.024 0 3.14 1.815 4.484 3.47 5.71.456.337.9.666 1.29 1.02.278.253.49.504.65.747a20.01 20.01 0 0012.16-7.93z" fill="currentColor"/></g></svg>
