<svg xmlns="http://www.w3.org/2000/svg" viewBox="0 0 20 20" fill="none"><path opacity=".5" d="M2.65 13.797a.833.833 0 00.415.698l6.518 3.763a.832.832 0 00.426.111v-7.942c0-.23-.162-.51-.361-.625L2.763 5.827a.833.833 0 00-.114.407v7.563z" fill="currentColor"/><path d="M9.583 1.752a.833.833 0 01.834 0l6.517 3.763a.833.833 0 01.417.722v7.526a.833.833 0 01-.417.722l-6.517 3.763a.833.833 0 01-.408.111v-7.942c0-.23-.162-.51-.361-.625L2.763 5.816a.833.833 0 01.303-.3l6.517-3.764zM2.649 7.767v5.996-5.996z" fill="currentColor"/></svg>
