<svg xmlns="http://www.w3.org/2000/svg" viewBox="0 -0.5 49 49" fill="none"><path fill-rule="evenodd" clip-rule="evenodd" d="M44.225 25.998c0 11.025-8.938 19.963-19.963 19.963S4.299 37.023 4.299 25.998 13.237 6.035 24.262 6.035s19.963 8.938 19.963 19.963z" fill="#141414" fill-opacity=".08"/><path d="M24.223 44.003c11.047 0 20.002-8.955 20.002-20.001C44.225 12.955 35.27 4 24.223 4 13.177 4 4.222 12.955 4.222 24.002c0 11.046 8.955 20.001 20.001 20.001z" fill="#309256"/><path fill-rule="evenodd" clip-rule="evenodd" d="M24.223 40.67c9.206 0 16.668-7.463 16.668-16.668 0-9.206-7.462-16.668-16.668-16.668-9.205 0-16.668 7.462-16.668 16.668 0 9.205 7.463 16.668 16.668 16.668zm20.002-16.668c0 11.046-8.955 20.001-20.002 20.001-11.046 0-20.001-8.955-20.001-20.001C4.222 12.955 13.177 4 24.223 4c11.047 0 20.002 8.955 20.002 20.002z" fill="#2A814B"/><path fill-rule="evenodd" clip-rule="evenodd" d="M33.32 19.085l1.372 1.372a.97.97 0 010 1.373L23.713 32.809a.966.966 0 01-.515.269l-.114.013h-.114a.967.967 0 01-.63-.282l-6.175-6.176a.97.97 0 010-1.372l1.373-1.373a.97.97 0 011.372 0l4.117 4.117 8.92-8.92a.97.97 0 011.373 0z" fill="#141414" fill-opacity=".2"/><path fill-rule="evenodd" clip-rule="evenodd" d="M32.32 18.086l1.373 1.372a.97.97 0 010 1.373L22.714 31.81a.967.967 0 01-.515.269l-.114.013h-.114a.967.967 0 01-.63-.282l-6.175-6.176a.97.97 0 010-1.372l1.372-1.373a.97.97 0 011.373 0l4.117 4.117 8.92-8.92a.97.97 0 011.373 0z" fill="#fff"/></svg>
