<svg xmlns="http://www.w3.org/2000/svg" viewBox="0 0 14 14" fill="none"><path fill-rule="evenodd" clip-rule="evenodd" d="M12.835 7.582a5.823 5.823 0 11-11.646 0 5.823 5.823 0 0111.646 0z" fill="#141414" fill-opacity=".08"/><path d="M7 12.834A5.834 5.834 0 107 1.166a5.834 5.834 0 000 11.668z" fill="#737A87"/><path fill-rule="evenodd" clip-rule="evenodd" d="M7 11.861a4.862 4.862 0 100-9.723 4.862 4.862 0 000 9.723zM12.834 7A5.834 5.834 0 111.166 7a5.834 5.834 0 0111.668 0z" fill="#676B72"/><path fill-rule="evenodd" clip-rule="evenodd" d="M9.653 5.565l.4.4c.11.111.11.29 0 .4L6.851 9.569a.282.282 0 01-.15.079l-.034.004h-.033a.282.282 0 01-.183-.083L4.649 7.767a.283.283 0 010-.4l.4-.4c.111-.111.29-.111.4 0l1.202 1.2 2.602-2.602c.11-.11.29-.11.4 0z" fill="#141414" fill-opacity=".2"/><path fill-rule="evenodd" clip-rule="evenodd" d="M9.362 5.274l.4.4c.11.111.11.29 0 .4L6.56 9.278a.282.282 0 01-.15.079l-.034.004h-.033a.282.282 0 01-.183-.083L4.358 7.476a.283.283 0 010-.4l.4-.4c.111-.111.29-.111.4 0l1.202 1.2 2.602-2.602c.11-.11.29-.11.4 0z" fill="#fff"/></svg>
