<svg xmlns="http://www.w3.org/2000/svg" viewBox="0 -0.5 49 49" fill="none"><g clip-path="url(#apasvg_0ba4439ee9__clip0_94162_209422)" fill-rule="evenodd" clip-rule="evenodd"><path d="M37.493 11.566l1.86 1.56a2.427 2.427 0 01.3 3.42h-.002l-16.237 19.34a2.43 2.43 0 01-3.42.3l-3.72-3.122 17.798-21.2a2.43 2.43 0 013.42-.298z" fill="currentColor"/><path d="M10.055 24.398l1.629-1.81a2.428 2.428 0 013.388-.215l11.42 9.83-3.107 3.738a2.428 2.428 0 01-3.457.283l-9.658-8.366a2.428 2.428 0 01-.215-3.46z" fill="currentColor"/></g><defs><clipPath id="apasvg_0ba4439ee9__clip0_94162_209422"><path transform="translate(.822)" d="M0 0h48v48H0z" fill="currentColor"/></clipPath></defs></svg>
