<svg xmlns="http://www.w3.org/2000/svg" viewBox="0 0 24 24" fill="none"><g clip-path="url(#abosvg_ae54a5c026__clip0_7850_117)"><mask id="aboa" style="mask-type:luminance" maskUnits="userSpaceOnUse" x="0" y="0" width="24" height="24"><path d="M18 0H6a6 6 0 00-6 6v12a6 6 0 006 6h12a6 6 0 006-6V6a6 6 0 00-6-6z" fill="#fff"/></mask><g mask="url(#aboa)"><path d="M18 0H6a6 6 0 00-6 6v12a6 6 0 006 6h12a6 6 0 006-6V6a6 6 0 00-6-6z" fill="#F1F3F5"/><path d="M-1.5 0H24v27H-1.5V0z" fill="#D71618"/><path d="M6.773 9.82l2.321 1.683-.885-2.728 2.322-1.698H7.658l-.885-2.742-.9 2.742H3l2.322 1.698-.885 2.728L6.773 9.82zm6.82-5.05l1.073-.26-1.016-.422L13.723 3l-.696.842-1.03-.421.58.928-.697.842 1.06-.261.58.929.072-1.089zm0 9.127l1.073-.261-1.016-.406.073-1.103-.696.842-1.03-.421.58.943-.697.841 1.06-.26.58.928.072-1.103zm2.553-6.283l1.089.174-.77-.783.508-.972-.986.493-.755-.798.145 1.088-.972.494 1.074.188.16 1.088.507-.972zm-.333 3.933l.9.609-.364-1.03.857-.682-1.089.043-.377-1.044-.305 1.059-1.103.043.915.61-.305 1.059.87-.668z" fill="#FFF100"/></g></g><defs><clipPath id="abosvg_ae54a5c026__clip0_7850_117"><path fill="#fff" d="M0 0h24v24H0z"/></clipPath></defs></svg>
