<svg xmlns="http://www.w3.org/2000/svg" viewBox="0 0 48 48" fill="none"><path fill-rule="evenodd" clip-rule="evenodd" d="M18.886 37.424v-17.43a4.385 4.385 0 00-1.28-3.078L7.753 7h29.088l-11.21 9.792-.01.008a4.388 4.388 0 00-1.49 3.288v20.498l-5.245-3.162zM4.007 8.904L14.772 19.74c.072.072.113.17.114.272v17.714c0 1.215.635 2.34 1.674 2.967l6.318 3.81a3.463 3.463 0 005.253-2.967V20.093a.385.385 0 01.13-.288L40.55 9.072A3.463 3.463 0 0038.269 3H6.464a3.463 3.463 0 00-2.457 5.905zM46.54 41.363a2 2 0 01-2.829 2.829l-4.242-4.243-4.243 4.243a2 2 0 01-2.828-2.829l4.242-4.242-4.242-4.243a2 2 0 012.828-2.829l4.243 4.243 4.242-4.242a2 2 0 012.829 2.828l-4.243 4.243 4.243 4.242z" fill="currentColor"/></svg>
