<svg xmlns="http://www.w3.org/2000/svg" viewBox="0 -0.5 49 49" fill="none"><path fill-rule="evenodd" clip-rule="evenodd" d="M44.573 26.078c0 10.994-8.913 19.906-19.907 19.906S4.76 37.072 4.76 26.077c0-10.994 8.912-19.906 19.906-19.906 10.994 0 19.907 8.912 19.907 19.907z" fill="#141414" fill-opacity=".08"/><path d="M24.48 43.991c11.017 0 19.949-8.931 19.949-19.95 0-11.017-8.932-19.948-19.95-19.948-11.017 0-19.949 8.931-19.949 19.949 0 11.017 8.932 19.95 19.95 19.95z" fill="#EE3F38"/><path fill-rule="evenodd" clip-rule="evenodd" d="M24.573 40.666c9.205 0 16.666-7.462 16.666-16.666 0-9.205-7.461-16.667-16.666-16.667S7.907 14.795 7.907 24c0 9.204 7.461 16.666 16.666 16.666zm20-16.666c0 11.045-8.954 20-20 20s-20-8.955-20-20c0-11.046 8.954-20 20-20s20 8.954 20 20z" fill="#D7312A"/><path fill-rule="evenodd" clip-rule="evenodd" d="M31.609 17.541l1.407 1.408a1.138 1.138 0 010 1.608l-4.525 4.526 4.525 4.525a1.138 1.138 0 010 1.609l-1.407 1.407a1.137 1.137 0 01-1.609 0l-4.527-4.527-4.522 4.526a1.138 1.138 0 01-1.609 0l-1.407-1.408a1.138 1.138 0 010-1.609l4.52-4.524-4.52-4.523a1.138 1.138 0 010-1.609l1.407-1.407a1.138 1.138 0 011.609 0l4.522 4.522L30 17.541a1.138 1.138 0 011.609 0z" fill="#141414" fill-opacity=".2"/><path fill-rule="evenodd" clip-rule="evenodd" d="M30.614 16.545l1.407 1.408a1.138 1.138 0 010 1.608l-4.526 4.525 4.526 4.526a1.138 1.138 0 010 1.609l-1.407 1.407a1.137 1.137 0 01-1.61 0l-4.526-4.527-4.522 4.526a1.138 1.138 0 01-1.609 0l-1.407-1.408a1.138 1.138 0 010-1.609l4.52-4.524-4.52-4.523a1.138 1.138 0 010-1.609l1.407-1.407a1.138 1.138 0 011.609 0l4.522 4.522 4.527-4.524a1.138 1.138 0 011.609 0z" fill="#fff"/></svg>
