<svg xmlns="http://www.w3.org/2000/svg" viewBox="0 -0.5 49 49" fill="none"><path d="M14.071 36.889H34.09l.68 4.833a2 2 0 01-1.981 2.279H15.372a2 2 0 01-1.98-2.279l.68-4.833z" fill="#B5BCC9"/><rect x="4.051" y="6.051" width="40.06" height="30.837" rx="2" fill="url(#aqjsvg_69d436b23b__paint0_linear_7496_35630)"/><g filter="url(#aqjsvg_69d436b23b__filter0_d_7496_35630)"><path d="M23.124 13.759a.417.417 0 00-.735-.029l-4.226 7.245H14.03a.417.417 0 00-.417.416v2.5c0 .23.187.416.417.416h6.047l2.428-4.161 4.358 9.034c.133.276.51.318.7.079l3.953-4.952h2.616c.23 0 .416-.186.416-.416v-2.5a.417.417 0 00-.416-.416h-4.22l-2.061 2.582-4.727-9.798z" fill="#fff"/></g><defs><linearGradient id="aqjsvg_69d436b23b__paint0_linear_7496_35630" x1="24.081" y1="6.051" x2="24.081" y2="36.888" gradientUnits="userSpaceOnUse"><stop stop-color="#818A9C"/><stop offset="1" stop-color="#353D51"/></linearGradient><filter id="aqjsvg_69d436b23b__filter0_d_7496_35630" x="6.196" y="7.961" width="35.768" height="30.725" filterUnits="userSpaceOnUse" color-interpolation-filters="sRGB"><feFlood flood-opacity="0" result="BackgroundImageFix"/><feColorMatrix in="SourceAlpha" values="0 0 0 0 0 0 0 0 0 0 0 0 0 0 0 0 0 0 127 0" result="hardAlpha"/><feOffset dy="1.854"/><feGaussianBlur stdDeviation="3.708"/><feComposite in2="hardAlpha" operator="out"/><feColorMatrix values="0 0 0 0 0 0 0 0 0 0 0 0 0 0 0 0 0 0 0.15 0"/><feBlend in2="BackgroundImageFix" result="effect1_dropShadow_7496_35630"/><feBlend in="SourceGraphic" in2="effect1_dropShadow_7496_35630" result="shape"/></filter></defs></svg>
