<svg xmlns="http://www.w3.org/2000/svg" viewBox="-0.5 0 49 49" fill="none"><path d="M12.362 10.965c2.188-4.2 6.58-7.07 11.638-7.07 6.37 0 11.672 4.532 12.862 10.57 4.55.315 8.138 4.06 8.138 8.68 0 4.83-3.92 8.75-8.75 8.75H13.5c-5.793 0-10.5-4.708-10.5-10.5a10.49 10.49 0 019.362-10.43zM19.05 35.577a1 1 0 011-1h8a1 1 0 011 1v8a1 1 0 01-1 1h-8a1 1 0 01-1-1v-8z" fill="currentColor"/><g opacity=".5"><path d="M21.5 31.895v2.682h5v-2.682h-5zM16.146 37.077h2.905v5h-2.904v1.5a1 1 0 01-1 1h-8a1 1 0 01-1-1v-8a1 1 0 011-1h8a1 1 0 011 1v1.5zM31.955 42.077H29.05v-5h2.904v-1.5a1 1 0 011-1h8a1 1 0 011 1v8a1 1 0 01-1 1h-8a1 1 0 01-1-1v-1.5z" fill="currentColor"/></g></svg>
