<svg xmlns="http://www.w3.org/2000/svg" viewBox="0 0 49 49" fill="none"><path fill-rule="evenodd" clip-rule="evenodd" d="M42.017 36.41c.52 0 .976.342 1.121.84l1.31 4.498a1.314 1.314 0 01-1.262 1.68H5.813a1.314 1.314 0 01-1.262-1.68l1.31-4.497a1.168 1.168 0 011.12-.841h35.036zM38.222 6.286a4.672 4.672 0 014.672 4.671v21.945c0 .645-.523 1.168-1.168 1.168H7.273a1.168 1.168 0 01-1.168-1.168V10.957a4.672 4.672 0 014.672-4.671h27.445zm-13.239 7.896c-2.375 0-4.418 1.393-5.318 3.387l-.165.407-.325-.014c-2.139 0-3.873 1.692-3.873 3.78 0 1.965 1.536 3.58 3.5 3.762l.373.018h11.23l-.003-.005.184-.006c1.741-.138 3.11-1.561 3.11-3.297 0-1.693-1.303-3.089-2.98-3.283-.45-2.693-2.846-4.749-5.733-4.749z" fill="currentColor"/></svg>
