<svg xmlns="http://www.w3.org/2000/svg" viewBox="0 -0.5 49 49" fill="none"><path opacity=".5" d="M35.085 22.94a1.5 1.5 0 011.44 0l8.093 4.426a1.5 1.5 0 01.78 1.316v8.716a1.5 1.5 0 01-.78 1.316l-8.094 4.427a1.5 1.5 0 01-1.44 0l-8.093-4.427a1.5 1.5 0 01-.78-1.316v-8.716c0-.548.3-1.052.78-1.316l8.094-4.426z" fill="currentColor"/><path d="M24.163 4.859a1.5 1.5 0 011.44 0l8.093 4.426a1.5 1.5 0 01.78 1.316v8.716a1.5 1.5 0 01-.78 1.316l-8.094 4.427a1.5 1.5 0 01-1.44 0l-8.093-4.427a1.5 1.5 0 01-.78-1.316v-8.716c0-.548.3-1.053.78-1.316l8.094-4.426zM12.976 22.94a1.5 1.5 0 011.44 0l8.093 4.426a1.5 1.5 0 01.78 1.316v8.716a1.5 1.5 0 01-.78 1.316l-8.093 4.427a1.5 1.5 0 01-1.44 0l-8.093-4.427a1.5 1.5 0 01-.78-1.316v-8.716c0-.548.299-1.052.78-1.316l8.093-4.426z" fill="currentColor"/></svg>
