<svg xmlns="http://www.w3.org/2000/svg" viewBox="0 0 20 20" fill="none"><style>.abzsvg_3cb6a3a0e3__svg_74613b02b0__st0{display:none;fill:currentColor}.abzsvg_3cb6a3a0e3__svg_74613b02b0__st1{opacity:.5;enable-background:new;fill:currentColor}.abzsvg_3cb6a3a0e3__svg_74613b02b0__st2,.abzsvg_3cb6a3a0e3__svg_74613b02b0__st3{fill:currentColor}</style><path class="abzsvg_3cb6a3a0e3__svg_74613b02b0__st0" d="M0 0v20h20V0H0zm2.6 13.8v-6 6zm14.8 0c0 .3-.2.6-.4.7l-.9.5.8.8-1.3 1.3-1.2-1.2-4.1 2.3c-.1.1-.3.1-.4.1-.1 0-.3 0-.4-.1L3 14.4c-.3-.1-.4-.4-.4-.7V6.1c0-.1 0-.3.1-.4l2.9 1.7-2.8-1.6.3-.3 6.5-3.8c.3-.1.6-.1.8 0l6.5 3.8c.3.1.4.4.4.7v7.6z" fill="currentColor"/><path class="abzsvg_3cb6a3a0e3__svg_74613b02b0__st0" d="M9.6 9.8c.2.1.4.4.4.6 0-.2-.2-.5-.4-.6L7.4 8.5l2.2 1.3z" fill="currentColor"/><path class="abzsvg_3cb6a3a0e3__svg_74613b02b0__st1" d="M10 15c-2.8 0-5-2.2-5-5 0-.9.3-1.8.7-2.5L2.8 5.8c-.1.1-.1.3-.2.4v7.6c0 .3.2.6.4.7l6.5 3.8c.1.1.3.1.4.1L10 15z" fill="currentColor"/><path class="abzsvg_3cb6a3a0e3__svg_74613b02b0__st1" d="M9.6 9.8L7.4 8.5C7.2 9 7 9.5 7 10c0 1.7 1.3 3 3 3v-2.6c0-.2-.2-.5-.4-.6z" fill="currentColor"/><path class="abzsvg_3cb6a3a0e3__svg_74613b02b0__st2" d="M10 10.4V13c1.7 0 3-1.3 3-3s-1.3-3-3-3c-1.1 0-2.1.6-2.6 1.5l2.2 1.3c.2.1.4.4.4.6zM10 15v3.4c.1 0 .3 0 .4-.1l4.1-2.3-1.7-1.7c-.8.4-1.8.7-2.8.7z" fill="currentColor"/><path class="abzsvg_3cb6a3a0e3__svg_74613b02b0__st2" d="M16.9 5.5l-6.5-3.8c-.3-.1-.6-.1-.8 0L3.1 5.5c-.2.1-.3.2-.3.3l2.9 1.7C6.6 6 8.2 5 10 5c2.8 0 5 2.2 5 5 0 1.1-.3 2.1-.9 2.9l2.1 2.1.8-.5c.3-.1.4-.4.4-.7V6.2c0-.3-.2-.5-.5-.7zM10 10.4V13v-2.6zM10 15v3.4V15zM2.6 13.8v-6 6z" fill="currentColor"/><path class="abzsvg_3cb6a3a0e3__svg_74613b02b0__st3" d="M7.4 8.5l-1.7-1 1.7 1zM10 15v-2z" fill="currentColor"/></svg>
