<svg xmlns="http://www.w3.org/2000/svg" viewBox="0 0 48 48" fill="none"><path d="M23.006 3.246a2 2 0 011.986 0l16.635 9.517a2 2 0 011.007 1.736v19.003a2 2 0 01-1.007 1.736l-16.635 9.517a2 2 0 01-1.986 0L6.37 35.238a2 2 0 01-1.007-1.736V14.5a2 2 0 011.007-1.736l16.636-9.517z" fill="url(#arasvg_cf5d802e10__paint0_linear_7496_35671)"/><g filter="url(#arasvg_cf5d802e10__filter0_d_7496_35671)"><path fill-rule="evenodd" clip-rule="evenodd" d="M26.02 25.104l.003-.004s-.898-.876-2.193-1.957c-2.097-1.751-5.232-4.043-7.28-4.043a6 6 0 000 12c1.497 0 3.576-1.226 5.405-2.569a38.596 38.596 0 01-2.38-1.903c-.527.364-1.047.69-1.537.954a7.152 7.152 0 01-1.068.483 1.798 1.798 0 01-.42.104 3.07 3.07 0 010-6.139c.012.001.143.01.42.104a7.14 7.14 0 011.068.483c.851.459 1.794 1.106 2.707 1.807.293.225.577.451.847.672l-.004.004s.899.875 2.194 1.957c2.096 1.75 5.232 4.043 7.28 4.043a6 6 0 000-12c-1.498 0-3.577 1.225-5.405 2.568a38.663 38.663 0 012.38 1.903c.527-.363 1.047-.69 1.537-.954a7.146 7.146 0 011.067-.483 1.8 1.8 0 01.42-.104c.001 0 .001 0 0 0a3.07 3.07 0 110 6.14h.001c-.013-.002-.144-.011-.42-.105a7.154 7.154 0 01-1.068-.482c-.852-.46-1.794-1.107-2.707-1.808-.294-.225-.578-.45-.848-.671z" fill="#fff"/></g><defs><linearGradient id="arasvg_cf5d802e10__paint0_linear_7496_35671" x1="23.999" y1="2.678" x2="23.999" y2="45.324" gradientUnits="userSpaceOnUse"><stop stop-color="#818A9C"/><stop offset="1" stop-color="#353D51"/></linearGradient><filter id="arasvg_cf5d802e10__filter0_d_7496_35671" x="2.55" y="13.1" width="42.512" height="28" filterUnits="userSpaceOnUse" color-interpolation-filters="sRGB"><feFlood flood-opacity="0" result="BackgroundImageFix"/><feColorMatrix in="SourceAlpha" values="0 0 0 0 0 0 0 0 0 0 0 0 0 0 0 0 0 0 127 0" result="hardAlpha"/><feOffset dy="2"/><feGaussianBlur stdDeviation="4"/><feComposite in2="hardAlpha" operator="out"/><feColorMatrix values="0 0 0 0 0 0 0 0 0 0 0 0 0 0 0 0 0 0 0.15 0"/><feBlend in2="BackgroundImageFix" result="effect1_dropShadow_7496_35671"/><feBlend in="SourceGraphic" in2="effect1_dropShadow_7496_35671" result="shape"/></filter></defs></svg>
