<svg xmlns="http://www.w3.org/2000/svg" viewBox="0 0 48 48" fill="none"><defs><linearGradient x1="0" y1="1.95" x2="1.578" y2="1.611" id="aqwa"><stop offset="10%" stop-color="#3B91FF"/><stop offset="50%" stop-color="#0D5EFF"/><stop offset="85%" stop-color="#C069FF"/></linearGradient></defs><path d="M31.904 9.614a3.906 3.906 0 002.757-2.762l.482-1.799c.376-1.404 2.369-1.404 2.745 0l.485 1.811a3.906 3.906 0 002.763 2.763l1.81.485c1.405.376 1.405 2.37 0 2.745l-1.798.482a3.906 3.906 0 00-2.762 2.757l-.499 1.853c-.377 1.401-2.366 1.401-2.744 0l-.495-1.84a3.906 3.906 0 00-2.757-2.757l-1.84-.495c-1.402-.378-1.402-2.367 0-2.744l1.853-.5zM7 9h16.809a1 1 0 001-1V6a1 1 0 00-1-1H6.463A3.463 3.463 0 003 8.463v33.075A3.463 3.463 0 006.463 45h33.075A3.462 3.462 0 0043 41.538V24a1 1 0 00-1-1h-2a1 1 0 00-1 1v17H7.75a.75.75 0 01-.75-.75V9zm10.075 16l5.693-5.693a1 1 0 000-1.414l-1.061-1.06a1 1 0 00-1.414 0l-6.26 6.26a.98.98 0 00-.067.073c-.025.02-.05.043-.073.066l-1.06 1.06a1 1 0 000 1.415l7.46 7.46a1 1 0 001.414 0l1.06-1.06a1 1 0 000-1.414L17.076 25zm15.514-5.013a1 1 0 00-.707-1.225l-1.663-.445a1 1 0 00-1.225.707L25.659 31.47a1 1 0 00.707 1.225l1.663.445a1 1 0 001.224-.707l3.336-12.447z" fill-rule="evenodd" fill="url(#aqwa)"/></svg>
