<svg xmlns="http://www.w3.org/2000/svg" viewBox="0 0 48 48" fill="none"><path fill-rule="evenodd" clip-rule="evenodd" d="M17.16 14.123L7.055 25.146 16.6 36.172a1 1 0 01-.038 1.35l-1.308 1.352a1 1 0 01-1.414.022l-.057-.06L2.387 25.822a1 1 0 01.015-1.335L14.38 11.421a1 1 0 011.315-.14l.12.1 1.328 1.37a1 1 0 01.018 1.372zm24.074 11.024L31.572 14.12a1 1 0 01.034-1.354l1.308-1.352a1 1 0 011.414-.022l.054.056 11.514 13.023a1 1 0 01-.012 1.338L33.911 38.871a1 1 0 01-1.413.062l-.042-.042-1.308-1.35a1 1 0 01-.018-1.371l10.104-11.024zM26.006 2.883l1.987.231a1 1 0 01.878 1.11L24.1 45.237a1 1 0 01-1.108.877l-1.986-.23a1 1 0 01-.878-1.11l4.769-41.013a1 1 0 011.108-.878z" fill="currentColor"/></svg>
