<svg xmlns="http://www.w3.org/2000/svg" viewBox="0 0 48 48" fill="none"><path fill-rule="evenodd" clip-rule="evenodd" d="M35.75 25.985l-.873-.108-.218.853C33.445 31.485 29.132 35 24 35c-5.132 0-9.445-3.515-10.659-8.27l-.218-.853-.874.108c-.08.01-.164.015-.249.015H3a2 2 0 110-4h9c.085 0 .168.005.25.015l.873.108.218-.853C14.555 16.515 18.868 13 24 13c5.132 0 9.445 3.515 10.659 8.27l.218.854.874-.109c.081-.01.164-.015.249-.015h9a2 2 0 110 4h-9c-.085 0-.168-.005-.25-.015zM24 31a7 7 0 100-14 7 7 0 000 14z" fill="currentColor"/></svg>
