<svg xmlns="http://www.w3.org/2000/svg" viewBox="0 0 24 24" fill="none"><path fill-rule="evenodd" clip-rule="evenodd" d="M4.533 2.4a.947.947 0 00-.933.96v17.28c0 .53.418.96.933.96h14.934c.515 0 .933-.43.933-.96V3.36c0-.53-.418-.96-.933-.96H15.6v1.2a.24.24 0 01-.24.24H8.64a.24.24 0 01-.24-.24V2.4H4.533zM14.75 8.2a2.25 2.25 0 00-2.25 2.25v1.85c0 .221.179.4.4.4h1.85a2.25 2.25 0 000-4.5zm-5.5 0a2.25 2.25 0 000 4.5h1.85a.4.4 0 00.4-.4v-1.85A2.25 2.25 0 009.25 8.2zm3.65 5.5a.4.4 0 00-.4.4v1.85a2.25 2.25 0 102.25-2.25H12.9zM7 15.95a2.25 2.25 0 012.25-2.25h1.85a.4.4 0 01.4.4v1.85a2.25 2.25 0 01-4.5 0z" fill="currentColor"/><path opacity=".5" d="M7 10.45a2.25 2.25 0 114.5 0v1.85a.4.4 0 01-.4.4H9.25A2.25 2.25 0 017 10.45zM12.5 14.1a.4.4 0 01.4-.4h1.85a2.25 2.25 0 11-2.25 2.25V14.1zM7 15.95a2.25 2.25 0 012.25-2.25h1.85a.4.4 0 01.4.4v1.85a2.25 2.25 0 01-4.5 0zM8.4 2.4h7.2v1.2a.24.24 0 01-.24.24H8.64a.24.24 0 01-.24-.24V2.4z" fill="currentColor"/></svg>
