<svg xmlns="http://www.w3.org/2000/svg" viewBox="0 0 48 48" fill="none"><path fill-rule="evenodd" clip-rule="evenodd" d="M34.902 3.937l3.415 5.746 5.745 3.415a4 4 0 011.833 4.424L44.248 24l1.647 6.477a4 4 0 01-1.833 4.425l-5.745 3.415-3.415 5.746a4 4 0 01-4.425 1.832L24 44.248l-6.478 1.647a4 4 0 01-4.424-1.832l-3.415-5.746-5.746-3.415a4 4 0 01-1.832-4.425L3.752 24l-1.647-6.478a4 4 0 011.832-4.424l5.746-3.415 3.415-5.746a4 4 0 014.424-1.832L24 3.752l6.477-1.647a4 4 0 014.425 1.832zm-3.439 2.044L24.986 7.63a4 4 0 01-1.972 0l-6.478-1.65-3.415 5.746a4 4 0 01-1.394 1.394L5.98 16.536l1.648 6.478a4 4 0 010 1.972L5.98 31.464l5.746 3.415c.573.341 1.053.82 1.394 1.394l3.415 5.746 6.478-1.648a4 4 0 011.972 0l6.477 1.648 3.416-5.746a4 4 0 011.394-1.394l5.746-3.415-1.648-6.478a4 4 0 010-1.972l1.648-6.478-5.746-3.415a4 4 0 01-1.394-1.394L31.464 5.98zm3.85 13.19l-2.828-2.828-11.313 11.314L15.515 22l-2.829 2.828 8.486 8.486 14.142-14.142z" fill="currentColor"/></svg>
