<svg xmlns="http://www.w3.org/2000/svg" viewBox="0 -0.5 49 49" fill="none"><path d="M23.051 2.613a2 2 0 012.058 0l18 10.8a2 2 0 01.971 1.716v17.735a2 2 0 01-.97 1.715l-18 10.8a2 2 0 01-2.059 0l-18-10.8a2 2 0 01-.97-1.715V15.129a2 2 0 01.97-1.715l18-10.8z" fill="url(#arxsvg_3ddc512d4f__paint0_linear_7496_35645)"/><path d="M34.08 7.996l9.03 5.418a2 2 0 01.97 1.715v8.867l-9.029-5.417a2 2 0 01-.97-1.715V7.996z" fill="#B5BCC9"/><g filter="url(#arxsvg_3ddc512d4f__filter0_d_7496_35645)" fill-rule="evenodd" clip-rule="evenodd" fill="#fff"><path d="M22.082 23.996v-8h4v8h-4z"/><path d="M15.188 26.207l8-4 1.788 3.578-8 4-1.788-3.578z"/><path d="M31.188 29.785l-8-4 1.788-3.578 8 4-1.788 3.578z"/></g><defs><linearGradient id="arxsvg_3ddc512d4f__paint0_linear_7496_35645" x1="24.08" y1="1.996" x2="24.08" y2="45.996" gradientUnits="userSpaceOnUse"><stop stop-color="#818A9C"/><stop offset="1" stop-color="#353D51"/></linearGradient><filter id="arxsvg_3ddc512d4f__filter0_d_7496_35645" x="7.188" y="9.996" width="33.789" height="29.789" filterUnits="userSpaceOnUse" color-interpolation-filters="sRGB"><feFlood flood-opacity="0" result="BackgroundImageFix"/><feColorMatrix in="SourceAlpha" values="0 0 0 0 0 0 0 0 0 0 0 0 0 0 0 0 0 0 127 0" result="hardAlpha"/><feOffset dy="2"/><feGaussianBlur stdDeviation="4"/><feComposite in2="hardAlpha" operator="out"/><feColorMatrix values="0 0 0 0 0 0 0 0 0 0 0 0 0 0 0 0 0 0 0.15 0"/><feBlend in2="BackgroundImageFix" result="effect1_dropShadow_7496_35645"/><feBlend in="SourceGraphic" in2="effect1_dropShadow_7496_35645" result="shape"/></filter></defs></svg>
