<svg xmlns="http://www.w3.org/2000/svg" viewBox="0 0 48 48" fill="none"><path fill-rule="evenodd" clip-rule="evenodd" d="M44 6a2 2 0 012 2v10.341a6.003 6.003 0 000 11.318V40a2 2 0 01-2 2H4a2 2 0 01-1.995-1.85L2 40v-9.342a6.002 6.002 0 00.224-11.232l-.223-.084L2 8a2 2 0 011.85-1.995L4 6h40zm-2 4H18v28h24v-5.998A9.998 9.998 0 0138 24a9.998 9.998 0 014-8.002V10zM6 10h8v28H6v-4.999l.252-.194A9.997 9.997 0 0010 25a9.998 9.998 0 00-4-8.001V10zm26 18a1 1 0 011 1v2a1 1 0 01-1 1H22a1 1 0 01-1-1v-2a1 1 0 011-1h10zm1-11a1 1 0 00-1-1H22a1 1 0 00-1 1v2a1 1 0 001 1h10a1 1 0 001-1v-2z" fill="currentColor"/></svg>
