<svg xmlns="http://www.w3.org/2000/svg" viewBox="0 0 48 48" fill="none"><rect x="4.574" y="24.826" width="18.768" height="18.768" rx="1.982" fill="#B5BCC9"/><path d="M41.018 5C42.113 5 43 5.887 43 6.982v30.63a1.982 1.982 0 01-1.982 1.983H15.867V33.47c0-.611-.496-1.107-1.108-1.107H8.574V6.983C8.574 5.886 9.462 5 10.556 5h30.462z" fill="url(#abjsvg_0f63368038__paint0_linear_7496_35669)"/><path d="M27.425 5H41a2 2 0 012 2v13.575H27.425V5z" fill="#B5BCC9"/><path d="M21.995 19.617l2.216 2.22-6.317 6.348-4.041 4.05H8.574v7.18c0 .075.062.137.137.137h7.162V34.26l5.996-6.01 4.297-4.322 2.216 2.221 1.042-7.447-7.429.915z" fill="#fff"/><defs><linearGradient id="abjsvg_0f63368038__paint0_linear_7496_35669" x1="25.787" y1="5" x2="25.787" y2="39.595" gradientUnits="userSpaceOnUse"><stop stop-color="#818A9C"/><stop offset="1" stop-color="#353D51"/></linearGradient></defs></svg>
