<svg xmlns="http://www.w3.org/2000/svg" viewBox="-0.5 0 49 49" fill="none"><g clip-path="url(#atgsvg_4ade204a8d__clip0_7458_35674)"><path d="M42 44.5a2 2 0 002-2v-18h-4v16H8v-32h16v-4H6a2 2 0 00-2 2v36a2 2 0 002 2h36z" fill="currentColor"/><path fill-rule="evenodd" clip-rule="evenodd" d="M38.87 1.969l.132.12 6.868 6.905a2 2 0 01-.004 2.825l-.739.738.013.014-21.512 21.512H16a2 2 0 01-1.995-1.85l-.005-.15v-7.628l20.778-20.94-.019-.019 1.41-1.41a2 2 0 012.702-.117zm-7.107 10.206L18.065 26.142v.006l3.87 3.87h.006l13.825-13.84-4.003-4.003zm5.774-5.887l-2.972 3.031 4.029 4.029 2.989-2.992-4.046-4.068z" fill="currentColor"/></g><defs><clipPath id="atgsvg_4ade204a8d__clip0_7458_35674"><path transform="translate(0 .5)" d="M0 0h48v48H0z" fill="currentColor"/></clipPath></defs></svg>
