<svg xmlns="http://www.w3.org/2000/svg" viewBox="0 0 48 48" fill="none"><path d="M4 42V30a2 2 0 012-2h36a2 2 0 012 2v12a2 2 0 01-2 2H6a2 2 0 01-2-2z" fill="#B5BCC9"/><path d="M38.637 36V14.785a2 2 0 00-.571-1.4l-8.599-8.784A2 2 0 0028.037 4H11.364a2 2 0 00-2 2v30a2 2 0 002 2h25.274a2 2 0 002-2z" fill="url(#atssvg_17c9b9cc8b__paint0_linear_7496_35667)"/><g clip-path="url(#atssvg_17c9b9cc8b__clip0_7496_35667)"><g filter="url(#atssvg_17c9b9cc8b__filter0_d_7496_35667)"><path d="M24.75 17.875a3.375 3.375 0 113.375 3.375h-2.776a.6.6 0 01-.599-.6v-2.775z" fill="#fff"/></g><path d="M16.5 17.875a3.375 3.375 0 116.75 0v2.776a.6.6 0 01-.6.599h-2.775a3.375 3.375 0 01-3.375-3.375zM24.75 23.35a.6.6 0 01.6-.6h2.775a3.375 3.375 0 11-3.375 3.375v-2.776zM16.5 26.125a3.375 3.375 0 013.375-3.375h2.776a.6.6 0 01.599.599v2.776a3.375 3.375 0 11-6.75 0z" fill="#B5BCC9"/></g><defs><linearGradient id="atssvg_17c9b9cc8b__paint0_linear_7496_35667" x1="24" y1="4" x2="24" y2="38" gradientUnits="userSpaceOnUse"><stop stop-color="#818A9C"/><stop offset="1" stop-color="#353D51"/></linearGradient><clipPath id="atssvg_17c9b9cc8b__clip0_7496_35667"><path fill="#fff" transform="translate(15 13)" d="M0 0h18v18H0z"/></clipPath><filter id="atssvg_17c9b9cc8b__filter0_d_7496_35667" x="17.333" y="8.937" width="21.584" height="21.584" filterUnits="userSpaceOnUse" color-interpolation-filters="sRGB"><feFlood flood-opacity="0" result="BackgroundImageFix"/><feColorMatrix in="SourceAlpha" values="0 0 0 0 0 0 0 0 0 0 0 0 0 0 0 0 0 0 127 0" result="hardAlpha"/><feOffset dy="1.854"/><feGaussianBlur stdDeviation="3.708"/><feComposite in2="hardAlpha" operator="out"/><feColorMatrix values="0 0 0 0 0 0 0 0 0 0 0 0 0 0 0 0 0 0 0.15 0"/><feBlend in2="BackgroundImageFix" result="effect1_dropShadow_7496_35667"/><feBlend in="SourceGraphic" in2="effect1_dropShadow_7496_35667" result="shape"/></filter></defs></svg>
