<svg xmlns="http://www.w3.org/2000/svg" viewBox="0 0 48 48" fill="none"><path d="M39.44 39.574V15.58a2 2 0 00-.53-1.355L32.316 7.07a2 2 0 00-1.47-.644H10.558a2 2 0 00-2 2v31.148a2 2 0 002 2h26.88a2 2 0 002-2z" fill="#B5BCC9"/><path d="M40.998 15.843a2 2 0 012 2v23.13a2 2 0 01-2 2H6.999a2 2 0 01-2-2v-27.36a2 2 0 012-2h11.224a2 2 0 011.273.458l4.572 3.772h16.93z" fill="url(#athsvg_facedf33cd__paint0_linear_7496_35672)"/><g filter="url(#athsvg_facedf33cd__filter0_d_7496_35672)" fill="#F5F8FD"><path fill-rule="evenodd" clip-rule="evenodd" d="M17.413 22.116a1.675 1.675 0 000 3.351c.189 0 .342.153.342.342v3.314a3.67 3.67 0 103.44 4.958.55.55 0 01.503-.37h4.605a.55.55 0 01.505.37 3.672 3.672 0 106.119-3.795.536.536 0 01-.116-.187l-.426-1.205a.21.21 0 01.199-.28.21.21 0 00.21-.21v-1.128a.5.5 0 00-.5-.5h-7.386a.5.5 0 00-.5.5v.887c0 .249.202.45.45.45.191 0 .361.12.425.3l.104.295a.5.5 0 01-.471.666h-1.78a.5.5 0 01-.436-.255l-1.5-2.682a.5.5 0 01-.063-.244v-.726c0-.276.229-.492.492-.574a1.676 1.676 0 00-.493-3.277h-3.723zm1.58 10.679a1.24 1.24 0 11-2.477 0 1.24 1.24 0 012.478 0zm11.27 1.239a1.24 1.24 0 100-2.478 1.24 1.24 0 000 2.478z"/><rect x="24.408" y="22.116" width="8.386" height="3.641" rx=".5"/></g><defs><linearGradient id="athsvg_facedf33cd__paint0_linear_7496_35672" x1="42.998" y1="26.81" x2="4.999" y2="26.81" gradientUnits="userSpaceOnUse"><stop stop-color="#818A9C"/><stop offset="1" stop-color="#353D51"/></linearGradient><filter id="athsvg_facedf33cd__filter0_d_7496_35672" x="6.084" y="16.116" width="35.834" height="30.35" filterUnits="userSpaceOnUse" color-interpolation-filters="sRGB"><feFlood flood-opacity="0" result="BackgroundImageFix"/><feColorMatrix in="SourceAlpha" values="0 0 0 0 0 0 0 0 0 0 0 0 0 0 0 0 0 0 127 0" result="hardAlpha"/><feOffset dy="2"/><feGaussianBlur stdDeviation="4"/><feComposite in2="hardAlpha" operator="out"/><feColorMatrix values="0 0 0 0 0 0 0 0 0 0 0 0 0 0 0 0 0 0 0.15 0"/><feBlend in2="BackgroundImageFix" result="effect1_dropShadow_7496_35672"/><feBlend in="SourceGraphic" in2="effect1_dropShadow_7496_35672" result="shape"/></filter></defs></svg>
