<svg xmlns="http://www.w3.org/2000/svg" viewBox="0 -0.5 49 49" fill="none"><path d="M23.223 2.353a2 2 0 011.606-.001l17.005 7.443a1.998 1.998 0 011.198 1.831l-.002 7.76c0 8.248-2.73 13.638-6.286 18.013-3.222 3.962-7.753 6.972-12.181 8.431a1.71 1.71 0 01-1.075.006c-1.775-.584-7.603-2.837-12.18-8.49-4.555-5.627-6.22-11.096-6.22-18.359 0-1.675-.006-4.993-.007-7.362 0-.794.468-1.512 1.195-1.83l16.947-7.442z" fill="url(#atlsvg_a9d8687a4f__paint0_linear_7496_35617)"/><g filter="url(#atlsvg_a9d8687a4f__filter0_d_7496_35617)"><path fill-rule="evenodd" clip-rule="evenodd" d="M23.81 24.035a3.786 3.786 0 100-7.572 3.786 3.786 0 000 7.572zm1.5 2.834a6.786 6.786 0 10-3 0v8.24h3v-3.033h3.221v-3H25.31V26.87z" fill="#fff"/></g><defs><linearGradient id="atlsvg_a9d8687a4f__paint0_linear_7496_35617" x1="24.056" y1="2" x2="24.056" y2="46" gradientUnits="userSpaceOnUse"><stop stop-color="#818A9C"/><stop offset="1" stop-color="#353D51"/></linearGradient><filter id="atlsvg_a9d8687a4f__filter0_d_7496_35617" x="9.217" y="7.607" width="29.187" height="37.261" filterUnits="userSpaceOnUse" color-interpolation-filters="sRGB"><feFlood flood-opacity="0" result="BackgroundImageFix"/><feColorMatrix in="SourceAlpha" values="0 0 0 0 0 0 0 0 0 0 0 0 0 0 0 0 0 0 127 0" result="hardAlpha"/><feOffset dy="1.952"/><feGaussianBlur stdDeviation="3.904"/><feComposite in2="hardAlpha" operator="out"/><feColorMatrix values="0 0 0 0 0 0 0 0 0 0 0 0 0 0 0 0 0 0 0.15 0"/><feBlend in2="BackgroundImageFix" result="effect1_dropShadow_7496_35617"/><feBlend in="SourceGraphic" in2="effect1_dropShadow_7496_35617" result="shape"/></filter></defs></svg>
