<svg xmlns="http://www.w3.org/2000/svg" viewBox="0 0 24 24" fill="none"><path d="M4.992 9.69a.5.5 0 01.5-.5h13.015a.5.5 0 01.5.5v12.424a.5.5 0 01-.682.465l-6.143-2.406a.5.5 0 00-.365 0L5.674 22.58a.5.5 0 01-.682-.465V9.69z" fill="#B5BCC9"/><path d="M11.504.896a1 1 0 01.993 0l8.318 4.759a1 1 0 01.503.868v9.502a1 1 0 01-.503.867l-8.318 4.76a1 1 0 01-.993 0l-8.318-4.76a1 1 0 01-.503-.867V6.522a1 1 0 01.503-.868L11.504.896z" fill="url(#atusvg_3212f5f463__9497067f-0799-4be7-b515-d27ca1b85645)"/><path fill-rule="evenodd" clip-rule="evenodd" d="M8.228 14.278a.557.557 0 100 1.115.557.557 0 000-1.115zM6 14.836a2.228 2.228 0 114.456 0 2.228 2.228 0 01-4.456 0zm9.771-7.681a.557.557 0 100 1.114.557.557 0 000-1.114zm-2.229.557a2.228 2.228 0 114.457 0 2.228 2.228 0 01-4.456 0z" fill="#fff"/><path fill-rule="evenodd" clip-rule="evenodd" d="M7.056 9.61a2.789 2.789 0 012.79-2.79h4.016v1.783H9.845c-.556 0-1.006.45-1.006 1.006 0 .495.4.895.894.895h4.838a2.612 2.612 0 110 5.223h-4.383v-1.783h4.383a.829.829 0 100-1.657H9.733a2.677 2.677 0 01-2.677-2.678z" fill="#fff"/><defs><linearGradient id="atusvg_3212f5f463__9497067f-0799-4be7-b515-d27ca1b85645" x1="12" y1=".612" x2="12" y2="21.935" gradientUnits="userSpaceOnUse"><stop stop-color="#353D51"/><stop offset="1" stop-color="#818A9C"/></linearGradient></defs></svg>
