<svg xmlns="http://www.w3.org/2000/svg" viewBox="0 0 12 12" fill="none"><path fill-rule="evenodd" clip-rule="evenodd" d="M7.463 1.125c.269 0 .487.218.487.488V2.1h2.612c.11 0 .149.011.188.033.04.02.071.052.092.092.022.04.033.079.033.187v.35c0 .11-.011.149-.033.188a.221.221 0 01-.092.092c-.04.022-.079.033-.188.033H9.9v7.313c0 .269-.218.487-.488.487H2.587a.488.488 0 01-.487-.488V3.075h-.663c-.108 0-.148-.011-.187-.033a.221.221 0 01-.092-.092c-.022-.04-.033-.079-.033-.187v-.35c0-.11.011-.149.033-.188a.221.221 0 01.092-.092c.04-.022.079-.033.187-.033H4.05v-.488c0-.269.218-.487.487-.487h2.926zm1.462 1.95h-5.85V9.9h5.85V3.075zM5.269 4.537c.134 0 .244.11.244.244v3.413c0 .134-.11.243-.244.243H4.78a.244.244 0 01-.244-.243V4.78c0-.134.11-.244.244-.244h.488zm1.95 0c.134 0 .244.11.244.244v3.413c0 .134-.11.243-.244.243H6.73a.244.244 0 01-.244-.243V4.78c0-.134.11-.244.244-.244h.488z" fill="currentColor"/></svg>
