<svg xmlns="http://www.w3.org/2000/svg" viewBox="0 0 48 48" fill="none"><path fill-rule="evenodd" clip-rule="evenodd" d="M7.911 14.14a2.572 2.572 0 10-3.823 3.441l11.241 12.49a3.086 3.086 0 004.27.306l5.567-4.64 10.61 13.26H23.997c-.71 0-1.286.575-1.286 1.285v2.572c0 .71.576 1.286 1.286 1.286h19.288c.71 0 1.286-.576 1.286-1.286V23.566c0-.71-.576-1.286-1.286-1.286h-2.572c-.71 0-1.286.576-1.286 1.286v11.761L27.87 20.885a3.086 3.086 0 00-4.385-.443l-5.658 4.716L7.911 14.14z" fill="#141414" fill-opacity=".08"/><path fill-rule="evenodd" clip-rule="evenodd" d="M7.911 11.14a2.572 2.572 0 10-3.823 3.441l11.241 12.49a3.086 3.086 0 004.27.306l5.567-4.64 10.61 13.26H23.997c-.71 0-1.286.575-1.286 1.285v2.572c0 .71.576 1.286 1.286 1.286h19.288c.71 0 1.286-.576 1.286-1.286V20.566c0-.71-.576-1.286-1.286-1.286h-2.572c-.71 0-1.286.576-1.286 1.286v11.761L27.87 17.885a3.086 3.086 0 00-4.385-.443l-5.658 4.716L7.911 11.14z" fill="#2A814B"/></svg>
