<svg xmlns="http://www.w3.org/2000/svg" viewBox="0 0 48 48" fill="none"><path d="M4 44V24.375h40V44H4z" fill="#B5BCC9"/><path d="M33 4a1 1 0 011 1v3h4a2 2 0 012 2v26a2 2 0 01-2 2H10a2 2 0 01-2-2V10a2 2 0 012-2h18.555V5a1 1 0 01.999-1H33z" fill="url(#acksvg_5d8bed5da9__paint0_linear_99119_7805)"/><path d="M24 17.023v16.395M17.57 20.828v12.59M30.43 22.738v11.448" stroke="#B5BCC9" stroke-width="2.653"/><g filter="url(#acksvg_5d8bed5da9__filter0_d_99119_7805)"><circle cx="24" cy="15.063" r="2.653" fill="#F5F8FD"/></g><g filter="url(#acksvg_5d8bed5da9__filter1_d_99119_7805)"><circle cx="17.571" cy="21.737" r="2.653" fill="#F5F8FD"/></g><g filter="url(#acksvg_5d8bed5da9__filter2_d_99119_7805)"><circle cx="30.43" cy="23.856" r="2.653" fill="#F5F8FD"/></g><path fill="#B5BCC9" d="M16.242 31.238h15.515v2.95H16.242z"/><defs><filter id="acksvg_5d8bed5da9__filter0_d_99119_7805" x="14.274" y="7.105" width="19.453" height="19.452" filterUnits="userSpaceOnUse" color-interpolation-filters="sRGB"><feFlood flood-opacity="0" result="BackgroundImageFix"/><feColorMatrix in="SourceAlpha" values="0 0 0 0 0 0 0 0 0 0 0 0 0 0 0 0 0 0 127 0" result="hardAlpha"/><feOffset dy="1.768"/><feGaussianBlur stdDeviation="3.537"/><feComposite in2="hardAlpha" operator="out"/><feColorMatrix values="0 0 0 0 0 0 0 0 0 0 0 0 0 0 0 0 0 0 0.15 0"/><feBlend in2="BackgroundImageFix" result="effect1_dropShadow_99119_7805"/><feBlend in="SourceGraphic" in2="effect1_dropShadow_99119_7805" result="shape"/></filter><filter id="acksvg_5d8bed5da9__filter1_d_99119_7805" x="7.844" y="13.779" width="19.453" height="19.452" filterUnits="userSpaceOnUse" color-interpolation-filters="sRGB"><feFlood flood-opacity="0" result="BackgroundImageFix"/><feColorMatrix in="SourceAlpha" values="0 0 0 0 0 0 0 0 0 0 0 0 0 0 0 0 0 0 127 0" result="hardAlpha"/><feOffset dy="1.768"/><feGaussianBlur stdDeviation="3.537"/><feComposite in2="hardAlpha" operator="out"/><feColorMatrix values="0 0 0 0 0 0 0 0 0 0 0 0 0 0 0 0 0 0 0.15 0"/><feBlend in2="BackgroundImageFix" result="effect1_dropShadow_99119_7805"/><feBlend in="SourceGraphic" in2="effect1_dropShadow_99119_7805" result="shape"/></filter><filter id="acksvg_5d8bed5da9__filter2_d_99119_7805" x="20.704" y="15.898" width="19.453" height="19.452" filterUnits="userSpaceOnUse" color-interpolation-filters="sRGB"><feFlood flood-opacity="0" result="BackgroundImageFix"/><feColorMatrix in="SourceAlpha" values="0 0 0 0 0 0 0 0 0 0 0 0 0 0 0 0 0 0 127 0" result="hardAlpha"/><feOffset dy="1.768"/><feGaussianBlur stdDeviation="3.537"/><feComposite in2="hardAlpha" operator="out"/><feColorMatrix values="0 0 0 0 0 0 0 0 0 0 0 0 0 0 0 0 0 0 0.15 0"/><feBlend in2="BackgroundImageFix" result="effect1_dropShadow_99119_7805"/><feBlend in="SourceGraphic" in2="effect1_dropShadow_99119_7805" result="shape"/></filter><linearGradient id="acksvg_5d8bed5da9__paint0_linear_99119_7805" x1="24" y1="4" x2="24" y2="38" gradientUnits="userSpaceOnUse"><stop stop-color="#818A9C"/><stop offset="1" stop-color="#353D51"/></linearGradient></defs></svg>
