<svg xmlns="http://www.w3.org/2000/svg" viewBox="0 0 48 48" fill="none"><path fill-rule="evenodd" clip-rule="evenodd" d="M3.006 6h6a1 1 0 011 1v2a1 1 0 01-1 1h-6a1 1 0 01-1-1V7a1 1 0 011-1zm0 32h6a1 1 0 011 1v2a1 1 0 01-1 1h-6a1 1 0 01-1-1v-2a1 1 0 011-1zm18 0h6a1 1 0 011 1v2a1 1 0 01-1 1h-6a1 1 0 01-1-1v-2a1 1 0 011-1zm24 0h-6a1 1 0 00-1 1v2a1 1 0 001 1h6a1 1 0 001-1v-2a1 1 0 00-1-1zm-18-32h-6a1 1 0 00-1 1v2a1 1 0 001 1h6a1 1 0 001-1V7a1 1 0 00-1-1zm12 0h6a1 1 0 011 1v2a1 1 0 01-1 1h-6a1 1 0 01-1-1V7a1 1 0 011-1zM45 22H3a1 1 0 00-1 1v2a1 1 0 001 1h42a1 1 0 001-1v-2a1 1 0 00-1-1z" fill="currentColor"/></svg>
