<svg xmlns="http://www.w3.org/2000/svg" viewBox="0 0 48 48" fill="none"><path d="M42 9.568a2 2 0 012 2v21.237a2 2 0 01-2 2H10.654a2 2 0 01-2-2V7.634a2 2 0 012-2h10.25a2 2 0 011.274.457l4.214 3.477H42z" fill="#B5BCC9"/><path d="M37.347 16.387a2 2 0 012 2v21.236a2 2 0 01-2 2H6a2 2 0 01-2-2v-25.17a2 2 0 012-2h10.25a2 2 0 011.273.457l4.214 3.477h15.609z" fill="url(#achsvg_5329b65f5b__paint0_linear_7496_35660)"/><g filter="url(#achsvg_5329b65f5b__filter0_d_7496_35660)"><path fill-rule="evenodd" clip-rule="evenodd" d="M26.992 21.54H16.268L18.6 23.87l-7.561 7.561 3.031 3.032 8.495-8.495v-.001l4.427-4.428z" fill="#fff"/></g><path fill-rule="evenodd" clip-rule="evenodd" d="M16.432 36.823h10.724l-2.332-2.33 7.561-7.562-3.031-3.031-8.495 8.495-4.427 4.428z" fill="#B5BCC9"/><defs><linearGradient id="achsvg_5329b65f5b__paint0_linear_7496_35660" x1="39.347" y1="26.588" x2="4.001" y2="26.588" gradientUnits="userSpaceOnUse"><stop stop-color="#818A9C"/><stop offset="1" stop-color="#353D51"/></linearGradient><filter id="achsvg_5329b65f5b__filter0_d_7496_35660" x="3.039" y="15.539" width="31.953" height="28.925" filterUnits="userSpaceOnUse" color-interpolation-filters="sRGB"><feFlood flood-opacity="0" result="BackgroundImageFix"/><feColorMatrix in="SourceAlpha" values="0 0 0 0 0 0 0 0 0 0 0 0 0 0 0 0 0 0 127 0" result="hardAlpha"/><feOffset dy="2"/><feGaussianBlur stdDeviation="4"/><feComposite in2="hardAlpha" operator="out"/><feColorMatrix values="0 0 0 0 0 0 0 0 0 0 0 0 0 0 0 0 0 0 0.15 0"/><feBlend in2="BackgroundImageFix" result="effect1_dropShadow_7496_35660"/><feBlend in="SourceGraphic" in2="effect1_dropShadow_7496_35660" result="shape"/></filter></defs></svg>
