<svg xmlns="http://www.w3.org/2000/svg" viewBox="0 0 24 24" fill="none"><path fill-rule="evenodd" clip-rule="evenodd" d="M16.296 7.912h4.282a9.526 9.526 0 00-5.803-5c.331.563.604 1.216.828 1.908.293.904.528 1.95.693 3.092zm-1.517 0C14.284 4.712 13.226 2.5 12 2.5h-.002c-1.225.003-2.283 2.214-2.777 5.412h5.56zm-7.076 0c.165-1.142.4-2.188.693-3.092.224-.692.497-1.345.828-1.908a9.526 9.526 0 00-5.802 5h4.28zM11.999 21.5c1.226 0 2.285-2.211 2.78-5.412H9.22c.496 3.2 1.554 5.412 2.78 5.412zm2.776-.412a9.527 9.527 0 005.803-5h-4.282a18.947 18.947 0 01-.693 3.092c-.224.692-.497 1.345-.828 1.908zm-7.072-5H3.422a9.526 9.526 0 005.802 5c-.331-.563-.604-1.216-.828-1.908a18.954 18.954 0 01-.693-3.092zm11.727-6.11a.82.82 0 01.335.61h1.346a1.863 1.863 0 00-.318-1.044 2.043 2.043 0 00-.863-.704c-.368-.169-.798-.253-1.29-.253-.485 0-.918.084-1.298.253-.381.169-.68.403-.899.704-.216.3-.323.652-.321 1.054-.002.49.159.881.483 1.171.325.29.767.503 1.327.639l.723.182c.242.058.447.123.613.194.169.072.297.158.383.26a.552.552 0 01.133.376c0 .16-.049.302-.146.425a.95.95 0 01-.412.289c-.175.069-.381.104-.62.104-.242 0-.459-.037-.651-.11a1.064 1.064 0 01-.458-.335 1.02 1.02 0 01-.191-.558h-1.36c.012.478.127.88.348 1.204.223.322.532.565.928.73.397.164.864.246 1.4.246.541 0 1.003-.081 1.386-.243.385-.165.679-.395.882-.691.206-.299.31-.651.312-1.058a1.762 1.762 0 00-.153-.736 1.659 1.659 0 00-.412-.558 2.424 2.424 0 00-.63-.399 4.199 4.199 0 00-.797-.26l-.597-.142a3.492 3.492 0 01-.409-.117 1.745 1.745 0 01-.337-.165.778.778 0 01-.23-.23.547.547 0 01-.075-.312c0-.143.041-.27.123-.383a.816.816 0 01.364-.263 1.53 1.53 0 01.58-.097c.338 0 .605.073.801.217zM15 8.678v6.643h-1.213l-2.89-4.181h-.049v4.18H9.444V8.679h1.233l2.867 4.178h.058V8.678H15zM2.798 15.32h2.355c.675 0 1.255-.133 1.739-.4.487-.265.86-.647 1.12-1.144.26-.497.392-1.092.392-1.784 0-.69-.131-1.283-.393-1.778A2.691 2.691 0 006.9 9.077c-.483-.266-1.058-.4-1.726-.4H2.798v6.644zm2.297-1.204h-.892V9.881h.895c.415 0 .765.074 1.048.22.283.148.496.377.639.688.145.312.217.713.217 1.204 0 .495-.072.9-.217 1.213a1.42 1.42 0 01-.642.69c-.284.148-.633.221-1.048.221z" fill="url(#acisvg_ed5f2bdecb__paint0_linear_2939_6347)"/><defs><linearGradient id="acisvg_ed5f2bdecb__paint0_linear_2939_6347" x1="12" y1="21.5" x2="12" y2="2.5" gradientUnits="userSpaceOnUse"><stop stop-color="color(display-p3 .5053 .5426 .6125)"/><stop offset="1" stop-color="color(display-p3 .2072 .2396 .3167)"/></linearGradient></defs></svg>
