<svg xmlns="http://www.w3.org/2000/svg" viewBox="0 -0.5 49 49" fill="none"><path fill-rule="evenodd" clip-rule="evenodd" d="M42.76 42.4V16.402a1.6 1.6 0 00-.483-1.145L31.225 4.456A1.6 1.6 0 0030.108 4H8.36a1.6 1.6 0 00-1.6 1.6v36.8a1.6 1.6 0 001.6 1.6h32.8a1.6 1.6 0 001.6-1.6zM18.986 24L15.61 20.62a1 1 0 010-1.414l1.414-1.414a1 1 0 011.414 0l5.5 5.5a1 1 0 010 1.414l-5.5 5.5a1 1 0 01-1.414 0l-1.415-1.414a1 1 0 010-1.414l3.38-3.38zm6.216 5.5a1 1 0 001 1h6a1 1 0 001-1v-2a1 1 0 00-1-1h-6a1 1 0 00-1 1v2z" fill="currentColor"/></svg>
