<svg xmlns="http://www.w3.org/2000/svg" viewBox="-0.5 0 49 49" fill="none"><path fill-rule="evenodd" clip-rule="evenodd" d="M19.692 5.733a1 1 0 00-.642-.233H2a1 1 0 00-1 1v34.791a1 1 0 001 1h15.876a1 1 0 01.504.136l5.285 3.08a1 1 0 00.968.021l5.955-3.122a1 1 0 01.464-.115H46a1 1 0 001-1V6.5a1 1 0 00-1-1H29.979a1 1 0 00-.602.202L24.26 9.56l-4.568-3.827zM6 38.291a1 1 0 01-1-1V10.5a1 1 0 011-1h11.596a1 1 0 01.642.233l3.946 3.306v26.975l-2.724-1.587a1 1 0 00-.503-.136H6zm20.184 1.907l3.419-1.792a1 1 0 01.464-.115H42a1 1 0 001-1V10.5a1 1 0 00-1-1H31.318a1 1 0 00-.602.202l-4.532 3.416v27.08z" fill="currentColor"/><path fill-rule="evenodd" clip-rule="evenodd" d="M18 20.5a1 1 0 01-1 1h-7a1 1 0 01-1-1v-2a1 1 0 011-1h7a1 1 0 011 1v2zM39 20.5a1 1 0 01-1 1h-7a1 1 0 01-1-1v-2a1 1 0 011-1h7a1 1 0 011 1v2zM18 28.5a1 1 0 01-1 1h-7a1 1 0 01-1-1v-2a1 1 0 011-1h7a1 1 0 011 1v2zM39 28.5a1 1 0 01-1 1h-7a1 1 0 01-1-1v-2a1 1 0 011-1h7a1 1 0 011 1v2z" fill="currentColor"/></svg>
