<svg xmlns="http://www.w3.org/2000/svg" viewBox="0 0 49 49" fill="none"><path d="M32.225 3.086a2 2 0 00-1.414-.586H8.22a2 2 0 00-2 2v40a2 2 0 002 2h32a2 2 0 002-2V13.91a2 2 0 00-.585-1.413l-9.41-9.411z" fill="#387AFB"/><path d="M42.221 13.999h-9.5a2 2 0 01-2-2V2.5h.09a2 2 0 011.414.586l9.41 9.41a2 2 0 01.586 1.415v.088z" fill="#1759DD"/><g filter="url(#auwsvg_bdadf006ac__filter0_d_7669_37740)"><path fill-rule="evenodd" clip-rule="evenodd" d="M14.72 21.982a.5.5 0 00-.5.5v2.6a.5.5 0 00.5.5h19.001a.5.5 0 00.5-.5v-2.6a.5.5 0 00-.5-.5h-19zm0 10a.5.5 0 00-.5.5v2.6a.5.5 0 00.5.5h19.001a.5.5 0 00.5-.5v-2.6a.5.5 0 00-.5-.5h-19z" fill="#fff"/></g><defs><filter id="auwsvg_bdadf006ac__filter0_d_7669_37740" x="6.221" y="15.982" width="36" height="29.6" filterUnits="userSpaceOnUse" color-interpolation-filters="sRGB"><feFlood flood-opacity="0" result="BackgroundImageFix"/><feColorMatrix in="SourceAlpha" values="0 0 0 0 0 0 0 0 0 0 0 0 0 0 0 0 0 0 127 0" result="hardAlpha"/><feOffset dy="2"/><feGaussianBlur stdDeviation="4"/><feComposite in2="hardAlpha" operator="out"/><feColorMatrix values="0 0 0 0 0 0 0 0 0 0 0 0 0 0 0 0 0 0 0.15 0"/><feBlend in2="BackgroundImageFix" result="effect1_dropShadow_7669_37740"/><feBlend in="SourceGraphic" in2="effect1_dropShadow_7669_37740" result="shape"/></filter></defs></svg>
