<svg xmlns="http://www.w3.org/2000/svg" viewBox="0 0 48 48" fill="none"><g clip-path="url(#avfsvg_c6c7038b82__clip0_94111_209904)"><path fill-rule="evenodd" clip-rule="evenodd" d="M32.51 24.83a2 2 0 002.828 0l1.414-1.414a2 2 0 000-2.828l-9.928-9.929a2.016 2.016 0 00-.191-.221l-1.415-1.414a2 2 0 00-2.828 0L11.076 20.338a2 2 0 000 2.828l1.414 1.414a2 2 0 002.829 0l8.47-8.47 8.72 8.72zm0 14.146a2 2 0 002.828 0l1.414-1.414a2 2 0 000-2.829l-9.928-9.928a2.016 2.016 0 00-.191-.221l-1.415-1.415a2 2 0 00-2.828 0L11.076 34.483a2 2 0 000 2.829l1.414 1.414a2 2 0 002.829 0l8.47-8.47 8.72 8.72z" fill="currentColor"/></g><defs><clipPath id="avfsvg_c6c7038b82__clip0_94111_209904"><path d="M0 0h48v48H0z" fill="currentColor"/></clipPath></defs></svg>
