<svg xmlns="http://www.w3.org/2000/svg" viewBox="0 0 36 36" fill="none"><path fill-rule="evenodd" clip-rule="evenodd" d="M22.81 13.506a10.498 10.498 0 006.308 2.107l.032-.002v-4.883c-3.464 0-6.272-2.952-6.272-6.595H18.2v18.953c0 2.172-1.677 3.935-3.74 3.935-2.067 0-3.744-1.763-3.744-3.935 0-2.175 1.677-3.935 3.743-3.935.45 0 .897.084 1.317.249v-5.054a7.915 7.915 0 00-1.352-.117c-4.631 0-8.385 3.947-8.385 8.819 0 4.872 3.754 8.818 8.385 8.818 1.856 0 3.57-.633 4.96-1.706a6.431 6.431 0 01.594-8.414 6.434 6.434 0 012.831-1.651v-6.589z" fill="currentColor"/><path fill-rule="evenodd" clip-rule="evenodd" d="M19.511 28.375a5.431 5.431 0 1110.036-4.157 5.431 5.431 0 01-10.036 4.157zm3.67-4.512h-2.2l3.3 6.079 3.796-6.079h-1.28l-1.966 3.163-1.65-3.163z" fill="currentColor"/></svg>
