<svg xmlns="http://www.w3.org/2000/svg" viewBox="0 0 48 48" fill="none"><path fill-rule="evenodd" clip-rule="evenodd" d="M11.25 31.5c.69 0 1.25.56 1.25 1.25v3.75h23v-3.75c0-.69.56-1.25 1.25-1.25h2.5c.69 0 1.25.56 1.25 1.25V39a2.5 2.5 0 01-2.5 2.5H10A2.5 2.5 0 017.5 39v-6.25c0-.69.56-1.25 1.25-1.25h2.5zm13.937-2.777l9.375-9.374a1.25 1.25 0 000-1.768l-1.768-1.768a1.25 1.25 0 00-1.768 0L26.5 20.34V7.75c0-.69-.56-1.25-1.25-1.25h-2.5c-.69 0-1.25.56-1.25 1.25l-.001 11.983-3.918-3.92a1.25 1.25 0 00-1.768 0l-1.768 1.768a1.25 1.25 0 000 1.768l9.375 9.374a1.25 1.25 0 001.767 0z" fill="currentColor"/></svg>
