<svg xmlns="http://www.w3.org/2000/svg" viewBox="0 0 48 48" fill="none"><path fill-rule="evenodd" clip-rule="evenodd" d="M12 36a1 1 0 011 1v4a1 1 0 01-1 1H8a1 1 0 01-1-1v-4a1 1 0 011-1h4zm28 0a1 1 0 011 1v4a1 1 0 01-1 1h-4a1 1 0 01-1-1v-4a1 1 0 011-1h4zm-18 0h4a1 1 0 011 1v4a1 1 0 01-1 1h-4a1 1 0 01-1-1v-4a1 1 0 011-1zM12 21a1 1 0 011 1v4a1 1 0 01-1 1H8a1 1 0 01-1-1v-4a1 1 0 011-1h4zm28 0a1 1 0 011 1v4a1 1 0 01-1 1h-4a1 1 0 01-1-1v-4a1 1 0 011-1h4zm-14 0a1 1 0 011 1v4a1 1 0 01-1 1h-4a1 1 0 01-1-1v-4a1 1 0 011-1h4zM40 6a1 1 0 011 1v4a1 1 0 01-1 1h-4a1 1 0 01-1-1V7a1 1 0 011-1h4zM26 6a1 1 0 011 1v4a1 1 0 01-1 1h-4a1 1 0 01-1-1V7a1 1 0 011-1h4zM12 6a1 1 0 011 1v4a1 1 0 01-1 1H8a1 1 0 01-1-1V7a1 1 0 011-1h4z" fill="currentColor"/></svg>
