<svg xmlns="http://www.w3.org/2000/svg" viewBox="0 0 48 48" fill="none"><path fill-rule="evenodd" clip-rule="evenodd" d="M6.001 8.977a1 1 0 011-1h34a1 1 0 011 1v2a1 1 0 01-1 1h-34a1 1 0 01-1-1v-2zM6.001 36.969a1 1 0 011-1h34a1 1 0 011 1v2a1 1 0 01-1 1h-34a1 1 0 01-1-1v-2zM37.298 17.43a1 1 0 00-1.414 0l-1.414 1.414a1 1 0 000 1.414l1.714 1.715H7.001a1 1 0 00-1 1v2a1 1 0 001 1h29.177L34.47 27.68a1 1 0 000 1.414l1.414 1.415a1 1 0 001.414 0l5.833-5.833a1 1 0 000-1.415l-5.833-5.832z" fill="currentColor"/></svg>
