<svg xmlns="http://www.w3.org/2000/svg" viewBox="0 0 48 48" fill="none"><path fill-rule="evenodd" clip-rule="evenodd" d="M45 39a1 1 0 011 1v2a1 1 0 01-1 1H3a1 1 0 01-1-1v-2a1 1 0 011-1h42zm0-8a1 1 0 011 1v2a1 1 0 01-1 1H3a1 1 0 01-1-1v-2a1 1 0 011-1h42zM8 22a2 2 0 110 4 2 2 0 010-4zm8 0a2 2 0 110 4 2 2 0 010-4zm8 0a2 2 0 110 4 2 2 0 010-4zm8 0a2 2 0 110 4 2 2 0 010-4zm8 0a2 2 0 110 4 2 2 0 010-4zM8 15a2 2 0 110 4 2 2 0 010-4zm8 0a2 2 0 110 4 2 2 0 010-4zm8 0a2 2 0 110 4 2 2 0 010-4zm8 0a2 2 0 110 4 2 2 0 010-4zm8 0a2 2 0 110 4 2 2 0 010-4zM8 8a2 2 0 110 4 2 2 0 010-4zm8 0a2 2 0 110 4 2 2 0 010-4zm8 0a2 2 0 110 4 2 2 0 010-4zm8 0a2 2 0 110 4 2 2 0 010-4zm8 0a2 2 0 110 4 2 2 0 010-4z" fill="currentColor"/></svg>
