<svg xmlns="http://www.w3.org/2000/svg" viewBox="0 -0.5 49 49" fill="none"><g opacity=".5"><path d="M26.531 4.077c-.91 1.435-2.107 2.835-3.338 3.119a9.279 9.279 0 01-2.057.265c-.441.012-.744.02-1.185.231-.06 1.263.218 1.822.498 2.384.145.292.29.584.39.977.42 1.66.192 3.433-.888 4.65-1.381 1.552-3.006 1.344-4.655 0-.625-.511-1.11-1.428-1.53-2.22-.381-.72-.708-1.337-1.037-1.456-.207-.076-.597-.06-1.072-.042-.803.03-1.848.07-2.656-.302C12.661 7.006 18.36 4 24.759 4c.597 0 1.189.026 1.772.077zM41.019 35.648c-.402-.591-1.248-1.545-2.4-2.042-1.095-.472-2.078-.285-2.911-.126-.442.084-.841.16-1.194.126-.401-.039-.68-.348-1.038-.745-.549-.61-1.284-1.425-2.935-1.783-2.725-.591-7.092 1.018-7.092 5.024 0 3.14 1.816 4.484 3.47 5.709.457.338.9.666 1.291 1.021.278.253.49.503.65.747a20.01 20.01 0 0012.159-7.93z" fill="currentColor"/></g><path d="M15.713 27.43h-.523v-7.15h.476c.308 0 .573.05.797.15.224.093.404.244.54.452.135.209.234.485.296.828.068.344.102.766.102 1.266v1.742c0 .667-.06 1.2-.18 1.602-.12.396-.305.68-.555.851-.244.172-.562.258-.953.258z" fill="currentColor"/><path fill-rule="evenodd" clip-rule="evenodd" d="M41.019 35.648A19.909 19.909 0 0044.759 24c0-10.449-8.012-19.026-18.228-19.923-.91 1.434-2.107 2.835-3.338 3.119a9.279 9.279 0 01-2.057.264c-.441.013-.744.022-1.185.232-.06 1.263.218 1.822.498 2.384.145.292.29.584.39.977.42 1.66.192 3.433-.888 4.65-1.381 1.552-3.006 1.344-4.655 0-.625-.511-1.11-1.428-1.53-2.22-.381-.72-.708-1.337-1.037-1.456-.207-.076-.597-.06-1.072-.043-.803.031-1.848.071-2.656-.301A19.914 19.914 0 004.759 24c0 11.046 8.955 20 20 20 1.406 0 2.777-.145 4.101-.42a3.93 3.93 0 00-.65-.748c-.39-.355-.834-.683-1.29-1.02-1.655-1.226-3.471-2.57-3.471-5.71 0-4.006 4.367-5.615 7.092-5.024 1.65.358 2.386 1.174 2.935 1.783.358.397.637.706 1.038.745.353.034.752-.042 1.194-.126.833-.16 1.816-.346 2.91.126 1.153.497 1.999 1.45 2.401 2.042zm-6.063-9.61c.036.141.054.3.054.477 0 .203-.026.39-.078.563a.802.802 0 01-.281.406c-.13.099-.315.148-.555.148-.26 0-.479-.028-.656-.086a.995.995 0 01-.438-.296c-.109-.141-.19-.326-.242-.555a3.874 3.874 0 01-.078-.844h-2.687c0 .672.117 1.253.351 1.742.235.485.547.883.938 1.196a4.15 4.15 0 001.32.687c.49.146.987.219 1.492.219.552 0 1.047-.07 1.485-.211.442-.14.82-.347 1.132-.617a2.67 2.67 0 00.711-1.008c.167-.396.25-.85.25-1.36 0-.479-.07-.908-.21-1.289a2.971 2.971 0 00-.61-1.015 4.153 4.153 0 00-1.008-.805 8.154 8.154 0 00-1.367-.648 9.21 9.21 0 01-.602-.32 3.613 3.613 0 01-.484-.344 1.547 1.547 0 01-.32-.383.948.948 0 01-.117-.469c0-.208.039-.398.117-.57a.981.981 0 01.343-.422c.157-.104.347-.156.57-.156.25 0 .451.062.602.187.157.125.271.297.344.516.073.219.11.471.11.758h2.664c0-.72-.157-1.342-.47-1.868a3.115 3.115 0 00-1.288-1.226c-.547-.292-1.18-.438-1.899-.438-.541 0-1.041.076-1.5.227-.458.146-.857.36-1.195.64a2.996 2.996 0 00-.79 1.008c-.187.39-.28.831-.28 1.32 0 .511.093.959.28 1.344.188.38.436.714.743 1a5.55 5.55 0 001.055.743c.39.208.789.395 1.195.562.323.14.58.276.774.406.192.125.335.25.43.375a.98.98 0 01.195.407zm-19.243 3.5h-3.195V18.165h3.148a4.8 4.8 0 011.813.328 3.817 3.817 0 011.414.953c.396.416.7.922.914 1.515.214.594.32 1.271.32 2.032v1.726c0 .756-.106 1.433-.32 2.032a4.26 4.26 0 01-.914 1.515c-.39.417-.857.735-1.398.953-.537.214-1.13.32-1.782.32zM29.19 18.165v11.375h-2.664l-2.852-7.079v7.079h-2.672V18.164h2.672l2.852 7.078v-7.078h2.664z" fill="currentColor"/></svg>
