<svg xmlns="http://www.w3.org/2000/svg" viewBox="0 0 48 48" fill="none"><rect x="5" y="5" width="38" height="38" rx="2.232" fill="url(#awbsvg_8e16617d71__paint0_linear_7496_35670)"/><mask id="awba" style="mask-type:alpha" maskUnits="userSpaceOnUse" x="5" y="5" width="38" height="38"><rect x="5" y="5" width="38" height="38" rx="2.232" fill="url(#awbsvg_8e16617d71__paint1_linear_7496_35670)"/></mask><g mask="url(#awba)"><circle cx="13.921" cy="26.204" r="4.186" transform="rotate(180 13.921 26.204)" fill="#fff"/><path fill-rule="evenodd" clip-rule="evenodd" d="M16.87 54.617A25.311 25.311 0 015.548 57.27c-6.99 0-13.32-2.822-17.916-7.389C-11.03 38.9-2.689 30.078 8.056 28.022a6.138 6.138 0 01-.26-2.223c-11.15 2.064-19.952 10.819-22.086 21.943a25.309 25.309 0 01-5.576-15.886c0-14.037 11.379-25.416 25.415-25.416 5.058 0 9.771 1.478 13.73 4.025a6.169 6.169 0 011.476-1.704A27.519 27.519 0 005.549 4.208c-15.27 0-27.648 12.378-27.648 27.648a27.55 27.55 0 007.406 18.832 28.01 28.01 0 00-.093 2.295c0 15.27 12.378 27.648 27.647 27.648 11.169 0 20.79-6.623 25.153-16.155h.021c15.27 0 27.648-12.378 27.648-27.648 0-15.269-12.378-27.647-27.648-27.647-2.848 0-5.596.43-8.182 1.23a6.1 6.1 0 01.779 2.098 25.414 25.414 0 017.403-1.096c14.037 0 25.415 11.38 25.415 25.415 0 13.739-10.9 24.931-24.525 25.4a27.601 27.601 0 001.584-9.245c0-5.227-1.45-10.115-3.972-14.284a6.161 6.161 0 01-1.787 1.361 25.298 25.298 0 013.526 12.923c0 3.252-.61 6.36-1.723 9.218a25.325 25.325 0 01-16.121-7.041 27.725 27.725 0 0011.316-14.45 6.112 6.112 0 01-2.19-.495A25.491 25.491 0 0118.86 53.51a25.317 25.317 0 01-6.24-16.681c0-1.554.14-3.074.406-4.55a6.1 6.1 0 01-2.134-.734 27.791 27.791 0 00-.504 5.283c0 6.775 2.436 12.98 6.481 17.789zm12.358-37.042a6.165 6.165 0 01-1.76 1.407 25.247 25.247 0 013.284 9.58 6.168 6.168 0 012.245-.043 27.472 27.472 0 00-3.77-10.944zm-8.57.708a6.17 6.17 0 01-1.431-1.718 27.813 27.813 0 00-3.405 3.8c.73.237 1.399.607 1.98 1.082a25.547 25.547 0 012.856-3.164zm-.598 8a27.509 27.509 0 017.982 3.59 6.17 6.17 0 00-1.429 1.734 25.287 25.287 0 00-6.987-3.129c.271-.68.425-1.42.434-2.196zm-1.628 30.041a27.56 27.56 0 0017.157 8.045C31.413 72.69 22.804 78.4 12.861 78.4c-14.036 0-25.415-11.38-25.415-25.416l.001-.23a27.54 27.54 0 0018.102 6.75c4.652 0 9.036-1.149 12.883-3.179z" fill="#B5BCC9"/><circle cx="31.988" cy="34.576" r="4.186" transform="rotate(180 31.988 34.576)" fill="#fff"/><circle cx="24.582" cy="13.561" r="4.186" transform="rotate(180 24.582 13.561)" fill="#fff"/></g><defs><linearGradient id="awbsvg_8e16617d71__paint0_linear_7496_35670" x1="24" y1="5" x2="24" y2="43" gradientUnits="userSpaceOnUse"><stop stop-color="#818A9C"/><stop offset="1" stop-color="#353D51"/></linearGradient><linearGradient id="awbsvg_8e16617d71__paint1_linear_7496_35670" x1="24" y1="5" x2="24" y2="43" gradientUnits="userSpaceOnUse"><stop stop-color="#818A9C"/><stop offset="1" stop-color="#353D51"/></linearGradient></defs></svg>
