<svg xmlns="http://www.w3.org/2000/svg" viewBox="0 0 36 36" fill="none"><switch><g><path fill-rule="evenodd" clip-rule="evenodd" d="M20.7 8.775a9.16 9.16 0 00-6 .225c-1.95.75-3.6 2.025-4.725 3.75C8.85 14.475 8.325 16.5 8.4 18.6c.075 2.1.9 4.05 2.25 5.625 1.35 1.575 3.15 2.7 5.175 3.15 2.025.45 4.125.3 6-.6 1.35-.6 2.925 0 3.525 1.35.6 1.35 0 2.925-1.35 3.525-2.925 1.275-6.225 1.65-9.375.9-3.15-.75-6-2.475-8.1-4.875A15.219 15.219 0 013 18.975c-.15-3.225.675-6.45 2.4-9.15 1.8-2.7 4.35-4.8 7.425-5.85 3-1.125 6.375-1.2 9.45-.3C25.35 4.575 28.125 6.45 30 9c1.95 2.625 3 5.7 3 9 0 1.5-1.2 2.7-2.7 2.7-1.5 0-2.7-1.2-2.7-2.7 0-2.1-.675-4.05-1.875-5.775a9.841 9.841 0 00-5.025-3.45z" fill="url(#awka)"/><linearGradient id="awka" x1="19.822" y1="10.361" x2="16.072" y2="24.424" gradientUnits="userSpaceOnUse"><stop stop-color="#1CB267"/><stop offset="1" stop-color="#1CB267" stop-opacity="0"/></linearGradient><path fill-rule="evenodd" clip-rule="evenodd" d="M20.7 8.775a9.16 9.16 0 00-6 .225c-1.95.75-3.6 2.025-4.725 3.75C8.85 14.475 8.325 16.5 8.4 18.6c.075 2.1.9 4.05 2.25 5.625 1.35 1.575 3.15 2.7 5.175 3.15 2.025.45 4.125.3 6-.6 1.35-.6 2.925 0 3.525 1.35.6 1.35 0 2.925-1.35 3.525-2.925 1.275-6.225 1.65-9.375.9-3.15-.75-6-2.475-8.1-4.875A15.219 15.219 0 013 18.975c-.15-3.225.675-6.45 2.4-9.15 1.8-2.7 4.35-4.8 7.425-5.85 3-1.125 6.375-1.2 9.45-.3C25.35 4.575 28.125 6.45 30 9c1.95 2.625 3 5.7 3 9 0 1.5-1.2 2.7-2.7 2.7-1.5 0-2.7-1.2-2.7-2.7 0-2.1-.675-4.05-1.875-5.775a9.841 9.841 0 00-5.025-3.45z" fill="url(#awkb)"/><linearGradient id="awkb" x1="-.86" y1="14.35" x2="28.202" y2="19.975" gradientUnits="userSpaceOnUse"><stop stop-color="#8DD8B3"/><stop offset="1" stop-color="#8DD8B3" stop-opacity="0"/></linearGradient></g><animateTransform attributeName="transform" begin="0s" dur="2s" type="rotate" from="0 18 18" to="360 18 18" repeatCount="indefinite"/></switch></svg>
