<svg xmlns="http://www.w3.org/2000/svg" viewBox="0 0 24 24" fill="none"><path fill-rule="evenodd" clip-rule="evenodd" d="M13.8 5.85c-1.3-.4-2.7-.35-4 .15-1.3.5-2.4 1.35-3.15 2.5S5.55 11 5.6 12.4c.05 1.4.6 2.7 1.5 3.75.9 1.05 2.1 1.8 3.45 2.1 1.35.3 2.75.2 4-.4.9-.4 1.95 0 2.35.9.4.9 0 1.95-.9 2.35-1.95.85-4.15 1.1-6.25.6-2.1-.5-4-1.65-5.4-3.25C3 16.85 2.15 14.8 2 12.65c-.1-2.15.45-4.3 1.6-6.1 1.2-1.8 2.9-3.2 4.95-3.9 2-.75 4.25-.8 6.3-.2C16.9 3.05 18.75 4.3 20 6c1.3 1.75 2 3.8 2 6 0 1-.8 1.8-1.8 1.8s-1.8-.8-1.8-1.8c0-1.4-.45-2.7-1.25-3.85-.85-1.1-2-1.9-3.35-2.3z" fill="url(#awjsvg_ae58b9f369__paint0_linear_118545_226296)"/><path fill-rule="evenodd" clip-rule="evenodd" d="M13.8 5.85c-1.3-.4-2.7-.35-4 .15-1.3.5-2.4 1.35-3.15 2.5S5.55 11 5.6 12.4c.05 1.4.6 2.7 1.5 3.75.9 1.05 2.1 1.8 3.45 2.1 1.35.3 2.75.2 4-.4.9-.4 1.95 0 2.35.9.4.9 0 1.95-.9 2.35-1.95.85-4.15 1.1-6.25.6-2.1-.5-4-1.65-5.4-3.25C3 16.85 2.15 14.8 2 12.65c-.1-2.15.45-4.3 1.6-6.1 1.2-1.8 2.9-3.2 4.95-3.9 2-.75 4.25-.8 6.3-.2C16.9 3.05 18.75 4.3 20 6c1.3 1.75 2 3.8 2 6 0 1-.8 1.8-1.8 1.8s-1.8-.8-1.8-1.8c0-1.4-.45-2.7-1.25-3.85-.85-1.1-2-1.9-3.35-2.3z" fill="url(#awjsvg_ae58b9f369__paint1_linear_118545_226296)"/><defs><linearGradient id="awjsvg_ae58b9f369__paint0_linear_118545_226296" x1="13.215" y1="6.907" x2="10.715" y2="16.283" gradientUnits="userSpaceOnUse"><stop stop-color="#309256"/><stop offset="1" stop-color="#309256" stop-opacity="0"/></linearGradient><linearGradient id="awjsvg_ae58b9f369__paint1_linear_118545_226296" x1="-.573" y1="9.567" x2="18.801" y2="13.317" gradientUnits="userSpaceOnUse"><stop stop-color="#8DD8B3"/><stop offset="1" stop-color="#8DD8B3" stop-opacity="0"/></linearGradient></defs></svg>
