<svg xmlns="http://www.w3.org/2000/svg" viewBox="0 -0.5 49 49" fill="none"><rect x="4.08" y="18.546" width="40.001" height="10.909" rx="2" fill="#B5BCC9"/><rect x="18.624" y="44.001" width="40.001" height="10.909" rx="2" transform="rotate(-90 18.624 44.001)" fill="#B5BCC9"/><path d="M40.443 9.636a2 2 0 00-2-2H9.715a2 2 0 00-2 2v28.728a2 2 0 002 2h28.728a2 2 0 002-2V9.636z" fill="url(#awnsvg_5b9194f6cf__paint0_linear_7496_35606)"/><g filter="url(#awnsvg_5b9194f6cf__filter0_d_7496_35606)"><path d="M17.492 28.586a2 2 0 002 2h9.173a2 2 0 002-2v-9.172a2 2 0 00-2-2h-9.173a2 2 0 00-2 2v9.172z" fill="#fff"/></g><g filter="url(#awnsvg_5b9194f6cf__filter1_d_7496_35606)"><path fill-rule="evenodd" clip-rule="evenodd" d="M18.104 30.026c.36.347.849.56 1.388.56h9.173a2 2 0 002-2v-9.172c0-.54-.214-1.029-.561-1.389l-5.792 5.792-6.209 6.209z" fill="#B5BCC9"/></g><defs><filter id="awnsvg_5b9194f6cf__filter0_d_7496_35606" x="11.492" y="13.413" width="25.173" height="25.173" filterUnits="userSpaceOnUse" color-interpolation-filters="sRGB"><feFlood flood-opacity="0" result="BackgroundImageFix"/><feColorMatrix in="SourceAlpha" values="0 0 0 0 0 0 0 0 0 0 0 0 0 0 0 0 0 0 127 0" result="hardAlpha"/><feOffset dy="2"/><feGaussianBlur stdDeviation="3"/><feComposite in2="hardAlpha" operator="out"/><feColorMatrix values="0 0 0 0 0 0 0 0 0 0 0 0 0 0 0 0 0 0 0.19 0"/><feBlend in2="BackgroundImageFix" result="effect1_dropShadow_7496_35606"/><feBlend in="SourceGraphic" in2="effect1_dropShadow_7496_35606" result="shape"/></filter><filter id="awnsvg_5b9194f6cf__filter1_d_7496_35606" x="12.104" y="14.025" width="24.561" height="24.561" filterUnits="userSpaceOnUse" color-interpolation-filters="sRGB"><feFlood flood-opacity="0" result="BackgroundImageFix"/><feColorMatrix in="SourceAlpha" values="0 0 0 0 0 0 0 0 0 0 0 0 0 0 0 0 0 0 127 0" result="hardAlpha"/><feOffset dy="2"/><feGaussianBlur stdDeviation="3"/><feComposite in2="hardAlpha" operator="out"/><feColorMatrix values="0 0 0 0 0 0 0 0 0 0 0 0 0 0 0 0 0 0 0.19 0"/><feBlend in2="BackgroundImageFix" result="effect1_dropShadow_7496_35606"/><feBlend in="SourceGraphic" in2="effect1_dropShadow_7496_35606" result="shape"/></filter><linearGradient id="awnsvg_5b9194f6cf__paint0_linear_7496_35606" x1="24.079" y1="7.636" x2="24.079" y2="40.364" gradientUnits="userSpaceOnUse"><stop stop-color="#818A9C"/><stop offset="1" stop-color="#353D51"/></linearGradient></defs></svg>
