<svg xmlns="http://www.w3.org/2000/svg" viewBox="0 0 48 48" fill="none"><path fill-rule="evenodd" clip-rule="evenodd" d="M31.173 13.616v2.007H16.819v-2.007a7.177 7.177 0 1114.354 0zm-24.56 2.007h6.205v-2.007c0-6.173 5.005-11.177 11.178-11.177 6.173 0 11.177 5.004 11.177 11.177v2.007h6.213a2 2 0 012 2v25.044a2 2 0 01-2 2H6.613a2 2 0 01-2-2V17.623a2 2 0 012-2zm20.956 11.946a3.57 3.57 0 01-2.026 3.219v5.16a.3.3 0 01-.3.3h-2.484a.3.3 0 01-.3-.3v-5.16a3.569 3.569 0 115.11-3.22z" fill="currentColor"/></svg>
