<svg xmlns="http://www.w3.org/2000/svg" viewBox="0 -0.5 49 49" fill="none"><path fill-rule="evenodd" clip-rule="evenodd" d="M31.551 16.68v-2.24c0-3.836-3.16-7-7.055-7-3.896 0-7.056 3.163-7.056 7v2.24c0 3.835 3.16 7 7.056 7s7.055-3.165 7.055-7zM24.496 2.44c-6.628 0-12.056 5.372-12.056 12v2.24c0 6.627 5.428 12 12.056 12 6.627 0 12.055-5.373 12.055-12v-2.24c0-6.628-5.428-12-12.055-12z" fill="#B5BCC9"/><path fill-rule="evenodd" clip-rule="evenodd" d="M33.051 16.68v-2.24c0-4.674-3.84-8.5-8.555-8.5-4.716 0-8.556 3.826-8.556 8.5v2.24c0 4.673 3.84 8.5 8.556 8.5 4.715 0 8.555-3.827 8.555-8.5zM24.496 2.44c-6.628 0-12.056 5.372-12.056 12v2.24c0 6.627 5.428 12 12.056 12 6.627 0 12.055-5.373 12.055-12v-2.24c0-6.628-5.428-12-12.055-12z" fill="#717B8D"/><rect x="5.287" y="15.56" width="38.424" height="29.541" rx="2" fill="url(#awxsvg_5a8cf9fe6a__paint0_linear_18705_56636)"/><path fill-rule="evenodd" clip-rule="evenodd" d="M26.236 32.937a3.65 3.65 0 10-3.47 0v4.128a.3.3 0 00.3.3h2.87a.3.3 0 00.3-.3v-4.128z" fill="#fff"/><path d="M5.29 17.123a2 2 0 012-2h34.423a2 2 0 012 2v2.761H5.29v-2.76z" fill="#B5BCC9"/><defs><linearGradient id="awxsvg_5a8cf9fe6a__paint0_linear_18705_56636" x1="24.499" y1="15.56" x2="24.499" y2="45.1" gradientUnits="userSpaceOnUse"><stop stop-color="#818A9C"/><stop offset="1" stop-color="#353D51"/></linearGradient></defs></svg>
