<svg xmlns="http://www.w3.org/2000/svg" viewBox="0 0 48 48" fill="none"><path d="M23.969 2l19.007 8.32-.002 9.067c0 8.247-2.73 13.637-6.287 18.012-3.352 4.123-8.122 7.214-12.719 8.601 0 0-7.25-1.903-12.716-8.653C6.696 31.719 5.03 26.25 5.03 18.987c0-2.016-.007-6.408-.007-8.668L23.97 2z" fill="url(#acxsvg_91f81b3770__paint0_linear_99119_8438)"/><path d="M10.496 18.99a5.012 5.012 0 014.725 3.34h11.976v3.34H15.221a5.01 5.01 0 11-4.725-6.68zm0 3.34a1.67 1.67 0 100 3.34 1.67 1.67 0 000-3.34z" fill="#B5BCC9"/><path d="M22.186 29.01l5.01-5.01-5.01-5.01" stroke="#fff" stroke-width="3.34" stroke-linejoin="round"/><defs><linearGradient id="acxsvg_91f81b3770__paint0_linear_99119_8438" x1="24" y1="2" x2="24" y2="46" gradientUnits="userSpaceOnUse"><stop stop-color="#818A9C"/><stop offset="1" stop-color="#353D51"/></linearGradient></defs></svg>
