<svg xmlns="http://www.w3.org/2000/svg" viewBox="0 0 48 48" fill="none"><path fill-rule="evenodd" clip-rule="evenodd" d="M13 38a1 1 0 011 1v2a1 1 0 01-1 1H3a1 1 0 01-1-1v-2a1 1 0 011-1h10zm16 0a1 1 0 011 1v2a1 1 0 01-1 1H19a1 1 0 01-1-1v-2a1 1 0 011-1h10zm16 0a1 1 0 011 1v2a1 1 0 01-1 1H35a1 1 0 01-1-1v-2a1 1 0 011-1h10zM13 28a1 1 0 011 1v2a1 1 0 01-1 1H3a1 1 0 01-1-1v-2a1 1 0 011-1h10zm16 0a1 1 0 011 1v2a1 1 0 01-1 1H19a1 1 0 01-1-1v-2a1 1 0 011-1h10zm16 0a1 1 0 011 1v2a1 1 0 01-1 1H35a1 1 0 01-1-1v-2a1 1 0 011-1h10zM13 18a1 1 0 011 1v2a1 1 0 01-1 1H3a1 1 0 01-1-1v-2a1 1 0 011-1h10zm32 0a1 1 0 011 1v2a1 1 0 01-1 1H35a1 1 0 01-1-1v-2a1 1 0 011-1h10zm0-10a1 1 0 011 1v2a1 1 0 01-1 1H35a1 1 0 01-1-1V9a1 1 0 011-1h10z" fill="currentColor"/></svg>
