<svg xmlns="http://www.w3.org/2000/svg" viewBox="0 0 48 48" fill="none"><path opacity=".5" fill-rule="evenodd" clip-rule="evenodd" d="M38.983 39.638A21.585 21.585 0 0124 45.658a21.585 21.585 0 01-14.983-6.02A30.91 30.91 0 0124 35.79a30.91 30.91 0 0114.983 3.848z" fill="currentColor"/><path fill-rule="evenodd" clip-rule="evenodd" d="M45.657 24a21.594 21.594 0 01-6.675 15.637A30.91 30.91 0 0024 35.79a30.911 30.911 0 00-14.983 3.848 21.595 21.595 0 01-6.675-15.639c0-11.96 9.696-21.657 21.657-21.657s21.658 9.696 21.658 21.657zM25.499 5.6a.5.5 0 00-.5-.5h-2a.5.5 0 00-.5.5v4.65a.5.5 0 00.5.5h2a.5.5 0 00.5-.5v-4.65zM12.2 10.46a.5.5 0 00-.708 0l-1.414 1.414a.5.5 0 000 .707l3.288 3.288a.5.5 0 00.707 0l1.414-1.414a.5.5 0 000-.707l-3.288-3.288zM5.212 22.948a.5.5 0 01.5-.5h4.65a.5.5 0 01.5.5v2a.5.5 0 01-.5.5h-4.65a.5.5 0 01-.5-.5v-2zm32.422-.5a.5.5 0 00-.5.5v2a.5.5 0 00.5.5h4.65a.5.5 0 00.5-.5v-2a.5.5 0 00-.5-.5h-4.65zm-4.127-10.05a1.714 1.714 0 012.406 2.413l-9.318 11.533a3.305 3.305 0 11-4.643-4.653l11.555-9.292z" fill="currentColor"/></svg>
