<svg xmlns="http://www.w3.org/2000/svg" viewBox="0 0 48 48" fill="none"><path d="M39.44 39.574V15.58a2 2 0 00-.53-1.355L32.318 7.07a2 2 0 00-1.47-.644H10.56a2 2 0 00-2 2v31.148a2 2 0 002 2h26.88a2 2 0 002-2z" fill="#B5BCC9"/><g filter="url(#aybsvg_2017dc459d__filter0_f_7496_35651)"><path d="M9.388 20.225l.031 7.686 28.514 4.62-.266-7.873-7.589.874-8.252-6.74-12.438 1.433z" fill="#B5BCC9"/></g><path d="M40.999 15.843a2 2 0 012 2v23.13a2 2 0 01-2 2H7a2 2 0 01-2-2v-27.36a2 2 0 012-2h11.224a2 2 0 011.273.458l4.572 3.772H41z" fill="url(#aybsvg_2017dc459d__paint0_linear_7496_35651)"/><g filter="url(#aybsvg_2017dc459d__filter1_d_7496_35651)"><path d="M31.122 27.502c-.537-3.068-3.372-5.41-6.789-5.41-2.89 0-5.363 1.675-6.382 4.049-2.077.497-3.613 2.266-3.613 4.373 0 2.486 2.139 4.502 4.781 4.512.25.044.51.067.773.067h9.56c2.324 0 4.21-1.772 4.21-3.957 0-1.628-1.046-3.026-2.54-3.634z" fill="#fff"/></g><defs><filter id="aybsvg_2017dc459d__filter0_f_7496_35651" x="5.255" y="14.66" width="36.812" height="22.003" filterUnits="userSpaceOnUse" color-interpolation-filters="sRGB"><feFlood flood-opacity="0" result="BackgroundImageFix"/><feBlend in="SourceGraphic" in2="BackgroundImageFix" result="shape"/><feGaussianBlur stdDeviation="2.066" result="effect1_foregroundBlur_7496_35651"/></filter><filter id="aybsvg_2017dc459d__filter1_d_7496_35651" x="6.338" y="16.093" width="35.323" height="29" filterUnits="userSpaceOnUse" color-interpolation-filters="sRGB"><feFlood flood-opacity="0" result="BackgroundImageFix"/><feColorMatrix in="SourceAlpha" values="0 0 0 0 0 0 0 0 0 0 0 0 0 0 0 0 0 0 127 0" result="hardAlpha"/><feOffset dy="2"/><feGaussianBlur stdDeviation="4"/><feComposite in2="hardAlpha" operator="out"/><feColorMatrix values="0 0 0 0 0 0 0 0 0 0 0 0 0 0 0 0 0 0 0.15 0"/><feBlend in2="BackgroundImageFix" result="effect1_dropShadow_7496_35651"/><feBlend in="SourceGraphic" in2="effect1_dropShadow_7496_35651" result="shape"/></filter><linearGradient id="aybsvg_2017dc459d__paint0_linear_7496_35651" x1="42.999" y1="26.81" x2="5" y2="26.81" gradientUnits="userSpaceOnUse"><stop stop-color="#818A9C"/><stop offset="1" stop-color="#353D51"/></linearGradient></defs></svg>
