<svg xmlns="http://www.w3.org/2000/svg" viewBox="0 0 24 24" fill="none"><mask id="ayda" style="mask-type:alpha" maskUnits="userSpaceOnUse" x="4" y="2" width="16" height="20"><path d="M5.276 2.4h9.984c.142 0 .278.055.379.153l4.002 3.885c.102.1.159.234.159.375v14.033c0 .582-.482 1.054-1.076 1.054H5.276A1.065 1.065 0 014.2 20.846V3.454c0-.582.482-1.054 1.076-1.054z" fill="#fff"/></mask><g mask="url(#ayda)"><path d="M5.276 2.4h9.984c.142 0 .278.055.379.153l4.002 3.885c.102.1.159.234.159.375v14.033c0 .582-.482 1.054-1.076 1.054H5.276A1.065 1.065 0 014.2 20.846V3.454c0-.582.482-1.054 1.076-1.054z" fill="#1664FF"/><path fill="#fff" d="M7 9.818h10v1H7zM7 12.818h10v1H7zM7 15.818h5v1H7z"/><path fill-rule="evenodd" clip-rule="evenodd" d="M15.48 2.4h4.304v4.216h-3.227a1.065 1.065 0 01-1.076-1.054V2.4z" fill="#A2C1FF"/></g></svg>
