<svg xmlns="http://www.w3.org/2000/svg" viewBox="0 -0.5 49 49" fill="none"><path opacity=".5" d="M40.76 15.843v-.678a2 2 0 00-.542-1.369l-6.723-7.165A2 2 0 0032.036 6H11.32a2 2 0 00-2 2v3.613h9.664a2 2 0 011.273.458l4.572 3.772h15.931z" fill="currentColor"/><path fill-rule="evenodd" clip-rule="evenodd" d="M43.758 17.843a2 2 0 00-2-2h-16.93l-4.572-3.772a2 2 0 00-1.273-.458H7.76a2 2 0 00-2 2v27.36a2 2 0 002 2h33.999a2 2 0 002-2v-23.13zm-18.665 4.25c3.417 0 6.252 2.34 6.788 5.41 1.495.607 2.54 2.005 2.54 3.633 0 2.185-1.885 3.957-4.21 3.957h-9.559a4.49 4.49 0 01-.773-.067c-2.642-.01-4.781-2.026-4.781-4.512 0-2.107 1.536-3.876 3.613-4.373 1.019-2.373 3.493-4.048 6.382-4.048z" fill="currentColor"/></svg>
