<svg xmlns="http://www.w3.org/2000/svg" viewBox="0 0 48 48" fill="none"><path fill-rule="evenodd" clip-rule="evenodd" d="M20.764 6a2 2 0 011.789 1.106L24 10h19.905c1.157 0 2.095.895 2.095 2v28c0 1.105-.938 2-2.095 2H4.095C2.938 42 2 41.105 2 40V8a2 2 0 012-2h16.764zM42 14H6v24h36V14zm-17.222 3.293l7.071 7.071a1 1 0 010 1.414l-1.414 1.414a1 1 0 01-1.414 0l-2.937-2.937v10.33a1 1 0 01-1 1h-2a1 1 0 01-1-1V24.229l-2.963 2.964a1 1 0 01-1.414 0l-1.414-1.414a1 1 0 010-1.414l7.071-7.071a1 1 0 011.414 0z" fill="currentColor"/></svg>
