<svg xmlns="http://www.w3.org/2000/svg" viewBox="0 0 120 120" fill="none"><g filter="url(#azysvg_cace8ba2ce__filter0_dii_105_10241)"><path d="M15 15.006a7 7 0 017-7h42.646L96.997 40.21 97 105a7 7 0 01-7 7H22.002a7 7 0 01-7-7L15 15.006z" fill="url(#azysvg_cace8ba2ce__paint0_linear_105_10241)"/></g><path fill-rule="evenodd" clip-rule="evenodd" d="M22.002 111.4H90a6.4 6.4 0 006.4-6.4l-.003-64.54L64.398 8.606H22a6.4 6.4 0 00-6.4 6.4L15.602 105a6.4 6.4 0 006.4 6.4zM64.646 8.006H22a7 7 0 00-7 7L15.002 105a7 7 0 007 7H90a7 7 0 007-7l-.003-64.79-32.35-32.204z" fill="url(#azysvg_cace8ba2ce__paint1_linear_105_10241)"/><g filter="url(#azysvg_cace8ba2ce__filter1_i_105_10241)"><path d="M27 55.95a2.894 2.894 0 012.894-2.894h45.6a2.894 2.894 0 110 5.788h-45.6A2.894 2.894 0 0127 55.95z" fill="#E7E7E7"/></g><g filter="url(#azysvg_cace8ba2ce__filter2_i_105_10241)"><path fill-rule="evenodd" clip-rule="evenodd" d="M29.895 52.656h45.599a3.294 3.294 0 110 6.588h-45.6a3.294 3.294 0 010-6.588zm0 .4a2.894 2.894 0 000 5.788h45.599a2.894 2.894 0 000-5.788h-45.6z" fill="url(#azysvg_cace8ba2ce__paint2_linear_105_10241)"/></g><g filter="url(#azysvg_cace8ba2ce__filter3_i_105_10241)"><path d="M27 39.95a2.894 2.894 0 012.894-2.894h45.6a2.894 2.894 0 110 5.788h-45.6A2.894 2.894 0 0127 39.95z" fill="#E7E7E7"/></g><g filter="url(#azysvg_cace8ba2ce__filter4_i_105_10241)"><path fill-rule="evenodd" clip-rule="evenodd" d="M29.895 36.656h45.599a3.294 3.294 0 110 6.588h-45.6a3.294 3.294 0 010-6.588zm0 .4a2.894 2.894 0 000 5.788h45.599a2.894 2.894 0 000-5.788h-45.6z" fill="url(#azysvg_cace8ba2ce__paint3_linear_105_10241)"/></g><g filter="url(#azysvg_cace8ba2ce__filter5_i_105_10241)"><path d="M27 76.95a2.894 2.894 0 012.894-2.894h28.212a2.894 2.894 0 110 5.788H29.894A2.894 2.894 0 0127 76.95z" fill="#E7E7E7"/></g><g filter="url(#azysvg_cace8ba2ce__filter6_i_105_10241)"><path fill-rule="evenodd" clip-rule="evenodd" d="M29.895 73.656h28.212a3.294 3.294 0 110 6.588H29.895a3.294 3.294 0 010-6.588zm0 .4a2.894 2.894 0 000 5.788h28.212a2.894 2.894 0 000-5.788H29.895z" fill="url(#azysvg_cace8ba2ce__paint4_linear_105_10241)"/></g><g filter="url(#azysvg_cace8ba2ce__filter7_d_105_10241)"><mask id="azya" fill="#fff"><path fill-rule="evenodd" clip-rule="evenodd" d="M65.167 8.007l31.83 31.67H72.5a7 7 0 01-7-6.904l-.332-24.238v2.154c0-2.453-1.58-2.683-1.58-2.683h1.572V8l.006.006h.002v.001zm31.832 33.247s-.231-1.572-2.696-1.572H97v1.572z"/></mask><path fill-rule="evenodd" clip-rule="evenodd" d="M65.167 8.007l31.83 31.67H72.5a7 7 0 01-7-6.904l-.332-24.238v2.154c0-2.453-1.58-2.683-1.58-2.683h1.572V8l.006.006h.002v.001zm31.832 33.247s-.231-1.572-2.696-1.572H97v1.572z" fill="url(#azysvg_cace8ba2ce__paint5_linear_105_10241)"/><path d="M96.997 39.676v.818h1.982l-1.405-1.397-.577.58zM65.167 8.007h-.818v.34l.24.24.578-.58zm.333 24.766l-.818.01.818-.01zm-.333-24.238l.817-.01-1.635.01h.818zm-1.58-.53v-.817l-.118 1.627.118-.81zm1.572 0v.818h.83l-.012-.829-.818.012zm0-.005l.577-.58-1.422-1.415.028 2.006.817-.011zm.006.006l-.577.58.24.237h.337v-.817zm.002 0h.817v-.818h-.817v.818zm31.832 33.248l-.809.12 1.627-.12h-.818zm0-1.572h.818v-.818h-.818v.818zm.575-.585l-31.83-31.67-1.154 1.16 31.83 31.67 1.154-1.16zm-25.075 1.397h24.498V38.86H72.5v1.635zm-7.817-7.71a7.818 7.818 0 007.817 7.71V38.86a6.182 6.182 0 01-6.181-6.098l-1.636.023zM64.35 8.547l.333 24.237 1.635-.023-.333-24.237-1.635.023zm1.635 2.142V8.535H64.35v2.154h1.635zm-2.397-2.683c-.118.809-.119.809-.12.809h-.003l-.004-.002a.288.288 0 01-.014-.002l.005.001a.985.985 0 01.37.216c.204.188.528.628.528 1.661h1.635c0-1.419-.466-2.32-1.053-2.863a2.62 2.62 0 00-.79-.504 2.243 2.243 0 00-.425-.124h-.006l-.002-.001h-.002l-.12.809zm1.572-.818h-1.572v1.635h1.572V7.188zm-.818.823v.006l1.636-.023V7.99l-1.636.022zm1.4-.585l-.005-.006-1.154 1.16.006.005 1.154-1.16zm-.574-.238h-.002v1.635h.002V7.188zm.817.82v-.002H64.35v.001h1.635zM94.304 40.5c1.041 0 1.485.323 1.673.525a.974.974 0 01.216.367l.001.005-.001-.008-.001-.007-.001-.004v-.002-.001s0-.002.808-.12l.81-.121-.001-.001v-.003l-.002-.006a.372.372 0 00-.008-.047 2.219 2.219 0 00-.117-.377 2.609 2.609 0 00-.507-.79c-.544-.584-1.448-1.046-2.87-1.046V40.5zm2.695-1.636h-2.696V40.5H97v-1.636zm.818 2.39v-1.572h-1.636v1.572h1.636z" fill="url(#azysvg_cace8ba2ce__paint6_linear_105_10241)" mask="url(#azya)"/></g><g filter="url(#azysvg_cace8ba2ce__filter8_d_105_10241)"><g filter="url(#azysvg_cace8ba2ce__filter9_dii_105_10241)"><circle cx="95.678" cy="97.678" r="16" transform="rotate(-.375 95.678 97.678)" fill="url(#azysvg_cace8ba2ce__paint7_linear_105_10241)"/></g><path fill-rule="evenodd" clip-rule="evenodd" d="M95.574 81.878c-8.726.058-15.753 7.178-15.696 15.903.057 8.726 7.177 15.754 15.903 15.697 8.726-.057 15.754-7.178 15.696-15.903-.057-8.726-7.177-15.754-15.903-15.697zM79.478 97.784c-.058-8.947 7.147-16.247 16.094-16.306 8.947-.058 16.247 7.147 16.305 16.094.059 8.947-7.146 16.247-16.093 16.306-8.947.058-16.247-7.147-16.306-16.094z" fill="url(#azysvg_cace8ba2ce__paint8_linear_105_10241)"/></g><g filter="url(#azysvg_cace8ba2ce__filter10_d_105_10241)" fill-rule="evenodd" clip-rule="evenodd"><path d="M104.701 93.875a1.717 1.717 0 00-2.487-.262l-8.189 6.985-3.1-4.476c-.572-.826-1.676-1.012-2.467-.415-.791.596-.968 1.75-.397 2.575l4.123 5.954c.345.497.882.762 1.428.764.456.053.931-.078 1.314-.404l9.525-8.126c.756-.644.868-1.806.25-2.595z" fill="url(#azysvg_cace8ba2ce__paint9_linear_105_10241)"/><path d="M93.978 100.963l-3.255-4.7c-.495-.714-1.44-.87-2.117-.36-.682.516-.84 1.52-.342 2.239l4.123 5.953c.298.431.76.657 1.226.659h.014l.014.001c.39.046.795-.066 1.125-.347l9.525-8.125c.654-.558.753-1.57.216-2.256a1.471 1.471 0 00-2.133-.226l-8.396 7.162zm-3.053-4.841c-.572-.826-1.676-1.012-2.467-.415-.791.596-.968 1.75-.397 2.575l4.123 5.954c.345.497.882.762 1.428.764.456.053.931-.078 1.314-.404l9.525-8.126c.756-.644.868-1.806.25-2.595a1.717 1.717 0 00-2.487-.262l-8.189 6.985-3.1-4.476z" fill="url(#azysvg_cace8ba2ce__paint10_linear_105_10241)"/></g><path d="M19.223 22.821c-2.364 1.887-5.78 2.058-8.344.207-2.565-1.851-3.469-5.159-2.419-7.99l-3.822-2.77c-2.495 4.958-1.098 11.146 3.537 14.5 4.635 3.354 10.953 2.742 14.877-1.177l-3.83-2.77z" fill="#2870FB"/><path d="M112.061 69.642a4.196 4.196 0 00-4.854-1.494 4.199 4.199 0 00-2.729 4.28l-2.696.994c-.642-3.31 1.193-6.706 4.458-7.913 3.271-1.2 6.866.196 8.524 3.14l-2.696.993h-.007z" fill="#C6AAFF"/><path fill-rule="evenodd" clip-rule="evenodd" d="M91.266 2.83L86.6 10.208l-3.044-1.925L88.223.904l3.043 1.926z" fill="#FBD34D"/><defs><linearGradient id="azysvg_cace8ba2ce__paint0_linear_105_10241" x1="82.203" y1="20.756" x2="12.931" y2="116.118" gradientUnits="userSpaceOnUse"><stop stop-color="#FAFAFA"/><stop offset=".855" stop-color="#F4F4F4"/></linearGradient><linearGradient id="azysvg_cace8ba2ce__paint1_linear_105_10241" x1="48.21" y1="8.006" x2="33.665" y2="108.531" gradientUnits="userSpaceOnUse"><stop stop-color="#E8E8EB"/><stop offset=".192" stop-color="#DEDEDE"/><stop offset=".704" stop-color="#D8D8D8"/><stop offset=".963" stop-color="#C3C3C7"/></linearGradient><linearGradient id="azysvg_cace8ba2ce__paint2_linear_105_10241" x1="57.164" y1="48.102" x2="54.532" y2="61.592" gradientUnits="userSpaceOnUse"><stop offset=".273" stop-color="#BEBEBE"/><stop offset=".795" stop-color="#DADADD"/><stop offset="1" stop-color="#DFDFDF"/></linearGradient><linearGradient id="azysvg_cace8ba2ce__paint3_linear_105_10241" x1="57.164" y1="32.102" x2="54.532" y2="45.592" gradientUnits="userSpaceOnUse"><stop offset=".273" stop-color="#BEBEBE"/><stop offset=".795" stop-color="#DADADD"/><stop offset="1" stop-color="#DFDFDF"/></linearGradient><linearGradient id="azysvg_cace8ba2ce__paint4_linear_105_10241" x1="46.958" y1="69.102" x2="43.159" y2="81.985" gradientUnits="userSpaceOnUse"><stop offset=".273" stop-color="#BEBEBE"/><stop offset=".795" stop-color="#DADADD"/><stop offset="1" stop-color="#DFDFDF"/></linearGradient><linearGradient id="azysvg_cace8ba2ce__paint5_linear_105_10241" x1="85.794" y1="21.972" x2="70.465" y2="41.635" gradientUnits="userSpaceOnUse"><stop offset=".162" stop-color="#F2F2F2"/><stop offset=".738" stop-color="#fff"/></linearGradient><linearGradient id="azysvg_cace8ba2ce__paint6_linear_105_10241" x1="61.041" y1="43.918" x2="76.43" y2="28.539" gradientUnits="userSpaceOnUse"><stop stop-color="#E2E2E2"/><stop offset="1" stop-color="#9C9C9C" stop-opacity="0"/></linearGradient><linearGradient id="azysvg_cace8ba2ce__paint7_linear_105_10241" x1="90.854" y1="80.419" x2="110.163" y2="106.11" gradientUnits="userSpaceOnUse"><stop stop-color="#1EBF6F"/><stop offset="1" stop-color="#1CB267"/></linearGradient><linearGradient id="azysvg_cace8ba2ce__paint8_linear_105_10241" x1="91.725" y1="90.915" x2="104.353" y2="108.81" gradientUnits="userSpaceOnUse"><stop stop-color="#3DD88B"/><stop offset="1" stop-color="#0F9351"/></linearGradient><linearGradient id="azysvg_cace8ba2ce__paint9_linear_105_10241" x1="102.088" y1="94.712" x2="96.804" y2="109.03" gradientUnits="userSpaceOnUse"><stop stop-color="#fff"/><stop offset=".855" stop-color="#fff"/></linearGradient><linearGradient id="azysvg_cace8ba2ce__paint10_linear_105_10241" x1="89.464" y1="92.434" x2="94.526" y2="105.868" gradientUnits="userSpaceOnUse"><stop stop-color="#fff"/><stop offset=".963" stop-color="#EAEAEA"/></linearGradient><filter id="azysvg_cace8ba2ce__filter0_dii_105_10241" x="14" y="7.506" width="84" height="106.494" filterUnits="userSpaceOnUse" color-interpolation-filters="sRGB"><feFlood flood-opacity="0" result="BackgroundImageFix"/><feColorMatrix in="SourceAlpha" values="0 0 0 0 0 0 0 0 0 0 0 0 0 0 0 0 0 0 127 0" result="hardAlpha"/><feOffset dy="1"/><feGaussianBlur stdDeviation=".5"/><feComposite in2="hardAlpha" operator="out"/><feColorMatrix values="0 0 0 0 0 0 0 0 0 0 0 0 0 0 0 0 0 0 0.1 0"/><feBlend in2="BackgroundImageFix" result="effect1_dropShadow_105_10241"/><feBlend in="SourceGraphic" in2="effect1_dropShadow_105_10241" result="shape"/><feColorMatrix in="SourceAlpha" values="0 0 0 0 0 0 0 0 0 0 0 0 0 0 0 0 0 0 127 0" result="hardAlpha"/><feOffset dx="1.6" dy="1.6"/><feGaussianBlur stdDeviation=".5"/><feComposite in2="hardAlpha" operator="arithmetic" k2="-1" k3="1"/><feColorMatrix values="0 0 0 0 1 0 0 0 0 1 0 0 0 0 1 0 0 0 1 0"/><feBlend in2="shape" result="effect2_innerShadow_105_10241"/><feColorMatrix in="SourceAlpha" values="0 0 0 0 0 0 0 0 0 0 0 0 0 0 0 0 0 0 127 0" result="hardAlpha"/><feOffset dy="-1.5"/><feGaussianBlur stdDeviation=".25"/><feComposite in2="hardAlpha" operator="arithmetic" k2="-1" k3="1"/><feColorMatrix values="0 0 0 0 0.879167 0 0 0 0 0.879167 0 0 0 0 0.879167 0 0 0 1 0"/><feBlend in2="effect2_innerShadow_105_10241" result="effect3_innerShadow_105_10241"/></filter><filter id="azysvg_cace8ba2ce__filter1_i_105_10241" x="26.5" y="53.056" width="51.887" height="6.288" filterUnits="userSpaceOnUse" color-interpolation-filters="sRGB"><feFlood flood-opacity="0" result="BackgroundImageFix"/><feBlend in="SourceGraphic" in2="BackgroundImageFix" result="shape"/><feColorMatrix in="SourceAlpha" values="0 0 0 0 0 0 0 0 0 0 0 0 0 0 0 0 0 0 127 0" result="hardAlpha"/><feOffset dx="-1.905" dy="1.428"/><feGaussianBlur stdDeviation=".25"/><feComposite in2="hardAlpha" operator="arithmetic" k2="-1" k3="1"/><feColorMatrix values="0 0 0 0 0.729167 0 0 0 0 0.729167 0 0 0 0 0.729167 0 0 0 0.3 0"/><feBlend in2="shape" result="effect1_innerShadow_105_10241"/></filter><filter id="azysvg_cace8ba2ce__filter2_i_105_10241" x="26.101" y="52.656" width="52.688" height="7.088" filterUnits="userSpaceOnUse" color-interpolation-filters="sRGB"><feFlood flood-opacity="0" result="BackgroundImageFix"/><feBlend in="SourceGraphic" in2="BackgroundImageFix" result="shape"/><feColorMatrix in="SourceAlpha" values="0 0 0 0 0 0 0 0 0 0 0 0 0 0 0 0 0 0 127 0" result="hardAlpha"/><feOffset dx="-1.905" dy="1.428"/><feGaussianBlur stdDeviation=".25"/><feComposite in2="hardAlpha" operator="arithmetic" k2="-1" k3="1"/><feColorMatrix values="0 0 0 0 0.729167 0 0 0 0 0.729167 0 0 0 0 0.729167 0 0 0 0.3 0"/><feBlend in2="shape" result="effect1_innerShadow_105_10241"/></filter><filter id="azysvg_cace8ba2ce__filter3_i_105_10241" x="26.5" y="37.056" width="51.887" height="6.288" filterUnits="userSpaceOnUse" color-interpolation-filters="sRGB"><feFlood flood-opacity="0" result="BackgroundImageFix"/><feBlend in="SourceGraphic" in2="BackgroundImageFix" result="shape"/><feColorMatrix in="SourceAlpha" values="0 0 0 0 0 0 0 0 0 0 0 0 0 0 0 0 0 0 127 0" result="hardAlpha"/><feOffset dx="-1.905" dy="1.428"/><feGaussianBlur stdDeviation=".25"/><feComposite in2="hardAlpha" operator="arithmetic" k2="-1" k3="1"/><feColorMatrix values="0 0 0 0 0.729167 0 0 0 0 0.729167 0 0 0 0 0.729167 0 0 0 0.3 0"/><feBlend in2="shape" result="effect1_innerShadow_105_10241"/></filter><filter id="azysvg_cace8ba2ce__filter4_i_105_10241" x="26.101" y="36.656" width="52.688" height="7.088" filterUnits="userSpaceOnUse" color-interpolation-filters="sRGB"><feFlood flood-opacity="0" result="BackgroundImageFix"/><feBlend in="SourceGraphic" in2="BackgroundImageFix" result="shape"/><feColorMatrix in="SourceAlpha" values="0 0 0 0 0 0 0 0 0 0 0 0 0 0 0 0 0 0 127 0" result="hardAlpha"/><feOffset dx="-1.905" dy="1.428"/><feGaussianBlur stdDeviation=".25"/><feComposite in2="hardAlpha" operator="arithmetic" k2="-1" k3="1"/><feColorMatrix values="0 0 0 0 0.729167 0 0 0 0 0.729167 0 0 0 0 0.729167 0 0 0 0.3 0"/><feBlend in2="shape" result="effect1_innerShadow_105_10241"/></filter><filter id="azysvg_cace8ba2ce__filter5_i_105_10241" x="26.5" y="74.056" width="34.5" height="6.288" filterUnits="userSpaceOnUse" color-interpolation-filters="sRGB"><feFlood flood-opacity="0" result="BackgroundImageFix"/><feBlend in="SourceGraphic" in2="BackgroundImageFix" result="shape"/><feColorMatrix in="SourceAlpha" values="0 0 0 0 0 0 0 0 0 0 0 0 0 0 0 0 0 0 127 0" result="hardAlpha"/><feOffset dx="-1.905" dy="1.428"/><feGaussianBlur stdDeviation=".25"/><feComposite in2="hardAlpha" operator="arithmetic" k2="-1" k3="1"/><feColorMatrix values="0 0 0 0 0.729167 0 0 0 0 0.729167 0 0 0 0 0.729167 0 0 0 0.3 0"/><feBlend in2="shape" result="effect1_innerShadow_105_10241"/></filter><filter id="azysvg_cace8ba2ce__filter6_i_105_10241" x="26.101" y="73.656" width="35.3" height="7.088" filterUnits="userSpaceOnUse" color-interpolation-filters="sRGB"><feFlood flood-opacity="0" result="BackgroundImageFix"/><feBlend in="SourceGraphic" in2="BackgroundImageFix" result="shape"/><feColorMatrix in="SourceAlpha" values="0 0 0 0 0 0 0 0 0 0 0 0 0 0 0 0 0 0 127 0" result="hardAlpha"/><feOffset dx="-1.905" dy="1.428"/><feGaussianBlur stdDeviation=".25"/><feComposite in2="hardAlpha" operator="arithmetic" k2="-1" k3="1"/><feColorMatrix values="0 0 0 0 0.729167 0 0 0 0 0.729167 0 0 0 0 0.729167 0 0 0 0.3 0"/><feBlend in2="shape" result="effect1_innerShadow_105_10241"/></filter><filter id="azysvg_cace8ba2ce__filter7_d_105_10241" x="61.206" y="8" width="37.221" height="38.016" filterUnits="userSpaceOnUse" color-interpolation-filters="sRGB"><feFlood flood-opacity="0" result="BackgroundImageFix"/><feColorMatrix in="SourceAlpha" values="0 0 0 0 0 0 0 0 0 0 0 0 0 0 0 0 0 0 127 0" result="hardAlpha"/><feOffset dx="-.476" dy="2.857"/><feGaussianBlur stdDeviation=".952"/><feComposite in2="hardAlpha" operator="out"/><feColorMatrix values="0 0 0 0 0 0 0 0 0 0 0 0 0 0 0 0 0 0 0.25 0"/><feBlend in2="BackgroundImageFix" result="effect1_dropShadow_105_10241"/><feBlend in="SourceGraphic" in2="effect1_dropShadow_105_10241" result="shape"/></filter><filter id="azysvg_cace8ba2ce__filter8_d_105_10241" x="75.478" y="78.478" width="40.4" height="40.4" filterUnits="userSpaceOnUse" color-interpolation-filters="sRGB"><feFlood flood-opacity="0" result="BackgroundImageFix"/><feColorMatrix in="SourceAlpha" values="0 0 0 0 0 0 0 0 0 0 0 0 0 0 0 0 0 0 127 0" result="hardAlpha"/><feOffset dy="1"/><feGaussianBlur stdDeviation="2"/><feComposite in2="hardAlpha" operator="out"/><feColorMatrix values="0 0 0 0 0 0 0 0 0 0 0 0 0 0 0 0 0 0 0.2 0"/><feBlend in2="BackgroundImageFix" result="effect1_dropShadow_105_10241"/><feBlend in="SourceGraphic" in2="effect1_dropShadow_105_10241" result="shape"/></filter><filter id="azysvg_cace8ba2ce__filter9_dii_105_10241" x="78.878" y="80.878" width="33.6" height="34" filterUnits="userSpaceOnUse" color-interpolation-filters="sRGB"><feFlood flood-opacity="0" result="BackgroundImageFix"/><feColorMatrix in="SourceAlpha" values="0 0 0 0 0 0 0 0 0 0 0 0 0 0 0 0 0 0 127 0" result="hardAlpha"/><feOffset dy=".4"/><feGaussianBlur stdDeviation=".4"/><feComposite in2="hardAlpha" operator="out"/><feColorMatrix values="0 0 0 0 0.705801 0 0 0 0 0.705801 0 0 0 0 0.720866 0 0 0 1 0"/><feBlend in2="BackgroundImageFix" result="effect1_dropShadow_105_10241"/><feBlend in="SourceGraphic" in2="effect1_dropShadow_105_10241" result="shape"/><feColorMatrix in="SourceAlpha" values="0 0 0 0 0 0 0 0 0 0 0 0 0 0 0 0 0 0 127 0" result="hardAlpha"/><feOffset dx=".8" dy=".5"/><feGaussianBlur stdDeviation=".4"/><feComposite in2="hardAlpha" operator="arithmetic" k2="-1" k3="1"/><feColorMatrix values="0 0 0 0 0.610972 0 0 0 0 0.883333 0 0 0 0 0.747999 0 0 0 1 0"/><feBlend in2="shape" result="effect2_innerShadow_105_10241"/><feColorMatrix in="SourceAlpha" values="0 0 0 0 0 0 0 0 0 0 0 0 0 0 0 0 0 0 127 0" result="hardAlpha"/><feOffset dx="-.4" dy="-.8"/><feGaussianBlur stdDeviation=".4"/><feComposite in2="hardAlpha" operator="arithmetic" k2="-1" k3="1"/><feColorMatrix values="0 0 0 0 0.0775 0 0 0 0 0.6 0 0 0 0 0.33875 0 0 0 1 0"/><feBlend in2="effect2_innerShadow_105_10241" result="effect3_innerShadow_105_10241"/></filter><filter id="azysvg_cace8ba2ce__filter10_d_105_10241" x="87.226" y="93.197" width="18.375" height="12.815" filterUnits="userSpaceOnUse" color-interpolation-filters="sRGB"><feFlood flood-opacity="0" result="BackgroundImageFix"/><feColorMatrix in="SourceAlpha" values="0 0 0 0 0 0 0 0 0 0 0 0 0 0 0 0 0 0 127 0" result="hardAlpha"/><feOffset dy=".5"/><feGaussianBlur stdDeviation=".25"/><feComposite in2="hardAlpha" operator="out"/><feColorMatrix values="0 0 0 0 0.095 0 0 0 0 0.633333 0 0 0 0 0.365949 0 0 0 1 0"/><feBlend in2="BackgroundImageFix" result="effect1_dropShadow_105_10241"/><feBlend in="SourceGraphic" in2="effect1_dropShadow_105_10241" result="shape"/></filter></defs></svg>
