<svg xmlns="http://www.w3.org/2000/svg" viewBox="0 -0.5 49 49" fill="none"><path d="M38.293 41.883c0 2.827-6.174 5.119-13.79 5.119-7.616 0-13.79-2.292-13.79-5.12 0-2.827 6.175-5.119 13.79-5.119 7.616 0 13.79 2.292 13.79 5.12z" fill="#B5BCC9"/><path fill-rule="evenodd" clip-rule="evenodd" d="M24.542 41.99H24.5a2.646 2.646 0 01-1.937-.82c-.4-.41-4-4.12-7.599-8.792-4.841-6.334-7.304-11.396-7.304-15.003C7.66 8.335 15.217.998 24.5.998s16.84 7.338 16.84 16.377c0 2.192-.863 4.878-2.59 7.993-1.641 2.992-4.125 6.477-7.388 10.33l-.02.02-4.842 5.37c-.484.574-1.2.902-1.958.902zm-.036-20.263a5.061 5.061 0 100-10.123 5.061 5.061 0 000 10.123z" fill="url(#baasvg_a0d166bcea__paint0_linear_18705_56637)"/><defs><linearGradient id="baasvg_a0d166bcea__paint0_linear_18705_56637" x1="24.5" y1=".998" x2="24.5" y2="41.99" gradientUnits="userSpaceOnUse"><stop stop-color="#818A9C"/><stop offset="1" stop-color="#353D51"/></linearGradient></defs></svg>
