<svg xmlns="http://www.w3.org/2000/svg" viewBox="0 0 50 50" fill="none"><rect opacity=".06" width="50" height="50" rx="4" fill="url(#azzsvg_79e340d74d__paint0_linear_18705_56630)"/><ellipse cx="25.003" cy="36.458" rx="8.836" ry="3.28" fill="#97BCFF"/><path fill-rule="evenodd" clip-rule="evenodd" d="M25.001 35.796h.026c.473 0 .918-.204 1.22-.562l3.016-3.345.013-.013c2.032-2.4 3.58-4.57 4.602-6.434 1.075-1.94 1.613-3.613 1.613-4.98 0-5.63-4.707-10.2-10.49-10.2-5.782 0-10.49 4.57-10.49 10.2 0 2.248 1.535 5.401 4.55 9.346a67.485 67.485 0 004.734 5.477c.315.332.747.51 1.206.51z" fill="url(#azzsvg_79e340d74d__paint1_linear_18705_56630)"/><circle cx="25.004" cy="20.532" fill="#fff" r="3.243"/><defs><linearGradient id="azzsvg_79e340d74d__paint0_linear_18705_56630" x1="25" y1="1.786" x2="25" y2="50" gradientUnits="userSpaceOnUse"><stop stop-color="#528CFF"/><stop offset="1" stop-color="#1664FF"/></linearGradient><linearGradient id="azzsvg_79e340d74d__paint1_linear_18705_56630" x1="25.005" y1="14.834" x2="25.005" y2="26.028" gradientUnits="userSpaceOnUse"><stop stop-color="#4483FF"/><stop offset="1" stop-color="#3076FF"/></linearGradient></defs></svg>
