<svg xmlns="http://www.w3.org/2000/svg" viewBox="0 0 48 48" fill="none"><path fill-rule="evenodd" clip-rule="evenodd" d="M8.21 12H4a2 2 0 00-2 2v8a2 2 0 002 2h2v20a2 2 0 002 2h32a2 2 0 002-2V24h2a2 2 0 002-2v-8a2 2 0 00-2-2h-3.938c.657-3.833-.216-7.202-2.866-8.732-3.97-2.292-9.519.934-13.06 6.645-3.543-5.711-9.092-8.937-13.061-6.645C8.425 4.798 7.552 8.167 8.209 12zm26.986-5.268c1.056.61 1.383 2.68.787 5.267H12.288l-.06-.275c-.512-2.458-.172-4.404.847-4.992l.11-.057c1.614-.75 5.051 1.331 7.537 5.324h6.826c2.545-4.086 6.084-6.17 7.648-5.267zM10 24h12v18H10V24zm28 0H26v18h12V24zM6 16h16v4H6v-4zm36 0H26v4h16v-4z" fill="currentColor"/></svg>
