<svg xmlns="http://www.w3.org/2000/svg" viewBox="0 -0.5 49 49" fill="none"><rect x="28.84" y="24.443" width="22.773" height="6" rx="2" transform="rotate(45 28.84 24.443)" fill="#B5BCC9"/><path d="M40.08 22c0 9.941-8.059 18-18 18s-18-8.059-18-18 8.059-18 18-18 18 8.059 18 18z" fill="url(#baisvg_01b86eda4b__paint0_linear_7496_35613)"/><path d="M32.183 22.407l-2.326-2.326a.5.5 0 00-.722.016l-5.41 5.897a.417.417 0 01-.586.028l-3.56-3.206a.5.5 0 00-.707.036l-5.021 5.575a.417.417 0 01-.59.03l-1.858-1.674a.417.417 0 01-.031-.59l7.31-8.114a.417.417 0 01.589-.03l3.583 3.226a.5.5 0 00.703-.033l3.245-3.538a.5.5 0 00-.014-.692l-2.176-2.175a.417.417 0 01.295-.712h7.57c.231 0 .418.187.418.417v7.57c0 .372-.45.558-.712.295z" fill="#F5F8FD"/><defs><linearGradient id="baisvg_01b86eda4b__paint0_linear_7496_35613" x1="22.08" y1="4" x2="22.08" y2="40" gradientUnits="userSpaceOnUse"><stop stop-color="#818A9C"/><stop offset="1" stop-color="#353D51"/></linearGradient></defs></svg>
