<svg xmlns="http://www.w3.org/2000/svg" viewBox="0 0 48 48" fill="none"><path fill-rule="evenodd" clip-rule="evenodd" d="M40.32 35.52c2.467 1.992 4.18 4.934 4.673 8.28.16 1.094-.75 1.994-1.855 1.994h-2v-.005H6.862v.005h-2c-1.105 0-2.016-.9-1.856-1.993.496-3.387 2.235-6.361 4.74-8.367a14.022 14.022 0 01-3.534-9.34c0-.385.015-.766.045-1.142a.14.14 0 010-.044l.013-.106V24.8c.095-.721.216-1.434.36-2.137l.001-.003A29.902 29.902 0 0114.672 5.802a9.24 9.24 0 01.56-.435 13.72 13.72 0 018.77-3.16h.139a13.72 13.72 0 018.77 3.16c.185.133.371.278.559.435a29.909 29.909 0 0110.413 19.09.015.015 0 01-.003.004c.033.395.05.794.05 1.197 0 3.633-1.368 6.942-3.61 9.426zM12.695 22.457C13.127 25.96 15.09 34.32 24 34.32c8.91 0 10.873-8.36 11.303-11.862.12-.975-.26-1.918-1.14-2.355-1.485-.74-4.503-1.7-10.163-1.7s-8.678.96-10.164 1.7c-.879.437-1.26 1.38-1.14 2.355zm12.328.742a1 1 0 01.74-1.045l5.804-1.54a.5.5 0 01.628.458l.112 2.312a2 2 0 01-1.997 2.097h-4.183a1 1 0 01-.997-.922l-.107-1.36zm-3.026-1.045a1 1 0 01.74 1.045l-.106 1.36a1 1 0 01-.997.922h-4.183a2 2 0 01-1.997-2.097l.112-2.312a.5.5 0 01.628-.459l5.803 1.54z" fill="currentColor"/></svg>
