<svg xmlns="http://www.w3.org/2000/svg" viewBox="0 0 48 48" fill="none"><path fill-rule="evenodd" clip-rule="evenodd" d="M22.364 11.326c-3.6-3.593-9.436-3.593-13.035 0a9.18 9.18 0 00-.173 12.823l.183.188 14.259 14.234a.57.57 0 00.804 0L38.66 24.337l.184-.188a9.181 9.181 0 00-.173-12.823c-3.6-3.593-9.436-3.593-13.035 0L24 12.96l-1.636-1.633zM24 6.65c-5.415-3.95-13.053-3.483-17.943 1.4C.731 13.364.649 21.935 5.812 27.353l.01.01.225.23L20.326 41.85a5.202 5.202 0 007.348 0l14.28-14.254.224-.23.01-.01c5.163-5.419 5.081-13.99-.245-19.307C37.053 3.166 29.415 2.7 24 6.648z" fill="currentColor"/></svg>
