<svg xmlns="http://www.w3.org/2000/svg" viewBox="0 0 49 49" fill="none"><path fill-rule="evenodd" clip-rule="evenodd" d="M23.76 4.705a2 2 0 012 0l15.642 9.032a2 2 0 011 1.732V33.53a2 2 0 01-1 1.732l-15.643 9.031a2 2 0 01-2 0l-15.642-9.03a2 2 0 01-1-1.733V15.47a2 2 0 011-1.732l15.642-9.032zM26.96 33a.5.5 0 01-.5.5h-3.4a.5.5 0 01-.5-.5V16a.5.5 0 01.5-.5h3.4a.5.5 0 01.5.5v17zm-8.8-4.05a.5.5 0 01-.284.45l-3.4 1.637a.5.5 0 01-.717-.45V18.413a.5.5 0 01.717-.45l3.4 1.636a.5.5 0 01.283.45v8.901zm16.882 2.087a.5.5 0 00.717-.45V18.413a.5.5 0 00-.717-.45l-3.4 1.636a.5.5 0 00-.283.45v8.901a.5.5 0 00.283.45l3.4 1.637z" fill="currentColor"/></svg>
