<svg xmlns="http://www.w3.org/2000/svg" viewBox="0 -0.5 21 21" fill="none"><path opacity=".5" fill-rule="evenodd" clip-rule="evenodd" d="M4.993 14.934v3.494c0 .293.296.495.569.388l3.69-1.445-4.259-2.437zm7.421 2.437l3.69 1.445a.417.417 0 00.569-.388v-3.494l-4.259 2.437z" fill="currentColor"/><path fill-rule="evenodd" clip-rule="evenodd" d="M11.247.743a.833.833 0 00-.828 0L3.49 4.708a.833.833 0 00-.42.724v7.918c0 .299.16.575.42.723l6.93 3.965a.833.833 0 00.828 0l6.932-3.965a.833.833 0 00.42-.723V5.432a.833.833 0 00-.42-.724L11.247.743zm.328 9.429a1.754 1.754 0 10-2.48-2.481 1.754 1.754 0 002.48 2.48zm1.179-3.66a3.422 3.422 0 01.517 4.177l1.237 1.237a.833.833 0 11-1.178 1.179l-1.238-1.238a3.422 3.422 0 01-4.176-5.355 3.42 3.42 0 014.838 0z" fill="currentColor"/></svg>
