<svg xmlns="http://www.w3.org/2000/svg" viewBox="0 0 48 48" fill="none"><path opacity=".5" d="M41.761 23.951l-6.707-3.872a2 2 0 01-1-1.732V9.295l6.707 3.873a2 2 0 011 1.732v9.051z" fill="currentColor"/><path fill-rule="evenodd" clip-rule="evenodd" d="M23 4.068a2 2 0 012 0l9.053 5.227v9.052a2 2 0 001 1.732l6.708 3.872V33.1a2 2 0 01-1 1.732l-15.762 9.1a2 2 0 01-2 0l-15.761-9.1a2 2 0 01-1-1.732V14.9a2 2 0 011-1.732l15.761-9.1zm-7.208 27.258c-.42.243-.96.15-1.243-.243a11.637 11.637 0 01-1.17-2.021c-.2-.443-.01-.956.41-1.199l8.212-4.74v-9.48c0-.486.35-.906.834-.954a11.778 11.778 0 012.332 0c.484.048.834.469.834.955v9.478l8.21 4.74c.42.243.61.756.41 1.199a11.626 11.626 0 01-1.169 2.021c-.284.394-.823.486-1.243.243L24 26.586l-8.21 4.74z" fill="currentColor"/></svg>
