<svg xmlns="http://www.w3.org/2000/svg" viewBox="0 -0.5 49 49" fill="none"><path d="M23.3 4.352a2 2 0 012 0l15.642 9.03a2 2 0 011 1.733v18.062a2 2 0 01-1 1.732l-15.643 9.032a2 2 0 01-2 0l-2.553-1.474c-3.552-3.422-4.434-4.58-4.434-8.543 0-3.76 4.196-5.66 7.013-6.819.51-.21 1.093.034 1.306.542l1.76 4.201a.3.3 0 00.55.006l4.697-10.593a1 1 0 00-.55-1.337l-10.824-4.221a.3.3 0 00-.385.397l1.409 3.292a.99.99 0 01-.52 1.303c-3.72 1.584-8.642 3.705-8.642 10.277-.168 3.487 1.692 6.779 5.916 9.934L7.657 34.909a2 2 0 01-1-1.732V15.115a2 2 0 011-1.732l15.642-9.031z" fill="currentColor"/></svg>
