<svg xmlns="http://www.w3.org/2000/svg" viewBox="0 -0.5 49 49" fill="none"><path fill-rule="evenodd" clip-rule="evenodd" d="M23.76 4.205a2 2 0 012 0l15.642 9.032a2 2 0 011 1.732V33.03a2 2 0 01-1 1.732l-15.643 9.031a2 2 0 01-2 0l-15.642-9.03a2 2 0 01-1-1.733V14.97a2 2 0 011-1.732l15.642-9.032zM19.3 11.08v3.364l14.553-.031.702 3.46-10.209 4.294h9.735l.71 3.455-10.283 4.406h8.973v6.893h-3.6v-3.293H15.737l-.709-3.455 10.282-4.405h-9.884l-.698-3.46 10.163-4.276-9.191.02V11.08h3.6z" fill="currentColor"/></svg>
