<svg xmlns="http://www.w3.org/2000/svg" viewBox="0 0 50 50" fill="none"><rect opacity=".06" width="50" height="50" rx="4" fill="url(#bbnsvg_a12d569f0c__paint0_linear_18705_56629)"/><path fill-rule="evenodd" clip-rule="evenodd" d="M15.06 15.654a1.263 1.263 0 00-.329.754l-1.07 10.377c-.017.169-.007.334.026.49a5.917 5.917 0 00-.205 1.545c0 4.511 5.154 8.169 11.512 8.169 6.359 0 11.513-3.658 11.513-8.17 0-.527-.07-1.043-.205-1.543.033-.157.043-.322.025-.491l-1.07-10.377a1.262 1.262 0 00-.327-.754c-.873-.912-3.838-3.435-9.936-3.435-6.097 0-9.062 2.523-9.935 3.435zm3.808 2.302c.026-.256.113-.501.29-.687.591-.618 2.295-1.983 5.818-1.983 3.57 0 5.193 1.402 5.726 2.008.151.171.225.39.252.617l.542 4.705a1.583 1.583 0 01-1.573 1.764h-9.96a1.583 1.583 0 01-1.576-1.745l.48-4.68zM12.37 29.238c-.066.634-.801.913-1.191.408-1.068-1.38-1.716-3.199-1.716-5.192 0-2.671 1.164-5.03 2.941-6.438.487-.386 1.12.04 1.056.658l-1.09 10.564zm25.254 0c.066.634.8.913 1.19.408 1.069-1.38 1.717-3.199 1.717-5.192 0-2.671-1.165-5.03-2.942-6.438-.486-.386-1.12.04-1.055.658l1.09 10.564zm-15.252-9.151a1.233 1.233 0 11-2.465 0 1.233 1.233 0 012.465 0zm6.376 1.233a1.233 1.233 0 100-2.466 1.233 1.233 0 000 2.466z" fill="url(#bbnsvg_a12d569f0c__paint1_linear_18705_56629)"/><defs><linearGradient id="bbnsvg_a12d569f0c__paint0_linear_18705_56629" x1="25" y1="1.786" x2="25" y2="50" gradientUnits="userSpaceOnUse"><stop stop-color="#528CFF"/><stop offset="1" stop-color="#1664FF"/></linearGradient><linearGradient id="bbnsvg_a12d569f0c__paint1_linear_18705_56629" x1="24.998" y1="13.103" x2="24.998" y2="36.989" gradientUnits="userSpaceOnUse"><stop stop-color="#528CFF"/><stop offset="1" stop-color="#1664FF"/></linearGradient></defs></svg>
