<svg xmlns="http://www.w3.org/2000/svg" viewBox="0 0 24 24" fill="none"><g clip-path="url(#bbvsvg_db85c0ea4d__clip0_7850_19)"><mask id="bbva" style="mask-type:luminance" maskUnits="userSpaceOnUse" x="0" y="0" width="24" height="24"><path d="M0 0h24v24H0V0z" fill="#fff"/></mask><g mask="url(#bbva)"><path d="M12 .003C5.374.003.004 5.37.004 11.99c0 6.116 4.582 11.162 10.503 11.895.334.07.74.112 1.225.112.136 0 .267-.008.394-.02 6.567-.068 11.87-5.408 11.87-11.987C23.996 5.37 18.626.003 12 .003zm10.055 9.83c.163.764.24 1.545.226 2.327a11.748 11.748 0 00-.234-1.752c.01-.204.013-.396.008-.575z" fill="#387BFF"/><path d="M10.11 22.815c-5.163-.902-9.088-5.402-9.088-10.82 0-.776.081-1.534.235-2.265.475.507 1.594.495 1.866-.263.488.291 1.144.344 1.144.926 0 1.919.069 3.977 1.813 4.008.049 0 .972.35 1.412 1.49.152.394.753 0 1.412 0 .33 0 0 .555 0 1.754 0 1.194 2.575 3.032 2.575 3.032-.012.791.02 1.43.086 1.94-.581-.01-1.072.067-1.456.198zm4.61-.171c-.056-.279-.306-.432-.76-.312.363-1.546.539-2.411 1.297-3.069 1.095-.95.13-2.007-.704-1.883-.658.1-.242-.813-.829-.864-.587-.049-1.353-1.216-2.197-1.618-.448-.212-.888-.782-1.58-.808-.611-.024-1.505.518-1.505.1 0-1.343-.137-2.303-.164-2.685-.023-.308-.201-.104.626-.084.45.012.23-.905.676-.94.438-.034 1.48.41 1.746.233.248-.165 1.815 4.115 1.815.707 0-.404-.21-1.107 0-1.49.828-1.513 1.603-2.747 1.534-2.928-.04-.1-.847-.185-1.494.032-.217.073.07.415-.244.487-1.173.272-2.21-.316-1.848-.868.372-.566 1.72-.247 1.838-1.382.067-.65.124-1.404.162-1.963 1.58.247 1.406-2.05-.943-2.297 4.752.056 8.779 3.125 10.256 7.384a.447.447 0 00-.262-.12c-.71-1.774-2.434-.49-1.849 1.075-3.133 2.409-2.33 4.089-1.302 5.05.542.506 1.058 1.267 1.395 1.813-.366 1.067 1.348.64 2.194-1.171a11.011 11.011 0 01-7.857 7.601zm7.336-12.812c.163.765.239 1.546.226 2.328a11.763 11.763 0 00-.234-1.752c.01-.204.013-.396.008-.576z" fill="#fff"/></g></g><defs><clipPath id="bbvsvg_db85c0ea4d__clip0_7850_19"><path fill="#fff" d="M0 0h24v24H0z"/></clipPath></defs></svg>
