<svg xmlns="http://www.w3.org/2000/svg" viewBox="0 0 16 16" fill="none"><g clip-path="url(#admsvg_d8f955ffef__svg_3bb3e8c8a2__clip0_3981_21356)"><path d="M8 .002C3.583.002.002 3.58.002 7.994c0 4.077 3.055 7.44 7.003 7.93a3.986 3.986 0 001.079.06c4.378-.044 7.913-3.604 7.913-7.99C15.997 3.58 12.417.002 8 .002zm6.703 6.553c.11.51.16 1.03.15 1.552a7.827 7.827 0 00-.155-1.168c.007-.136.009-.264.005-.384z" fill="currentColor"/><path d="M6.74 15.21A7.326 7.326 0 01.837 6.487c.316.338 1.062.33 1.244-.176.325.194.763.23.763.617 0 1.28.045 2.652 1.208 2.673.033 0 .648.233.941.993.102.263.502 0 .942 0 .22 0 0 .37 0 1.169 0 .796 1.716 2.022 1.716 2.022-.008.527.014.953.058 1.293a2.858 2.858 0 00-.97.132zm3.074-.114c-.038-.186-.205-.288-.508-.208.242-1.03.36-1.608.865-2.046.73-.634.087-1.338-.47-1.255-.438.066-.16-.543-.552-.577-.391-.032-.902-.81-1.465-1.078-.298-.142-.592-.522-1.052-.539-.408-.016-1.004.345-1.004.067 0-.896-.091-1.535-.11-1.79-.015-.205-.134-.07.418-.056.3.008.153-.603.45-.627.292-.023.988.273 1.165.155.165-.11 1.21 2.744 1.21.472 0-.27-.14-.738 0-.994.552-1.008 1.068-1.83 1.022-1.951-.026-.068-.565-.124-.996.02-.145.05.047.277-.162.326-.783.18-1.474-.211-1.232-.58.248-.376 1.146-.164 1.225-.92.045-.434.083-.936.108-1.31 1.053.165.937-1.366-.629-1.53a7.33 7.33 0 016.838 4.922.298.298 0 00-.175-.08c-.473-1.182-1.623-.326-1.233.717C11.44 7.84 11.973 8.96 12.66 9.6c.362.337.706.844.93 1.208-.244.711.899.427 1.463-.78a7.339 7.339 0 01-5.238 5.067zm4.89-8.541c.109.51.16 1.03.15 1.551a7.84 7.84 0 00-.156-1.168c.007-.135.01-.264.006-.383z" fill="currentColor"/></g><defs><clipPath id="admsvg_d8f955ffef__svg_3bb3e8c8a2__clip0_3981_21356"><path d="M0 0h16v16H0z" fill="currentColor"/></clipPath></defs></svg>
