<svg xmlns="http://www.w3.org/2000/svg" viewBox="0 0 48 48" fill="none"><path fill-rule="evenodd" clip-rule="evenodd" d="M34 12a2 2 0 012 2v28a2 2 0 01-2 2H6a2 2 0 01-2-2V14a2 2 0 012-2h28zm-2 4H8v24h24V16zm-4.119 10.366a.8.8 0 01.235.565V35.4a.6.6 0 01-.6.6H23.51l.012.011H12.689a.6.6 0 01-.424-1.024l4.442-4.443a.8.8 0 011.12-.01l2.423 2.331 6.5-6.5a.8.8 0 011.131 0zM42 4a2 2 0 012 2v25a1 1 0 01-1 1h-2a1 1 0 01-1-1V8H17a1 1 0 01-1-1V5a1 1 0 011-1h25zM18 20v6h-6v-6h6z" fill="currentColor"/></svg>
