<svg xmlns="http://www.w3.org/2000/svg" viewBox="0 0 48 48" fill="none"><path fill-rule="evenodd" clip-rule="evenodd" d="M26.33 16.092c.47 0 .85.38.851.85l.005 18.229h3.937c.47 0 .851.38.851.85v4.627c0 .47-.38.851-.851.851l-14.246.001a.851.851 0 01-.851-.851v-4.627c0-.47.38-.851.851-.851h3.907l-.003-12.751h-1.34a.851.851 0 01-.852-.852v-4.625c0-.47.381-.851.852-.851h6.889zm-.7-9.592c.47 0 .852.381.852.851v4.668c0 .47-.381.851-.851.851h-4.865a.851.851 0 01-.85-.85V7.35c0-.47.38-.851.85-.851h4.865z" fill="currentColor"/></svg>
