<svg xmlns="http://www.w3.org/2000/svg" viewBox="0 -0.5 49 49" fill="none"><path fill-rule="evenodd" clip-rule="evenodd" d="M24.08 23.996h-18v16a2 2 0 002 2h16v-18z" fill="url(#bctsvg_3d9454f77f__paint0_linear_7496_35634)"/><path d="M42.08 7.996a2 2 0 00-2-2h-16v18h18v-16z" fill="#B5BCC9"/><path fill-rule="evenodd" clip-rule="evenodd" d="M30.08 23.996a6 6 0 00-6 6v12h16a2 2 0 002-2v-16h-12z" fill="url(#bctsvg_3d9454f77f__paint1_linear_7496_35634)"/><path d="M8.08 5.996a2 2 0 00-2 2v16h18V6.004v-.008h-16z" fill="url(#bctsvg_3d9454f77f__paint2_linear_7496_35634)"/><g filter="url(#bctsvg_3d9454f77f__filter0_d_7496_35634)"><path d="M24.081 35.365c0-6.279-5.09-11.369-11.368-11.369 6.278 0 11.368-5.09 11.368-11.368 0 6.279 5.09 11.368 11.369 11.368-6.279 0-11.369 5.09-11.369 11.369z" fill="#fff"/></g><defs><linearGradient id="bctsvg_3d9454f77f__paint0_linear_7496_35634" x1="20.08" y1="4.996" x2="15.08" y2="41.996" gradientUnits="userSpaceOnUse"><stop stop-color="#818A9C"/><stop offset="1" stop-color="#353D51"/></linearGradient><linearGradient id="bctsvg_3d9454f77f__paint1_linear_7496_35634" x1="33.08" y1="23.996" x2="33.08" y2="41.996" gradientUnits="userSpaceOnUse"><stop stop-color="#818A9C"/><stop offset="1" stop-color="#353D51"/></linearGradient><linearGradient id="bctsvg_3d9454f77f__paint2_linear_7496_35634" x1="15.08" y1="5.996" x2="15.08" y2="23.996" gradientUnits="userSpaceOnUse"><stop stop-color="#818A9C"/><stop offset="1" stop-color="#353D51"/></linearGradient><filter id="bctsvg_3d9454f77f__filter0_d_7496_35634" x="5.793" y="9.708" width="36.577" height="36.577" filterUnits="userSpaceOnUse" color-interpolation-filters="sRGB"><feFlood flood-opacity="0" result="BackgroundImageFix"/><feColorMatrix in="SourceAlpha" values="0 0 0 0 0 0 0 0 0 0 0 0 0 0 0 0 0 0 127 0" result="hardAlpha"/><feOffset dy="4"/><feGaussianBlur stdDeviation="3.46"/><feComposite in2="hardAlpha" operator="out"/><feColorMatrix values="0 0 0 0 0 0 0 0 0 0 0 0 0 0 0 0 0 0 0.12 0"/><feBlend in2="BackgroundImageFix" result="effect1_dropShadow_7496_35634"/><feBlend in="SourceGraphic" in2="effect1_dropShadow_7496_35634" result="shape"/></filter></defs></svg>
