<svg xmlns="http://www.w3.org/2000/svg" viewBox="0 0 48 48" fill="none"><path d="M4 42V30a2 2 0 012-2h36a2 2 0 012 2v12a2 2 0 01-2 2H6a2 2 0 01-2-2z" fill="#B5BCC9"/><rect x="9.352" y="4" width="29.297" height="34" rx="2" fill="url(#adwsvg_51be25b014__paint0_linear_7496_35632)"/><g filter="url(#adwsvg_51be25b014__filter0_d_7496_35632)"><path fill-rule="evenodd" clip-rule="evenodd" d="M20.468 14.755a3.356 3.356 0 00-.992-6.56 3.354 3.354 0 00-1.008 6.555v1.911a4.485 4.485 0 000 8.677v1.912a3.356 3.356 0 001.008 6.554 3.354 3.354 0 00.992-6.559V25.4a4.488 4.488 0 002.976-2.087l2.776 1.602a3.354 3.354 0 10.913-1.782l-3.061-1.768a4.552 4.552 0 00-.053-1.144l3.103-1.792a3.354 3.354 0 10-.905-1.787l-2.985 1.724a4.485 4.485 0 00-2.764-1.766v-1.845z" fill="#fff"/></g><defs><linearGradient id="adwsvg_51be25b014__paint0_linear_7496_35632" x1="24" y1="4" x2="24" y2="38" gradientUnits="userSpaceOnUse"><stop stop-color="#353D51"/><stop offset="1" stop-color="#818A9C"/></linearGradient><filter id="adwsvg_51be25b014__filter0_d_7496_35632" x="9.119" y="4.195" width="29.761" height="37.609" filterUnits="userSpaceOnUse" color-interpolation-filters="sRGB"><feFlood flood-opacity="0" result="BackgroundImageFix"/><feColorMatrix in="SourceAlpha" values="0 0 0 0 0 0 0 0 0 0 0 0 0 0 0 0 0 0 127 0" result="hardAlpha"/><feOffset dy="2"/><feGaussianBlur stdDeviation="3"/><feComposite in2="hardAlpha" operator="out"/><feColorMatrix values="0 0 0 0 0 0 0 0 0 0 0 0 0 0 0 0 0 0 0.19 0"/><feBlend in2="BackgroundImageFix" result="effect1_dropShadow_7496_35632"/><feBlend in="SourceGraphic" in2="effect1_dropShadow_7496_35632" result="shape"/></filter></defs></svg>
