<svg xmlns="http://www.w3.org/2000/svg" viewBox="0 0 24 24" fill="none"><g clip-path="url(#bdnsvg_7714e5cf3c__svg_d999c63acf__clip0_15763_157736)"><mask id="bdna" style="mask-type:luminance" maskUnits="userSpaceOnUse" x="0" y="0" width="24" height="24"><path d="M0 0h24v24H0V0z" fill="#fff"/></mask><g mask="url(#bdna)"><path d="M12.413 12.268l.053-.053.105-.102.072-.07.211-.21.293-.286.25-.247.233-.23.244-.243.223-.22.314-.309c.06-.059.121-.115.183-.172.113-.105.23-.203.349-.3a7.654 7.654 0 011.352-.856 6.67 6.67 0 01.796-.326c.049-.016.097-.034.149-.049a12.327 12.327 0 00-2.33-4.676 1.128 1.128 0 00-.876-.419H5.029a.17.17 0 00-.1.306 26.285 26.285 0 017.463 8.483l.02-.02z" fill="#00D6B9"/><path d="M8.834 20.195a12.367 12.367 0 0011.03-6.763 4.873 4.873 0 01-.355.581 7.676 7.676 0 01-.141.193c-.062.08-.124.154-.188.229a4.556 4.556 0 01-.942.83l-.158.105c-.052.036-.11.067-.17.1a4.677 4.677 0 01-1.037.427c-.182.05-.366.09-.553.118-.133.02-.272.036-.408.046-.136.01-.29.013-.437.013a5.073 5.073 0 01-1.167-.15c-.057-.013-.11-.029-.167-.045a30.662 30.662 0 01-.463-.128c-.077-.023-.154-.044-.228-.067a10.87 10.87 0 01-.342-.105l-.277-.09c-.093-.03-.177-.057-.264-.088l-.18-.062-.219-.077-.154-.056c-.105-.036-.205-.075-.305-.113-.06-.023-.119-.043-.178-.067l-.236-.092c-.082-.034-.167-.067-.25-.1l-.161-.067-.2-.082-.155-.065-.158-.069-.137-.062-.126-.057-.129-.059-.13-.062-.167-.077-.175-.082-.185-.09-.159-.077a25.993 25.993 0 01-7.372-5.494.17.17 0 00-.238-.007.171.171 0 00-.053.123l.005 7.947v.645A1.12 1.12 0 002 18.13a12.25 12.25 0 006.834 2.064" fill="#3370FF"/><path d="M22.5 8.993a7.11 7.11 0 00-5.049-.46c-.072.02-.141.04-.21.062a11.788 11.788 0 00-.44.154 7.154 7.154 0 00-1.02.495 6.55 6.55 0 00-.499.324 6.825 6.825 0 00-.871.727l-.313.309-.224.22-.244.242-.234.231-.249.247-.29.288-.211.21-.072.07a4.15 4.15 0 01-.106.103l-.053.053-.08.074-.089.082a12.462 12.462 0 01-2.564 1.817l.167.077.13.062.13.059.125.056.139.062.158.07.154.063.2.082.162.067.25.1.236.093c.06.023.119.043.178.067.102.038.205.074.305.113l.155.056c.071.026.143.053.218.077l.18.062c.087.029.174.06.264.088.089.028.185.058.277.09.113.035.229.069.342.105l.229.067c.154.044.308.087.462.128l.167.044a6.156 6.156 0 00.679.12c.164.018.326.028.488.03.146 0 .293 0 .437-.012a5.056 5.056 0 00.96-.165 4.472 4.472 0 00.681-.247 4.356 4.356 0 00.527-.28c.057-.036.106-.07.159-.105.082-.057.165-.113.244-.175a3.84 3.84 0 00.2-.162 4.934 4.934 0 00.683-.722 5.35 5.35 0 00.493-.77l.121-.24 1.074-2.14.013-.025A7.031 7.031 0 0122.5 8.993z" fill="#133C9A"/></g></g><defs><clipPath id="bdnsvg_7714e5cf3c__svg_d999c63acf__clip0_15763_157736"><path fill="#fff" d="M0 0h24v24H0z"/></clipPath></defs></svg>
