<svg xmlns="http://www.w3.org/2000/svg" viewBox="0 0 120 120" fill="none"><g clip-path="url(#aadsvg_bd81a74f6f__clip0_99_8474)"><path fill="#fff" d="M0 0h120v120H0z"/><g filter="url(#aadsvg_bd81a74f6f__filter0_dii_99_8474)"><path d="M8 23c0-5.523 4.477-10 10-10h79.997c5.523 0 10 4.477 10 10v15.55L108 92c0 5.523-4.477 10-10 10H18.002c-5.523 0-10-4.477-10-10L8 23z" fill="url(#aadsvg_bd81a74f6f__paint0_linear_99_8474)"/></g><path fill-rule="evenodd" clip-rule="evenodd" d="M18.002 101.4H98a9.4 9.4 0 009.4-9.4l-.003-69a9.4 9.4 0 00-9.4-9.4H18A9.4 9.4 0 008.6 23l.002 69a9.4 9.4 0 009.4 9.4zM18 13c-5.523 0-10 4.477-10 10l.002 69c0 5.523 4.478 10 10 10H98c5.523 0 10-4.477 10-10l-.003-69c0-5.523-4.477-10-10-10H18z" fill="url(#aadsvg_bd81a74f6f__paint1_linear_99_8474)"/><g filter="url(#aadsvg_bd81a74f6f__filter1_di_99_8474)"><circle cx="19.5" cy="23.5" r="3.5" fill="url(#aadsvg_bd81a74f6f__paint2_linear_99_8474)"/></g><g filter="url(#aadsvg_bd81a74f6f__filter2_di_99_8474)"><circle cx="30.5" cy="23.5" r="3.5" fill="url(#aadsvg_bd81a74f6f__paint3_linear_99_8474)"/></g><g filter="url(#aadsvg_bd81a74f6f__filter3_di_99_8474)"><circle cx="41.5" cy="23.5" r="3.5" fill="url(#aadsvg_bd81a74f6f__paint4_linear_99_8474)"/></g><path fill-rule="evenodd" clip-rule="evenodd" d="M19.5 26.7a3.2 3.2 0 100-6.4 3.2 3.2 0 000 6.4zm0 .3a3.5 3.5 0 100-7 3.5 3.5 0 000 7z" fill="url(#aadsvg_bd81a74f6f__paint5_linear_99_8474)"/><path fill-rule="evenodd" clip-rule="evenodd" d="M30.5 26.7a3.2 3.2 0 100-6.4 3.2 3.2 0 000 6.4zm0 .3a3.5 3.5 0 100-7 3.5 3.5 0 000 7z" fill="url(#aadsvg_bd81a74f6f__paint6_linear_99_8474)"/><path fill-rule="evenodd" clip-rule="evenodd" d="M41.5 26.7a3.2 3.2 0 100-6.4 3.2 3.2 0 000 6.4zm0 .3a3.5 3.5 0 100-7 3.5 3.5 0 000 7z" fill="url(#aadsvg_bd81a74f6f__paint7_linear_99_8474)"/><path d="M16 37a6 6 0 016-6h72a6 6 0 016 6v53a6 6 0 01-6 6H22a6 6 0 01-6-6V37z" fill="url(#aadsvg_bd81a74f6f__paint8_linear_99_8474)"/><path d="M41.763 60.207a.3.3 0 00-.3-.3h-3.874a.3.3 0 00-.3.3v5.508a.3.3 0 01-.3.3h-4.138a.3.3 0 01-.265-.441l7.285-13.707a.3.3 0 00-.265-.441h-4.29a.3.3 0 00-.265.16l-8.017 15.28a.3.3 0 00-.034.14v2.835a.3.3 0 00.3.3h9.689a.3.3 0 01.3.3v3.592a.3.3 0 00.3.3h3.873a.3.3 0 00.3-.3V70.44a.3.3 0 01.3-.3h2.631a.3.3 0 00.3-.3v-3.526a.3.3 0 00-.3-.3h-2.63a.3.3 0 01-.3-.3v-5.508zM58.434 51c-5.55 0-9.99 4.454-9.99 11.871 0 7.417 4.44 11.87 9.99 11.87 5.534 0 10.007-4.453 10.007-11.87C68.441 55.454 63.968 51 58.434 51zm0 4.24c2.982 0 5.335 2.62 5.335 7.631 0 5.01-2.353 7.63-5.335 7.63-2.966 0-5.335-2.62-5.335-7.63s2.37-7.63 5.335-7.63zM85.77 60.207a.3.3 0 00-.3-.3h-3.874a.3.3 0 00-.3.3v5.508a.3.3 0 01-.3.3h-4.139a.3.3 0 01-.264-.441l7.285-13.707a.3.3 0 00-.265-.441h-4.29a.3.3 0 00-.265.16l-8.017 15.28a.3.3 0 00-.034.14v2.835a.3.3 0 00.3.3h9.689a.3.3 0 01.3.3v3.592a.3.3 0 00.3.3h3.873a.3.3 0 00.3-.3V70.44a.3.3 0 01.3-.3H88.7a.3.3 0 00.3-.3v-3.526a.3.3 0 00-.3-.3h-2.63a.3.3 0 01-.3-.3v-5.508z" fill="#ABB2D0"/><path fill-rule="evenodd" clip-rule="evenodd" d="M37.59 59.526h3.873a.68.68 0 01.68.681v5.427h2.55a.68.68 0 01.681.68v3.527a.68.68 0 01-.68.68h-2.55v3.512a.68.68 0 01-.681.68h-3.874a.68.68 0 01-.68-.68v-3.511H27.3a.681.681 0 01-.68-.681v-2.835a.68.68 0 01.077-.317l8.017-15.28a.68.68 0 01.603-.364h4.29a.68.68 0 01.6 1l-7.221 13.589h3.922v-5.427a.68.68 0 01.681-.68zm13.482-5.624c1.878-2.124 4.48-3.283 7.362-3.283 2.874 0 5.48 1.159 7.364 3.282 1.882 2.122 3.024 5.185 3.024 8.97 0 3.785-1.142 6.848-3.024 8.97-1.884 2.123-4.49 3.282-7.364 3.282-2.882 0-5.484-1.159-7.362-3.283-1.876-2.122-3.01-5.184-3.01-8.969 0-3.785 1.134-6.847 3.01-8.97zm10.843 3.504c-.89-1.188-2.112-1.784-3.48-1.784-1.36 0-2.583.596-3.476 1.784-.9 1.197-1.479 3.016-1.479 5.465 0 2.45.58 4.268 1.479 5.465.893 1.188 2.115 1.784 3.475 1.784 1.369 0 2.59-.596 3.481-1.784.898-1.196 1.473-3.015 1.473-5.465 0-2.45-.575-4.269-1.473-5.465zm19.68 2.12h3.874a.68.68 0 01.681.681v5.427h2.55a.68.68 0 01.681.68v3.527c0 .376-.305.68-.68.68h-2.55v3.512a.68.68 0 01-.682.68h-3.873a.68.68 0 01-.681-.68v-3.511h-9.608a.681.681 0 01-.681-.681v-2.835a.68.68 0 01.078-.317l8.016-15.28a.68.68 0 01.603-.364h4.29a.68.68 0 01.601 1l-7.222 13.589h3.923v-5.427a.68.68 0 01.68-.68zM58.436 51c-5.551 0-9.992 4.454-9.992 11.871 0 7.417 4.44 11.871 9.991 11.871 5.534 0 10.008-4.454 10.008-11.871C68.442 55.454 63.968 51 58.434 51zm0 4.24c2.981 0 5.334 2.62 5.334 7.631 0 5.01-2.353 7.63-5.335 7.63-2.966 0-5.335-2.62-5.335-7.63s2.37-7.63 5.335-7.63zm-16.672 4.967a.3.3 0 00-.3-.3h-3.874a.3.3 0 00-.3.3v5.508a.3.3 0 01-.3.3h-4.138a.3.3 0 01-.265-.441l7.285-13.707a.3.3 0 00-.265-.441h-4.29a.3.3 0 00-.265.16l-8.017 15.28a.3.3 0 00-.034.14v2.835a.3.3 0 00.3.3h9.69a.3.3 0 01.3.3v3.592a.3.3 0 00.3.3h3.873a.3.3 0 00.3-.3V70.44a.3.3 0 01.3-.3h2.63a.3.3 0 00.3-.3v-3.526a.3.3 0 00-.3-.3h-2.63a.3.3 0 01-.3-.3v-5.508zm43.706-.3a.3.3 0 01.3.3v5.508a.3.3 0 00.3.3H88.7a.3.3 0 01.3.3v3.526a.3.3 0 01-.3.3h-2.63a.3.3 0 00-.3.3v3.592a.3.3 0 01-.3.3h-3.874a.3.3 0 01-.3-.3V70.44a.3.3 0 00-.3-.3h-9.69a.3.3 0 01-.3-.3v-2.835a.3.3 0 01.035-.14l8.017-15.28a.3.3 0 01.265-.16h4.29a.3.3 0 01.265.44l-7.285 13.708a.3.3 0 00.264.44h4.139a.3.3 0 00.3-.3v-5.507a.3.3 0 01.3-.3h3.873z" fill="url(#aadsvg_bd81a74f6f__paint9_linear_99_8474)"/><path fill-rule="evenodd" clip-rule="evenodd" d="M94 31.604H22A5.396 5.396 0 0016.604 37v53A5.396 5.396 0 0022 95.396h72A5.396 5.396 0 0099.396 90V37A5.396 5.396 0 0094 31.604zM22 31a6 6 0 00-6 6v53a6 6 0 006 6h72a6 6 0 006-6V37a6 6 0 00-6-6H22z" fill="url(#aadsvg_bd81a74f6f__paint10_linear_99_8474)"/><g filter="url(#aadsvg_bd81a74f6f__filter4_d_99_8474)"><g filter="url(#aadsvg_bd81a74f6f__filter5_dii_99_8474)"><circle cx="100" cy="89" r="16" transform="rotate(6.375 100 89)" fill="url(#aadsvg_bd81a74f6f__paint11_linear_99_8474)"/></g><path fill-rule="evenodd" clip-rule="evenodd" d="M101.749 73.347c-8.644-.966-16.435 5.26-17.401 13.904-.966 8.645 5.259 16.436 13.903 17.401 8.645.966 16.436-5.259 17.402-13.903.966-8.645-5.259-16.436-13.904-17.402zM83.851 87.195c.996-8.919 9.035-15.341 17.954-14.345 8.919.997 15.341 9.035 14.345 17.954-.997 8.92-9.035 15.342-17.954 14.345-8.92-.996-15.342-9.034-14.345-17.954z" fill="url(#aadsvg_bd81a74f6f__paint12_linear_99_8474)"/></g><g filter="url(#aadsvg_bd81a74f6f__filter6_d_99_8474)"><path d="M106.617 83.753a1.658 1.658 0 00-2.39-.194l-3.964 3.477-3.218-3.91a1.658 1.658 0 00-2.39-.195 1.79 1.79 0 00-.2 2.466l3.217 3.912-3.808 3.34a1.79 1.79 0 00-.2 2.466 1.659 1.659 0 002.39.195l3.807-3.34 3.35 4.073a1.659 1.659 0 002.39.194 1.79 1.79 0 00.201-2.467l-3.35-4.072 3.965-3.478a1.79 1.79 0 00.2-2.467z" fill="url(#aadsvg_bd81a74f6f__paint13_linear_99_8474)"/><path fill-rule="evenodd" clip-rule="evenodd" d="M100.231 87.42l-3.393-4.125a1.391 1.391 0 00-2.007-.163 1.523 1.523 0 00-.17 2.096l3.382 4.11-4.003 3.511a1.523 1.523 0 00-.17 2.096 1.391 1.391 0 002.007.164l4.015-3.522 3.526 4.286a1.39 1.39 0 002.007.163 1.522 1.522 0 00.171-2.096l-3.515-4.272 4.159-3.649a1.523 1.523 0 00.171-2.096 1.39 1.39 0 00-2.007-.163l-4.173 3.66zm2.98 8.623a1.659 1.659 0 002.39.194 1.79 1.79 0 00.201-2.467l-3.35-4.072 3.965-3.478a1.79 1.79 0 00.2-2.467 1.658 1.658 0 00-2.39-.194l-3.964 3.477-3.218-3.91a1.658 1.658 0 00-2.39-.195 1.79 1.79 0 00-.2 2.466l3.217 3.912-3.808 3.34a1.79 1.79 0 00-.2 2.466 1.659 1.659 0 002.39.195l3.807-3.34 3.35 4.073z" fill="url(#aadsvg_bd81a74f6f__paint14_linear_99_8474)"/></g></g><defs><linearGradient id="aadsvg_bd81a74f6f__paint0_linear_99_8474" x1="89.954" y1="21.354" x2="36.877" y2="122.171" gradientUnits="userSpaceOnUse"><stop stop-color="#EBEBEC"/><stop offset=".855" stop-color="#EDEDEE"/></linearGradient><linearGradient id="aadsvg_bd81a74f6f__paint1_linear_99_8474" x1="19.02" y1="2.851" x2="68.602" y2="97.981" gradientUnits="userSpaceOnUse"><stop stop-color="#E0DEDE"/><stop offset=".192" stop-color="#E7E7E7"/><stop offset=".704" stop-color="#D9D9D9"/><stop offset=".963" stop-color="#C3C3C7"/></linearGradient><linearGradient id="aadsvg_bd81a74f6f__paint2_linear_99_8474" x1="17.75" y1="20.875" x2="26.761" y2="26.79" gradientUnits="userSpaceOnUse"><stop stop-color="#fff"/><stop offset=".855" stop-color="#F3F3F3"/></linearGradient><linearGradient id="aadsvg_bd81a74f6f__paint3_linear_99_8474" x1="28.75" y1="20.875" x2="37.761" y2="26.79" gradientUnits="userSpaceOnUse"><stop stop-color="#fff"/><stop offset=".855" stop-color="#F3F3F3"/></linearGradient><linearGradient id="aadsvg_bd81a74f6f__paint4_linear_99_8474" x1="39.75" y1="20.875" x2="48.761" y2="26.79" gradientUnits="userSpaceOnUse"><stop stop-color="#fff"/><stop offset=".855" stop-color="#F3F3F3"/></linearGradient><linearGradient id="aadsvg_bd81a74f6f__paint5_linear_99_8474" x1="16.709" y1="19.504" x2="20.55" y2="26.509" gradientUnits="userSpaceOnUse"><stop stop-color="#E3E3E3"/><stop offset=".963" stop-color="#B4B4B4"/></linearGradient><linearGradient id="aadsvg_bd81a74f6f__paint6_linear_99_8474" x1="27.709" y1="19.504" x2="31.55" y2="26.509" gradientUnits="userSpaceOnUse"><stop stop-color="#E3E3E3"/><stop offset=".963" stop-color="#B4B4B4"/></linearGradient><linearGradient id="aadsvg_bd81a74f6f__paint7_linear_99_8474" x1="38.709" y1="19.504" x2="42.55" y2="26.509" gradientUnits="userSpaceOnUse"><stop stop-color="#E3E3E3"/><stop offset=".963" stop-color="#B4B4B4"/></linearGradient><linearGradient id="aadsvg_bd81a74f6f__paint8_linear_99_8474" x1="85.452" y1="40.208" x2="53.698" y2="115.464" gradientUnits="userSpaceOnUse"><stop stop-color="#fff"/><stop offset=".855" stop-color="#fff"/></linearGradient><linearGradient id="aadsvg_bd81a74f6f__paint9_linear_99_8474" x1="50.924" y1="55.401" x2="55.041" y2="74.214" gradientUnits="userSpaceOnUse"><stop offset=".01" stop-color="#9DA6C7"/><stop offset="1" stop-color="#939BBC"/></linearGradient><linearGradient id="aadsvg_bd81a74f6f__paint10_linear_99_8474" x1="24.513" y1="27.468" x2="54.137" y2="98.386" gradientUnits="userSpaceOnUse"><stop stop-color="#E2E2E2"/><stop offset=".192" stop-color="#EEE"/><stop offset=".704" stop-color="#E3E3E3"/><stop offset=".963" stop-color="#C3C3C7"/></linearGradient><linearGradient id="aadsvg_bd81a74f6f__paint11_linear_99_8474" x1="95.176" y1="71.741" x2="114.485" y2="97.432" gradientUnits="userSpaceOnUse"><stop stop-color="#ACB2CF"/><stop offset="1" stop-color="#7E89B1"/></linearGradient><linearGradient id="aadsvg_bd81a74f6f__paint12_linear_99_8474" x1="96.87" y1="81.819" x2="104.758" y2="102.077" gradientUnits="userSpaceOnUse"><stop offset=".181" stop-color="#BAC0DB"/><stop offset="1" stop-color="#666F8F"/></linearGradient><linearGradient id="aadsvg_bd81a74f6f__paint13_linear_99_8474" x1="104.728" y1="84.735" x2="95.837" y2="98.573" gradientUnits="userSpaceOnUse"><stop stop-color="#fff"/><stop offset=".855" stop-color="#fff"/></linearGradient><linearGradient id="aadsvg_bd81a74f6f__paint14_linear_99_8474" x1="95.26" y1="81.514" x2="102.166" y2="95.381" gradientUnits="userSpaceOnUse"><stop stop-color="#fff"/><stop offset=".963" stop-color="#EAEAEA"/></linearGradient><filter id="aadsvg_bd81a74f6f__filter0_dii_99_8474" x="7.529" y="12.529" width="101.883" height="91.355" filterUnits="userSpaceOnUse" color-interpolation-filters="sRGB"><feFlood flood-opacity="0" result="BackgroundImageFix"/><feColorMatrix in="SourceAlpha" values="0 0 0 0 0 0 0 0 0 0 0 0 0 0 0 0 0 0 127 0" result="hardAlpha"/><feOffset dx=".471" dy=".942"/><feGaussianBlur stdDeviation=".471"/><feComposite in2="hardAlpha" operator="out"/><feColorMatrix values="0 0 0 0 0 0 0 0 0 0 0 0 0 0 0 0 0 0 0.1 0"/><feBlend in2="BackgroundImageFix" result="effect1_dropShadow_99_8474"/><feBlend in="SourceGraphic" in2="effect1_dropShadow_99_8474" result="shape"/><feColorMatrix in="SourceAlpha" values="0 0 0 0 0 0 0 0 0 0 0 0 0 0 0 0 0 0 127 0" result="hardAlpha"/><feOffset dx="1.413" dy="1.413"/><feGaussianBlur stdDeviation=".471"/><feComposite in2="hardAlpha" operator="arithmetic" k2="-1" k3="1"/><feColorMatrix values="0 0 0 0 1 0 0 0 0 1 0 0 0 0 1 0 0 0 1 0"/><feBlend in2="shape" result="effect2_innerShadow_99_8474"/><feColorMatrix in="SourceAlpha" values="0 0 0 0 0 0 0 0 0 0 0 0 0 0 0 0 0 0 127 0" result="hardAlpha"/><feOffset dx="-1.413" dy="-1.413"/><feGaussianBlur stdDeviation=".236"/><feComposite in2="hardAlpha" operator="arithmetic" k2="-1" k3="1"/><feColorMatrix values="0 0 0 0 0.879167 0 0 0 0 0.879167 0 0 0 0 0.879167 0 0 0 1 0"/><feBlend in2="effect2_innerShadow_99_8474" result="effect3_innerShadow_99_8474"/></filter><filter id="aadsvg_bd81a74f6f__filter1_di_99_8474" x="15.4" y="19.9" width="8.606" height="8.2" filterUnits="userSpaceOnUse" color-interpolation-filters="sRGB"><feFlood flood-opacity="0" result="BackgroundImageFix"/><feColorMatrix in="SourceAlpha" values="0 0 0 0 0 0 0 0 0 0 0 0 0 0 0 0 0 0 127 0" result="hardAlpha"/><feOffset dy=".5"/><feGaussianBlur stdDeviation=".3"/><feComposite in2="hardAlpha" operator="out"/><feColorMatrix values="0 0 0 0 0 0 0 0 0 0 0 0 0 0 0 0 0 0 0.12 0"/><feBlend in2="BackgroundImageFix" result="effect1_dropShadow_99_8474"/><feBlend in="SourceGraphic" in2="effect1_dropShadow_99_8474" result="shape"/><feColorMatrix in="SourceAlpha" values="0 0 0 0 0 0 0 0 0 0 0 0 0 0 0 0 0 0 127 0" result="hardAlpha"/><feOffset dx="1.51" dy="1.51"/><feGaussianBlur stdDeviation=".503"/><feComposite in2="hardAlpha" operator="arithmetic" k2="-1" k3="1"/><feColorMatrix values="0 0 0 0 1 0 0 0 0 1 0 0 0 0 1 0 0 0 1 0"/><feBlend in2="shape" result="effect2_innerShadow_99_8474"/></filter><filter id="aadsvg_bd81a74f6f__filter2_di_99_8474" x="26.4" y="19.9" width="8.606" height="8.2" filterUnits="userSpaceOnUse" color-interpolation-filters="sRGB"><feFlood flood-opacity="0" result="BackgroundImageFix"/><feColorMatrix in="SourceAlpha" values="0 0 0 0 0 0 0 0 0 0 0 0 0 0 0 0 0 0 127 0" result="hardAlpha"/><feOffset dy=".5"/><feGaussianBlur stdDeviation=".3"/><feComposite in2="hardAlpha" operator="out"/><feColorMatrix values="0 0 0 0 0 0 0 0 0 0 0 0 0 0 0 0 0 0 0.12 0"/><feBlend in2="BackgroundImageFix" result="effect1_dropShadow_99_8474"/><feBlend in="SourceGraphic" in2="effect1_dropShadow_99_8474" result="shape"/><feColorMatrix in="SourceAlpha" values="0 0 0 0 0 0 0 0 0 0 0 0 0 0 0 0 0 0 127 0" result="hardAlpha"/><feOffset dx="1.51" dy="1.51"/><feGaussianBlur stdDeviation=".503"/><feComposite in2="hardAlpha" operator="arithmetic" k2="-1" k3="1"/><feColorMatrix values="0 0 0 0 1 0 0 0 0 1 0 0 0 0 1 0 0 0 1 0"/><feBlend in2="shape" result="effect2_innerShadow_99_8474"/></filter><filter id="aadsvg_bd81a74f6f__filter3_di_99_8474" x="37.4" y="19.9" width="8.606" height="8.2" filterUnits="userSpaceOnUse" color-interpolation-filters="sRGB"><feFlood flood-opacity="0" result="BackgroundImageFix"/><feColorMatrix in="SourceAlpha" values="0 0 0 0 0 0 0 0 0 0 0 0 0 0 0 0 0 0 127 0" result="hardAlpha"/><feOffset dy=".5"/><feGaussianBlur stdDeviation=".3"/><feComposite in2="hardAlpha" operator="out"/><feColorMatrix values="0 0 0 0 0 0 0 0 0 0 0 0 0 0 0 0 0 0 0.12 0"/><feBlend in2="BackgroundImageFix" result="effect1_dropShadow_99_8474"/><feBlend in="SourceGraphic" in2="effect1_dropShadow_99_8474" result="shape"/><feColorMatrix in="SourceAlpha" values="0 0 0 0 0 0 0 0 0 0 0 0 0 0 0 0 0 0 127 0" result="hardAlpha"/><feOffset dx="1.51" dy="1.51"/><feGaussianBlur stdDeviation=".503"/><feComposite in2="hardAlpha" operator="arithmetic" k2="-1" k3="1"/><feColorMatrix values="0 0 0 0 1 0 0 0 0 1 0 0 0 0 1 0 0 0 1 0"/><feBlend in2="shape" result="effect2_innerShadow_99_8474"/></filter><filter id="aadsvg_bd81a74f6f__filter4_d_99_8474" x="79.749" y="69.749" width="40.503" height="40.503" filterUnits="userSpaceOnUse" color-interpolation-filters="sRGB"><feFlood flood-opacity="0" result="BackgroundImageFix"/><feColorMatrix in="SourceAlpha" values="0 0 0 0 0 0 0 0 0 0 0 0 0 0 0 0 0 0 127 0" result="hardAlpha"/><feOffset dy="1"/><feGaussianBlur stdDeviation="2"/><feComposite in2="hardAlpha" operator="out"/><feColorMatrix values="0 0 0 0 0 0 0 0 0 0 0 0 0 0 0 0 0 0 0.2 0"/><feBlend in2="BackgroundImageFix" result="effect1_dropShadow_99_8474"/><feBlend in="SourceGraphic" in2="effect1_dropShadow_99_8474" result="shape"/></filter><filter id="aadsvg_bd81a74f6f__filter5_dii_99_8474" x="82.999" y="71.999" width="34.003" height="34.503" filterUnits="userSpaceOnUse" color-interpolation-filters="sRGB"><feFlood flood-opacity="0" result="BackgroundImageFix"/><feColorMatrix in="SourceAlpha" values="0 0 0 0 0 0 0 0 0 0 0 0 0 0 0 0 0 0 127 0" result="hardAlpha"/><feOffset dy=".5"/><feGaussianBlur stdDeviation=".5"/><feComposite in2="hardAlpha" operator="out"/><feColorMatrix values="0 0 0 0 0.673646 0 0 0 0 0.673646 0 0 0 0 0.725 0 0 0 1 0"/><feBlend in2="BackgroundImageFix" result="effect1_dropShadow_99_8474"/><feBlend in="SourceGraphic" in2="effect1_dropShadow_99_8474" result="shape"/><feColorMatrix in="SourceAlpha" values="0 0 0 0 0 0 0 0 0 0 0 0 0 0 0 0 0 0 127 0" result="hardAlpha"/><feOffset dx=".8" dy=".5"/><feGaussianBlur stdDeviation=".5"/><feComposite in2="hardAlpha" operator="arithmetic" k2="-1" k3="1"/><feColorMatrix values="0 0 0 0 0.930313 0 0 0 0 0.935083 0 0 0 0 0.954167 0 0 0 1 0"/><feBlend in2="shape" result="effect2_innerShadow_99_8474"/><feColorMatrix in="SourceAlpha" values="0 0 0 0 0 0 0 0 0 0 0 0 0 0 0 0 0 0 127 0" result="hardAlpha"/><feOffset dx="-.5" dy="-1"/><feGaussianBlur stdDeviation=".5"/><feComposite in2="hardAlpha" operator="arithmetic" k2="-1" k3="1"/><feColorMatrix values="0 0 0 0 0.409097 0 0 0 0 0.443509 0 0 0 0 0.570833 0 0 0 1 0"/><feBlend in2="effect2_innerShadow_99_8474" result="effect3_innerShadow_99_8474"/></filter><filter id="aadsvg_bd81a74f6f__filter6_d_99_8474" x="92.763" y="82.512" width="14.755" height="15.145" filterUnits="userSpaceOnUse" color-interpolation-filters="sRGB"><feFlood flood-opacity="0" result="BackgroundImageFix"/><feColorMatrix in="SourceAlpha" values="0 0 0 0 0 0 0 0 0 0 0 0 0 0 0 0 0 0 127 0" result="hardAlpha"/><feOffset dy=".5"/><feGaussianBlur stdDeviation=".25"/><feComposite in2="hardAlpha" operator="out"/><feColorMatrix values="0 0 0 0 0.421389 0 0 0 0 0.462937 0 0 0 0 0.616667 0 0 0 1 0"/><feBlend in2="BackgroundImageFix" result="effect1_dropShadow_99_8474"/><feBlend in="SourceGraphic" in2="effect1_dropShadow_99_8474" result="shape"/></filter><clipPath id="aadsvg_bd81a74f6f__clip0_99_8474"><path fill="#fff" d="M0 0h120v120H0z"/></clipPath></defs></svg>
