<svg xmlns="http://www.w3.org/2000/svg" viewBox="0 0 120 120" fill="none"><g clip-path="url(#aacsvg_43acf4173d__clip0_52_9443)"><path fill="#fff" d="M0 0h120v120H0z"/><g filter="url(#aacsvg_43acf4173d__filter0_dii_52_9443)"><path d="M8 23c0-5.523 4.477-10 10-10h79.997c5.523 0 10 4.477 10 10v15.55L108 92c0 5.523-4.477 10-10 10H18.002c-5.523 0-10-4.477-10-10L8 23z" fill="url(#aacsvg_43acf4173d__paint0_linear_52_9443)"/></g><path fill-rule="evenodd" clip-rule="evenodd" d="M18.002 101.4H98a9.4 9.4 0 009.4-9.4l-.003-69a9.4 9.4 0 00-9.4-9.4H18A9.4 9.4 0 008.6 23l.002 69a9.4 9.4 0 009.4 9.4zM18 13c-5.523 0-10 4.477-10 10l.002 69c0 5.523 4.478 10 10 10H98c5.523 0 10-4.477 10-10l-.003-69c0-5.523-4.477-10-10-10H18z" fill="url(#aacsvg_43acf4173d__paint1_linear_52_9443)"/><g filter="url(#aacsvg_43acf4173d__filter1_di_52_9443)"><circle cx="19.5" cy="23.5" r="3.5" fill="url(#aacsvg_43acf4173d__paint2_linear_52_9443)"/></g><path fill-rule="evenodd" clip-rule="evenodd" d="M19.5 26.7a3.2 3.2 0 100-6.4 3.2 3.2 0 000 6.4zm0 .3a3.5 3.5 0 100-7 3.5 3.5 0 000 7z" fill="url(#aacsvg_43acf4173d__paint3_linear_52_9443)"/><g filter="url(#aacsvg_43acf4173d__filter2_di_52_9443)"><circle cx="30.5" cy="23.5" r="3.5" fill="url(#aacsvg_43acf4173d__paint4_linear_52_9443)"/></g><path fill-rule="evenodd" clip-rule="evenodd" d="M30.5 26.7a3.2 3.2 0 100-6.4 3.2 3.2 0 000 6.4zm0 .3a3.5 3.5 0 100-7 3.5 3.5 0 000 7z" fill="url(#aacsvg_43acf4173d__paint5_linear_52_9443)"/><g filter="url(#aacsvg_43acf4173d__filter3_di_52_9443)"><circle cx="41.5" cy="23.5" r="3.5" fill="url(#aacsvg_43acf4173d__paint6_linear_52_9443)"/></g><path fill-rule="evenodd" clip-rule="evenodd" d="M41.5 26.7a3.2 3.2 0 100-6.4 3.2 3.2 0 000 6.4zm0 .3a3.5 3.5 0 100-7 3.5 3.5 0 000 7z" fill="url(#aacsvg_43acf4173d__paint7_linear_52_9443)"/><path d="M16 37a6 6 0 016-6h72a6 6 0 016 6v53a6 6 0 01-6 6H22a6 6 0 01-6-6V37z" fill="url(#aacsvg_43acf4173d__paint8_linear_52_9443)"/><path d="M41.763 60.193a.286.286 0 00-.286-.286h-3.902a.286.286 0 00-.286.286v5.536a.286.286 0 01-.286.286h-4.176a.286.286 0 01-.252-.42l7.308-13.75a.286.286 0 00-.253-.42h-4.322a.286.286 0 00-.253.154l-8.022 15.29a.286.286 0 00-.033.133v2.853c0 .158.128.286.286.286h9.717c.158 0 .286.128.286.286v3.62c0 .158.128.286.286.286h3.902a.286.286 0 00.286-.286v-3.62c0-.158.127-.286.285-.286h2.66a.286.286 0 00.285-.286V66.3a.286.286 0 00-.285-.285h-2.66a.286.286 0 01-.285-.286v-5.536zM58.434 51c-5.55 0-9.99 4.454-9.99 11.871 0 7.417 4.44 11.87 9.99 11.87 5.534 0 10.007-4.453 10.007-11.87C68.441 55.454 63.968 51 58.434 51zm0 4.24c2.982 0 5.335 2.62 5.335 7.631 0 5.01-2.353 7.63-5.335 7.63-2.966 0-5.335-2.62-5.335-7.63s2.37-7.63 5.335-7.63zM85.77 60.193a.286.286 0 00-.286-.286H81.58a.286.286 0 00-.285.286v5.536a.286.286 0 01-.286.286h-4.176a.286.286 0 01-.253-.42l7.308-13.75a.286.286 0 00-.252-.42h-4.323a.286.286 0 00-.252.154l-8.023 15.29a.286.286 0 00-.032.133v2.853c0 .158.127.286.285.286h9.718c.158 0 .286.128.286.286v3.62c0 .158.127.286.285.286h3.903a.286.286 0 00.285-.286v-3.62c0-.158.128-.286.286-.286h2.66a.286.286 0 00.285-.286V66.3a.286.286 0 00-.286-.285h-2.66a.286.286 0 01-.285-.286v-5.536z" fill="#ABB2D0"/><path fill-rule="evenodd" clip-rule="evenodd" d="M37.575 59.526h3.902c.368 0 .667.299.667.667v5.44h2.564c.368 0 .666.3.666.668v3.554a.667.667 0 01-.666.667h-2.564v3.525a.667.667 0 01-.667.666h-3.902a.667.667 0 01-.667-.666v-3.525h-9.622a.667.667 0 01-.667-.667v-2.853c0-.108.026-.214.076-.31l8.023-15.29a.667.667 0 01.59-.357h4.322c.503 0 .825.535.589.98l-7.233 13.609h3.922v-5.441c0-.368.299-.666.667-.666zm13.497-5.624c1.878-2.124 4.48-3.283 7.362-3.283 2.874 0 5.48 1.159 7.364 3.282 1.882 2.122 3.024 5.185 3.024 8.97 0 3.785-1.142 6.848-3.024 8.97-1.884 2.123-4.49 3.282-7.364 3.282-2.882 0-5.484-1.159-7.362-3.283-1.876-2.122-3.01-5.184-3.01-8.969 0-3.785 1.134-6.847 3.01-8.97zm10.843 3.504c-.89-1.188-2.112-1.784-3.48-1.784-1.36 0-2.583.596-3.476 1.784-.9 1.197-1.479 3.016-1.479 5.465 0 2.45.58 4.268 1.479 5.465.893 1.188 2.115 1.784 3.475 1.784 1.369 0 2.59-.596 3.481-1.784.898-1.196 1.473-3.015 1.473-5.465 0-2.45-.575-4.269-1.473-5.465zm19.666 2.12h3.903c.368 0 .666.299.666.667v5.44h2.564c.368 0 .667.3.667.668v3.554a.667.667 0 01-.667.667H86.15v3.525a.667.667 0 01-.666.666H81.58a.667.667 0 01-.666-.666v-3.525h-9.623a.667.667 0 01-.666-.667v-2.853c0-.108.026-.214.076-.31l8.022-15.29a.667.667 0 01.59-.357h4.323c.503 0 .825.535.589.98l-7.234 13.609h3.923v-5.441c0-.368.298-.666.666-.666zM58.434 51c-5.55 0-9.99 4.454-9.99 11.871 0 7.417 4.44 11.871 9.99 11.871 5.534 0 10.008-4.454 10.008-11.871C68.442 55.454 63.968 51 58.434 51zm0 4.24c2.982 0 5.335 2.62 5.335 7.631 0 5.01-2.353 7.63-5.335 7.63-2.966 0-5.335-2.62-5.335-7.63s2.37-7.63 5.335-7.63zm-16.671 4.953a.286.286 0 00-.286-.286h-3.902a.286.286 0 00-.286.286v5.536a.286.286 0 01-.286.286h-4.176a.286.286 0 01-.252-.42l7.308-13.75a.286.286 0 00-.253-.42h-4.322a.286.286 0 00-.253.154l-8.022 15.29a.285.285 0 00-.033.133v2.853c0 .158.128.286.286.286h9.717c.158 0 .286.128.286.286v3.62c0 .158.128.286.286.286h3.902a.286.286 0 00.286-.286v-3.62c0-.158.128-.286.285-.286h2.66a.286.286 0 00.285-.286V66.3a.286.286 0 00-.285-.285h-2.66a.286.286 0 01-.285-.286v-5.536zm43.72-.286c.158 0 .286.128.286.286v5.536c0 .158.128.286.286.286h2.66c.157 0 .285.128.285.285v3.555a.286.286 0 01-.286.286h-2.66a.286.286 0 00-.285.286v3.62a.286.286 0 01-.285.286H81.58a.286.286 0 01-.285-.286v-3.62a.286.286 0 00-.286-.286h-9.718a.286.286 0 01-.285-.286v-2.853c0-.046.01-.092.032-.133l8.022-15.29a.286.286 0 01.253-.153h4.323c.216 0 .353.23.252.42l-7.308 13.749c-.1.19.037.42.253.42h4.176a.286.286 0 00.286-.286v-5.536c0-.158.128-.286.285-.286h3.903z" fill="url(#aacsvg_43acf4173d__paint9_linear_52_9443)"/><path fill-rule="evenodd" clip-rule="evenodd" d="M94 31.604H22A5.396 5.396 0 0016.604 37v53A5.396 5.396 0 0022 95.396h72A5.396 5.396 0 0099.396 90V37A5.396 5.396 0 0094 31.604zM22 31a6 6 0 00-6 6v53a6 6 0 006 6h72a6 6 0 006-6V37a6 6 0 00-6-6H22z" fill="url(#aacsvg_43acf4173d__paint10_linear_52_9443)"/><g filter="url(#aacsvg_43acf4173d__filter4_d_52_9443)"><g filter="url(#aacsvg_43acf4173d__filter5_dii_52_9443)"><circle cx="100" cy="89" r="16" transform="rotate(6.375 100 89)" fill="url(#aacsvg_43acf4173d__paint11_linear_52_9443)"/></g><path fill-rule="evenodd" clip-rule="evenodd" d="M101.755 73.297c-8.672-.968-16.488 5.276-17.457 13.948-.969 8.672 5.276 16.488 13.948 17.457 8.672.969 16.488-5.276 17.456-13.948.969-8.672-5.275-16.488-13.947-17.457zM83.9 87.201c.994-8.892 9.007-15.295 17.899-14.301 8.892.993 15.294 9.007 14.301 17.899-.993 8.891-9.007 15.294-17.899 14.301-8.891-.994-15.294-9.007-14.3-17.9z" fill="url(#aacsvg_43acf4173d__paint12_linear_52_9443)"/></g><g filter="url(#aacsvg_43acf4173d__filter6_d_52_9443)"><path d="M106.617 83.753a1.658 1.658 0 00-2.39-.194l-3.964 3.477-3.218-3.91a1.658 1.658 0 00-2.39-.195 1.79 1.79 0 00-.2 2.466l3.217 3.912-3.808 3.34a1.79 1.79 0 00-.2 2.466 1.659 1.659 0 002.39.195l3.807-3.34 3.35 4.073a1.659 1.659 0 002.39.194 1.79 1.79 0 00.201-2.467l-3.35-4.072 3.965-3.478a1.79 1.79 0 00.2-2.467z" fill="url(#aacsvg_43acf4173d__paint13_linear_52_9443)"/><path fill-rule="evenodd" clip-rule="evenodd" d="M100.231 87.42l-3.393-4.125a1.391 1.391 0 00-2.007-.163 1.523 1.523 0 00-.17 2.096l3.382 4.11-4.003 3.511a1.523 1.523 0 00-.17 2.096 1.391 1.391 0 002.007.164l4.015-3.522 3.526 4.286a1.39 1.39 0 002.007.163 1.522 1.522 0 00.171-2.096l-3.515-4.272 4.159-3.649a1.523 1.523 0 00.171-2.096 1.39 1.39 0 00-2.007-.163l-4.173 3.66zm2.98 8.623a1.659 1.659 0 002.39.194 1.79 1.79 0 00.201-2.467l-3.35-4.072 3.965-3.478a1.79 1.79 0 00.2-2.467 1.658 1.658 0 00-2.39-.194l-3.964 3.477-3.218-3.91a1.658 1.658 0 00-2.39-.195 1.79 1.79 0 00-.2 2.466l3.217 3.912-3.808 3.34a1.79 1.79 0 00-.2 2.466 1.659 1.659 0 002.39.195l3.807-3.34 3.35 4.073z" fill="url(#aacsvg_43acf4173d__paint14_linear_52_9443)"/></g></g><defs><linearGradient id="aacsvg_43acf4173d__paint0_linear_52_9443" x1="89.954" y1="21.354" x2="36.877" y2="122.171" gradientUnits="userSpaceOnUse"><stop stop-color="#EBEBEC"/><stop offset=".855" stop-color="#EDEDEE"/></linearGradient><linearGradient id="aacsvg_43acf4173d__paint1_linear_52_9443" x1="19.02" y1="2.851" x2="68.602" y2="97.981" gradientUnits="userSpaceOnUse"><stop stop-color="#E0DEDE"/><stop offset=".192" stop-color="#E7E7E7"/><stop offset=".704" stop-color="#D9D9D9"/><stop offset=".963" stop-color="#C3C3C7"/></linearGradient><linearGradient id="aacsvg_43acf4173d__paint2_linear_52_9443" x1="17.75" y1="20.875" x2="26.761" y2="26.79" gradientUnits="userSpaceOnUse"><stop stop-color="#fff"/><stop offset=".855" stop-color="#F3F3F3"/></linearGradient><linearGradient id="aacsvg_43acf4173d__paint3_linear_52_9443" x1="16.709" y1="19.504" x2="20.55" y2="26.509" gradientUnits="userSpaceOnUse"><stop stop-color="#E3E3E3"/><stop offset=".963" stop-color="#B4B4B4"/></linearGradient><linearGradient id="aacsvg_43acf4173d__paint4_linear_52_9443" x1="28.75" y1="20.875" x2="37.761" y2="26.79" gradientUnits="userSpaceOnUse"><stop stop-color="#fff"/><stop offset=".855" stop-color="#F3F3F3"/></linearGradient><linearGradient id="aacsvg_43acf4173d__paint5_linear_52_9443" x1="27.709" y1="19.504" x2="31.55" y2="26.509" gradientUnits="userSpaceOnUse"><stop stop-color="#E3E3E3"/><stop offset=".963" stop-color="#B4B4B4"/></linearGradient><linearGradient id="aacsvg_43acf4173d__paint6_linear_52_9443" x1="39.75" y1="20.875" x2="48.761" y2="26.79" gradientUnits="userSpaceOnUse"><stop stop-color="#fff"/><stop offset=".855" stop-color="#F3F3F3"/></linearGradient><linearGradient id="aacsvg_43acf4173d__paint7_linear_52_9443" x1="38.709" y1="19.504" x2="42.55" y2="26.509" gradientUnits="userSpaceOnUse"><stop stop-color="#E3E3E3"/><stop offset=".963" stop-color="#B4B4B4"/></linearGradient><linearGradient id="aacsvg_43acf4173d__paint8_linear_52_9443" x1="85.452" y1="40.208" x2="53.698" y2="115.464" gradientUnits="userSpaceOnUse"><stop stop-color="#fff"/><stop offset=".855" stop-color="#fff"/></linearGradient><linearGradient id="aacsvg_43acf4173d__paint9_linear_52_9443" x1="50.924" y1="55.401" x2="55.041" y2="74.214" gradientUnits="userSpaceOnUse"><stop offset=".01" stop-color="#9DA6C7"/><stop offset="1" stop-color="#939BBC"/></linearGradient><linearGradient id="aacsvg_43acf4173d__paint10_linear_52_9443" x1="24.513" y1="27.468" x2="54.137" y2="98.386" gradientUnits="userSpaceOnUse"><stop stop-color="#E2E2E2"/><stop offset=".192" stop-color="#EEE"/><stop offset=".704" stop-color="#E3E3E3"/><stop offset=".963" stop-color="#C3C3C7"/></linearGradient><linearGradient id="aacsvg_43acf4173d__paint11_linear_52_9443" x1="95.176" y1="71.741" x2="114.485" y2="97.432" gradientUnits="userSpaceOnUse"><stop stop-color="#6397FD"/><stop offset="1" stop-color="#216BFA"/></linearGradient><linearGradient id="aacsvg_43acf4173d__paint12_linear_52_9443" x1="96.869" y1="81.819" x2="107.307" y2="101.074" gradientUnits="userSpaceOnUse"><stop stop-color="#6C9EFF"/><stop offset="1" stop-color="#154CB7"/></linearGradient><linearGradient id="aacsvg_43acf4173d__paint13_linear_52_9443" x1="104.728" y1="84.735" x2="95.837" y2="98.573" gradientUnits="userSpaceOnUse"><stop stop-color="#fff"/><stop offset=".855" stop-color="#fff"/></linearGradient><linearGradient id="aacsvg_43acf4173d__paint14_linear_52_9443" x1="95.26" y1="81.514" x2="102.166" y2="95.381" gradientUnits="userSpaceOnUse"><stop stop-color="#fff"/><stop offset=".963" stop-color="#EAEAEA"/></linearGradient><filter id="aacsvg_43acf4173d__filter0_dii_52_9443" x="7.529" y="12.529" width="101.883" height="91.355" filterUnits="userSpaceOnUse" color-interpolation-filters="sRGB"><feFlood flood-opacity="0" result="BackgroundImageFix"/><feColorMatrix in="SourceAlpha" values="0 0 0 0 0 0 0 0 0 0 0 0 0 0 0 0 0 0 127 0" result="hardAlpha"/><feOffset dx=".471" dy=".942"/><feGaussianBlur stdDeviation=".471"/><feComposite in2="hardAlpha" operator="out"/><feColorMatrix values="0 0 0 0 0 0 0 0 0 0 0 0 0 0 0 0 0 0 0.1 0"/><feBlend in2="BackgroundImageFix" result="effect1_dropShadow_52_9443"/><feBlend in="SourceGraphic" in2="effect1_dropShadow_52_9443" result="shape"/><feColorMatrix in="SourceAlpha" values="0 0 0 0 0 0 0 0 0 0 0 0 0 0 0 0 0 0 127 0" result="hardAlpha"/><feOffset dx="1.413" dy="1.413"/><feGaussianBlur stdDeviation=".471"/><feComposite in2="hardAlpha" operator="arithmetic" k2="-1" k3="1"/><feColorMatrix values="0 0 0 0 1 0 0 0 0 1 0 0 0 0 1 0 0 0 1 0"/><feBlend in2="shape" result="effect2_innerShadow_52_9443"/><feColorMatrix in="SourceAlpha" values="0 0 0 0 0 0 0 0 0 0 0 0 0 0 0 0 0 0 127 0" result="hardAlpha"/><feOffset dx="-1.413" dy="-1.413"/><feGaussianBlur stdDeviation=".236"/><feComposite in2="hardAlpha" operator="arithmetic" k2="-1" k3="1"/><feColorMatrix values="0 0 0 0 0.879167 0 0 0 0 0.879167 0 0 0 0 0.879167 0 0 0 1 0"/><feBlend in2="effect2_innerShadow_52_9443" result="effect3_innerShadow_52_9443"/></filter><filter id="aacsvg_43acf4173d__filter1_di_52_9443" x="15.4" y="19.9" width="8.606" height="8.2" filterUnits="userSpaceOnUse" color-interpolation-filters="sRGB"><feFlood flood-opacity="0" result="BackgroundImageFix"/><feColorMatrix in="SourceAlpha" values="0 0 0 0 0 0 0 0 0 0 0 0 0 0 0 0 0 0 127 0" result="hardAlpha"/><feOffset dy=".5"/><feGaussianBlur stdDeviation=".3"/><feComposite in2="hardAlpha" operator="out"/><feColorMatrix values="0 0 0 0 0 0 0 0 0 0 0 0 0 0 0 0 0 0 0.12 0"/><feBlend in2="BackgroundImageFix" result="effect1_dropShadow_52_9443"/><feBlend in="SourceGraphic" in2="effect1_dropShadow_52_9443" result="shape"/><feColorMatrix in="SourceAlpha" values="0 0 0 0 0 0 0 0 0 0 0 0 0 0 0 0 0 0 127 0" result="hardAlpha"/><feOffset dx="1.51" dy="1.51"/><feGaussianBlur stdDeviation=".503"/><feComposite in2="hardAlpha" operator="arithmetic" k2="-1" k3="1"/><feColorMatrix values="0 0 0 0 1 0 0 0 0 1 0 0 0 0 1 0 0 0 1 0"/><feBlend in2="shape" result="effect2_innerShadow_52_9443"/></filter><filter id="aacsvg_43acf4173d__filter2_di_52_9443" x="26.4" y="19.9" width="8.606" height="8.2" filterUnits="userSpaceOnUse" color-interpolation-filters="sRGB"><feFlood flood-opacity="0" result="BackgroundImageFix"/><feColorMatrix in="SourceAlpha" values="0 0 0 0 0 0 0 0 0 0 0 0 0 0 0 0 0 0 127 0" result="hardAlpha"/><feOffset dy=".5"/><feGaussianBlur stdDeviation=".3"/><feComposite in2="hardAlpha" operator="out"/><feColorMatrix values="0 0 0 0 0 0 0 0 0 0 0 0 0 0 0 0 0 0 0.12 0"/><feBlend in2="BackgroundImageFix" result="effect1_dropShadow_52_9443"/><feBlend in="SourceGraphic" in2="effect1_dropShadow_52_9443" result="shape"/><feColorMatrix in="SourceAlpha" values="0 0 0 0 0 0 0 0 0 0 0 0 0 0 0 0 0 0 127 0" result="hardAlpha"/><feOffset dx="1.51" dy="1.51"/><feGaussianBlur stdDeviation=".503"/><feComposite in2="hardAlpha" operator="arithmetic" k2="-1" k3="1"/><feColorMatrix values="0 0 0 0 1 0 0 0 0 1 0 0 0 0 1 0 0 0 1 0"/><feBlend in2="shape" result="effect2_innerShadow_52_9443"/></filter><filter id="aacsvg_43acf4173d__filter3_di_52_9443" x="37.4" y="19.9" width="8.606" height="8.2" filterUnits="userSpaceOnUse" color-interpolation-filters="sRGB"><feFlood flood-opacity="0" result="BackgroundImageFix"/><feColorMatrix in="SourceAlpha" values="0 0 0 0 0 0 0 0 0 0 0 0 0 0 0 0 0 0 127 0" result="hardAlpha"/><feOffset dy=".5"/><feGaussianBlur stdDeviation=".3"/><feComposite in2="hardAlpha" operator="out"/><feColorMatrix values="0 0 0 0 0 0 0 0 0 0 0 0 0 0 0 0 0 0 0.12 0"/><feBlend in2="BackgroundImageFix" result="effect1_dropShadow_52_9443"/><feBlend in="SourceGraphic" in2="effect1_dropShadow_52_9443" result="shape"/><feColorMatrix in="SourceAlpha" values="0 0 0 0 0 0 0 0 0 0 0 0 0 0 0 0 0 0 127 0" result="hardAlpha"/><feOffset dx="1.51" dy="1.51"/><feGaussianBlur stdDeviation=".503"/><feComposite in2="hardAlpha" operator="arithmetic" k2="-1" k3="1"/><feColorMatrix values="0 0 0 0 1 0 0 0 0 1 0 0 0 0 1 0 0 0 1 0"/><feBlend in2="shape" result="effect2_innerShadow_52_9443"/></filter><filter id="aacsvg_43acf4173d__filter4_d_52_9443" x="79.799" y="69.798" width="40.402" height="40.403" filterUnits="userSpaceOnUse" color-interpolation-filters="sRGB"><feFlood flood-opacity="0" result="BackgroundImageFix"/><feColorMatrix in="SourceAlpha" values="0 0 0 0 0 0 0 0 0 0 0 0 0 0 0 0 0 0 127 0" result="hardAlpha"/><feOffset dy="1"/><feGaussianBlur stdDeviation="2"/><feComposite in2="hardAlpha" operator="out"/><feColorMatrix values="0 0 0 0 0 0 0 0 0 0 0 0 0 0 0 0 0 0 0.2 0"/><feBlend in2="BackgroundImageFix" result="effect1_dropShadow_52_9443"/><feBlend in="SourceGraphic" in2="effect1_dropShadow_52_9443" result="shape"/></filter><filter id="aacsvg_43acf4173d__filter5_dii_52_9443" x="83.199" y="72.198" width="33.603" height="34.003" filterUnits="userSpaceOnUse" color-interpolation-filters="sRGB"><feFlood flood-opacity="0" result="BackgroundImageFix"/><feColorMatrix in="SourceAlpha" values="0 0 0 0 0 0 0 0 0 0 0 0 0 0 0 0 0 0 127 0" result="hardAlpha"/><feOffset dy=".4"/><feGaussianBlur stdDeviation=".4"/><feComposite in2="hardAlpha" operator="out"/><feColorMatrix values="0 0 0 0 0.705801 0 0 0 0 0.705801 0 0 0 0 0.720866 0 0 0 1 0"/><feBlend in2="BackgroundImageFix" result="effect1_dropShadow_52_9443"/><feBlend in="SourceGraphic" in2="effect1_dropShadow_52_9443" result="shape"/><feColorMatrix in="SourceAlpha" values="0 0 0 0 0 0 0 0 0 0 0 0 0 0 0 0 0 0 127 0" result="hardAlpha"/><feOffset dx=".8" dy=".5"/><feGaussianBlur stdDeviation=".4"/><feComposite in2="hardAlpha" operator="arithmetic" k2="-1" k3="1"/><feColorMatrix values="0 0 0 0 0.658333 0 0 0 0 0.775 0 0 0 0 1 0 0 0 1 0"/><feBlend in2="shape" result="effect2_innerShadow_52_9443"/><feColorMatrix in="SourceAlpha" values="0 0 0 0 0 0 0 0 0 0 0 0 0 0 0 0 0 0 127 0" result="hardAlpha"/><feOffset dx="-.4" dy="-.8"/><feGaussianBlur stdDeviation=".4"/><feComposite in2="hardAlpha" operator="arithmetic" k2="-1" k3="1"/><feColorMatrix values="0 0 0 0 0.0750695 0 0 0 0 0.314483 0 0 0 0 0.783333 0 0 0 1 0"/><feBlend in2="effect2_innerShadow_52_9443" result="effect3_innerShadow_52_9443"/></filter><filter id="aacsvg_43acf4173d__filter6_d_52_9443" x="92.763" y="82.512" width="14.755" height="15.145" filterUnits="userSpaceOnUse" color-interpolation-filters="sRGB"><feFlood flood-opacity="0" result="BackgroundImageFix"/><feColorMatrix in="SourceAlpha" values="0 0 0 0 0 0 0 0 0 0 0 0 0 0 0 0 0 0 127 0" result="hardAlpha"/><feOffset dy=".5"/><feGaussianBlur stdDeviation=".25"/><feComposite in2="hardAlpha" operator="out"/><feColorMatrix values="0 0 0 0 0.161944 0 0 0 0 0.407217 0 0 0 0 0.883333 0 0 0 1 0"/><feBlend in2="BackgroundImageFix" result="effect1_dropShadow_52_9443"/><feBlend in="SourceGraphic" in2="effect1_dropShadow_52_9443" result="shape"/></filter><clipPath id="aacsvg_43acf4173d__clip0_52_9443"><path fill="#fff" d="M0 0h120v120H0z"/></clipPath></defs></svg>
