<svg xmlns="http://www.w3.org/2000/svg" viewBox="0 0 48 48" fill="none"><path fill-rule="evenodd" clip-rule="evenodd" d="M27.455 5.954a4 4 0 00-6.91 0L2.548 35.984A4 4 0 006.003 42h35.992a4 4 0 003.456-6.016L27.455 5.954zM6.003 38L24 7.97 41.995 38H6.004zm18.747-6c.76 0 1.375.616 1.375 1.375v1.375c0 .76-.616 1.375-1.375 1.375h-1.375c-.76 0-1.375-.616-1.375-1.375v-1.375c0-.76.616-1.375 1.375-1.375h1.375zm1.258-15.002a1 1 0 00-1-1h-2a1 1 0 00-1 1v12a1 1 0 001 1h2a1 1 0 001-1v-12z" fill="currentColor"/></svg>
