<svg xmlns="http://www.w3.org/2000/svg" viewBox="0 0 24 24" fill="none"><g clip-path="url(#aansvg_f5cd262901__clip0_7850_96)"><path d="M18.91 8.214s-.938-1.353-1.277-1.747c-.358-.415-.47-1.353-.581-1.577-.112-.224-.581-1.465-.581-1.465l.17-.697s-.17-.75-.416-.697c-.224.058-.826.058-.826.058l-1.108-.058-1.336-.3-.75.528-.751-.47-.996-.299-.13-.808s-.64-.224-1.05-.224c-.416 0-1.747.17-1.747.17l-.939.415s-.639-.058-.884.17c-.224.223-.826.995-.826.995s-.3.751-.582.885c-.3.111-1.165 1.353-1.165 1.353s0 1.635-.112 1.992c-.112.358.224 1.69.224 1.69l1.05 1.277s.639.996.884.996c.224 0 .357-.112.827-.112.469 0 .996-.057.996-.057s.58-.416.826-.47c.224-.057.827-.057.827.17s.639.47.639.47l.696.995s.357.697.357.996c0 .3.415 1.278.358 1.523-.058.224.527 2.216.223 2.404-.3.17-.111.639-.057 1.05.058.415.469.939.469 1.278 0 .34.357 1.69.357 1.69s.357.356.224.638c-.112.3.697 1.689.697 1.689l.638.826s-.17.17.358-.111c.527-.3 1.05-.996 1.05-.996l.826-.697s.358-.639.415-.938c.058-.3.358-.885.358-.885s.527-.224.527-.469c0-.224-.112-1.523.223-1.689.358-.17.47-.3.64-.826.169-.527.357-1.278.357-1.635 0-.358-.224-1.69 0-2.047.223-.357 1.05-1.523 1.465-1.822.415-.3.996-.939 1.166-1.466.17-.527.357-1.747.357-1.747s-.938.058-1.166.224c-.267.18-.924-.173-.924-.173zm.303 8.94s.112.639.112.938c0 .3-.415.755-.415.755s.224.938.47 1.165c0 0 .826-.884.884-1.108.057-.223 0-.884.224-1.108.223-.223.223-1.88.223-1.88l-.884.581-.614.657z" fill="currentColor"/></g><defs><clipPath id="aansvg_f5cd262901__clip0_7850_96"><path d="M0 0h24v24H0z" fill="currentColor"/></clipPath></defs></svg>
