<svg xmlns="http://www.w3.org/2000/svg" viewBox="0 0 48 48" fill="none"><path d="M41.728 11.513v8.471c0 7.705-2.552 12.741-5.875 16.828-3.13 3.852-7.588 6.74-11.881 8.036 0 0-6.775-1.778-11.881-8.084-4.257-5.258-5.813-10.368-5.813-17.153 0-1.883-.006-5.988-.006-8.098l17.7-7.773 17.756 7.773zM27 25v1l-.006.456a14.904 14.904 0 01-1.882 6.836l1.746.975.227-.42A16.935 16.935 0 0029 26v-1h-2zm-4-3v4l-.006.366a10.944 10.944 0 01-2.47 6.588l1.55 1.265.23-.29a12.942 12.942 0 002.691-7.55L25 26v-4h-2zm1-4a5.002 5.002 0 00-5 5v3l-.006.304a6.97 6.97 0 01-1.924 4.523l1.448 1.38.212-.23A8.979 8.979 0 0021 26v-3a3 3 0 016 0h2a5 5 0 00-5-5zm0-4a8.963 8.963 0 00-5.617 1.969l1.425 1.426A7.001 7.001 0 0131 23v3l-.008.568a18.922 18.922 0 01-.658 4.435l1.93.526.14-.539C32.8 29.37 33 27.698 33 26v-3a9 9 0 00-9-9zm-7.032 3.383A8.941 8.941 0 0015.004 23v2l-.009.292a4.979 4.979 0 01-.645 2.184l1.736.99.157-.288c.497-.974.76-2.058.76-3.178L17 23l.004-.241a6.966 6.966 0 011.39-3.95l-1.426-1.426z" fill="currentColor"/></svg>
