<svg xmlns="http://www.w3.org/2000/svg" viewBox="0 -0.5 49 49" fill="none"><path d="M35.472 35.26c4.64-3.04 7.703-8.284 7.703-14.245 0-9.4-7.62-17.019-17.019-17.019-7.413 0-13.719 4.74-16.053 11.353L5.072 26.88a2.12 2.12 0 001.943 2.968H9.51v6.068c0 1.17.949 2.12 2.12 2.12h4.928v5.961h18.913v-8.735z" fill="url(#aafsvg_ee6ee3e023__paint0_linear_7496_35635)"/><mask id="aafa" style="mask-type:alpha" maskUnits="userSpaceOnUse" x="4" y="3" width="40" height="41"><path d="M35.472 35.26c4.64-3.04 7.703-8.284 7.703-14.245 0-9.4-7.62-17.019-17.019-17.019-7.413 0-13.719 4.74-16.053 11.353L5.072 26.88a2.12 2.12 0 001.943 2.968H9.51v6.068c0 1.17.949 2.12 2.12 2.12h4.928v5.961h18.913v-8.735z" fill="url(#aafsvg_ee6ee3e023__paint1_linear_7496_35635)"/></mask><g mask="url(#aafa)"><path d="M26.278 11.928l1.122 2.244 1.123-2.244 2.244-1.122-2.244-1.122L27.4 7.439l-1.122 2.245-2.244 1.122 2.244 1.122zM35.564 19.3l-1.332-2.666-2.665-1.332 2.665-1.333 1.332-2.664 1.332 2.664 2.666 1.333-2.666 1.332-1.332 2.665z" fill="#fff"/><rect x="27.569" y="17.232" width="36.83" height="5" rx="1" transform="rotate(45 27.57 17.232)" fill="#B5BCC9"/><path fill="#fff" d="M27.57 17.232l4.81 4.81-3.535 3.536-4.81-4.81z"/></g><path d="M21.415 24.14l-1.332-2.665-1.332 2.664-2.665 1.333 2.665 1.332 1.332 2.665 1.332-2.665 2.665-1.332-2.665-1.333z" fill="#fff"/><defs><linearGradient id="aafsvg_ee6ee3e023__paint0_linear_7496_35635" x1="24.034" y1="3.996" x2="24.034" y2="43.996" gradientUnits="userSpaceOnUse"><stop stop-color="#818A9C"/><stop offset="1" stop-color="#353D51"/></linearGradient><linearGradient id="aafsvg_ee6ee3e023__paint1_linear_7496_35635" x1="24.034" y1="3.996" x2="24.034" y2="43.996" gradientUnits="userSpaceOnUse"><stop stop-color="#818A9C"/><stop offset="1" stop-color="#353D51"/></linearGradient></defs></svg>
