<svg xmlns="http://www.w3.org/2000/svg" viewBox="0 0 48 48" fill="none"><path d="M38.774 9.195c.872.853.872 2.325.037 3.16l-3.776 3.815c-.853.872-2.323.872-3.158.037-.87-.872-.87-2.326-.036-3.18l3.775-3.796c.853-.854 2.324-.89 3.158-.036zM9.915 42.31c-1.089 1.108-2.94 1.09-4.01 0a2.91 2.91 0 010-4.014L23.128 20.93c1.089-1.09 2.94-1.09 4.011 0 1.09 1.108 1.07 2.907 0 3.996L9.915 42.311zm28.932-3.56c.835-.836.817-2.307-.036-3.161l-3.794-3.779c-.853-.835-2.323-.817-3.176.037-.835.853-.817 2.307.036 3.16l3.794 3.797c.853.836 2.323.818 3.176-.054zm-22.67-25.723c.835.853.835 2.307-.036 3.179-.835.835-2.305.835-3.158-.037l-3.794-3.796c-.853-.836-.835-2.307.037-3.18.835-.853 2.305-.817 3.158.037l3.793 3.797zM24 3c-1.216 0-2.233 1.035-2.233 2.253v5.54A2.255 2.255 0 0024 13.028c1.216 0 2.25-1.018 2.25-2.235v-5.54C26.25 4.035 25.217 3 24 3zm21 21a2.255 2.255 0 00-2.233-2.235h-5.535c-1.216 0-2.251 1.018-2.251 2.235 0 1.217 1.035 2.234 2.25 2.234h5.536A2.255 2.255 0 0045 24zM3 24c0 1.217 1.035 2.234 2.25 2.234h5.518c1.216 0 2.251-1.017 2.251-2.234s-1.034-2.235-2.25-2.235H5.25C4.035 21.765 3 22.784 3 24zm21 10.972c-1.216 0-2.233 1.036-2.233 2.253v5.522C21.767 43.964 22.784 45 24 45c1.216 0 2.25-1.036 2.25-2.253v-5.522c0-1.217-1.034-2.253-2.25-2.253z" fill-rule="evenodd" fill="currentColor"/></svg>
