<svg xmlns="http://www.w3.org/2000/svg" viewBox="0 -0.5 49 49" fill="none"><path d="M36.269 37.55a12.01 12.01 0 01-3.27.45c-6.628 0-12-5.373-12-12s5.372-12 12-12c5.052 0 9.375 3.123 11.145 7.544l.002-.274c0-9.612-7.792-17.403-17.404-17.403-7.58 0-14.028 4.846-16.415 11.609l-5.145 11.79a2.168 2.168 0 001.987 3.035H9.72v6.205c0 1.197.97 2.167 2.168 2.167h5.04v5.394h19.34V37.55z" fill="currentColor"/><path opacity=".5" fill-rule="evenodd" clip-rule="evenodd" d="M20.998 26c0-6.627 5.373-12 12-12 6.628 0 12 5.373 12 12s-5.372 12-12 12c-6.627 0-12-5.373-12-12zm3.601-2.857a.5.5 0 01.5-.5h2a.5.5 0 01.5.5v6.418a.5.5 0 01-.5.5h-2a.5.5 0 01-.5-.5v-6.418zm5.1-1.721a.5.5 0 00-.5.5v8.859a.5.5 0 00.5.5h2a.5.5 0 00.5-.5v-8.86a.5.5 0 00-.5-.5h-2zm4.1-1.586a.5.5 0 01.5-.5h2a.5.5 0 01.5.5v12.328a.5.5 0 01-.5.5h-2a.5.5 0 01-.5-.5V19.836zm5.099 3.457a.5.5 0 00-.5.5v6.416a.5.5 0 00.5.5h2a.5.5 0 00.5-.5v-6.416a.5.5 0 00-.5-.5h-2z" fill="currentColor"/></svg>
