<svg xmlns="http://www.w3.org/2000/svg" viewBox="0 0 24 24" fill="none"><g clip-path="url(#aaqsvg_1193091530__clip0_7850_112)"><path d="M12 0c6.628 0 12 5.372 12 12s-5.372 12-12 12S0 18.628 0 12 5.372 0 12 0zm4.087 21.675a10.493 10.493 0 003.338-2.25 10.446 10.446 0 002.25-3.337c.548-1.294.825-2.67.825-4.088 0-.68-.063-1.35-.19-2.004a1.386 1.386 0 01-.49.091c-.227 0-.452-.056-.635-.178a1.131 1.131 0 00-.621-.19c-.185 0-.37.05-.534.15-.19.118-.324.272-.324.535 0 1.912-.065 3.954-1.802 3.982-.052 0-.966.35-1.402 1.484-.051.13-.15.173-.286.173-.27 0-.68-.173-1.115-.173-.326 0 0 .553 0 1.746-.003 1.18-2.562 3.011-2.562 3.011.014.75-.021 1.371-.077 1.861a10.368 10.368 0 003.625-.813zm-11.512-2.25A10.446 10.446 0 009.67 22.24a.611.611 0 01.117-.01c.083 0 .176.012.282.04-.364-1.535-.537-2.4-1.287-3.051-1.031-.896-.227-1.885.563-1.885.044 0 .09.003.135.01a.723.723 0 00.094.007c.52 0 .176-.818.73-.865.58-.05 1.342-1.205 2.188-1.606.445-.21.88-.778 1.57-.808h.04c.436 0 .992.26 1.275.26.113 0 .183-.042.183-.157 0-1.338.138-2.29.16-2.667.009-.13.046-.167.025-.167-.028 0-.168.075-.651.087h-.012c-.436 0-.227-.902-.659-.937-.018-.003-.037-.003-.056-.003-.384 0-1.113.277-1.495.277a.34.34 0 01-.185-.04c-.005-.002-.01-.005-.017-.005-.206 0-1.017 2.023-1.472 2.023-.187 0-.314-.345-.314-1.313 0-.4.211-1.099 0-1.483-.822-1.505-1.591-2.735-1.525-2.909.02-.054.264-.103.586-.103.274 0 .602.035.897.131.22.073-.065.415.24.488.203.047.402.068.59.068.895 0 1.542-.476 1.25-.933-.374-.56-1.707-.248-1.827-1.373-.054-.52-.1-1.107-.136-1.606a.359.359 0 00-.337-.333c-.872-.063-.961-1.101-.145-1.764-.88.126-1.737.365-2.56.714a10.496 10.496 0 00-3.337 2.25 10.512 10.512 0 00-2.1 2.996.776.776 0 01.408-.122c.663 0 1.27.9.89 1.922 3.117 2.39 2.318 4.064 1.3 5.015-.3.281-.594.643-.852 1.001a3.025 3.025 0 00-.492 1.153c-.033.15-.15.225-.321.225-.258 0-.633-.171-1.01-.508a10.406 10.406 0 002.172 3.166z" fill="currentColor"/></g><defs><clipPath id="aaqsvg_1193091530__clip0_7850_112"><path d="M0 0h24v24H0z" fill="currentColor"/></clipPath></defs></svg>
