<svg xmlns="http://www.w3.org/2000/svg" viewBox="0 0 12 12" fill="none"><path fill-rule="evenodd" clip-rule="evenodd" d="M1.125 1.625a.5.5 0 01.5-.5h1.25a.5.5 0 01.5.5v1.25a.5.5 0 01-.5.5h-1.25a.5.5 0 01-.5-.5v-1.25zm3.75 0a.5.5 0 01.5-.5h1.25a.5.5 0 01.5.5v1.25a.5.5 0 01-.5.5h-1.25a.5.5 0 01-.5-.5v-1.25zm4.25-.5a.5.5 0 00-.5.5v1.25a.5.5 0 00.5.5h1.25a.5.5 0 00.5-.5v-1.25a.5.5 0 00-.5-.5h-1.25zm-8 4.25a.5.5 0 01.5-.5h1.25a.5.5 0 01.5.5v1.25a.5.5 0 01-.5.5h-1.25a.5.5 0 01-.5-.5v-1.25zm4.25-.5a.5.5 0 00-.5.5v1.25a.5.5 0 00.5.5h1.25a.5.5 0 00.5-.5v-1.25a.5.5 0 00-.5-.5h-1.25zm3.25.5a.5.5 0 01.5-.5h1.25a.5.5 0 01.5.5v1.25a.5.5 0 01-.5.5h-1.25a.5.5 0 01-.5-.5v-1.25zm-7 3.25a.5.5 0 00-.5.5v1.25a.5.5 0 00.5.5h1.25a.5.5 0 00.5-.5v-1.25a.5.5 0 00-.5-.5h-1.25zm3.25.5a.5.5 0 01.5-.5h1.25a.5.5 0 01.5.5v1.25a.5.5 0 01-.5.5h-1.25a.5.5 0 01-.5-.5v-1.25zm4.25-.5a.5.5 0 00-.5.5v1.25a.5.5 0 00.5.5h1.25a.5.5 0 00.5-.5v-1.25a.5.5 0 00-.5-.5h-1.25z" fill="currentColor"/></svg>
