<svg xmlns="http://www.w3.org/2000/svg" viewBox="0 0 24 24" fill="none"><g clip-path="url(#aarsvg_088f003833__clip0_7850_134)"><mask id="aara" style="mask-type:luminance" maskUnits="userSpaceOnUse" x="0" y="0" width="24" height="24"><path d="M18 0H6a6 6 0 00-6 6v12a6 6 0 006 6h12a6 6 0 006-6V6a6 6 0 00-6-6z" fill="#fff"/></mask><g mask="url(#aara)"><path d="M18 0H6a6 6 0 00-6 6v12a6 6 0 006 6h12a6 6 0 006-6V6a6 6 0 00-6-6z" fill="#F1F3F5"/><mask id="aarb" style="mask-type:luminance" maskUnits="userSpaceOnUse" x="-5" y="-8" width="40" height="40"><path d="M-4.5-7.5h39v39h-39v-39z" fill="#fff"/></mask><g mask="url(#aarb)"><path d="M-4.5-.574h39.012v25.148H-4.5" fill="#fff"/><path d="M-4.5 1.404h39.012V-.574H-4.5m0 3.86h39.012v1.978H-4.5m0 1.88h39.012v1.979H-4.5m0 1.88h39.012v1.98H-4.5m0 1.894h39.012v1.965H-4.5m0 1.895h39.012v1.978H-4.5m0 3.86h39.012v-1.979H-4.5" fill="#E50012"/><path d="M-4.5 12.982h16.9V-.574H-4.5" fill="#1E2380"/><path d="M-3.107 1.056l.418.32-.153-.515.418-.307h-.53l-.153-.501-.167.501h-.53l.433.307-.168.515.432-.32zm2.815 0l.432.32-.168-.515.432-.307h-.53L-.291.053l-.153.501h-.53l.418.307-.153.515.418-.32zm2.828 0l.432.32-.167-.515.432-.307h-.53L2.536.053 2.37.554h-.53l.432.307-.167.515.432-.32zm2.828 0l.418.32L5.63.861l.418-.307h-.53L5.365.053l-.167.501h-.53L5.1.861l-.167.515.431-.32zm2.815 0l.432.32-.167-.515.431-.307h-.529L8.18.053l-.167.501h-.516l.418.307-.153.515.418-.32zm2.828 0l.432.32-.167-.515.418-.307h-.516l-.167-.501-.167.501h-.53l.432.307-.167.515.432-.32zM-1.699 2.42l.431.307-.167-.502.432-.306h-.53l-.166-.502-.168.502h-.53l.433.306-.167.502.432-.307zm2.828 0l.418.307-.153-.502.418-.306h-.516l-.167-.502-.167.502h-.53l.432.306-.167.502.432-.307zm2.814 0l.432.307-.167-.502.432-.306h-.53l-.167-.502-.153.502h-.53l.419.306-.154.502.418-.307zm2.829 0l.432.307-.168-.502.432-.306h-.53l-.166-.502-.168.502h-.529l.432.306-.167.502.432-.307zm2.828 0l.418.307-.167-.502.432-.306h-.53L9.6 1.418l-.167.502h-.53l.432.306-.167.502.432-.307zM-3.107 3.787l.418.306-.153-.501.418-.307h-.53l-.153-.501-.167.501h-.53l.433.307-.168.501.432-.306zm2.815 0l.432.306-.168-.501.432-.307h-.53l-.166-.501-.154.501h-.529l.418.307-.153.501.418-.306zm2.828 0l.432.306-.167-.501.432-.307h-.53l-.167-.501-.167.501h-.53l.432.307-.167.501.432-.306zm2.828 0l.418.306-.153-.501.418-.307h-.53l-.153-.501-.167.501h-.53l.433.307-.167.501.431-.306zm2.815 0l.432.306-.167-.501.431-.307h-.529l-.167-.501-.167.501h-.516l.418.307-.153.501.418-.306zm2.828 0l.432.306-.167-.501.418-.307h-.516l-.167-.501-.167.501h-.53l.432.307-.167.501.432-.306zM-1.7 5.152l.432.307-.167-.502.432-.306h-.53l-.166-.502-.168.502h-.53l.433.306-.167.502.431-.307zm2.829 0l.418.307-.153-.502.418-.306h-.516l-.167-.502-.167.502h-.53l.432.306-.167.502.432-.307zm2.814 0l.432.307-.167-.502.432-.306h-.53l-.167-.502-.153.502h-.53l.419.306-.154.502.418-.307zm2.829 0l.432.307-.168-.502.432-.306h-.53l-.166-.502-.168.502h-.529l.432.306-.167.502.432-.307zm2.828 0l.418.307-.167-.502.432-.306h-.53L9.6 4.149l-.167.502h-.53l.432.306-.167.502.432-.307zM-3.107 6.518l.418.306-.153-.502.418-.306h-.53l-.153-.502-.167.502h-.53l.433.306-.168.502.432-.306zm2.815 0l.432.306-.168-.502.432-.306h-.53l-.166-.502-.154.502h-.529l.418.306-.153.502.418-.306zm2.828 0l.432.306-.167-.502.432-.306h-.53l-.167-.502-.167.502h-.53l.432.306-.167.502.432-.306zm2.828 0l.418.306-.153-.502.418-.306h-.53l-.153-.502-.167.502h-.53l.433.306-.167.502.431-.306zm2.815 0l.432.306-.167-.502.431-.306h-.529l-.167-.502-.167.502h-.516l.418.306-.153.502.418-.306zm2.828 0l.432.306-.167-.502.418-.306h-.516l-.167-.502-.167.502h-.53l.432.306-.167.502.432-.306zM-1.699 7.883l.431.306-.167-.501.432-.307h-.53l-.166-.501-.168.501h-.53l.433.307-.167.502.432-.307zm2.828 0l.418.306-.153-.501.418-.307h-.516L1.13 6.88l-.167.501h-.53l.432.307-.167.502.432-.307zm2.814 0l.432.306-.167-.501.432-.307h-.53l-.167-.501-.153.501h-.53l.419.307-.154.502.418-.307zm2.829 0l.432.306-.168-.501.432-.307h-.53l-.166-.501-.168.501h-.529l.432.307-.167.502.432-.307zm2.828 0l.418.306-.167-.501.432-.307h-.53L9.6 6.88l-.167.501h-.53l.432.307-.167.502.432-.307zM-3.107 9.248l.418.307-.153-.502.418-.32h-.53l-.153-.488-.167.488h-.53l.433.32-.168.502.432-.307zm2.815 0l.432.307-.168-.502.432-.32h-.53l-.166-.488-.154.488h-.529l.418.32-.153.502.418-.307zm2.828 0l.432.307-.167-.502.432-.32h-.53l-.167-.488-.167.488h-.53l.432.32-.167.502.432-.307zm2.828 0l.418.307-.153-.502.418-.32h-.53l-.153-.488-.167.488h-.53l.433.32-.167.502.431-.307zm2.815 0l.432.307-.167-.502.431-.32h-.529l-.167-.488-.167.488h-.516l.418.32-.153.502.418-.307zm2.828 0l.432.307-.167-.502.418-.32h-.516l-.167-.488-.167.488h-.53l.432.32-.167.502.432-.307zM-1.7 10.614l.432.306-.167-.501.432-.32h-.53l-.166-.502-.168.501h-.53l.433.32-.167.502.431-.306zm2.829 0l.418.306-.153-.501.418-.32h-.516l-.167-.502-.167.501h-.53l.432.32-.167.502.432-.306zm2.814 0l.432.306-.167-.501.432-.32h-.53l-.167-.502-.153.501h-.53l.419.32-.154.502.418-.306zm2.829 0l.432.306-.168-.501.432-.32h-.53l-.166-.502-.168.501h-.529l.432.32-.167.502.432-.306zm2.828 0l.418.306-.167-.501.432-.32h-.53L9.6 9.596l-.167.501h-.53l.432.32-.167.502.432-.306zm-12.707 1.351l.418.32-.153-.5.418-.321h-.53l-.153-.502-.167.502h-.53l.433.32-.168.502.432-.32zm2.815 0l.432.32-.168-.5.432-.321h-.53l-.166-.502-.154.502h-.529l.418.32-.153.502.418-.32zm2.828 0l.432.32-.167-.5.432-.321h-.53l-.167-.502-.167.502h-.53l.432.32-.167.502.432-.32zm2.828 0l.418.32-.153-.5.418-.321h-.53l-.153-.502-.167.502h-.53l.433.32-.167.502.431-.32zm2.815 0l.432.32-.167-.5.431-.321h-.529l-.167-.502-.167.502h-.516l.418.32-.153.502.418-.32zm2.828 0l.432.32-.167-.5.418-.321h-.516l-.167-.502-.167.502h-.53l.432.32-.167.502.432-.32z" fill="#fff"/></g></g></g><defs><clipPath id="aarsvg_088f003833__clip0_7850_134"><path fill="#fff" d="M0 0h24v24H0z"/></clipPath></defs></svg>
