<svg xmlns="http://www.w3.org/2000/svg" viewBox="0 -0.5 49 49" fill="none"><path d="M23.28 2.957a2 2 0 012.015 0l4.286 2.5a2 2 0 01.992 1.728v5.035a2 2 0 01-.992 1.728l-4.286 2.5a2 2 0 01-2.015 0l-4.286-2.5a2 2 0 01-.992-1.728V7.185a2 2 0 01.992-1.728l4.286-2.5zM7.566 29.147a2 2 0 012.016 0l4.285 2.5a2 2 0 01.992 1.728v5.036a2 2 0 01-.992 1.727l-4.285 2.5a2 2 0 01-2.016 0l-4.286-2.5a2 2 0 01-.992-1.727v-5.036a2 2 0 01.992-1.728l4.286-2.5zM38.995 29.147a2 2 0 012.015 0l4.286 2.5a2 2 0 01.992 1.728v5.036a2 2 0 01-.992 1.727l-4.286 2.5a2 2 0 01-2.015 0l-4.286-2.5a2 2 0 01-.992-1.727v-5.036a2 2 0 01.992-1.728l4.286-2.5z" fill="#B5BCC9"/><path d="M23.288 10.28a2 2 0 012 0l13.423 7.75a2 2 0 011 1.732v15.5a2 2 0 01-1 1.732l-13.423 7.75a2 2 0 01-2 0l-13.424-7.75a2 2 0 01-1-1.732v-15.5a2 2 0 011-1.732l13.424-7.75z" fill="url(#aamsvg_b2f0e8a260__paint0_linear_7496_35658)"/><g filter="url(#aamsvg_b2f0e8a260__filter0_d_7496_35658)" fill="#fff"><path d="M18.437 25.232l-2.206 7.109h-2.343l3.325-9h1.485l-.26 1.891zm1.827 7.109l-2.212-7.109-.286-1.891h1.504l3.344 9h-2.35zm-.087-3.357v1.675h-4.642v-1.675h4.642zM26.89 29.287h-2.25v-1.675h2.25c.306 0 .555-.051.745-.154a.943.943 0 00.417-.427c.09-.185.137-.393.137-.624 0-.247-.046-.476-.137-.686a1.108 1.108 0 00-.417-.507c-.19-.132-.439-.198-.745-.198h-1.43v7.325H23.28v-9h3.61c.726 0 1.35.132 1.871.395.526.264.93.627 1.212 1.088.282.458.423.981.423 1.57 0 .581-.141 1.088-.423 1.521-.282.433-.686.77-1.212 1.014-.522.239-1.145.358-1.87.358zM33.888 23.34v9h-2.176v-9h2.176z"/></g><defs><linearGradient id="aamsvg_b2f0e8a260__paint0_linear_7496_35658" x1="24.288" y1="9.702" x2="24.288" y2="45.321" gradientUnits="userSpaceOnUse"><stop stop-color="#818A9C"/><stop offset="1" stop-color="#353D51"/></linearGradient><filter id="aamsvg_b2f0e8a260__filter0_d_7496_35658" x="5.888" y="17.341" width="36" height="25" filterUnits="userSpaceOnUse" color-interpolation-filters="sRGB"><feFlood flood-opacity="0" result="BackgroundImageFix"/><feColorMatrix in="SourceAlpha" values="0 0 0 0 0 0 0 0 0 0 0 0 0 0 0 0 0 0 127 0" result="hardAlpha"/><feOffset dy="2"/><feGaussianBlur stdDeviation="4"/><feComposite in2="hardAlpha" operator="out"/><feColorMatrix values="0 0 0 0 0 0 0 0 0 0 0 0 0 0 0 0 0 0 0.15 0"/><feBlend in2="BackgroundImageFix" result="effect1_dropShadow_7496_35658"/><feBlend in="SourceGraphic" in2="effect1_dropShadow_7496_35658" result="shape"/></filter></defs></svg>
