<svg xmlns="http://www.w3.org/2000/svg" viewBox="0 0 48 48" fill="none"><path fill-rule="evenodd" clip-rule="evenodd" d="M24 2c6.075 0 11 4.925 11 11 0 3.362-1.508 6.372-3.885 8.39L35.133 30H43a2 2 0 012 2v11a2 2 0 01-2 2H5a2 2 0 01-2-2V32a2 2 0 012-2h7.866l4.019-8.61A10.976 10.976 0 0113 13c0-6.075 4.925-11 11-11zm17 32H7v7h34v-7zM24 6a7 7 0 00-7 7 6.97 6.97 0 002.265 5.156l.209.184a4 4 0 011.036 4.74L17.28 30h13.44l-3.23-6.92a4 4 0 01.876-4.596l.16-.144A6.974 6.974 0 0031 13a7 7 0 00-7-7z" fill="currentColor"/></svg>
