<svg xmlns="http://www.w3.org/2000/svg" viewBox="0 0 48 48" fill="none"><defs><linearGradient x1="0" y1="1.95" x2="1.578" y2="1.611" id="akia"><stop offset="10%" stop-color="#3B91FF"/><stop offset="50%" stop-color="#0D5EFF"/><stop offset="85%" stop-color="#C069FF"/></linearGradient></defs><path d="M8 18V8h10v10H8zM4 6a2 2 0 012-2h14a2 2 0 012 2v14a2 2 0 01-2 2H6a2 2 0 01-2-2V6zm26.097 4.988a4.167 4.167 0 002.942-2.946l.513-1.918c.401-1.499 2.527-1.499 2.928 0l.518 1.931a4.167 4.167 0 002.947 2.947l1.931.517c1.499.402 1.499 2.528 0 2.929l-1.918.513a4.167 4.167 0 00-2.946 2.942l-.532 1.976c-.403 1.495-2.524 1.495-2.927 0l-.529-1.963a4.167 4.167 0 00-2.94-2.94l-1.962-.529c-1.496-.403-1.496-2.524 0-2.927l1.975-.532zM8 30v10h10V30H8zm-2-4a2 2 0 00-2 2v14a2 2 0 002 2h14a2 2 0 002-2V28a2 2 0 00-2-2H6zm24 14V30h10v10H30zm-4-12a2 2 0 012-2h14a2 2 0 012 2v14a2 2 0 01-2 2H28a2 2 0 01-2-2V28z" fill-rule="evenodd" fill="url(#akia)"/></svg>
