<svg xmlns="http://www.w3.org/2000/svg" viewBox="0 -0.5 49 49" fill="none"><path d="M23.58 4.29a1.6 1.6 0 011.84 0l17.4 12.21c.426.3.68.79.68 1.31v24.235a1.6 1.6 0 01-1.6 1.6H7.1a1.6 1.6 0 01-1.6-1.6V17.81a1.6 1.6 0 01.68-1.31l17.4-12.21z" fill="url(#akusvg_08004d9d4c__paint0_linear_28245_146081)"/><path d="M30.614 20.952h3.4v15.452h-3.952V25.102l-2.693.684-.95-3.333 4.195-1.5z" fill="color(display-p3 .7088 .7369 .7875)"/><path d="M19.168 36.404c-3.937 0-6.139-3.133-6.139-7.726s2.202-7.726 6.139-7.726c3.936 0 6.138 3.133 6.138 7.726s-2.202 7.726-6.139 7.726zm0-3.683c1.587 0 2.349-1.355 2.349-4.043s-.762-4.043-2.35-4.043c-1.587 0-2.349 1.355-2.349 4.043s.762 4.043 2.35 4.043z" fill="#fff"/><defs><linearGradient id="akusvg_08004d9d4c__paint0_linear_28245_146081" x1="24.5" y1="4" x2="24.5" y2="43.645" gradientUnits="userSpaceOnUse"><stop stop-color="color(display-p3 .5053 .5426 .6125)"/><stop offset="1" stop-color="color(display-p3 .2072 .2396 .3167)"/></linearGradient></defs></svg>
