<svg xmlns="http://www.w3.org/2000/svg" viewBox="0 0 24 24" fill="none"><g clip-path="url(#aavsvg_4442e4af09__clip0_7850_75)"><mask id="aava" style="mask-type:luminance" maskUnits="userSpaceOnUse" x="0" y="0" width="24" height="24"><path d="M18 0H6a6 6 0 00-6 6v12a6 6 0 006 6h12a6 6 0 006-6V6a6 6 0 00-6-6z" fill="#fff"/></mask><g mask="url(#aava)"><path d="M18 0H6a6 6 0 00-6 6v12a6 6 0 006 6h12a6 6 0 006-6V6a6 6 0 00-6-6z" fill="#F1F3F5"/><mask id="aavb" style="mask-type:luminance" maskUnits="userSpaceOnUse" x="-6" y="-9" width="33" height="33"><path d="M-6-9h33v33H-6V-9z" fill="#fff"/></mask><g mask="url(#aavb)"><path d="M-1.5 0v25.5H24V0H-1.5z" fill="#004391"/><path d="M15 8.335V2.273c-.387-.004-.798-.01-1.231-.01L15 1.41V0h-4.173L9.46 1.035c0-.359 0-.702.004-1.035H4.146C4.14.394 4.14.803 4.14 1.22L2.516 0H-1.5v1.282l1.292.98c-.451 0-.884.007-1.292.007v6.073c.394-.008.814-.01 1.256-.01l-1.256.943V11h3.713L4.14 9.508c0 .495 0 1.006-.002 1.492h5.316c.002-.508.006-1.048.006-1.569L11.484 11H15V9.244l-1.252-.912c.436 0 .858 0 1.252.003z" fill="#fff"/><path d="M8.32 3.553L8.33 0H5.293l-.014 3.553H-1.5v3.49h6.779L5.269 11h3.034l.017-3.956H15V3.553H8.32z" fill="#D71718"/><path d="M2.676 2.263L-.29 0H-1.5v.49L.789 2.264h1.887zm6.764 0h1.428L13.908 0h-1.88L9.44 1.907v.356zM3.945 8.332H2.409L-1.078 11H.75l3.194-2.391v-.277zM15 9.969l-2.166-1.637h-1.888l3.5 2.668H15V9.97z" fill="#D71718"/><path d="M7.565 17.164l1.152-.437-.678 1.023 1.048.624-1.218.107.169 1.213-.851-.89-.845.89.161-1.213-1.21-.107 1.043-.624-.673-1.023 1.145.437.379-1.166.378 1.166zm11.537-7.291l.544-.208-.322.483.497.297-.577.05.08.575-.404-.42-.4.42.078-.574-.576-.05.494-.298-.318-.483.546.208.176-.557.182.557zm3.319 2.534l.546-.207-.321.485.497.296-.579.049.08.574-.402-.42-.401.42.075-.574-.572-.05.492-.295-.318-.485.545.207.179-.552.179.551zm-1.766 2.164l-.125.392-.416.002.338.245-.129.393.333-.246.336.243-.13-.395.334-.242-.413.002-.128-.394zm-4.833-.683l.548-.206-.321.485.495.293-.577.052.082.575-.404-.42-.403.42.079-.575-.574-.052.492-.293-.318-.485.545.206.179-.553.178.553zm3.28 3.957l.544-.207-.322.484.497.296-.577.052.08.576-.404-.425-.4.425.078-.576-.576-.052.494-.296-.318-.484.546.207.176-.553.182.553z" fill="#fff"/></g></g></g><defs><clipPath id="aavsvg_4442e4af09__clip0_7850_75"><path fill="#fff" d="M0 0h24v24H0z"/></clipPath></defs></svg>
