<svg xmlns="http://www.w3.org/2000/svg" viewBox="0 0 48 48" fill="none"><g clip-path="url(#alhsvg_91da6cf9de__clip0_7496_35633)"><rect x="4.001" y="20.651" width="23.372" height="23.345" rx="2" fill="#B5BCC9"/><g filter="url(#alhsvg_91da6cf9de__filter0_d_7496_35633)"><path d="M15.864 39.288a.4.4 0 01-.28.683l-7.188.04a.4.4 0 01-.402-.402l.04-7.187a.4.4 0 01.683-.28l2.063 2.063a.4.4 0 00.566 0l2.518-2.518a.4.4 0 01.566 0l1.886 1.886a.4.4 0 010 .566l-2.518 2.518a.4.4 0 000 .566l2.066 2.065z" fill="#fff"/></g><rect x="16.811" y="3.995" width="27.189" height="27.189" rx="2" fill="url(#alhsvg_91da6cf9de__paint0_linear_7496_35633)"/><g filter="url(#alhsvg_91da6cf9de__filter1_d_7496_35633)"><path d="M27.234 8.72a.4.4 0 01.28-.683l12.115-.068a.4.4 0 01.402.402l-.067 12.115a.4.4 0 01-.683.28l-3.81-3.81a.4.4 0 00-.566 0l-3.901 3.902a.4.4 0 01-.566 0l-3.3-3.3a.4.4 0 010-.566l3.901-3.902a.4.4 0 000-.565l-3.805-3.806z" fill="#fff"/></g></g><defs><filter id="alhsvg_91da6cf9de__filter0_d_7496_35633" x="-.006" y="25.569" width="24.439" height="24.442" filterUnits="userSpaceOnUse" color-interpolation-filters="sRGB"><feFlood flood-opacity="0" result="BackgroundImageFix"/><feColorMatrix in="SourceAlpha" values="0 0 0 0 0 0 0 0 0 0 0 0 0 0 0 0 0 0 127 0" result="hardAlpha"/><feOffset dy="2"/><feGaussianBlur stdDeviation="4"/><feComposite in2="hardAlpha" operator="out"/><feColorMatrix values="0 0 0 0 0 0 0 0 0 0 0 0 0 0 0 0 0 0 0.15 0"/><feBlend in2="BackgroundImageFix" result="effect1_dropShadow_7496_35633"/><feBlend in="SourceGraphic" in2="effect1_dropShadow_7496_35633" result="shape"/></filter><filter id="alhsvg_91da6cf9de__filter1_d_7496_35633" x="19.02" y="1.969" width="29.011" height="29.007" filterUnits="userSpaceOnUse" color-interpolation-filters="sRGB"><feFlood flood-opacity="0" result="BackgroundImageFix"/><feColorMatrix in="SourceAlpha" values="0 0 0 0 0 0 0 0 0 0 0 0 0 0 0 0 0 0 127 0" result="hardAlpha"/><feOffset dy="2"/><feGaussianBlur stdDeviation="4"/><feComposite in2="hardAlpha" operator="out"/><feColorMatrix values="0 0 0 0 0 0 0 0 0 0 0 0 0 0 0 0 0 0 0.15 0"/><feBlend in2="BackgroundImageFix" result="effect1_dropShadow_7496_35633"/><feBlend in="SourceGraphic" in2="effect1_dropShadow_7496_35633" result="shape"/></filter><linearGradient id="alhsvg_91da6cf9de__paint0_linear_7496_35633" x1="30.406" y1="3.995" x2="30.406" y2="31.185" gradientUnits="userSpaceOnUse"><stop stop-color="#353D51"/><stop offset="1" stop-color="#818A9C"/></linearGradient><clipPath id="alhsvg_91da6cf9de__clip0_7496_35633"><path fill="#fff" d="M0 0h48v48H0z"/></clipPath></defs></svg>
