<svg xmlns="http://www.w3.org/2000/svg" viewBox="0 0 20 20" fill="none"><path d="M1.667 6.624v-3.29c0-.46.373-.834.833-.834h15c.46 0 .833.373.833.833v3.291c0 .46-.373.834-.833.834h-15a.833.833 0 01-.833-.834z" fill-opacity=".5" fill="currentColor"/><path fill-rule="evenodd" clip-rule="evenodd" d="M2.688 16.667v-9.21h14.624v9.21c0 .46-.373.833-.834.833H3.521a.833.833 0 01-.833-.833zm9.395-4.948c.23 0 .417-.186.417-.416v-.834a.417.417 0 00-.417-.416H7.916a.417.417 0 00-.416.416v.834c0 .23.186.416.416.416h4.167z" fill="currentColor"/></svg>
