<svg xmlns="http://www.w3.org/2000/svg" viewBox="-0.5 0 49 49" fill="none"><path fill-rule="evenodd" clip-rule="evenodd" d="M24 3.743l.743-1.857h.001l.008.004.02.008.071.029.262.108a59.517 59.517 0 014.039 1.896c2.387 1.235 5.432 3.026 7.551 5.104C41.03 13.284 45 18.668 45 25.743c0 11.598-9.402 21-21 21s-21-9.402-21-21c0-7.21 4.47-13.319 8.684-17 2.02-1.764 4.941-3.479 7.25-4.714a81.995 81.995 0 014.151-2.067l.068-.031.018-.008.008-.004L24 3.743zm-.82-1.824l.774-.349.789.316L24 3.743l-.82-1.824zM20.82 7.556a77.93 77.93 0 013.22-1.625l.377.166a55.5 55.5 0 012.888 1.387c2.31 1.196 4.913 2.765 6.589 4.407C37.971 15.887 41 20.291 41 25.743c0 9.389-7.611 17-17 17s-17-7.611-17-17c0-5.578 3.53-10.682 7.316-13.988 1.655-1.445 4.233-2.984 6.505-4.199zm3.745 25.45l11.762-11.763-2.828-2.829-9.066 9.066-5.5-5-7.262 7.263L14.5 32.57l4.566-4.565 5.5 5z" fill="currentColor"/></svg>
