<svg xmlns="http://www.w3.org/2000/svg" viewBox="0 0 36 36" fill="none"><path fill-rule="evenodd" clip-rule="evenodd" d="M28.295 5.725H7.705C5.548 5.725 3.8 7.452 3.8 9.583v.578h28.4v-.578c0-2.13-1.748-3.858-3.905-3.858zM32.2 12.63H3.8v13.788c0 2.131 1.748 3.859 3.905 3.859h20.59c2.157 0 3.905-1.728 3.905-3.859V12.631zm-3.98 10.007a1.077 1.077 0 00-.795-.362h-3.75c-.299 0-.585.13-.796.362a1.3 1.3 0 00-.33.873c0 .328.12.642.33.873.211.232.497.362.796.362h3.75c.298 0 .584-.13.795-.362a1.3 1.3 0 00.33-.873 1.3 1.3 0 00-.33-.873z" fill="currentColor"/></svg>
