<svg xmlns="http://www.w3.org/2000/svg" viewBox="0 0 20 20" fill="none"><path fill-rule="evenodd" clip-rule="evenodd" d="M9.22 9.952a4.327 4.327 0 100-8.655 4.327 4.327 0 000 8.655zm-8.021 6.805c0-2.716 3.892-5.529 8.021-5.529.943 0 1.872.137 2.747.379-.925.89-1.5 2.14-1.5 3.525a4.87 4.87 0 001.014 2.983H2.032a.833.833 0 01-.833-.833v-.525z" fill="currentColor"/><path fill-rule="evenodd" clip-rule="evenodd" d="M15.357 18.703a3.572 3.572 0 100-7.143 3.572 3.572 0 000 7.143zm1.13-2.947c.23 0 .416-.186.416-.416v-.417a.417.417 0 00-.417-.417H14.23a.417.417 0 00-.416.417v.417c0 .23.186.416.416.416h2.257z" fill="currentColor"/></svg>
