<svg xmlns="http://www.w3.org/2000/svg" viewBox="0 0 18 18" fill="none"><path fill-rule="evenodd" clip-rule="evenodd" d="M3.15 1.2a.7.7 0 00-.594.329l-1.75 2.8A.7.7 0 00.7 4.7v9.8a.7.7 0 00.7.7h7.813A4.6 4.6 0 1014.7 8.056V4.7a.7.7 0 00-.106-.371l-1.75-2.8a.7.7 0 00-.594-.329h-9.1zM13.3 7.639V5.4H2.1v3.5h7.395A4.585 4.585 0 0113.3 7.639zm-4.79 2.66H2.1V13.8h6.286a4.591 4.591 0 01-.286-1.6c0-.678.146-1.32.41-1.9zM12.736 4H2.663l.875-1.4h8.324l.875 1.4zm-9.12 2.45h2.1v1.4h-2.1v-1.4zm0 4.9h2.1v1.4h-2.1v-1.4zm5.683.85a3.4 3.4 0 116.8 0 3.4 3.4 0 01-6.8 0zm5.4-.4v-1.2h-4v1.2h4zm0 .8v1.2h-4v-1.2h4z" fill="currentColor"/></svg>
