<svg xmlns="http://www.w3.org/2000/svg" viewBox="0 0 20 20" fill="none"><path opacity=".5" fill-rule="evenodd" clip-rule="evenodd" d="M12 7c.55 0 1 .45 1 1v6c0 .55-.45 1-1 1H6c-.55 0-1-.45-1-1V8c0-.55.45-1 1-1h6zm-1 6H7V9h4v4z" fill="currentColor"/><path fill-rule="evenodd" clip-rule="evenodd" d="M2 4.85c0-.47.38-.85.85-.85h12.3c.47 0 .85.38.85.85v12.3c0 .47-.38.85-.85.85H2.85a.85.85 0 01-.85-.85V4.85zM12 7c.55 0 1 .45 1 1v6c0 .55-.45 1-1 1H6c-.55 0-1-.45-1-1V8c0-.55.45-1 1-1h6z" fill="currentColor"/><path opacity=".5" fill-rule="evenodd" clip-rule="evenodd" d="M4 2.85c0-.47.38-.85.85-.85h12.3c.47 0 .85.38.85.85v12.3c0 .47-.38.85-.85.85H16V4.85a.85.85 0 00-.85-.85H4V2.85z" fill="currentColor"/></svg>
