<svg xmlns="http://www.w3.org/2000/svg" viewBox="0 0 48 48" fill="none"><path fill-rule="evenodd" clip-rule="evenodd" d="M8 5.996a2 2 0 012-2h18.787v.033c.287-.022.578-.033.87-.033 6.254 0 11.324 5.07 11.324 11.323a11.3 11.3 0 01-4.047 8.677 11.3 11.3 0 014.047 8.676c0 6.254-5.07 11.323-11.324 11.323-.292 0-.583-.01-.87-.032v.033H10a2 2 0 01-2-2v-36z" fill="url(#aawsvg_e59b971821__paint0_linear_7496_35668)"/><circle cx="29.434" cy="15.544" r="4" transform="rotate(180 29.434 15.544)" fill="#B5BCC9"/><circle cx="29.434" cy="32.937" r="4" transform="rotate(180 29.434 32.937)" fill="#B5BCC9"/><path fill="#B5BCC9" d="M26.538 16.847l1.269 1.546-6.83 5.603-1.269-1.546zM21.549 25.387l-1.269 1.546 6.171 5.062 1.269-1.546z"/><circle cx="17" cy="24" r="5" transform="rotate(180 17 24)" fill="#fff"/><defs><linearGradient id="aawsvg_e59b971821__paint0_linear_7496_35668" x1="24.49" y1="3.996" x2="24.49" y2="43.996" gradientUnits="userSpaceOnUse"><stop stop-color="#818A9C"/><stop offset="1" stop-color="#353D51"/></linearGradient></defs></svg>
