<svg xmlns="http://www.w3.org/2000/svg" viewBox="0 0 48 48" fill="none"><path fill-rule="evenodd" clip-rule="evenodd" d="M34 11.5A9.5 9.5 0 0024.5 2h-1a9.5 9.5 0 00-9.5 9.5v.5h4v-.5A5.5 5.5 0 0123.5 6h1a5.5 5.5 0 015.5 5.5v.5h4v-.5zM8.68 40.979c.372-.607.888-1.059 1.582-1.383.475-.223.946-.373 1.687-.466l.012.02A13.992 13.992 0 0024 46c5.154 0 9.658-2.786 12.088-6.934l-.036.064c.74.093 1.21.243 1.686.466.694.324 1.21.776 1.581 1.383.413.675.607 1.34.663 3.02h3.998c-.091-2.64-.491-3.769-1.167-4.906-.775-1.304-1.912-2.327-3.36-3.025a8.758 8.758 0 00-1.868-.67l.015-.063c.261-1.069.4-2.186.4-3.335v-3h4.718c.446 0 .607-.046.77-.134a.908.908 0 00.378-.378c.088-.162.134-.324.134-.77v-1.436c0-.446-.046-.608-.134-.77a.908.908 0 00-.378-.378c-.163-.088-.324-.134-.77-.134H38l.002-7.036c1.235-.086 2.094-.324 2.872-.699.996-.479 1.777-1.182 2.31-2.079.487-.82.766-1.74.81-3.185L39.549 12c-.026.692-.12 1.024-.284 1.3a1.07 1.07 0 01-.487.44c-.364.175-.813.261-1.908.261H11.13c-1.095 0-1.543-.086-1.908-.262a1.063 1.063 0 01-.487-.438c-.164-.277-.259-.609-.284-1.3L4.006 12c.044 1.446.323 2.366.81 3.185.533.897 1.314 1.6 2.31 2.08.778.374 1.638.612 2.873.698L10 25H5.282c-.446 0-.607.046-.77.134a.908.908 0 00-.378.378c-.088.162-.134.324-.134.77v1.436c0 .446.046.608.134.77a.906.906 0 00.378.378c.163.088.324.134.77.134H10v3c0 1.15.139 2.266.4 3.335l.015.063-.044.01-.34.09a8.925 8.925 0 00-1.484.57c-1.448.698-2.585 1.72-3.36 3.025-.676 1.137-1.076 2.267-1.167 4.905h3.998c.056-1.68.25-2.344.663-3.019zm1.846-5.163l-.11-.418c.034.14.071.28.11.418zm25.526 3.314c.09-.153.178-.307.262-.463l-.1.18-.126.22.033-.056-.069.119zM14 18h20v14c0 4.838-3.435 8.873-7.999 9.8L26 23a1 1 0 00-1-1h-2a1 1 0 00-1 1v18.8c-4.564-.927-8-4.962-8-9.8V18zm23.033 19.123l-.009.023.019-.048-.01.025zm.187-.504l-.044.123.044-.123zm-26.53-.264a13.853 13.853 0 01-.035-.11l.036.11z" fill="currentColor"/></svg>
