<svg xmlns="http://www.w3.org/2000/svg" viewBox="0 0 48 48" fill="none"><path fill-rule="evenodd" clip-rule="evenodd" d="M15.81 2.975c.579 0 1.05.47 1.05 1.05v2.1H31v-2.1c0-.58.47-1.05 1.05-1.05h4.9c.58 0 1.05.47 1.05 1.05v2.1h4.9c1.16 0 2.1.94 2.1 2.1v35.698a2.1 2.1 0 01-2.1 2.1H5.102a2.1 2.1 0 01-2.1-2.1V8.225c0-1.16.94-2.1 2.1-2.1h4.966v-2.1c0-.58.47-1.05 1.05-1.05h4.691zm-1.26 14.7h6.3v6.3h-6.3v-6.3zm18.901 0h-6.3v6.3h6.3v-6.3zm-18.9 12.6h6.3v6.3h-6.3v-6.3zm18.9 0h-6.3v6.3h6.3v-6.3z" fill="currentColor"/></svg>
