<svg xmlns="http://www.w3.org/2000/svg" viewBox="0 0 20 20" fill="none"><path d="M6.18 13.889c3.64 3.64 7.28 4.377 9.876 4.51.689.035 1.306-.398 1.554-1.042l.652-1.693a1.667 1.667 0 00-.851-2.109l-2.603-1.215a1.667 1.667 0 00-1.63.124l-.734.49c-.275.183-.616.26-.934.166-.607-.182-1.52-.607-2.737-1.824-1.218-1.218-1.642-2.13-1.824-2.738-.095-.318-.017-.658.166-.934l.49-.734c.323-.484.37-1.102.123-1.63L6.513 2.659a1.667 1.667 0 00-2.108-.85l-1.694.65c-.643.248-1.077.866-1.041 1.555.133 2.595.87 6.235 4.51 9.876z" fill="currentColor"/></svg>
