<svg xmlns="http://www.w3.org/2000/svg" viewBox="-0.5 0 25 25" fill="none"><switch><g><path fill-rule="evenodd" clip-rule="evenodd" d="M13.8 6.307c-1.3-.4-2.7-.35-4 .15-1.3.5-2.4 1.35-3.15 2.5s-1.1 2.5-1.05 3.9c.05 1.4.6 2.7 1.5 3.75.9 1.05 2.1 1.8 3.45 2.1 1.35.3 2.75.2 4-.4.9-.4 1.95 0 2.35.9.4.9 0 1.95-.9 2.35-1.95.85-4.15 1.1-6.25.6-2.1-.5-4-1.65-5.4-3.25-1.35-1.6-2.2-3.65-2.35-5.8-.1-2.15.45-4.3 1.6-6.1 1.2-1.8 2.9-3.2 4.95-3.9 2-.75 4.25-.8 6.3-.2 2.05.6 3.9 1.85 5.15 3.55 1.3 1.75 2 3.8 2 6 0 1-.8 1.8-1.8 1.8s-1.8-.8-1.8-1.8c0-1.4-.45-2.7-1.25-3.85-.85-1.1-2-1.9-3.35-2.3z" fill="url(#aoaa)"/><linearGradient id="aoaa" x1="13.215" y1="7.364" x2="10.715" y2="16.739" gradientUnits="userSpaceOnUse"><stop stop-color="#4E5969"/><stop offset="1" stop-color="#4E5969" stop-opacity="0"/></linearGradient><path fill-rule="evenodd" clip-rule="evenodd" d="M13.8 6.307c-1.3-.4-2.7-.35-4 .15-1.3.5-2.4 1.35-3.15 2.5s-1.1 2.5-1.05 3.9c.05 1.4.6 2.7 1.5 3.75.9 1.05 2.1 1.8 3.45 2.1 1.35.3 2.75.2 4-.4.9-.4 1.95 0 2.35.9.4.9 0 1.95-.9 2.35-1.95.85-4.15 1.1-6.25.6-2.1-.5-4-1.65-5.4-3.25-1.35-1.6-2.2-3.65-2.35-5.8-.1-2.15.45-4.3 1.6-6.1 1.2-1.8 2.9-3.2 4.95-3.9 2-.75 4.25-.8 6.3-.2 2.05.6 3.9 1.85 5.15 3.55 1.3 1.75 2 3.8 2 6 0 1-.8 1.8-1.8 1.8s-1.8-.8-1.8-1.8c0-1.4-.45-2.7-1.25-3.85-.85-1.1-2-1.9-3.35-2.3z" fill="url(#aoab)"/><linearGradient id="aoab" x1="-.574" y1="10.023" x2="18.801" y2="13.773" gradientUnits="userSpaceOnUse"><stop stop-color="#CCCFD4"/><stop offset="1" stop-color="#CCCFD4" stop-opacity="0"/></linearGradient></g><animateTransform attributeName="transform" begin="0s" dur="2s" type="rotate" from="0 12 12.5" to="360 12 12.5" repeatCount="indefinite"/></switch></svg>
