<svg xmlns="http://www.w3.org/2000/svg" viewBox="0 -0.5 49 49" fill="none"><path opacity=".5" d="M19.194 5L5.759 18.435V7.11C5.76 5.945 6.704 5 7.87 5h11.324z" fill="currentColor"/><path fill-rule="evenodd" clip-rule="evenodd" d="M5.76 18.435v22.454c0 1.166.944 2.111 2.11 2.111h33.778a2.111 2.111 0 002.111-2.111V7.11A2.111 2.111 0 0041.65 5H19.193L5.759 18.435zm17.05 4v5.549h-1.377a.622.622 0 00-.622.622v1.378h-3.077v-.756c0-.687-.557-1.244-1.244-1.244h-5.511c-.688 0-1.245.557-1.245 1.244v5.511c0 .688.557 1.245 1.245 1.245h5.511c.687 0 1.244-.557 1.244-1.245v-.755h3.077v1.378c0 .343.279.622.622.622h6.756a.622.622 0 00.622-.622v-1.378h3.076v1.378c0 .343.278.622.622.622h6.755a.622.622 0 00.623-.622v-6.756a.622.622 0 00-.623-.622H32.51a.622.622 0 00-.622.622v1.378H28.81v-1.378a.622.622 0 00-.622-.622H26.81v-5.55h4.755c.687 0 1.244-.556 1.244-1.244v-5.51c0-.688-.557-1.245-1.244-1.245H18.055c-.687 0-1.244.557-1.244 1.244v5.511c0 .688.557 1.245 1.244 1.245h4.756z" fill="currentColor"/><g opacity=".5"><path d="M22.81 27.984v-5.55h4v5.55h-4zM20.811 29.984h-3.077v-.756c0-.687-.557-1.244-1.244-1.244h-5.511c-.688 0-1.245.557-1.245 1.244v5.511c0 .688.557 1.245 1.245 1.245h5.511c.687 0 1.244-.557 1.244-1.245v-.755h3.077v-4zM28.811 33.984h3.076v1.378c0 .343.278.622.622.622h6.755a.622.622 0 00.623-.622v-6.756a.622.622 0 00-.623-.622H32.51a.622.622 0 00-.622.622v1.378H28.81v4z" fill="currentColor"/></g></svg>
