<svg xmlns="http://www.w3.org/2000/svg" viewBox="0 0 48 48" fill="none"><defs><linearGradient x1="0" y1="1.95" x2="1.57" y2="1.576" id="aoma"><stop offset="10%" stop-color="#3B91FF"/><stop offset="50%" stop-color="#0D5EFF"/><stop offset="85%" stop-color="#C069FF"/></linearGradient></defs><path d="M17.095 9.815c1.204.312 1.208 2.02.005 2.337l-1.194.316a4.831 4.831 0 00-3.438 3.438l-.316 1.194c-.317 1.203-2.025 1.199-2.337-.005l-.304-1.174a4.831 4.831 0 00-3.444-3.46L4.9 12.151c-1.203-.317-1.199-2.025.005-2.337l1.147-.297a4.831 4.831 0 003.466-3.466l.297-1.147c.312-1.204 2.02-1.208 2.337-.005l.308 1.167a4.831 4.831 0 003.461 3.444l1.174.304zM44.5 9.5c0-.552-.428-1-.956-1H23.457c-.529 0-.957.448-.957 1v2c0 .552.428 1 .956 1h20.088c.528 0 .956-.448.956-1v-2zm-.956 14c.528 0 .956.448.956 1v2c0 .551-.428.999-.956.999H23.457c-.529 0-.957-.448-.957-1v-2c0-.551.428-.999.956-.999h20.088zm0 15c.528 0 .956.448.956 1v2c0 .551-.428.999-.956.999H23.457c-.529 0-.957-.448-.957-1v-2c0-.551.428-.999.956-.999h20.088zM13 20.7v2.8h5.5a1 1 0 011 1v2a1 1 0 01-1 1H13v9.25c0 .582.12 1.108.305 1.48l.072.13.068.102.03.038H18.5a1 1 0 011 1v2a1 1 0 01-1 1h-5.214c-2.56 0-4.198-2.576-4.283-5.511L9 36.75V20.7a1.2 1.2 0 011.2-1.2h1.6a1.2 1.2 0 011.2 1.2z" fill-rule="evenodd" fill="url(#aoma)"/></svg>
