<svg xmlns="http://www.w3.org/2000/svg" viewBox="0 0 48 48" fill="none"><rect x="16.814" y="12.454" width="27.186" height="19.956" rx="9.978" fill="#B5BCC9"/><path fill-rule="evenodd" clip-rule="evenodd" d="M26.263 32.263C33.474 31.24 39.02 25.04 39.02 17.547c0-8.209-6.654-14.863-14.863-14.863-6.78 0-12.498 4.538-14.285 10.742a9.979 9.979 0 00-5.68 9.007c0 5.511 4.467 9.978 9.977 9.978h7.23c.22 0 .436-.007.65-.02v1.197h-2.057a1 1 0 00-1 1v1.897H8.085a1 1 0 00-1 1v3.047a1 1 0 001 1h10.907v1.464a1 1 0 001 1h8.409a1 1 0 001-1v-1.464h10.504a1 1 0 001-1v-3.047a1 1 0 00-1-1H29.401v-1.897a1 1 0 00-1-1h-2.138v-1.325z" fill="url(#abfsvg_5e69a95411__paint0_linear_7496_35644)"/><g filter="url(#abfsvg_5e69a95411__filter0_d_7496_35644)"><rect x="18.992" y="17.43" width="10.007" height="5.003" rx="1" fill="#fff"/></g><defs><linearGradient id="abfsvg_5e69a95411__paint0_linear_7496_35644" x1="22.781" y1="2.684" x2="22.781" y2="45.07" gradientUnits="userSpaceOnUse"><stop stop-color="#353D51"/><stop offset="1" stop-color="#818A9C"/></linearGradient><filter id="abfsvg_5e69a95411__filter0_d_7496_35644" x="10.992" y="11.43" width="26.007" height="21.003" filterUnits="userSpaceOnUse" color-interpolation-filters="sRGB"><feFlood flood-opacity="0" result="BackgroundImageFix"/><feColorMatrix in="SourceAlpha" values="0 0 0 0 0 0 0 0 0 0 0 0 0 0 0 0 0 0 127 0" result="hardAlpha"/><feOffset dy="2"/><feGaussianBlur stdDeviation="4"/><feComposite in2="hardAlpha" operator="out"/><feColorMatrix values="0 0 0 0 0 0 0 0 0 0 0 0 0 0 0 0 0 0 0.15 0"/><feBlend in2="BackgroundImageFix" result="effect1_dropShadow_7496_35644"/><feBlend in="SourceGraphic" in2="effect1_dropShadow_7496_35644" result="shape"/></filter></defs></svg>
