<svg xmlns="http://www.w3.org/2000/svg" viewBox="-0.5 0 21 21" fill="none"><path d="M14.79 10.937c1.046-.392 1.147-1.83.167-2.364l-1.423-.775c-.81-.441-.497-1.672.426-1.672h.176a4.158 4.158 0 010 8.315h-4.33c-.8 0-1.094-1.054-.408-1.467a.791.791 0 01.13-.063l5.263-1.974z" fill-opacity=".5" fill="currentColor"/><path fill-rule="evenodd" clip-rule="evenodd" d="M16.219 8.248a6.195 6.195 0 01-5.316 6.131v.552h.891c.23 0 .417.187.417.417v.79h4.377c.23 0 .416.187.416.417v1.27c0 .23-.186.416-.416.416H12.21v.61c0 .23-.187.417-.417.417H8.291a.417.417 0 01-.417-.417v-.61H3.329a.417.417 0 01-.416-.416v-1.27c0-.23.186-.417.416-.417h4.545v-.79c0-.23.186-.417.417-.417h.857v-.499c-.09.006-.18.01-.27.01H5.863a4.157 4.157 0 01-1.79-7.912 6.193 6.193 0 0112.145 1.717zM8.261 6.936c-.166 0-.3.124-.3.277v3.447c0 .074.032.142.084.192.05.052.118.084.193.084h3.446c.153 0 .277-.134.277-.3v-.9c0-.165-.124-.3-.277-.3H9.461V7.213c0-.153-.134-.277-.3-.277h-.9z" fill="currentColor"/></svg>
