<svg xmlns="http://www.w3.org/2000/svg" viewBox="0 0 20 20" fill="none"><path opacity=".5" d="M14.83 10c1.045-.391 1.146-1.83.166-2.363l-1.423-.775c-.81-.441-.497-1.673.426-1.673h.176a4.157 4.157 0 110 8.315h-4.33c-.8 0-1.094-1.053-.408-1.466a.791.791 0 01.13-.064l5.263-1.973z" fill="currentColor"/><path fill-rule="evenodd" clip-rule="evenodd" d="M10.943 13.443a6.195 6.195 0 10-6.83-7.849 4.158 4.158 0 001.79 7.91h3.013c.091 0 .181-.002.27-.008v.499H8.33a.417.417 0 00-.417.417v.79H3.368a.417.417 0 00-.416.417v1.27c0 .23.186.416.416.416h4.545v.61c0 .23.186.417.417.417h3.503c.23 0 .417-.187.417-.417v-.61h4.377c.23 0 .416-.187.416-.417v-1.27a.417.417 0 00-.416-.416H12.25v-.79a.417.417 0 00-.417-.417h-.89v-.552zM6.994 6.897a.292.292 0 00-.292.292v2.642c0 .161.13.292.292.292h.877c.162 0 .293-.13.293-.292V7.189a.292.292 0 00-.293-.292h-.877zm2.34-.605c0-.161.13-.292.292-.292h.877c.161 0 .292.13.292.292v3.54c0 .16-.13.291-.292.291h-.877a.292.292 0 01-.293-.292V6.292zm2.923.605a.292.292 0 00-.292.292v2.642c0 .161.13.292.292.292h.877c.162 0 .293-.13.293-.292V7.189a.292.292 0 00-.293-.292h-.877z" fill="currentColor"/></svg>
