<svg xmlns="http://www.w3.org/2000/svg" viewBox="0 -0.5 49 49" fill="none"><path d="M27.729 25.938L3.847 1.5h32.437c5.8 0 10.5 4.701 10.5 10.5v32.451L27.73 25.938z" fill="#309256" stroke="#2A814B" stroke-width="3"/><path fill-rule="evenodd" clip-rule="evenodd" d="M41.662 11.457l1.024 1.025a.724.724 0 010 1.024l-8.196 8.196a.722.722 0 01-.384.2l-.085.01h-.086a.722.722 0 01-.47-.21l-4.61-4.61a.724.724 0 010-1.025l1.025-1.024a.724.724 0 011.025 0l3.073 3.073 6.66-6.659a.724.724 0 011.024 0z" fill="#141414" fill-opacity=".2"/><path fill-rule="evenodd" clip-rule="evenodd" d="M40.917 10.712l1.024 1.025a.724.724 0 010 1.024l-8.196 8.196a.721.721 0 01-.384.2l-.085.01h-.086a.722.722 0 01-.47-.21l-4.61-4.61a.724.724 0 010-1.025l1.025-1.024a.724.724 0 011.025 0l3.073 3.073 6.66-6.659a.724.724 0 011.024 0z" fill="#fff"/></svg>
