<svg xmlns="http://www.w3.org/2000/svg" viewBox="0 -0.5 49 49" fill="none"><path fill-rule="evenodd" clip-rule="evenodd" d="M44.862 25.998c0 11.025-8.937 19.963-19.963 19.963-11.025 0-19.962-8.938-19.962-19.963S13.874 6.035 24.899 6.035c11.026 0 19.963 8.938 19.963 19.963z" fill="#141414" fill-opacity=".08"/><path d="M24.861 44.003c11.047 0 20.002-8.955 20.002-20.001C44.863 12.955 35.908 4 24.86 4 13.814 4 4.859 12.955 4.859 24.002c0 11.046 8.955 20.001 20.002 20.001z" fill="#387BFF"/><path fill-rule="evenodd" clip-rule="evenodd" d="M24.861 40.67c9.206 0 16.668-7.463 16.668-16.668 0-9.206-7.462-16.668-16.668-16.668S8.193 14.796 8.193 24.002c0 9.205 7.463 16.668 16.668 16.668zm20.002-16.668c0 11.046-8.955 20.001-20.002 20.001-11.047 0-20.002-8.955-20.002-20.001C4.86 12.955 13.814 4 24.861 4c11.047 0 20.002 8.955 20.002 20.002z" fill="#1664FF"/><path fill-rule="evenodd" clip-rule="evenodd" d="M33.958 19.085l1.372 1.372a.97.97 0 010 1.373L24.35 32.809a.966.966 0 01-.514.269l-.114.013h-.115a.967.967 0 01-.628-.282l-6.176-6.176a.97.97 0 010-1.372l1.372-1.373a.97.97 0 011.373 0l4.117 4.117 8.92-8.92a.97.97 0 011.373 0z" fill="#141414" fill-opacity=".2"/><path fill-rule="evenodd" clip-rule="evenodd" d="M32.959 18.086l1.372 1.372a.97.97 0 010 1.373L23.351 31.81a.967.967 0 01-.514.269l-.114.013h-.115a.967.967 0 01-.628-.282l-6.176-6.176a.97.97 0 010-1.372l1.372-1.373a.97.97 0 011.373 0l4.117 4.117 8.92-8.92a.97.97 0 011.373 0z" fill="#fff"/></svg>
