<svg xmlns="http://www.w3.org/2000/svg" viewBox="0 0 48 48" fill="none"><path d="M31.3 10.59a7.18 7.18 0 11-14.358 0 7.18 7.18 0 0114.359 0z" fill="url(#abhsvg_bb444f6929__paint0_linear_7496_35639)"/><path d="M16.272 37.409a7.18 7.18 0 11-14.358 0 7.18 7.18 0 0114.358 0z" fill="url(#abhsvg_bb444f6929__paint1_linear_7496_35639)"/><path d="M46.332 37.409a7.18 7.18 0 11-14.358 0 7.18 7.18 0 0114.358 0z" fill="url(#abhsvg_bb444f6929__paint2_linear_7496_35639)"/><path d="M22.997 15.104a2 2 0 012 0l9.905 5.719a2 2 0 011 1.732v11.437a2 2 0 01-1 1.732l-9.905 5.72a2 2 0 01-2 0l-9.905-5.72a2 2 0 01-1-1.732V22.555a2 2 0 011-1.732l9.905-5.72z" fill="#B5BCC9"/><g filter="url(#abhsvg_bb444f6929__filter0_d_7496_35639)"><path d="M23.5 22.723a1 1 0 011 0l4.057 2.343a1 1 0 01.5.866v4.684a1 1 0 01-.5.866L24.5 33.825a1 1 0 01-1 0l-4.058-2.343a1 1 0 01-.5-.866v-4.684a1 1 0 01.5-.866l4.058-2.343z" fill="#fff"/></g><defs><linearGradient id="abhsvg_bb444f6929__paint0_linear_7496_35639" x1="24.122" y1="3.411" x2="24.122" y2="17.77" gradientUnits="userSpaceOnUse"><stop stop-color="#353D51"/><stop offset="1" stop-color="#818A9C"/></linearGradient><linearGradient id="abhsvg_bb444f6929__paint1_linear_7496_35639" x1="9.093" y1="30.23" x2="9.093" y2="44.588" gradientUnits="userSpaceOnUse"><stop stop-color="#353D51"/><stop offset="1" stop-color="#818A9C"/></linearGradient><linearGradient id="abhsvg_bb444f6929__paint2_linear_7496_35639" x1="39.153" y1="30.23" x2="39.153" y2="44.588" gradientUnits="userSpaceOnUse"><stop stop-color="#353D51"/><stop offset="1" stop-color="#818A9C"/></linearGradient><filter id="abhsvg_bb444f6929__filter0_d_7496_35639" x="10.942" y="16.589" width="26.114" height="27.37" filterUnits="userSpaceOnUse" color-interpolation-filters="sRGB"><feFlood flood-opacity="0" result="BackgroundImageFix"/><feColorMatrix in="SourceAlpha" values="0 0 0 0 0 0 0 0 0 0 0 0 0 0 0 0 0 0 127 0" result="hardAlpha"/><feOffset dy="2"/><feGaussianBlur stdDeviation="4"/><feComposite in2="hardAlpha" operator="out"/><feColorMatrix values="0 0 0 0 0 0 0 0 0 0 0 0 0 0 0 0 0 0 0.15 0"/><feBlend in2="BackgroundImageFix" result="effect1_dropShadow_7496_35639"/><feBlend in="SourceGraphic" in2="effect1_dropShadow_7496_35639" result="shape"/></filter></defs></svg>
