<svg xmlns="http://www.w3.org/2000/svg" viewBox="0 0 49 49" fill="none"><mask id="apla" style="mask-type:alpha" maskUnits="userSpaceOnUse" x="0" y="0" width="49" height="49"><path d="M.5.5h48v48H.5z"/></mask><g mask="url(#apla)"><path d="M23.9 36.498c-3.2-.167-5.9-1.4-8.1-3.7-2.2-2.3-3.3-5.067-3.3-8.3 0-3.333 1.167-6.167 3.5-8.5 2.334-2.333 5.167-3.5 8.5-3.5 3.234 0 6 1.1 8.3 3.3 2.3 2.2 3.534 4.9 3.7 8.1l-4.2-1.25c-.433-1.8-1.366-3.275-2.8-4.425-1.433-1.15-3.1-1.725-5-1.725-2.2 0-4.083.783-5.65 2.35-1.566 1.567-2.35 3.45-2.35 5.65 0 1.9.575 3.567 1.725 5 1.15 1.433 2.625 2.367 4.425 2.8l1.25 4.2zm2.4 7.9c-.3.067-.6.1-.9.1h-.9c-2.766 0-5.366-.525-7.8-1.575-2.433-1.05-4.55-2.475-6.35-4.275-1.8-1.8-3.225-3.917-4.275-6.35-1.05-2.433-1.575-5.033-1.575-7.8 0-2.767.525-5.367 1.575-7.8 1.05-2.433 2.475-4.55 4.275-6.35 1.8-1.8 3.917-3.225 6.35-4.275 2.434-1.05 5.034-1.575 7.8-1.575 2.767 0 5.367.525 7.8 1.575 2.434 1.05 4.55 2.475 6.35 4.275 1.8 1.8 3.225 3.917 4.275 6.35 1.05 2.433 1.575 5.033 1.575 7.8v.9c0 .3-.033.6-.1.9l-3.9-1.2v-.6c0-4.467-1.55-8.25-4.65-11.35-3.1-3.1-6.883-4.65-11.35-4.65-4.466 0-8.25 1.55-11.35 4.65-3.1 3.1-4.65 6.883-4.65 11.35s1.55 8.25 4.65 11.35c3.1 3.1 6.884 4.65 11.35 4.65h.6l1.2 3.9zm15.25 1.1L33 36.948l-2.5 7.55-6-20 20 6-7.55 2.5 8.55 8.55-3.95 3.95z"/></g></svg>
