<svg xmlns="http://www.w3.org/2000/svg" viewBox="0 -0.5 49 49" fill="none"><path fill-rule="evenodd" clip-rule="evenodd" d="M44.207 25.992c0 11.042-8.951 19.993-19.993 19.993-11.042 0-19.993-8.95-19.993-19.993C4.22 14.95 13.17 6 24.214 6c11.042 0 19.993 8.951 19.993 19.993z" fill="#141414" fill-opacity=".08"/><path d="M24.214 43.986c11.042 0 19.993-8.95 19.993-19.993C44.207 12.951 35.256 4 24.214 4 13.172 4 4.22 12.951 4.22 23.993c0 11.042 8.95 19.993 19.993 19.993z" fill="#387BFF"/><path fill-rule="evenodd" clip-rule="evenodd" d="M24.214 40.654c9.202 0 16.66-7.46 16.66-16.66 0-9.202-7.459-16.662-16.66-16.662-9.202 0-16.661 7.46-16.661 16.661 0 9.202 7.46 16.661 16.66 16.661zm19.993-16.66c0 11.041-8.951 19.992-19.993 19.992-11.042 0-19.993-8.95-19.993-19.993C4.22 12.951 13.17 4 24.214 4c11.042 0 19.993 8.951 19.993 19.993z" fill="#1664FF"/><path fill-rule="evenodd" clip-rule="evenodd" d="M35.215 25.452v2.222a1.11 1.11 0 01-1.11 1.11h-11.53c-.236 0-.455-.073-.635-.198l-.103-.082-.093-.093a1.107 1.107 0 01-.28-.737V16.106c0-.613.497-1.11 1.11-1.11h2.222c.614 0 1.111.497 1.111 1.11v8.235h8.197c.614 0 1.11.498 1.11 1.111z" fill="#141414" fill-opacity=".2"/><path fill-rule="evenodd" clip-rule="evenodd" d="M34.215 24.453v2.222a1.11 1.11 0 01-1.11 1.11h-11.53c-.236 0-.455-.073-.635-.198l-.103-.082-.093-.093a1.106 1.106 0 01-.28-.737V15.107c0-.613.497-1.11 1.11-1.11h2.222c.614 0 1.111.497 1.111 1.11v8.235h8.197c.614 0 1.11.498 1.11 1.111z" fill="#fff"/></svg>
