<svg xmlns="http://www.w3.org/2000/svg" viewBox="0 -0.5 49 49" fill="none"><path fill-rule="evenodd" clip-rule="evenodd" d="M44.42 25.992c0 11.042-8.95 19.993-19.992 19.993-11.042 0-19.993-8.95-19.993-19.993C4.435 14.95 13.385 6 24.428 6c11.042 0 19.993 8.951 19.993 19.993z" fill="#141414" fill-opacity=".08"/><path d="M24.428 43.986c11.042 0 19.993-8.95 19.993-19.993C44.42 12.951 35.47 4 24.428 4 13.386 4 4.435 12.951 4.435 23.993c0 11.042 8.95 19.993 19.993 19.993z" fill="#737A87"/><path fill-rule="evenodd" clip-rule="evenodd" d="M24.428 40.654c9.201 0 16.66-7.46 16.66-16.66 0-9.202-7.459-16.662-16.66-16.662-9.202 0-16.661 7.46-16.661 16.661 0 9.202 7.46 16.661 16.66 16.661zm19.993-16.66c0 11.041-8.951 19.992-19.993 19.992-11.042 0-19.993-8.95-19.993-19.993C4.435 12.951 13.385 4 24.428 4 35.47 4 44.42 12.951 44.42 23.993z" fill="#676B72"/><path fill-rule="evenodd" clip-rule="evenodd" d="M35.429 25.452v2.222a1.11 1.11 0 01-1.111 1.11h-11.53c-.235 0-.454-.073-.634-.198l-.103-.082-.093-.093a1.107 1.107 0 01-.28-.737V16.106c0-.613.497-1.11 1.11-1.11h2.222c.614 0 1.11.497 1.11 1.11l.001 8.235h8.197c.613 0 1.11.498 1.11 1.111z" fill="#141414" fill-opacity=".2"/><path fill-rule="evenodd" clip-rule="evenodd" d="M34.429 24.453v2.222a1.11 1.11 0 01-1.111 1.11h-11.53c-.235 0-.454-.073-.634-.198l-.103-.082-.093-.093a1.106 1.106 0 01-.28-.737V15.107c0-.613.497-1.11 1.11-1.11h2.222c.614 0 1.11.497 1.11 1.11l.001 8.235h8.197c.613 0 1.11.498 1.11 1.111z" fill="#fff"/></svg>
