<svg xmlns="http://www.w3.org/2000/svg" viewBox="0 0 49 49" fill="none"><path fill-rule="evenodd" clip-rule="evenodd" d="M13.026 39.282v.003h23.128c5.523 0 10-4.477 10-10a9.995 9.995 0 00-4.84-8.567C40.252 12.692 33.382 6.5 25.065 6.5c-8.083 0-14.8 5.851-16.146 13.55a10.003 10.003 0 00-6.159 9.235c0 5.523 4.477 10 10 10 .09 0 .178-.001.267-.003zm7.71-13.066l-.031.227a19.05 19.05 0 00-.133 2.07c-.01.75.05 1.495.18 2.235.13.74.361 1.421.695 2.046.333.63.8 1.141 1.398 1.532l.563-1.274a3.218 3.218 0 01-.782-1.414 7.217 7.217 0 01-.226-1.773c-.005-.63.026-1.242.094-1.836a92.75 92.75 0 01.195-1.602l.031-.234a26.79 26.79 0 01.328-1.805c.136-.599.31-1.185.524-1.758.219-.572.484-1.117.797-1.632a6.942 6.942 0 011.156-1.415l-.367-1.328a5.904 5.904 0 00-1.836 1.422 8.9 8.9 0 00-1.29 1.992 14.063 14.063 0 00-.835 2.282 16.659 16.659 0 00-.461 2.265zm-4.565-2.039l.455-2.617h3.704l.367-2.117h-6.313l-1.96 11.375h2.593l.788-4.531h3.392l.367-2.11h-3.393zm12.15-1.812l.36 2.304 1.14-2.304h2.673l-2.407 4.234 1.07 4.219H28.65l-.43-2.485-1.218 2.485H24.29l2.546-4.453-1.023-4h2.508zm8 4.008l.024-.22c.078-.635.115-1.327.11-2.077a11.659 11.659 0 00-.235-2.242 6.83 6.83 0 00-.758-2.047 4.158 4.158 0 00-1.422-1.508l-.57 1.289c.37.38.628.849.774 1.406.15.557.226 1.149.226 1.774.005.625-.026 1.236-.093 1.835-.063.6-.128 1.13-.196 1.594l-.023.242c-.089.6-.2 1.201-.336 1.805-.136.6-.31 1.185-.524 1.758a9.069 9.069 0 01-.804 1.625 6.817 6.817 0 01-1.164 1.414l.382 1.328a5.72 5.72 0 001.875-1.39 8.816 8.816 0 001.352-2c.37-.745.667-1.51.89-2.297.224-.792.389-1.555.493-2.29z" fill="currentColor"/></svg>
