<svg xmlns="http://www.w3.org/2000/svg" viewBox="0 -0.5 49 49" fill="none"><path d="M23.246 2.353a2 2 0 011.606-.001l17.005 7.443a1.998 1.998 0 011.198 1.831l-.001 7.76c0 8.248-2.73 13.638-6.287 18.013-3.221 3.962-7.753 6.972-12.181 8.431a1.71 1.71 0 01-1.074.006c-1.775-.584-7.603-2.837-12.18-8.49C6.776 31.72 5.111 26.25 5.111 18.988c0-1.675-.005-4.993-.007-7.362 0-.794.469-1.512 1.195-1.83l16.947-7.442z" fill="url(#aqosvg_51554854b3__paint0_linear_7496_35605)"/><path d="M18.44 18.466a6.244 6.244 0 015.54-3.365 6.24 6.24 0 016.122 5.031c2.166.15 3.874 1.933 3.874 4.132 0 2.3-1.866 4.165-4.165 4.165H18.98a5.002 5.002 0 01-4.999-4.998 4.993 4.993 0 014.457-4.965z" fill="#fff"/><defs><linearGradient id="aqosvg_51554854b3__paint0_linear_7496_35605" x1="24.08" y1="2" x2="24.08" y2="46" gradientUnits="userSpaceOnUse"><stop stop-color="#818A9C"/><stop offset="1" stop-color="#353D51"/></linearGradient></defs></svg>
