<svg xmlns="http://www.w3.org/2000/svg" viewBox="0 0 48 48" fill="none"><path d="M23.999 7.516c7.977 0 14.591 6 15.816 13.853a10.057 10.057 0 015.685 9.059c0 5.553-4.503 10.055-10.057 10.055H24.068l-.069.001H12.556C7.002 40.483 2.5 35.98 2.5 30.427c0-3.987 2.32-7.432 5.683-9.059 1.224-7.853 7.839-13.853 15.816-13.853z" fill="url(#abqsvg_2c6be8fdb6__paint0_linear_99119_8240)"/><g filter="url(#abqsvg_2c6be8fdb6__filter0_d_99119_8240)"><path d="M22.33 15.863v6.262h.001v12.014h-4.286V23.445h-3.298l7.583-7.582z" fill="#fff"/></g><path d="M25.67 34.137v-6.262h-.001V15.861h4.286v10.694h3.298l-7.583 7.582z" fill="#B5BCC9"/><defs><linearGradient id="abqsvg_2c6be8fdb6__paint0_linear_99119_8240" x1="24" y1="7.516" x2="24" y2="40.484" gradientUnits="userSpaceOnUse"><stop stop-color="#818A9C"/><stop offset="1" stop-color="#353D51"/></linearGradient><filter id="abqsvg_2c6be8fdb6__filter0_d_99119_8240" x="6.747" y="9.863" width="23.584" height="34.275" filterUnits="userSpaceOnUse" color-interpolation-filters="sRGB"><feFlood flood-opacity="0" result="BackgroundImageFix"/><feColorMatrix in="SourceAlpha" values="0 0 0 0 0 0 0 0 0 0 0 0 0 0 0 0 0 0 127 0" result="hardAlpha"/><feOffset dy="2"/><feGaussianBlur stdDeviation="4"/><feComposite in2="hardAlpha" operator="out"/><feColorMatrix values="0 0 0 0 0 0 0 0 0 0 0 0 0 0 0 0 0 0 0.15 0"/><feBlend in2="BackgroundImageFix" result="effect1_dropShadow_99119_8240"/><feBlend in="SourceGraphic" in2="effect1_dropShadow_99119_8240" result="shape"/></filter></defs></svg>
