<svg xmlns="http://www.w3.org/2000/svg" viewBox="0 0 49 49" fill="none"><path fill-rule="evenodd" clip-rule="evenodd" d="M44.76 24.712c0 3.588-.946 6.956-2.6 9.868-.434-.716-1.174-1.65-2.199-2.256-1.172-.693-2.312-.623-3.279-.564-.513.031-.977.06-1.371-.03-.45-.102-.72-.493-1.068-.994-.534-.77-1.25-1.8-3.068-2.445-1.397-.495-3.265-.502-4.923.09v-.976h1.784c1.081 0 2.012-.207 2.793-.623a4.438 4.438 0 001.815-1.762c.43-.752.645-1.632.645-2.642 0-1.024-.215-1.934-.645-2.729a4.66 4.66 0 00-1.815-1.89c-.781-.459-1.712-.688-2.793-.688h-5.457v15.057a5.896 5.896 0 00-.166.829c-.454 3.557 1.409 5.343 3.106 6.97.468.45.924.886 1.315 1.345 1.201 1.41 1.03 2.609.678 3.252-.9.124-1.819.188-2.753.188-11.045 0-20-8.954-20-20 0-8.661 5.506-16.036 13.208-18.817-6.42 2.318-11.314 7.828-12.765 14.615.134.134.288.271.461.408 1.233.975 3.064.409 4.357.008.553-.17 1.008-.311 1.276-.288.424.037 1.004.66 1.679 1.387.744.8 1.605 1.726 2.503 2.13.383.172.756.31 1.117.41v8.147h3.663v-8.986c.26-.283.493-.628.699-1.039.889-1.772.597-3.931-.421-5.754-.24-.43-.505-.73-.768-1.027-.506-.573-1.01-1.143-1.338-2.649.453-.387.807-.493 1.323-.647.523-.156 1.212-.361 2.338-.96 1.886-1.003 3.018-4.516 3.512-6.92 10.654.442 19.156 9.219 19.156 19.982zm-18.508-4.73v4.512h1.784c.365 0 .659-.09.88-.268.23-.18.394-.427.495-.742.107-.322.16-.684.16-1.085 0-.43-.053-.827-.16-1.192-.1-.365-.265-.659-.495-.88-.221-.23-.515-.345-.88-.345h-1.784z" fill="currentColor"/><path opacity=".5" fill-rule="evenodd" clip-rule="evenodd" d="M22.091 11.65c1.886-1.003 3.018-4.516 3.512-6.92a20.35 20.35 0 00-.844-.018c-9.604 0-17.627 6.77-19.557 15.798.134.135.288.271.461.408 1.233.975 3.064.409 4.357.008.553-.17 1.008-.311 1.276-.288.424.037 1.004.66 1.679 1.387.744.8 1.605 1.727 2.503 2.13.383.172.756.31 1.117.41V17.07h3.663v6.655c.26-.283.493-.628.699-1.039.889-1.772.597-3.931-.421-5.754-.24-.43-.505-.73-.768-1.027-.506-.573-1.01-1.143-1.338-2.649.453-.387.807-.493 1.323-.647.523-.156 1.212-.361 2.338-.96zm17.87 20.674c1.025.607 1.765 1.54 2.199 2.256-3.009 5.293-8.362 9.079-14.648 9.944.352-.643.523-1.843-.678-3.252-.391-.459-.847-.896-1.315-1.344-1.697-1.628-3.56-3.414-3.106-6.971.037-.29.093-.566.166-.829v.584h3.673V28.38c1.658-.592 3.526-.585 4.923-.09 1.819.645 2.534 1.675 3.068 2.445.348.501.619.892 1.068.994.394.09.858.061 1.371.03.967-.06 2.107-.13 3.279.564z" fill="currentColor"/></svg>
