<svg xmlns="http://www.w3.org/2000/svg" viewBox="0 0 48 48" fill="none"><path fill-rule="evenodd" clip-rule="evenodd" d="M24.809.68a2.018 2.018 0 00-1.682 0L5.252 8.853C4.49 9.201 3.999 9.983 4 10.85l.003 3.586.004 4.503c0 7.97 1.755 12.973 6.557 19.15 4.827 6.206 10.974 8.678 12.84 9.317.368.126.76.12 1.126-.007 4.668-1.601 9.446-4.904 12.842-9.254 3.749-4.801 6.626-9.716 6.626-18.767L44 10.85c0-.867-.492-1.65-1.255-1.997L24.81.679z" fill="url(#abwsvg_26109923d3__paint0_linear_42970_7606)"/><g filter="url(#abwsvg_26109923d3__filter0_d_42970_7606)"><path fill-rule="evenodd" clip-rule="evenodd" d="M21.885 10.43h4.23v3.174h4.231V10.43h4.232l-.808 6.388a1 1 0 01-.992.875H15.123a1 1 0 01-.992-.875l-.807-6.388h4.33v3.173h4.231V10.43z" fill="color(display-p3 .7088 .7369 .7875)"/></g><path fill-rule="evenodd" clip-rule="evenodd" d="M36.273 39.463l-2.47-17.596a1 1 0 00-.99-.861H15.186a1 1 0 00-.99.86l-2.473 17.615c4.607 5.19 9.961 7.335 11.681 7.924.367.125.758.12 1.125-.007 4.184-1.435 8.456-4.238 11.743-7.935z" fill="color(display-p3 .7088 .7369 .7875)"/><g filter="url(#abwsvg_26109923d3__filter1_d_42970_7606)"><path fill-rule="evenodd" clip-rule="evenodd" d="M25.563 31.836a3.049 3.049 0 10-3.126 0l-1.644 6.78h6.414l-1.644-6.78z" fill="#fff"/></g><defs><filter id="abwsvg_26109923d3__filter0_d_42970_7606" x="5.907" y="4.868" width="36.087" height="22.096" filterUnits="userSpaceOnUse" color-interpolation-filters="sRGB"><feFlood flood-opacity="0" result="BackgroundImageFix"/><feColorMatrix in="SourceAlpha" values="0 0 0 0 0 0 0 0 0 0 0 0 0 0 0 0 0 0 127 0" result="hardAlpha"/><feOffset dy="1.854"/><feGaussianBlur stdDeviation="3.708"/><feComposite in2="hardAlpha" operator="out"/><feColorMatrix values="0 0 0 0 0 0 0 0 0 0 0 0 0 0 0 0 0 0 0.15 0"/><feBlend in2="BackgroundImageFix" result="effect1_dropShadow_42970_7606"/><feBlend in="SourceGraphic" in2="effect1_dropShadow_42970_7606" result="shape"/></filter><filter id="abwsvg_26109923d3__filter1_d_42970_7606" x="13.376" y="20.607" width="21.248" height="27.279" filterUnits="userSpaceOnUse" color-interpolation-filters="sRGB"><feFlood flood-opacity="0" result="BackgroundImageFix"/><feColorMatrix in="SourceAlpha" values="0 0 0 0 0 0 0 0 0 0 0 0 0 0 0 0 0 0 127 0" result="hardAlpha"/><feOffset dy="1.854"/><feGaussianBlur stdDeviation="3.708"/><feComposite in2="hardAlpha" operator="out"/><feColorMatrix values="0 0 0 0 0 0 0 0 0 0 0 0 0 0 0 0 0 0 0.15 0"/><feBlend in2="BackgroundImageFix" result="effect1_dropShadow_42970_7606"/><feBlend in="SourceGraphic" in2="effect1_dropShadow_42970_7606" result="shape"/></filter><linearGradient id="abwsvg_26109923d3__paint0_linear_42970_7606" x1="24" y1=".496" x2="24" y2="47.496" gradientUnits="userSpaceOnUse"><stop stop-color="color(display-p3 .5053 .5426 .6125)"/><stop offset="1" stop-color="color(display-p3 .2072 .2396 .3167)"/></linearGradient></defs></svg>
