<svg xmlns="http://www.w3.org/2000/svg" viewBox="0 -0.5 49 49" fill="none"><path d="M12.76 5h27.81c1.913 0 3.46 1.564 3.46 3.476l.015 26.698c.001.892-1.077 1.338-1.707.708l-5.244-5.244H12.76a3.487 3.487 0 01-3.476-3.476V8.476A3.487 3.487 0 0112.76 5z" fill="#B5BCC9"/><path d="M35.733 12.565H7.36c-1.803 0-3.263 1.475-3.263 3.279L4.081 42.94c0 .892 1.077 1.338 1.708.708l4.85-4.85h25.094a3.289 3.289 0 003.28-3.28V15.845a3.289 3.289 0 00-3.28-3.28z" fill="url(#aqbsvg_ed2fe40525__paint0_linear_7496_35647)"/><g filter="url(#aqbsvg_ed2fe40525__filter0_d_7496_35647)"><path fill-rule="evenodd" clip-rule="evenodd" d="M26.996 23.225c.183.544.555 1.01.996 1.377a3.508 3.508 0 01-2.237 6.21H21.6a4.717 4.717 0 01-.107 0h-4.155a3.508 3.508 0 01-2.238-6.21c.441-.366.813-.833.996-1.376a5.752 5.752 0 0110.9-.001z" fill="#fff"/></g><defs><linearGradient id="aqbsvg_ed2fe40525__paint0_linear_7496_35647" x1="21.546" y1="12.565" x2="21.546" y2="45.358" gradientUnits="userSpaceOnUse"><stop stop-color="#818A9C"/><stop offset="1" stop-color="#353D51"/></linearGradient><filter id="aqbsvg_ed2fe40525__filter0_d_7496_35647" x="6.914" y="14.125" width="29.264" height="25.33" filterUnits="userSpaceOnUse" color-interpolation-filters="sRGB"><feFlood flood-opacity="0" result="BackgroundImageFix"/><feColorMatrix in="SourceAlpha" values="0 0 0 0 0 0 0 0 0 0 0 0 0 0 0 0 0 0 127 0" result="hardAlpha"/><feOffset dy="1.729"/><feGaussianBlur stdDeviation="3.458"/><feComposite in2="hardAlpha" operator="out"/><feColorMatrix values="0 0 0 0 0 0 0 0 0 0 0 0 0 0 0 0 0 0 0.15 0"/><feBlend in2="BackgroundImageFix" result="effect1_dropShadow_7496_35647"/><feBlend in="SourceGraphic" in2="effect1_dropShadow_7496_35647" result="shape"/></filter></defs></svg>
