<svg xmlns="http://www.w3.org/2000/svg" viewBox="0 0 48 48" fill="none"><path d="M30 38h2.26v-1.118a.2.2 0 01.3-.173l5.4 3.117a.2.2 0 010 .347l-5.4 3.118a.2.2 0 01-.3-.174V42H28.5a2.5 2.5 0 01-2.5-2.5V35h4v3zm-8 1.5a2.5 2.5 0 01-2.5 2.5h-3.24a1 1 0 01-1 1h-4a1 1 0 01-1-1v-5h5a1 1 0 011 1H18v-3h4v4.5z" fill="#B5BCC9"/><path d="M23.999 6c7.32 0 13.392 5.332 14.549 12.323A8.998 8.998 0 0134.797 35.5H13.202a8.998 8.998 0 01-3.754-17.176C10.605 11.332 16.68 6 24 6z" fill="url(#abpsvg_2778ece33a__paint0_linear_99119_8060)"/><defs><linearGradient id="abpsvg_2778ece33a__paint0_linear_99119_8060" x1="24" y1="6" x2="24" y2="35.499" gradientUnits="userSpaceOnUse"><stop stop-color="#818A9C"/><stop offset="1" stop-color="#353D51"/></linearGradient></defs></svg>
