<svg xmlns="http://www.w3.org/2000/svg" viewBox="0 -0.5 49 49" fill="none"><path opacity=".5" d="M14.76 36.785V42a2 2 0 002 2h16a2 2 0 002-2v-5.215h-20z" fill="currentColor"/><path fill-rule="evenodd" clip-rule="evenodd" d="M13.026 36.785v-.003l-.267.003c-5.523 0-10-4.477-10-10 0-4.162 2.543-7.73 6.159-9.236C10.264 9.851 16.981 4 25.065 4c8.316 0 15.186 6.192 16.25 14.218a9.995 9.995 0 014.84 8.567c0 5.523-4.478 10-10 10h-23.13zm9.923-22.966a.446.446 0 01.786.03l5.059 10.486 2.205-2.764h4.517c.246 0 .445.2.445.446v2.675c0 .246-.2.446-.445.446h-2.8l-4.229 5.298a.446.446 0 01-.75-.084l-4.664-9.668-2.598 4.454h-6.472a.446.446 0 01-.445-.446v-2.675c0-.246.2-.446.445-.446h4.424l4.522-7.752z" fill="currentColor"/></svg>
