<svg xmlns="http://www.w3.org/2000/svg" viewBox="0 0 48 48" fill="none"><circle cx="24" cy="24" r="19" fill="url(#aqksvg_c2c37cb859__paint0_linear_7496_35623)"/><mask id="aqka" style="mask-type:alpha" maskUnits="userSpaceOnUse" x="5" y="5" width="38" height="38"><circle cx="24" cy="24" r="19" fill="#5E6673"/></mask><g mask="url(#aqka)"><path fill="#B5BCC9" d="M5 17.154h38v14.27H5z"/><path fill-rule="evenodd" clip-rule="evenodd" d="M43.858 18.824H4.143v-3h39.715v3zM43.858 32.176H4.143v-3h39.715v3z" fill="#fff"/><path fill-rule="evenodd" clip-rule="evenodd" d="M31.207 9.64c1.235 3.81 1.95 8.887 1.95 14.36 0 5.473-.715 10.55-1.95 14.36-.612 1.889-1.406 3.635-2.43 4.971C27.787 44.624 26.2 46 24 46c-2.2 0-3.787-1.376-4.778-2.669-1.024-1.337-1.818-3.082-2.43-4.971-1.235-3.81-1.95-8.887-1.95-14.36 0-5.473.715-10.55 1.95-14.36.612-1.889 1.406-3.635 2.43-4.971C20.211 3.376 21.799 2 23.999 2c2.2 0 3.787 1.376 4.778 2.669 1.024 1.336 1.818 3.082 2.43 4.971zM30.157 24c0-10.493-2.757-19-6.158-19-3.4 0-6.157 8.507-6.157 19s2.757 19 6.157 19 6.157-8.507 6.157-19z" fill="#fff"/></g><defs><linearGradient id="aqksvg_c2c37cb859__paint0_linear_7496_35623" x1="24" y1="5" x2="24" y2="43" gradientUnits="userSpaceOnUse"><stop stop-color="#353D51"/><stop offset="1" stop-color="#818A9C"/></linearGradient></defs></svg>
