<svg xmlns="http://www.w3.org/2000/svg" viewBox="0 0 20 20" fill="none"><g clip-path="url(#abysvg_e929bd3c4e__svg_a9e5aed6c5__clip0_2639_27446)"><g clip-path="url(#abysvg_e929bd3c4e__svg_a9e5aed6c5__clip1_2639_27446)"><path opacity=".5" d="M10.36 11.11l-.7-1.14-.1-.06-1.12 1.52H5.55c-.11 0-.2-.07-.2-.16v-.94c0-.09.09-.16.2-.16h1.97l.75-1.01-5.16-2.97A.81.81 0 003 6.6v7.56c0 .29.17.55.42.7l6.52 3.76c.13.08.28.11.43.11v-7.62h-.01z" fill="currentColor"/><path d="M17.29 5.87l-6.52-3.76a.822.822 0 00-.83 0L3.42 5.87c-.13.07-.23.18-.3.3l5.16 2.98 1.27-1.72c.08-.11.28-.1.35.01l2.26 3.7.98-.97h2.02c.11 0 .2.07.2.16v.94c0 .09-.09.16-.2.16h-1.25l-1.89 1.87c-.09.09-.27.07-.33-.03l-1.32-2.16v7.61c.14 0 .28-.04.41-.11l6.52-3.76c.26-.15.42-.42.42-.72V6.6c0-.3-.16-.57-.42-.72l-.01-.01z" fill="currentColor"/></g></g><defs><clipPath id="abysvg_e929bd3c4e__svg_a9e5aed6c5__clip0_2639_27446"><path d="M0 0h20v20H0z" fill="currentColor"/></clipPath><clipPath id="abysvg_e929bd3c4e__svg_a9e5aed6c5__clip1_2639_27446"><path transform="translate(3 2)" d="M0 0h14.7v16.73H0z" fill="currentColor"/></clipPath></defs></svg>
