<svg xmlns="http://www.w3.org/2000/svg" viewBox="0 0 48 48" fill="none"><path fill-rule="evenodd" clip-rule="evenodd" d="M24.741 3.28a1.94 1.94 0 00-1.541 0L6.814 10.392a1.894 1.894 0 00-1.147 1.736 8574.642 8574.642 0 00.006 7.038c0 6.934 1.61 12.156 6.011 17.529 4.425 5.4 10.06 7.55 11.77 8.106.337.11.695.104 1.032-.006 4.279-1.393 8.659-4.267 11.772-8.05 3.436-4.178 6.073-9.324 6.073-17.198l.002-7.417c0-.754-.451-1.435-1.15-1.737L24.741 3.28zm-9.885 18.173a.83.83 0 000 1.174l3.734 3.733a.83.83 0 001.173 0l1.584-1.584a.83.83 0 00.142-.984l1.827-1.826 7.842 7.842a.83.83 0 001.173 0l1.655-1.655a.83.83 0 000-1.173l-7.842-7.843 1.817-1.816a.83.83 0 001.033-.113l1.584-1.584a.83.83 0 000-1.174l-3.734-3.733a.83.83 0 00-1.173 0L24.087 12.3a.83.83 0 00-.047 1.123l-6.435 6.436a.83.83 0 00-1.165.009l-1.584 1.584zM24.3 35.245a1 1 0 001-1v-1.6a1 1 0 00-1-1h-6.95a1 1 0 00-1 1v1.6a1 1 0 001 1h6.95z" fill="currentColor"/></svg>
