<svg xmlns="http://www.w3.org/2000/svg" viewBox="0 0 48 48" fill="none"><g clip-path="url(#arlsvg_869d7b08ed__clip0)"><path fill-rule="evenodd" clip-rule="evenodd" d="M24 46C11.85 46 2 36.15 2 24S11.85 2 24 2s22 9.85 22 22-9.85 22-22 22zm0-4c9.941 0 18-8.059 18-18S33.941 6 24 6 6 14.059 6 24s8.059 18 18 18zm10.53-27.265a1 1 0 00-1.265-1.265l-14.372 4.79a1 1 0 00-.632.633l-4.79 14.372a1 1 0 001.264 1.265l14.372-4.79a1 1 0 00.632-.633l4.79-14.372zM26.419 26.42l-7.257 2.419 2.42-7.257 7.256-2.419-2.42 7.257z" fill="currentColor"/></g><defs><clipPath id="arlsvg_869d7b08ed__clip0"><path d="M0 0h48v48H0z" fill="currentColor"/></clipPath></defs></svg>
