<svg xmlns="http://www.w3.org/2000/svg" viewBox="0 0 20 20" fill="none"><path fill-rule="evenodd" clip-rule="evenodd" d="M10.71 1.346a1.429 1.429 0 00-1.42 0L2.803 5.058c-.444.254-.719.727-.719 1.24v7.401c0 .512.275.986.72 1.24l6.488 3.712c.44.252.979.252 1.418 0l3.375-1.93a3.132 3.132 0 01-.513-1.723c0-.697.227-1.341.611-1.863l-.37-.213a4.799 4.799 0 01-3.188 1.84v.873a.625.625 0 11-1.25 0v-.874a4.8 4.8 0 01-3.186-1.84l-.756.437a.625.625 0 01-.625-1.083l.755-.436A4.789 4.789 0 015.197 10c0-.653.13-1.274.365-1.84l-.757-.437a.625.625 0 01.625-1.083l.757.437a4.8 4.8 0 013.187-1.84v-.874a.625.625 0 111.25 0v.873a4.8 4.8 0 013.189 1.84l.756-.436a.625.625 0 11.625 1.083l-.755.436a4.79 4.79 0 01.365 1.84c0 .653-.13 1.275-.366 1.842l.728.42c.458-.26.988-.408 1.552-.408.424 0 .83.084 1.199.236v-5.79c0-.513-.275-.986-.72-1.24L10.71 1.346zm-.086 5.153a3.55 3.55 0 012.093 1.21l-2.093 1.208V6.499zM6.657 8.791L8.75 9.999l-2.092 1.208a3.547 3.547 0 01-.211-1.209c0-.424.074-.83.21-1.207zm2.717 2.29l-2.09 1.208a3.55 3.55 0 002.09 1.208v-2.415zm3.97-2.29L11.25 9.998l2.093 1.208c.136-.377.21-.784.21-1.209 0-.424-.074-.83-.21-1.208zm-3.97.125L7.283 7.708A3.55 3.55 0 019.374 6.5v2.416zm1.25 2.165v2.416a3.55 3.55 0 002.093-1.208l-2.093-1.208z" fill="currentColor"/><path opacity=".5" fill-rule="evenodd" clip-rule="evenodd" d="M16.644 18.112a3.146 3.146 0 100-6.293 3.146 3.146 0 000 6.293zm1.625-3.94a.137.137 0 000-.194l-.337-.332a.136.136 0 00-.194 0l-1.556 1.575a.136.136 0 01-.195 0l-.437-.442a.137.137 0 00-.193-.001l-.337.333a.137.137 0 000 .193l.967.979c.054.054.141.054.194 0l2.088-2.112z" fill="currentColor"/></svg>
