<svg xmlns="http://www.w3.org/2000/svg" viewBox="0 0 48 48" fill="none"><rect x="7.182" y="24.231" width="18.768" height="18.768" rx="1.982" fill="#B5BCC9"/><path d="M40.598 36.485V15.634a2 2 0 00-.57-1.4l-8.452-8.633A2 2 0 0030.146 5H13.769a2 2 0 00-2 2v29.485a2 2 0 002 2h24.83a2 2 0 002-2z" fill="url(#arrsvg_7d98673dd5__paint0_linear_7496_35665)"/><path d="M11.768 31.15h7.334v7.335h-5.334a2 2 0 01-2-2V31.15z" fill="#fff"/><path fill-rule="evenodd" clip-rule="evenodd" d="M32.961 15.183a5.203 5.203 0 00-7.048 7.183l-9.07 9.07 1.799 1.797 9.07-9.069a5.203 5.203 0 007.132-7.133l-3.567 3.567-1.865-1.866 3.55-3.55z" fill="#fff"/><defs><linearGradient id="arrsvg_7d98673dd5__paint0_linear_7496_35665" x1="26.183" y1="5" x2="26.183" y2="38.485" gradientUnits="userSpaceOnUse"><stop stop-color="#818A9C"/><stop offset="1" stop-color="#353D51"/></linearGradient></defs></svg>
