<svg xmlns="http://www.w3.org/2000/svg" viewBox="0 -0.5 49 49" fill="none"><g clip-path="url(#asbsvg_39762338fd__clip0_7496_35612)"><path d="M14.071 36.889H34.09l.68 4.833a2 2 0 01-1.981 2.279H15.372a2 2 0 01-1.98-2.279l.68-4.833z" fill="#B5BCC9"/><rect x="4.051" y="6.051" width="40.06" height="30.837" rx="2" fill="url(#asbsvg_39762338fd__paint0_linear_7496_35612)"/><path fill-rule="evenodd" clip-rule="evenodd" d="M14.67 12.082h6.5v3h-3.5v3.5h-3v-6.5zM14.67 30.857h6.5v-3h-3.5v-3.5h-3v6.5zM33.49 12.082h-6.5v3h3.5v3.5h3v-6.5z" fill="#B5BCC9"/><path fill-rule="evenodd" clip-rule="evenodd" d="M35.707 23.591L28.498 30.8l-5.225-5.225 2.122-2.121 3.103 3.103 5.088-5.087 2.12 2.121z" fill="#F5F8FD"/></g><defs><linearGradient id="asbsvg_39762338fd__paint0_linear_7496_35612" x1="24.081" y1="6.051" x2="24.081" y2="36.888" gradientUnits="userSpaceOnUse"><stop stop-color="#818A9C"/><stop offset="1" stop-color="#353D51"/></linearGradient><clipPath id="asbsvg_39762338fd__clip0_7496_35612"><path fill="#fff" transform="translate(.08)" d="M0 0h48v48H0z"/></clipPath></defs></svg>
