<svg xmlns="http://www.w3.org/2000/svg" viewBox="0 0 20 20" fill="none"><path fill-rule="evenodd" clip-rule="evenodd" d="M15.928 11.916V3.377c0-.762-.617-1.379-1.378-1.379H4.237c-.761 0-1.379.617-1.379 1.379v12.115c0 .762.618 1.379 1.38 1.379h7.061a3.403 3.403 0 014.63-4.955zM5.25 4.873a.207.207 0 00-.207.207v.938c0 .114.093.207.207.207h2.26v4.7c0 .114.092.207.206.207h.938a.207.207 0 00.207-.207v-4.7h2.257a.207.207 0 00.207-.207V5.08a.207.207 0 00-.207-.207H5.25z" fill="currentColor"/><path opacity=".5" fill-rule="evenodd" clip-rule="evenodd" d="M13.817 17.98a3.403 3.403 0 100-6.806 3.403 3.403 0 000 6.807zm1.716-4.22a.207.207 0 00-.002-.292l-.28-.277a.207.207 0 00-.292.002l-1.6 1.619a.207.207 0 01-.295 0l-.39-.394a.207.207 0 00-.292-.002l-.28.277a.207.207 0 00-.001.293l.963.974a.207.207 0 00.294 0l2.175-2.2z" fill="currentColor"/></svg>
