<svg xmlns="http://www.w3.org/2000/svg" viewBox="0 0 48 48" fill="none"><path d="M23.08 4.29a1.6 1.6 0 011.84 0l17.4 12.21c.426.3.68.79.68 1.31v24.235a1.6 1.6 0 01-1.6 1.6H6.6a1.6 1.6 0 01-1.6-1.6V17.81a1.6 1.6 0 01.68-1.31l17.4-12.21z" fill="url(#arwsvg_e4e2753c72__paint0_linear_7496_35663)"/><path fill-rule="evenodd" clip-rule="evenodd" d="M17.666 32.096a.498.498 0 01-.314.45l-2.778 1.636c-.369.16-.797-.082-.797-.45V21.558c0-.368.428-.61.797-.45l2.778 1.636a.498.498 0 01.314.45v8.902zm16.556 1.636c0 .368-.428.61-.797.45l-2.777-1.636a.498.498 0 01-.315-.45v-8.901c0-.192.122-.368.315-.45l2.777-1.637c.37-.16.797.082.797.45v12.174z" fill="#B5BCC9"/><g filter="url(#arwsvg_e4e2753c72__filter0_d_7496_35663)"><path fill-rule="evenodd" clip-rule="evenodd" d="M26 36.145c0 .277-.203.5-.454.5h-3.091c-.252 0-.455-.223-.455-.5v-17c0-.276.203-.5.454-.5h3.091c.252 0 .455.224.455.5v17z" fill="#fff"/></g><defs><linearGradient id="arwsvg_e4e2753c72__paint0_linear_7496_35663" x1="24" y1="4" x2="24" y2="43.645" gradientUnits="userSpaceOnUse"><stop stop-color="#818A9C"/><stop offset="1" stop-color="#353D51"/></linearGradient><filter id="arwsvg_e4e2753c72__filter0_d_7496_35663" x="14" y="12.646" width="20" height="34" filterUnits="userSpaceOnUse" color-interpolation-filters="sRGB"><feFlood flood-opacity="0" result="BackgroundImageFix"/><feColorMatrix in="SourceAlpha" values="0 0 0 0 0 0 0 0 0 0 0 0 0 0 0 0 0 0 127 0" result="hardAlpha"/><feOffset dy="2"/><feGaussianBlur stdDeviation="4"/><feComposite in2="hardAlpha" operator="out"/><feColorMatrix values="0 0 0 0 0 0 0 0 0 0 0 0 0 0 0 0 0 0 0.15 0"/><feBlend in2="BackgroundImageFix" result="effect1_dropShadow_7496_35663"/><feBlend in="SourceGraphic" in2="effect1_dropShadow_7496_35663" result="shape"/></filter></defs></svg>
