<svg xmlns="http://www.w3.org/2000/svg" viewBox="0 0 48 48" fill="none"><circle cx="24" cy="23.996" r="20" fill="url(#arzsvg_f888079e0f__paint0_linear_7496_35673)"/><path d="M38.142 9.854a20 20 0 00-28.284 0l7.873 7.873a8.863 8.863 0 0112.538 0l7.873-7.873z" fill="#B5BCC9"/><path fill="#fff" d="M31.357 28.672l8.222 8.222-2.828 2.829-8.222-8.223z"/><path fill-rule="evenodd" clip-rule="evenodd" d="M24.137 17.635a6.362 6.362 0 100 12.723 6.362 6.362 0 000-12.723zm-10.362 6.362c0-5.723 4.64-10.362 10.362-10.362 5.723 0 10.362 4.639 10.362 10.362 0 5.722-4.64 10.361-10.362 10.361-5.723 0-10.362-4.639-10.362-10.361z" fill="#fff"/><defs><linearGradient id="arzsvg_f888079e0f__paint0_linear_7496_35673" x1="24" y1="3.996" x2="24" y2="43.996" gradientUnits="userSpaceOnUse"><stop stop-color="#818A9C"/><stop offset="1" stop-color="#353D51"/></linearGradient></defs></svg>
