<svg xmlns="http://www.w3.org/2000/svg" viewBox="0 0 48 48" fill="none"><g clip-path="url(#ashsvg_4f968c9705__clip0_49771_253)"><g clip-path="url(#ashsvg_4f968c9705__clip1_49771_253)"><path d="M27.293 19.23c.868-1.506 1.302-2.26 1.754-2.668a3.84 3.84 0 015.143 0c.452.408.886 1.162 1.754 2.669l7.744 13.445c.866 1.503 1.298 2.254 1.424 2.849a3.84 3.84 0 01-2.57 4.447c-.579.188-1.446.188-3.18.188H23.875c-1.733 0-2.6 0-3.178-.188a3.84 3.84 0 01-2.571-4.447c.126-.595.558-1.346 1.424-2.849l7.744-13.445z" fill="url(#ashsvg_4f968c9705__paint0_linear_49771_253)" fill-opacity=".4"/><path d="M7.789 26.705c.868-1.513 1.302-2.27 1.755-2.679a3.84 3.84 0 015.15 0c.452.409.886 1.166 1.754 2.679l3.5 6.098c.862 1.502 1.292 2.253 1.417 2.847a3.84 3.84 0 01-2.572 4.442c-.578.188-1.444.188-3.175.188h-7c-1.73 0-2.596 0-3.174-.188a3.84 3.84 0 01-2.572-4.442c.125-.594.555-1.345 1.417-2.847l3.5-6.098z" fill="url(#ashsvg_4f968c9705__paint1_linear_49771_253)" fill-opacity=".4"/><path d="M19.672 14.925c.868-1.51 1.302-2.265 1.754-2.673a3.84 3.84 0 015.146 0c.452.408.886 1.163 1.755 2.673l10.21 17.754c.864 1.502 1.296 2.253 1.421 2.848a3.84 3.84 0 01-2.571 4.445c-.578.188-1.445.188-3.177.188H13.789c-1.733 0-2.6 0-3.177-.188a3.84 3.84 0 01-2.572-4.445c.126-.595.557-1.346 1.421-2.848l10.21-17.754z" fill="url(#ashsvg_4f968c9705__paint2_linear_49771_253)"/><mask id="asha" style="mask-type:alpha" maskUnits="userSpaceOnUse" x="7" y="11" width="34" height="30"><path d="M19.672 14.925c.868-1.51 1.302-2.265 1.754-2.673a3.84 3.84 0 015.146 0c.452.408.886 1.163 1.755 2.673l10.21 17.754c.864 1.502 1.296 2.253 1.421 2.848a3.84 3.84 0 01-2.571 4.445c-.578.188-1.445.188-3.177.188H13.789c-1.733 0-2.6 0-3.177-.188a3.84 3.84 0 01-2.572-4.445c.126-.595.557-1.346 1.421-2.848l10.21-17.754z" fill="#000"/></mask><g mask="url(#asha)"><g filter="url(#ashsvg_4f968c9705__filter0_f_49771_253)"><path d="M21.495 5.156c-10.28.123.49 6.967 5.008 11.485s11.446 15.771 11.352 4.875c-.015-1.684-.075-8.692-4.132-12.748-3.714-3.715-9.97-3.64-12.228-3.612z" fill="#fff" fill-opacity=".8"/></g><g filter="url(#ashsvg_4f968c9705__filter1_f_49771_253)"><path d="M21.504.03c22.905-3.793 4.05 11.425-.783 18.328C15.887 25.261 5.068 32.553.667 29.334-3.735 26.114-3.5 15.967 1.805 8.393 4.895 3.98 16.1.925 21.504.03z" fill="#FF8CFF" fill-opacity=".6"/></g><g filter="url(#ashsvg_4f968c9705__filter2_f_49771_253)"><path d="M6.1 43.052c-4.442-4.459-3.292-9.4.537-11.075 5.984-2.617 11.19 4.508 14.542 4.658 4.188.187 23.816-4.658 23.816 4.735 0 7.454-33.324 7.275-38.896 1.682z" fill="#4DA6FF" fill-opacity=".8"/></g></g><g filter="url(#ashsvg_4f968c9705__filter3_ii_49771_253)"><rect width="2.4" height="5.4" rx="1.2" transform="matrix(1 0 .13917 .99027 21.119 19.52)" fill="url(#ashsvg_4f968c9705__paint3_linear_49771_253)"/></g><g filter="url(#ashsvg_4f968c9705__filter4_ii_49771_253)"><rect width="2.4" height="5.4" rx="1.2" transform="matrix(1 0 .13917 .99027 26.28 19.52)" fill="url(#ashsvg_4f968c9705__paint4_linear_49771_253)"/></g><path d="M26.4 8.42s5.34-.333 5.34-6.18c0 5.871 5.34 6.18 5.34 6.18s-5.34.309-5.34 6.18c0-5.895-5.34-6.18-5.34-6.18z" fill="url(#ashsvg_4f968c9705__paint5_linear_49771_253)"/></g></g><defs><linearGradient id="ashsvg_4f968c9705__paint0_linear_49771_253" x1="31.619" y1="40.16" x2="31.619" y2="13.984" gradientUnits="userSpaceOnUse"><stop stop-color="#F9F" stop-opacity="0"/><stop offset="1" stop-color="#FFB3FF"/></linearGradient><linearGradient id="ashsvg_4f968c9705__paint1_linear_49771_253" x1="12.119" y1="40.28" x2="12.118" y2="20.841" gradientUnits="userSpaceOnUse"><stop stop-color="#4DD2FF" stop-opacity="0"/><stop offset="1" stop-color="#66D9FF"/></linearGradient><linearGradient id="ashsvg_4f968c9705__paint2_linear_49771_253" x1="25.739" y1="11.18" x2="9.659" y2="40.16" gradientUnits="userSpaceOnUse"><stop stop-color="#D24DFF"/><stop offset="1" stop-color="#6837FA"/></linearGradient><linearGradient id="ashsvg_4f968c9705__paint3_linear_49771_253" x1="1.2" y1="0" x2="1.2" y2="5.4" gradientUnits="userSpaceOnUse"><stop stop-color="#F5EBFF"/><stop offset=".6" stop-color="#fff"/></linearGradient><linearGradient id="ashsvg_4f968c9705__paint4_linear_49771_253" x1="1.2" y1="0" x2="1.2" y2="5.4" gradientUnits="userSpaceOnUse"><stop stop-color="#F5EBFF"/><stop offset=".6" stop-color="#fff"/></linearGradient><linearGradient id="ashsvg_4f968c9705__paint5_linear_49771_253" x1="35.754" y1="11.319" x2="27.238" y2="8.724" gradientUnits="userSpaceOnUse"><stop stop-color="#DE3AFF"/><stop offset=".457" stop-color="#E666FF"/><stop offset="1" stop-color="#FFB2F2"/></linearGradient><filter id="ashsvg_4f968c9705__filter0_f_49771_253" x="6.934" y="-5.105" width="41.176" height="41.483" filterUnits="userSpaceOnUse" color-interpolation-filters="sRGB"><feFlood flood-opacity="0" result="BackgroundImageFix"/><feBlend in="SourceGraphic" in2="BackgroundImageFix" result="shape"/><feGaussianBlur stdDeviation="5.127" result="effect1_foregroundBlur_49771_253"/></filter><filter id="ashsvg_4f968c9705__filter1_f_49771_253" x="-16.332" y="-14.479" width="62.851" height="58.507" filterUnits="userSpaceOnUse" color-interpolation-filters="sRGB"><feFlood flood-opacity="0" result="BackgroundImageFix"/><feBlend in="SourceGraphic" in2="BackgroundImageFix" result="shape"/><feGaussianBlur stdDeviation="6.955" result="effect1_foregroundBlur_49771_253"/></filter><filter id="ashsvg_4f968c9705__filter2_f_49771_253" x="-11.165" y="17" width="70.56" height="44.52" filterUnits="userSpaceOnUse" color-interpolation-filters="sRGB"><feFlood flood-opacity="0" result="BackgroundImageFix"/><feBlend in="SourceGraphic" in2="BackgroundImageFix" result="shape"/><feGaussianBlur stdDeviation="7.2" result="effect1_foregroundBlur_49771_253"/></filter><filter id="ashsvg_4f968c9705__filter3_ii_49771_253" x="21.274" y="19.52" width="2.841" height="6.098" filterUnits="userSpaceOnUse" color-interpolation-filters="sRGB"><feFlood flood-opacity="0" result="BackgroundImageFix"/><feBlend in="SourceGraphic" in2="BackgroundImageFix" result="shape"/><feColorMatrix in="SourceAlpha" values="0 0 0 0 0 0 0 0 0 0 0 0 0 0 0 0 0 0 127 0" result="hardAlpha"/><feOffset/><feGaussianBlur stdDeviation=".038"/><feComposite in2="hardAlpha" operator="arithmetic" k2="-1" k3="1"/><feColorMatrix values="0 0 0 0 1 0 0 0 0 1 0 0 0 0 1 0 0 0 0.9 0"/><feBlend in2="shape" result="effect1_innerShadow_49771_253"/><feColorMatrix in="SourceAlpha" values="0 0 0 0 0 0 0 0 0 0 0 0 0 0 0 0 0 0 127 0" result="hardAlpha"/><feOffset dy=".751"/><feGaussianBlur stdDeviation=".451"/><feComposite in2="hardAlpha" operator="arithmetic" k2="-1" k3="1"/><feColorMatrix values="0 0 0 0 1 0 0 0 0 0.4 0 0 0 0 1 0 0 0 0.2 0"/><feBlend in2="effect1_innerShadow_49771_253" result="effect2_innerShadow_49771_253"/></filter><filter id="ashsvg_4f968c9705__filter4_ii_49771_253" x="26.436" y="19.52" width="2.841" height="6.098" filterUnits="userSpaceOnUse" color-interpolation-filters="sRGB"><feFlood flood-opacity="0" result="BackgroundImageFix"/><feBlend in="SourceGraphic" in2="BackgroundImageFix" result="shape"/><feColorMatrix in="SourceAlpha" values="0 0 0 0 0 0 0 0 0 0 0 0 0 0 0 0 0 0 127 0" result="hardAlpha"/><feOffset/><feGaussianBlur stdDeviation=".038"/><feComposite in2="hardAlpha" operator="arithmetic" k2="-1" k3="1"/><feColorMatrix values="0 0 0 0 1 0 0 0 0 1 0 0 0 0 1 0 0 0 0.9 0"/><feBlend in2="shape" result="effect1_innerShadow_49771_253"/><feColorMatrix in="SourceAlpha" values="0 0 0 0 0 0 0 0 0 0 0 0 0 0 0 0 0 0 127 0" result="hardAlpha"/><feOffset dy=".751"/><feGaussianBlur stdDeviation=".451"/><feComposite in2="hardAlpha" operator="arithmetic" k2="-1" k3="1"/><feColorMatrix values="0 0 0 0 1 0 0 0 0 0.4 0 0 0 0 1 0 0 0 0.2 0"/><feBlend in2="effect1_innerShadow_49771_253" result="effect2_innerShadow_49771_253"/></filter><clipPath id="ashsvg_4f968c9705__clip0_49771_253"><path fill="#fff" d="M0 0h48v48H0z"/></clipPath><clipPath id="ashsvg_4f968c9705__clip1_49771_253"><path fill="#fff" d="M0 0h48v48H0z"/></clipPath></defs></svg>
