<svg xmlns="http://www.w3.org/2000/svg" viewBox="0 0 24 24" fill="none"><rect x="11.958" y="1.329" width="7.109" height="7.109" rx="1" transform="rotate(45 11.958 1.33)" fill="url(#acdsvg_da89135649__paint0_linear_2872_3)"/><rect x="11.958" y="12.99" width="6.845" height="6.845" rx="1" transform="rotate(45 11.958 12.99)" fill="color(display-p3 .7088 .7369 .7875)"/><g filter="url(#acdsvg_da89135649__filter0_d_2872_3)"><path d="M11.251 13.697a1 1 0 011.414 0l1.827 1.827-2.18 2.18a.5.5 0 01-.707 0l-2.18-2.18 1.826-1.827z" fill="#fff"/></g><rect x="6.127" y="7.16" width="7.109" height="7.109" rx="1" transform="rotate(45 6.127 7.16)" fill="url(#acdsvg_da89135649__paint1_linear_2872_3)"/><rect x="17.873" y="7.244" width="7.109" height="7.109" rx="1" transform="rotate(45 17.873 7.244)" fill="url(#acdsvg_da89135649__paint2_linear_2872_3)"/><defs><linearGradient id="acdsvg_da89135649__paint0_linear_2872_3" x1="15.512" y1="1.329" x2="15.512" y2="8.438" gradientUnits="userSpaceOnUse"><stop stop-color="color(display-p3 .5059 .5412 .6118)"/><stop offset="1" stop-color="color(display-p3 .2078 .2392 .3176)"/></linearGradient><linearGradient id="acdsvg_da89135649__paint1_linear_2872_3" x1="9.682" y1="7.16" x2="9.682" y2="14.269" gradientUnits="userSpaceOnUse"><stop stop-color="color(display-p3 .5059 .5412 .6118)"/><stop offset="1" stop-color="color(display-p3 .2078 .2392 .3176)"/></linearGradient><linearGradient id="acdsvg_da89135649__paint2_linear_2872_3" x1="21.427" y1="7.244" x2="21.427" y2="14.353" gradientUnits="userSpaceOnUse"><stop stop-color="color(display-p3 .5059 .5412 .6118)"/><stop offset="1" stop-color="color(display-p3 .2078 .2392 .3176)"/></linearGradient><filter id="acdsvg_da89135649__filter0_d_2872_3" x="6.424" y="11.404" width="11.068" height="10.446" filterUnits="userSpaceOnUse" color-interpolation-filters="sRGB"><feFlood flood-opacity="0" result="BackgroundImageFix"/><feColorMatrix in="SourceAlpha" values="0 0 0 0 0 0 0 0 0 0 0 0 0 0 0 0 0 0 127 0" result="hardAlpha"/><feOffset dy="1"/><feGaussianBlur stdDeviation="1.5"/><feComposite in2="hardAlpha" operator="out"/><feColorMatrix values="0 0 0 0 0 0 0 0 0 0 0 0 0 0 0 0 0 0 0.15 0"/><feBlend in2="BackgroundImageFix" result="effect1_dropShadow_2872_3"/><feBlend in="SourceGraphic" in2="effect1_dropShadow_2872_3" result="shape"/></filter></defs></svg>
