<svg xmlns="http://www.w3.org/2000/svg" viewBox="0 0 48 48" fill="none"><path fill-rule="evenodd" clip-rule="evenodd" d="M43 4a2 2 0 00-2-2H7a2 2 0 00-2 2v40a2 2 0 002 2h34l.15-.005.145-.017h.004l.075-.013.033-.006a2.302 2.302 0 00.283-.081 1.67 1.67 0 00.043-.017l.023-.009c.039-.016.077-.033.114-.05l.026-.014a2.002 2.002 0 00.123-.067l.026-.015a2.119 2.119 0 00.328-.252c.025-.023.049-.047.072-.072l.02-.021.017-.018c.02-.021.038-.043.057-.065l.02-.025.017-.02a2.053 2.053 0 00.133-.193l.01-.018.015-.025A1.975 1.975 0 0043 44V4zM9 28h7.277c3.095 3.442 8.234 4.497 12.528 2.258A10.39 10.39 0 0031.72 28H39v14H9V28zm30-10H9v6h9.333a6.391 6.391 0 0011.334 0H39v-6zM9 6h30v8H9V6z" fill="currentColor"/></svg>
