<svg xmlns="http://www.w3.org/2000/svg" viewBox="0 0 48 48" fill="none"><path fill-rule="evenodd" clip-rule="evenodd" d="M33 2l9 9.429V24h-4v-9.962l-8 .001L29.999 6H10v36h14v4H8a2 2 0 01-2-2V4a2 2 0 012-2h25zm4 26a1 1 0 011 1v5h5a1 1 0 011 1v2a1 1 0 01-1 1h-5v5a1 1 0 01-1 1h-2a1 1 0 01-1-1v-5h-5a1 1 0 01-1-1v-2a1 1 0 011-1h5v-5a1 1 0 011-1h2zm-14-1a1 1 0 011 1v2a1 1 0 01-1 1h-8a1 1 0 01-1-1v-2a1 1 0 011-1h8zm6-9a1 1 0 011 1v2a1 1 0 01-1 1H15a1 1 0 01-1-1v-2a1 1 0 011-1h14z" fill="currentColor"/></svg>
