<svg xmlns="http://www.w3.org/2000/svg" viewBox="-1.5 0 51 51" fill="none"><g clip-path="url(#aszsvg_0d4d6f3798__clip0_3120_83718)" fill-rule="evenodd" clip-rule="evenodd"><path d="M2.993 7a2 2 0 012-2h13.96a2 2 0 012 2v2.5H42.9a2 2 0 012 2V21H6.984v19.5h16.963v4H4.993a2 2 0 01-2-2V7zm3.991 2v8H40.91v-3.5H16.962V9H6.984z" fill="currentColor"/><path d="M30.175 40.728v-3.58l.218-.222 3.794 3.802h-4.012zm6.84-2.824l5.259-5.365-3.832-3.84-5.254 5.37 3.826 3.835zm-10.83 6.824v-9.213l12.23-12.5 9.478 9.5L35.92 44.728h-9.736z" fill="currentColor"/></g><defs><clipPath id="aszsvg_0d4d6f3798__clip0_3120_83718"><path d="M0 0h48v50.743H0z" fill="currentColor"/></clipPath></defs></svg>
