<svg xmlns="http://www.w3.org/2000/svg" viewBox="0 -0.5 49 49" fill="none"><g clip-path="url(#atqsvg_eb55a6de3f__clip0_7496_35648)"><ellipse cx="24.094" cy="10.786" rx="16.631" ry="7.547" fill="#B5BCC9"/><path fill-rule="evenodd" clip-rule="evenodd" d="M7.463 10.787V23.01c.091 4.128 7.496 7.462 16.615 7.462 9.12 0 16.524-3.334 16.615-7.462l.001-.078V11.245c-.521 3.955-7.754 7.09-16.6 7.09-9.185 0-16.631-3.38-16.631-7.548zm0 14.29v12.22c.091 4.13 7.496 7.464 16.615 7.464 9.12 0 16.524-3.335 16.615-7.463l.001-.078V25.534c-.521 3.955-7.754 7.09-16.6 7.09-9.185 0-16.631-3.38-16.631-7.548z" fill="url(#atqsvg_eb55a6de3f__paint0_linear_7496_35648)"/><g filter="url(#atqsvg_eb55a6de3f__filter0_d_7496_35648)"><circle cx="13.998" cy="22.37" r="2" fill="#fff"/></g><g filter="url(#atqsvg_eb55a6de3f__filter1_d_7496_35648)"><circle cx="13.998" cy="36.672" r="2" fill="#fff"/></g></g><defs><filter id="atqsvg_eb55a6de3f__filter0_d_7496_35648" x="3.998" y="14.37" width="20" height="20" filterUnits="userSpaceOnUse" color-interpolation-filters="sRGB"><feFlood flood-opacity="0" result="BackgroundImageFix"/><feColorMatrix in="SourceAlpha" values="0 0 0 0 0 0 0 0 0 0 0 0 0 0 0 0 0 0 127 0" result="hardAlpha"/><feOffset dy="2"/><feGaussianBlur stdDeviation="4"/><feComposite in2="hardAlpha" operator="out"/><feColorMatrix values="0 0 0 0 0 0 0 0 0 0 0 0 0 0 0 0 0 0 0.15 0"/><feBlend in2="BackgroundImageFix" result="effect1_dropShadow_7496_35648"/><feBlend in="SourceGraphic" in2="effect1_dropShadow_7496_35648" result="shape"/></filter><filter id="atqsvg_eb55a6de3f__filter1_d_7496_35648" x="3.998" y="28.672" width="20" height="20" filterUnits="userSpaceOnUse" color-interpolation-filters="sRGB"><feFlood flood-opacity="0" result="BackgroundImageFix"/><feColorMatrix in="SourceAlpha" values="0 0 0 0 0 0 0 0 0 0 0 0 0 0 0 0 0 0 127 0" result="hardAlpha"/><feOffset dy="2"/><feGaussianBlur stdDeviation="4"/><feComposite in2="hardAlpha" operator="out"/><feColorMatrix values="0 0 0 0 0 0 0 0 0 0 0 0 0 0 0 0 0 0 0.15 0"/><feBlend in2="BackgroundImageFix" result="effect1_dropShadow_7496_35648"/><feBlend in="SourceGraphic" in2="effect1_dropShadow_7496_35648" result="shape"/></filter><linearGradient id="atqsvg_eb55a6de3f__paint0_linear_7496_35648" x1="24.078" y1="10.787" x2="24.078" y2="44.761" gradientUnits="userSpaceOnUse"><stop stop-color="#818A9C"/><stop offset="1" stop-color="#353D51"/></linearGradient><clipPath id="atqsvg_eb55a6de3f__clip0_7496_35648"><path fill="#fff" transform="translate(.08)" d="M0 0h48v48H0z"/></clipPath></defs></svg>
