<svg xmlns="http://www.w3.org/2000/svg" viewBox="0 -0.5 49 49" fill="none"><path d="M23.439 6.171a2 2 0 012 0l14.167 8.18a2 2 0 011 1.731V32.44a2 2 0 01-1 1.732l-14.167 8.18a2 2 0 01-2 0l-14.167-8.18a2 2 0 01-1-1.732V16.082a2 2 0 011-1.732L23.44 6.171z" fill="url(#acgsvg_6db588029c__paint0_linear_14774_6438)"/><path fill-rule="evenodd" clip-rule="evenodd" d="M46.237 14.521a4.998 4.998 0 01-7.955 4.03L12.596 33.157a4.998 4.998 0 11-1.75-3.146L36.34 15.515a4.998 4.998 0 119.897-.993z" fill="#B5BCC9"/><path fill-rule="evenodd" clip-rule="evenodd" d="M2.644 14.521a4.998 4.998 0 007.956 4.03l25.689 14.605a4.998 4.998 0 101.75-3.146L12.542 15.513a4.998 4.998 0 10-9.898-.991z" fill="#B5BCC9"/><g filter="url(#acgsvg_6db588029c__filter0_d_14774_6438)"><circle cx="24.288" cy="24" r="6" fill="#fff"/></g><defs><linearGradient id="acgsvg_6db588029c__paint0_linear_14774_6438" x1="24.439" y1="5.594" x2="24.439" y2="42.929" gradientUnits="userSpaceOnUse"><stop stop-color="#818A9C"/><stop offset="1" stop-color="#353D51"/></linearGradient><filter id="acgsvg_6db588029c__filter0_d_14774_6438" x="10.871" y="12.437" width="26.834" height="26.834" filterUnits="userSpaceOnUse" color-interpolation-filters="sRGB"><feFlood flood-opacity="0" result="BackgroundImageFix"/><feColorMatrix in="SourceAlpha" values="0 0 0 0 0 0 0 0 0 0 0 0 0 0 0 0 0 0 127 0" result="hardAlpha"/><feOffset dy="1.854"/><feGaussianBlur stdDeviation="3.708"/><feComposite in2="hardAlpha" operator="out"/><feColorMatrix values="0 0 0 0 0 0 0 0 0 0 0 0 0 0 0 0 0 0 0.15 0"/><feBlend in2="BackgroundImageFix" result="effect1_dropShadow_14774_6438"/><feBlend in="SourceGraphic" in2="effect1_dropShadow_14774_6438" result="shape"/></filter></defs></svg>
