<svg xmlns="http://www.w3.org/2000/svg" viewBox="0 -0.5 49 49" fill="none"><g clip-path="url(#aumsvg_a21c218df4__clip0_7496_35611)"><rect x="12.046" y="5.042" width="31" height="31" rx="2" fill="#B5BCC9"/><path d="M20.129 6.784a2 2 0 011.606 0l14.904 6.523a1.997 1.997 0 011.199 1.83l-.002 6.76c0 7.335-2.428 12.13-5.592 16.021-2.85 3.507-6.856 6.175-10.776 7.48-.35.117-.722.123-1.072.006-1.644-.548-6.753-2.565-10.776-7.532-4.052-5.006-5.534-9.87-5.534-16.33 0-1.457-.004-4.308-.005-6.404 0-.794.468-1.512 1.195-1.832l14.853-6.522z" fill="url(#aumsvg_a21c218df4__paint0_linear_7496_35611)"/><path d="M13.557 21.246l4.754 4.755-4.754 4.755M21.445 29.89h6.916" stroke="#fff" stroke-width="3"/></g><defs><linearGradient id="aumsvg_a21c218df4__paint0_linear_7496_35611" x1="20.959" y1="6.432" x2="20.959" y2="45.569" gradientUnits="userSpaceOnUse"><stop stop-color="#818A9C"/><stop offset="1" stop-color="#353D51"/></linearGradient><clipPath id="aumsvg_a21c218df4__clip0_7496_35611"><path fill="#fff" transform="translate(.08)" d="M0 0h48v48H0z"/></clipPath></defs></svg>
