<svg xmlns="http://www.w3.org/2000/svg" viewBox="0 -0.5 49 49" fill="none"><path opacity=".5" d="M14.052 27.258h-1.867l3.692-4.422 3.691 4.422h-1.875a7.02 7.02 0 0011.232 5.614c.439-.33 1.065-.336 1.453.052l1.169 1.169c.388.388.39 1.021-.032 1.372a10.66 10.66 0 01-17.463-8.207z" fill="currentColor"/><path fill-rule="evenodd" clip-rule="evenodd" d="M42.76 42.4V16.402a1.6 1.6 0 00-.483-1.145L31.225 4.456A1.6 1.6 0 0030.108 4H8.36a1.6 1.6 0 00-1.6 1.6v36.8a1.6 1.6 0 001.6 1.6h32.8a1.6 1.6 0 001.6-1.6zm-7.294-15.186h1.867l-3.691 4.422-3.692-4.422h1.875A7.02 7.02 0 0020.593 21.6c-.44.33-1.065.336-1.453-.052l-1.17-1.169c-.387-.388-.39-1.021.033-1.372a10.66 10.66 0 0117.463 8.207zm-23.28.044h1.866a10.664 10.664 0 006.58 9.849 10.66 10.66 0 0010.883-1.642c.423-.35.42-.984.032-1.372l-1.17-1.17c-.387-.387-1.013-.38-1.452-.051a7.019 7.019 0 01-11.232-5.614h1.875l-3.691-4.422-3.692 4.422z" fill="currentColor"/></svg>
