<svg xmlns="http://www.w3.org/2000/svg" viewBox="0 0 49 49" fill="none"><path opacity=".5" fill-rule="evenodd" clip-rule="evenodd" d="M42.892 27.915l1.286 1.286a1.892 1.892 0 010 2.696L31.575 44.5h-3.982v-3.982l9.907-9.916 2.696-2.687a1.909 1.909 0 012.696 0z" fill="currentColor"/><path fill-rule="evenodd" clip-rule="evenodd" d="M42.76 27.794V16.902a1.6 1.6 0 00-.483-1.145L31.225 4.956a1.6 1.6 0 00-1.118-.456H8.36a1.6 1.6 0 00-1.6 1.6v36.8a1.6 1.6 0 001.6 1.6h32.8a1.6 1.6 0 001.6-1.6v-9.584L31.575 44.5h-3.982v-3.982l9.907-9.916 2.696-2.687c.7-.7 1.815-.74 2.563-.12zm-13-6.843h-10a1 1 0 00-1 1v2a1 1 0 001 1h10a1 1 0 001-1v-2a1 1 0 00-1-1zm0 10h-10a1 1 0 00-1 1v2a1 1 0 001 1h10a1 1 0 001-1v-2a1 1 0 00-1-1z" fill="currentColor"/></svg>
