<svg xmlns="http://www.w3.org/2000/svg" viewBox="0 -0.5 49 49" fill="none"><g clip-path="url(#auysvg_c5cae95040__clip0_7496_35614)"><rect x="4.051" y="5.962" width="40.06" height="36.029" rx="2" fill="url(#auysvg_c5cae95040__paint0_linear_7496_35614)"/><circle cx="9.254" cy="11.481" r="2" fill="#B5BCC9"/><circle cx="15.02" cy="11.481" r="2" fill="#B5BCC9"/><circle cx="20.785" cy="11.481" r="2" fill="#B5BCC9"/><path d="M11.783 27.877l1.303-5.547h1.375l-.488 2.78-1.29 5.117H11.58l.202-2.35zm-.514-5.547l.807 5.503.092 2.394h-1.336L9.164 22.33h2.105zm4.352 5.386l.815-5.386h2.104l-1.655 7.897H15.55l.072-2.51zm-1.003-5.386l1.316 5.532.202 2.365h-1.114l-1.264-5.102-.47-2.795h1.33zM22.012 27.877l1.303-5.547h1.375l-.488 2.78-1.29 5.117H21.81l.202-2.35zm-.514-5.547l.807 5.503.092 2.394H21.06l-1.668-7.897h2.105zm4.352 5.386l.814-5.386h2.105l-1.655 7.897h-1.336l.072-2.51zm-1.003-5.386l1.316 5.532.202 2.365H25.25l-1.264-5.102-.47-2.795h1.33zM32.241 27.877l1.303-5.547h1.375l-.488 2.78-1.29 5.117h-1.102l.202-2.35zm-.514-5.547l.808 5.503.09 2.394H31.29l-1.668-7.897h2.105zm4.352 5.386l.815-5.386h2.104l-1.655 7.897h-1.336l.072-2.51zm-1.003-5.386l1.316 5.532.202 2.365H35.48l-1.264-5.102-.47-2.795h1.33z" fill="#F5F8FD"/></g><defs><linearGradient id="auysvg_c5cae95040__paint0_linear_7496_35614" x1="24.081" y1="5.962" x2="24.081" y2="41.991" gradientUnits="userSpaceOnUse"><stop stop-color="#818A9C"/><stop offset="1" stop-color="#353D51"/></linearGradient><clipPath id="auysvg_c5cae95040__clip0_7496_35614"><path fill="#fff" transform="translate(.08)" d="M0 0h48v48H0z"/></clipPath></defs></svg>
