<svg xmlns="http://www.w3.org/2000/svg" viewBox="0 0 12 12" fill="none"><path fill-rule="evenodd" clip-rule="evenodd" d="M5.898 3.16a.5.5 0 010 .706l-2.18 2.18 2.118 2.118a.5.5 0 010 .707l-.354.354a.5.5 0 01-.707 0L1.946 6.396a.5.5 0 010-.707l.354-.354a.504.504 0 01.055-.047l2.482-2.482a.5.5 0 01.708 0l.353.353z" fill="currentColor"/><path fill-rule="evenodd" clip-rule="evenodd" d="M9.898 3.16a.5.5 0 010 .706l-2.18 2.18 2.118 2.118a.5.5 0 010 .707l-.354.354a.5.5 0 01-.707 0L5.946 6.396a.5.5 0 010-.707l.354-.354a.504.504 0 01.055-.047l2.482-2.482a.5.5 0 01.708 0l.353.353z" fill="currentColor"/></svg>
