<svg xmlns="http://www.w3.org/2000/svg" viewBox="0 0 48 48" fill="none"><g clip-path="url(#avcsvg_60e45d7e25__clip0_94111_210083)"><path fill-rule="evenodd" clip-rule="evenodd" d="M15.319 23.17a2 2 0 00-2.829 0l-1.414 1.413a2 2 0 000 2.829l9.928 9.928c.058.077.122.151.192.221l1.414 1.415a2 2 0 002.829 0l11.313-11.314a2 2 0 000-2.829l-1.414-1.414a2 2 0 00-2.828 0l-8.47 8.47-8.721-8.72zm0-14.146a2 2 0 00-2.829 0l-1.414 1.414a2 2 0 000 2.828l9.928 9.929c.058.077.122.15.192.221l1.414 1.414a2 2 0 002.829 0l11.313-11.314a2 2 0 000-2.828l-1.414-1.414a2 2 0 00-2.828 0l-8.47 8.47-8.721-8.72z" fill="currentColor"/></g><defs><clipPath id="avcsvg_60e45d7e25__clip0_94111_210083"><path d="M0 0h48v48H0z" fill="currentColor"/></clipPath></defs></svg>
