<svg xmlns="http://www.w3.org/2000/svg" viewBox="0 0 12 12" fill="none"><path fill-rule="evenodd" clip-rule="evenodd" d="M6.102 3.16a.5.5 0 000 .706l2.18 2.18-2.118 2.118a.5.5 0 000 .707l.354.354a.5.5 0 00.707 0l2.829-2.829a.5.5 0 000-.707L9.7 5.335a.504.504 0 00-.055-.047L7.163 2.806a.5.5 0 00-.708 0l-.353.353z" fill="currentColor"/><path fill-rule="evenodd" clip-rule="evenodd" d="M2.102 3.16a.5.5 0 000 .706l2.18 2.18-2.118 2.118a.5.5 0 000 .707l.354.354a.5.5 0 00.707 0l2.828-2.829a.5.5 0 000-.707L5.7 5.335a.504.504 0 00-.055-.047L3.163 2.806a.5.5 0 00-.708 0l-.353.353z" fill="currentColor"/></svg>
