<svg xmlns="http://www.w3.org/2000/svg" viewBox="0 0 48 48" fill="none"><path d="M13.685 29.515c.258-5.6 2.809-8.955 3.805-10.059-4.866 3.071-8.096 8.444-9.487 12.4v1.67c0 4.58 4.067 8.294 9.084 8.294 1.16 0 2.263-.202 3.285-.562.529-.18 1.044-.37 1.55-.563a19.123 19.123 0 003.35-4.467c-7.28 3.63-11.9.108-11.587-6.713z" fill="#1E37FF"/><path d="M39.449 21.346c-1.808-1.344-6.133-3.586-11.038-4.179.442 5.66.137 13.082-3.136 19.06a19.092 19.092 0 01-3.35 4.468c5.618-2.16 10.068-5.159 12.83-7.787 4.208-4.007 5.003-7.731 5.016-9.939a4.22 4.22 0 00-.322-1.619v-.004z" fill="#37E1BE"/><path d="M27.108 8.787C25.094 7.044 22.547 6 19.772 6c-2.774 0-5.23 1.01-7.228 2.697C9.928 10.91 8.19 14.294 8 18.13v13.73c1.392-3.955 4.621-9.328 9.488-12.399a16.664 16.664 0 012.34-1.237c2.813-1.194 5.79-1.391 8.577-1.052-.33-4.226-1.07-7.464-1.297-8.384z" fill="#A569FF"/><path d="M31.589 13.404a408.247 408.247 0 01-1.615-1.632l-.876-.928c-1.203-1.24-1.989-2.057-1.989-2.057.228.92.967 4.158 1.297 8.384 4.91.593 9.23 2.835 11.038 4.179-1.95-1.903-5.188-5.201-7.86-7.942l.005-.004z" fill="#1E37FF"/></svg>
