<svg xmlns="http://www.w3.org/2000/svg" viewBox="0 0 12 12" fill="none"><path fill-rule="evenodd" clip-rule="evenodd" d="M8 8.75a.25.25 0 01.25.25v1a.25.25 0 01-.25.25H7a.25.25 0 01-.25-.25V9A.25.25 0 017 8.75h1zm-3 0a.25.25 0 01.25.25v1a.25.25 0 01-.25.25H4a.25.25 0 01-.25-.25V9A.25.25 0 014 8.75h1zm2-3.5h1a.25.25 0 01.25.25v1a.25.25 0 01-.25.25H7a.25.25 0 01-.25-.25v-1A.25.25 0 017 5.25zm-3 0h1a.25.25 0 01.25.25v1a.25.25 0 01-.25.25H4a.25.25 0 01-.25-.25v-1A.25.25 0 014 5.25zm4-3.5a.25.25 0 01.25.25v1a.25.25 0 01-.25.25H7A.25.25 0 016.75 3V2A.25.25 0 017 1.75h1zm-3 0a.25.25 0 01.25.25v1a.25.25 0 01-.25.25H4A.25.25 0 013.75 3V2A.25.25 0 014 1.75h1z" fill="currentColor"/></svg>
