<svg xmlns="http://www.w3.org/2000/svg" viewBox="0 0 48 48" fill="none"><path fill-rule="evenodd" clip-rule="evenodd" d="M41.18 17.318a8.268 8.268 0 01-3.448 15.786h-9.798a17.473 17.473 0 01-.251 0h-9.796a8.268 8.268 0 01-3.45-15.785c1.064-6.424 6.646-11.323 13.371-11.323 6.725 0 12.307 4.898 13.371 11.322z" fill="#B5BCC9"/><path fill-rule="evenodd" clip-rule="evenodd" d="M36.343 24.433A8.998 8.998 0 0132.59 41.61H10.997a8.998 8.998 0 01-3.754-17.178c1.158-6.99 7.232-12.322 14.55-12.322 7.32 0 13.393 5.331 14.551 12.322z" fill="url(#acjsvg_a2089e7697__paint0_linear_7496_35659)"/><g filter="url(#acjsvg_a2089e7697__filter0_d_7496_35659)"><path fill-rule="evenodd" clip-rule="evenodd" d="M26.992 20.965H16.268l2.332 2.331-7.561 7.561 3.031 3.031 8.495-8.495 4.427-4.428z" fill="#fff"/></g><path fill-rule="evenodd" clip-rule="evenodd" d="M16.432 36.248h10.724l-2.332-2.331 7.561-7.561-3.031-3.032-8.495 8.495v.001l-4.427 4.428z" fill="#B5BCC9"/><defs><linearGradient id="acjsvg_a2089e7697__paint0_linear_7496_35659" x1="21.793" y1="12.111" x2="21.793" y2="41.611" gradientUnits="userSpaceOnUse"><stop stop-color="#818A9C"/><stop offset="1" stop-color="#353D51"/></linearGradient><filter id="acjsvg_a2089e7697__filter0_d_7496_35659" x="3.039" y="14.964" width="31.953" height="28.925" filterUnits="userSpaceOnUse" color-interpolation-filters="sRGB"><feFlood flood-opacity="0" result="BackgroundImageFix"/><feColorMatrix in="SourceAlpha" values="0 0 0 0 0 0 0 0 0 0 0 0 0 0 0 0 0 0 127 0" result="hardAlpha"/><feOffset dy="2"/><feGaussianBlur stdDeviation="4"/><feComposite in2="hardAlpha" operator="out"/><feColorMatrix values="0 0 0 0 0 0 0 0 0 0 0 0 0 0 0 0 0 0 0.15 0"/><feBlend in2="BackgroundImageFix" result="effect1_dropShadow_7496_35659"/><feBlend in="SourceGraphic" in2="effect1_dropShadow_7496_35659" result="shape"/></filter></defs></svg>
