<svg xmlns="http://www.w3.org/2000/svg" viewBox="0 0 48 48" fill="none"><path fill-rule="evenodd" clip-rule="evenodd" d="M34.345 4.081a2 2 0 011.732 1L46.423 23a2 2 0 010 2L36.077 42.919a2 2 0 01-1.732 1h-20.69a2 2 0 01-1.732-1L1.577 25a2 2 0 010-2L11.923 5.081a2 2 0 011.732-1h20.69zm-1.154 4H14.808L5.62 24l9.19 15.919h18.382L42.38 24 33.19 8.081zm-2.114 5.66a2 2 0 00-1.732-1h-10.69a2 2 0 00-1.732 1L11.577 23a2 2 0 000 2l5.346 9.258a2 2 0 001.732 1h10.69a2 2 0 001.732-1L36.423 25a2 2 0 000-2l-5.346-9.258zm-2.887 3h-8.38L15.618 24l4.19 7.258h8.381L32.382 24l-4.19-7.258zM27 24a3 3 0 10-6 0 3 3 0 006 0z" fill="currentColor"/></svg>
