<svg xmlns="http://www.w3.org/2000/svg" viewBox="0 0 48 48" fill="none"><path fill-rule="evenodd" clip-rule="evenodd" d="M12.56 15.466l-1.91-1.1a.932.932 0 01-.442-1.018l.031-.107.188-.503c1.645-4.27 4.52-8.314 11.252-9.586 3.123-.495 6.877.26 9.267 1.696 3.582 2.154 6.092 6.319 6.631 8.67.873 3.793.398 7.425-1.451 10.905-.93 1.756-2.063 3.404-3.203 5.048-1.205 1.737-3.176 6.779-3.236 7.289-.769 1.883-.978 4.886-4.222 7.22-4.157 2.193-10.131.95-12.93-4.694l-.073-.185a7.474 7.474 0 01-.373-3.605c.022-.158.063-.362.124-.61a1 1 0 011.13-.751l2.154.346a1 1 0 01.828 1.146l-.036.185a.821.821 0 00-.006.04c-.156 1.597.425 2.55.434 2.566 1.527 2.254 3.966 3.047 5.995 2.367 1.401-.471 2.269-2.912 2.718-4.383l.277-.926c.629-2.133 2.42-6.453 3.584-8.134l.831-1.208c.995-1.463 1.57-2.389 2.12-3.427 1.402-2.638 1.943-5.47 1.274-8.378-.295-1.288-2.2-4.446-4.905-5.797-2.301-1.15-4.442-1.536-6.08-1.317-4.52.606-6.17 3.302-7.514 5.358l-.31.674c-.196.433-.37.835-.52 1.207l-.189.49a1 1 0 01-1.439.522zm11.318 1.442c-1.376-.727-3.05 1.313-3.44 2.448l-1.528-1.008a46.09 46.09 0 01-.91-.621c1.033-3.008 4.264-5.855 7.414-4.272 5.347 2.685 2.829 8.878-1.076 12.1-.938.774-1.682 1.953-2.204 3.492l-.041.128-.095.315a1 1 0 01-1.159.705l-1.31-.263a1 1 0 01-.797-1.063l.018-.125a8.45 8.45 0 01.117-.486c.342-1.238.912-2.526 1.571-3.273l1.281-1.37 1.337-1.472c1.296-1.396 3.533-3.802.822-5.235z" fill="currentColor"/></svg>
