<svg xmlns="http://www.w3.org/2000/svg" viewBox="0 -0.5 49 49" fill="none"><g opacity=".5"><path d="M26.531 4.077c-.91 1.435-2.107 2.835-3.338 3.119a9.279 9.279 0 01-2.057.265c-.441.012-.744.02-1.185.231-.06 1.263.218 1.822.498 2.384.145.292.29.584.39.977.42 1.66.192 3.433-.888 4.65-1.381 1.552-3.006 1.344-4.655 0-.625-.511-1.11-1.428-1.53-2.22-.381-.72-.708-1.337-1.037-1.456-.207-.076-.597-.06-1.072-.042-.803.03-1.848.07-2.656-.302C12.661 7.006 18.36 4 24.759 4c.597 0 1.189.026 1.772.077zM41.019 35.648c-.402-.591-1.248-1.545-2.4-2.042-1.095-.472-2.078-.285-2.911-.126-.442.084-.841.16-1.194.126-.401-.039-.68-.348-1.038-.745-.549-.61-1.284-1.425-2.935-1.783-2.725-.591-7.092 1.018-7.092 5.024 0 3.14 1.816 4.484 3.47 5.709.457.338.9.666 1.291 1.021.278.253.49.503.65.747a20.01 20.01 0 0012.159-7.93z" fill="currentColor"/></g><path d="M26.486 24.18v-1.735c0-.51-.031-.945-.094-1.305-.062-.359-.156-.65-.28-.875a1.226 1.226 0 00-.47-.492 1.347 1.347 0 00-.663-.156 1.38 1.38 0 00-.68.156 1.226 1.226 0 00-.469.492c-.12.224-.208.516-.266.875-.057.36-.085.795-.085 1.305v1.735c0 .505.028.937.085 1.296.058.355.146.646.266.875.125.23.284.399.477.508.192.104.419.156.68.156.25 0 .468-.052.655-.156.193-.11.35-.278.47-.508.124-.229.218-.52.28-.875.063-.359.094-.791.094-1.296z" fill="currentColor"/><path fill-rule="evenodd" clip-rule="evenodd" d="M44.76 24c0 4.346-1.387 8.368-3.741 11.648-.402-.591-1.248-1.545-2.4-2.042-1.095-.472-2.078-.285-2.911-.126-.442.084-.841.16-1.194.126-.401-.039-.68-.348-1.038-.745-.549-.61-1.284-1.425-2.935-1.783-2.725-.591-7.092 1.018-7.092 5.023 0 3.14 1.816 4.485 3.47 5.71.457.338.9.666 1.291 1.021.278.253.49.503.65.747-1.324.276-2.695.421-4.1.421-11.046 0-20-8.954-20-20 0-4.646 1.583-8.922 4.241-12.317.808.372 1.853.332 2.656.301.475-.018.865-.033 1.072.043.329.12.656.736 1.037 1.455.42.793.905 1.71 1.53 2.22 1.649 1.345 3.274 1.553 4.655 0 1.08-1.216 1.308-2.989.888-4.65-.1-.392-.245-.684-.39-.976-.28-.562-.559-1.12-.498-2.384.44-.21.744-.22 1.185-.232a9.279 9.279 0 002.057-.264c1.231-.284 2.428-1.684 3.338-3.119C36.747 4.974 44.76 13.551 44.76 24zm-24.61 1.148h-2.672c.026.5-.016.886-.125 1.157-.11.265-.27.45-.484.554a1.83 1.83 0 01-.774.149c-.286 0-.52-.05-.703-.149a1.027 1.027 0 01-.422-.484c-.099-.23-.167-.529-.203-.899a14.38 14.38 0 01-.055-1.375V22.5c0-.537.024-.99.07-1.36.048-.37.123-.666.227-.89.104-.23.242-.393.414-.492a1.25 1.25 0 01.633-.149c.365 0 .656.06.875.18.224.114.38.315.469.601.088.282.12.67.094 1.165h2.672c-.021-.855-.193-1.586-.516-2.196a3.295 3.295 0 00-1.39-1.406c-.6-.328-1.334-.492-2.204-.492-.62 0-1.182.114-1.687.344-.5.229-.928.562-1.282 1-.349.437-.62.968-.812 1.593-.188.625-.281 1.331-.281 2.117v1.586c0 .792.088 1.5.265 2.125.177.62.44 1.149.79 1.586.348.438.778.771 1.288 1 .51.23 1.097.344 1.758.344.818 0 1.531-.153 2.14-.46a3.27 3.27 0 001.415-1.36c.338-.604.505-1.333.5-2.188zm-11.86 1.68c-.27.25-.406.563-.406.938s.135.69.406.945c.27.25.62.375 1.047.375.432 0 .781-.125 1.047-.375.27-.255.406-.57.406-.945s-.135-.688-.406-.938c-.266-.255-.615-.383-1.047-.383-.427 0-.776.128-1.047.383zm20.907-4.367v1.719c0 .817-.101 1.536-.305 2.156-.203.62-.492 1.14-.867 1.562a3.66 3.66 0 01-1.336.946 4.466 4.466 0 01-1.703.312c-.63 0-1.203-.104-1.719-.312a3.66 3.66 0 01-1.335-.946c-.375-.422-.665-.942-.868-1.562-.203-.62-.304-1.339-.304-2.156v-1.72c0-.817.101-1.538.304-2.163.203-.625.49-1.146.86-1.563a3.66 3.66 0 011.336-.945 4.452 4.452 0 011.718-.32 4.43 4.43 0 011.711.32c.521.213.966.529 1.336.945.37.417.657.938.86 1.563.208.625.312 1.346.312 2.164zm4.485-4.836h-3.5V29h2.672v-2.656l-.227-4.612L34.588 29h1.766l1.953-7.255-.227 4.599V29h2.68V17.625h-3.5l-1.789 7.914-1.789-7.914z" fill="currentColor"/></svg>
