<svg xmlns="http://www.w3.org/2000/svg" viewBox="0 0 49 49" fill="none"><g opacity=".5"><path d="M25.603 4.73c-.494 2.404-1.626 5.917-3.512 6.92-1.126.598-1.816.804-2.338.96-.516.154-.87.26-1.323.647.328 1.506.832 2.076 1.338 2.65.263.297.527.595.768 1.026 1.018 1.823 1.31 3.982.42 5.754-1.135 2.264-3.114 2.531-5.478 1.468-.898-.404-1.759-1.33-2.503-2.13-.675-.727-1.255-1.35-1.68-1.387-.267-.023-.722.117-1.275.288-1.293.4-3.124.967-4.357-.008a5.27 5.27 0 01-.461-.408c1.93-9.028 9.953-15.798 19.557-15.798.283 0 .564.006.844.017zM42.16 34.58c-.434-.716-1.174-1.65-2.199-2.256-1.172-.693-2.312-.623-3.279-.564-.513.031-.977.06-1.371-.03-.45-.102-.72-.493-1.068-.994-.534-.77-1.25-1.8-3.068-2.445-3.002-1.064-8.182.127-8.762 4.666-.454 3.557 1.409 5.343 3.106 6.97.468.45.924.886 1.315 1.345 1.201 1.41 1.03 2.609.678 3.252 6.285-.865 11.64-4.651 14.648-9.944z" fill="currentColor"/></g><path d="M42.16 34.58a19.909 19.909 0 002.6-9.868c0-10.763-8.502-19.54-19.157-19.983-.494 2.405-1.626 5.918-3.512 6.92-1.126.6-1.816.805-2.338.961-.516.154-.87.26-1.323.647.328 1.506.832 2.076 1.338 2.65.263.297.527.595.768 1.026 1.018 1.823 1.31 3.982.42 5.754-1.135 2.264-3.114 2.531-5.478 1.468-.898-.404-1.759-1.33-2.503-2.13-.675-.727-1.255-1.35-1.68-1.387-.267-.023-.722.117-1.275.288-1.293.4-3.124.967-4.357-.008a5.27 5.27 0 01-.461-.408c1.93-9.028 9.953-15.798 19.557-15.798-11.045 0-20 8.954-20 20s8.955 20 20 20c.934 0 1.853-.064 2.753-.188.352-.643.523-1.843-.678-3.252-.391-.459-.847-.896-1.315-1.344-1.697-1.628-3.56-3.414-3.106-6.971.58-4.539 5.76-5.73 8.762-4.666 1.819.645 2.534 1.675 3.068 2.445.348.501.619.892 1.068.994.394.09.858.061 1.371.03.967-.06 2.107-.13 3.279.564 1.025.606 1.765 1.54 2.198 2.256z" fill="currentColor"/></svg>
