<svg xmlns="http://www.w3.org/2000/svg" viewBox="0 0 48 48" fill="none"><path fill-rule="evenodd" clip-rule="evenodd" d="M8 5.004a2 2 0 00-2 2v6.42a2 2 0 002 2h31.999a2 2 0 002-2v-6.42a2 2 0 00-2-2H8zm.001 21.795a2 2 0 00-2 2v12.2a2 2 0 002 2H40a2 2 0 002-2v-12.2a2 2 0 00-2-2H8z" fill="url(#acssvg_c8f63ecaff__paint0_linear_7496_35649)"/><rect x="6" y="17.311" width="36" height="7.62" rx="2" fill="#B5BCC9"/><g filter="url(#acssvg_c8f63ecaff__filter0_d_7496_35649)"><ellipse cx="12.123" cy="34.899" rx="2.452" ry="2.388" fill="#fff"/></g><g filter="url(#acssvg_c8f63ecaff__filter1_d_7496_35649)"><ellipse cx="12.123" cy="21.12" rx="2.452" ry="2.388" fill="#fff"/></g><g filter="url(#acssvg_c8f63ecaff__filter2_d_7496_35649)"><ellipse cx="12.123" cy="9.877" rx="2.452" ry="2.388" fill="#fff"/></g><defs><filter id="acssvg_c8f63ecaff__filter0_d_7496_35649" x="3.672" y="28.511" width="16.903" height="16.776" filterUnits="userSpaceOnUse" color-interpolation-filters="sRGB"><feFlood flood-opacity="0" result="BackgroundImageFix"/><feColorMatrix in="SourceAlpha" values="0 0 0 0 0 0 0 0 0 0 0 0 0 0 0 0 0 0 127 0" result="hardAlpha"/><feOffset dy="2"/><feGaussianBlur stdDeviation="3"/><feComposite in2="hardAlpha" operator="out"/><feColorMatrix values="0 0 0 0 0 0 0 0 0 0 0 0 0 0 0 0 0 0 0.19 0"/><feBlend in2="BackgroundImageFix" result="effect1_dropShadow_7496_35649"/><feBlend in="SourceGraphic" in2="effect1_dropShadow_7496_35649" result="shape"/></filter><filter id="acssvg_c8f63ecaff__filter1_d_7496_35649" x="3.672" y="14.731" width="16.903" height="16.776" filterUnits="userSpaceOnUse" color-interpolation-filters="sRGB"><feFlood flood-opacity="0" result="BackgroundImageFix"/><feColorMatrix in="SourceAlpha" values="0 0 0 0 0 0 0 0 0 0 0 0 0 0 0 0 0 0 127 0" result="hardAlpha"/><feOffset dy="2"/><feGaussianBlur stdDeviation="3"/><feComposite in2="hardAlpha" operator="out"/><feColorMatrix values="0 0 0 0 0 0 0 0 0 0 0 0 0 0 0 0 0 0 0.19 0"/><feBlend in2="BackgroundImageFix" result="effect1_dropShadow_7496_35649"/><feBlend in="SourceGraphic" in2="effect1_dropShadow_7496_35649" result="shape"/></filter><filter id="acssvg_c8f63ecaff__filter2_d_7496_35649" x="3.672" y="3.488" width="16.903" height="16.776" filterUnits="userSpaceOnUse" color-interpolation-filters="sRGB"><feFlood flood-opacity="0" result="BackgroundImageFix"/><feColorMatrix in="SourceAlpha" values="0 0 0 0 0 0 0 0 0 0 0 0 0 0 0 0 0 0 127 0" result="hardAlpha"/><feOffset dy="2"/><feGaussianBlur stdDeviation="3"/><feComposite in2="hardAlpha" operator="out"/><feColorMatrix values="0 0 0 0 0 0 0 0 0 0 0 0 0 0 0 0 0 0 0.19 0"/><feBlend in2="BackgroundImageFix" result="effect1_dropShadow_7496_35649"/><feBlend in="SourceGraphic" in2="effect1_dropShadow_7496_35649" result="shape"/></filter><linearGradient id="acssvg_c8f63ecaff__paint0_linear_7496_35649" x1="6" y1="21.736" x2="42" y2="22.028" gradientUnits="userSpaceOnUse"><stop stop-color="#353D51"/><stop offset="1" stop-color="#818A9C"/></linearGradient></defs></svg>
