<svg xmlns="http://www.w3.org/2000/svg" viewBox="0 0 48 48" fill="none"><defs><linearGradient x1="0" y1="1.95" x2="1.578" y2="1.611" id="awea"><stop offset="10%" stop-color="#3B91FF"/><stop offset="50%" stop-color="#0D5EFF"/><stop offset="85%" stop-color="#C069FF"/></linearGradient></defs><path d="M38.57 17.217l.798-.816c.841-.861.843-2.257.004-3.121l-7.407-7.629-.142-.133a2.124 2.124 0 00-2.434-.241 2.124 2.124 0 00-.479.37L27.39 7.206l.02.02L5 30.362v8.428l.006.165C5.088 40.1 6.02 41 7.157 41h8.227L38.57 17.217zm-6.855 1.302l3.591-3.684-4.855-5-3.65 3.769 4.914 4.915zm-2.792 2.864L13.697 37 9 31.982l15.017-15.505 4.906 4.906zM6.936 9.743A2.604 2.604 0 008.774 7.9l.321-1.199c.25-.936 1.58-.936 1.83 0l.323 1.207c.241.9.943 1.602 1.843 1.843l1.207.323c.936.25.936 1.58 0 1.83l-1.2.32c-.897.241-1.599.942-1.84 1.84l-.333 1.234c-.252.935-1.578.935-1.83 0l-.33-1.227a2.604 2.604 0 00-1.837-1.837l-1.227-.33c-.935-.252-.935-1.578 0-1.83l1.235-.333zM31.71 34.238a3.646 3.646 0 002.574-2.577l.45-1.679c.35-1.31 2.21-1.31 2.561 0l.453 1.69a3.646 3.646 0 002.579 2.58l1.69.452c1.31.35 1.31 2.21 0 2.562l-1.679.45a3.646 3.646 0 00-2.578 2.573l-.465 1.729c-.353 1.308-2.209 1.308-2.561 0L34.27 40.3A3.646 3.646 0 0031.7 37.73l-1.718-.463c-1.308-.352-1.308-2.208 0-2.56l1.73-.467z" fill-rule="evenodd" fill="url(#awea)"/></svg>
