<svg xmlns="http://www.w3.org/2000/svg" viewBox="0 0 48 48" fill="none"><path fill-rule="evenodd" clip-rule="evenodd" d="M43 40a1 1 0 011 1v2a1 1 0 01-1 1H5a1 1 0 01-1-1v-2a1 1 0 011-1h38zM28.87 3.886l.132.12 6.868 6.905a2 2 0 01-.004 2.825l-.739.738.013.014L13.628 36H6a2 2 0 01-1.995-1.85L4 34v-7.628l20.778-20.94-.019-.019 1.41-1.41a2 2 0 012.702-.117zm-7.107 10.206L8.065 28.059v.005l3.87 3.87h.006l13.825-13.839-4.003-4.003zm5.774-5.887l-2.972 3.031 4.029 4.029 2.989-2.992-4.046-4.068z" fill="currentColor"/></svg>
