<svg xmlns="http://www.w3.org/2000/svg" viewBox="0 0 20 20" fill="none"><path fill-rule="evenodd" clip-rule="evenodd" d="M18.333 10a8.295 8.295 0 01-1.083 4.112c-.18-.299-.489-.688-.916-.94-.488-.29-.963-.26-1.366-.235-.214.013-.407.025-.572-.013-.187-.042-.3-.205-.445-.414-.222-.32-.52-.75-1.278-1.018-.6-.213-1.41-.21-2.116.061v-.415h.743c.45 0 .838-.086 1.163-.26.329-.175.58-.42.757-.733.179-.314.268-.68.268-1.101 0-.427-.09-.806-.268-1.137a1.942 1.942 0 00-.757-.788c-.325-.19-.713-.286-1.163-.286H9.026v6.517h.009a2.624 2.624 0 00-.013.085c-.189 1.483.587 2.227 1.294 2.905.195.187.385.369.548.56.5.587.43 1.087.283 1.355A8.333 8.333 0 111.85 8.25c.056.056.12.113.192.17.514.407 1.277.17 1.816.004.23-.071.42-.13.531-.12.177.015.418.275.7.578.31.333.668.719 1.043.887.136.062.27.112.4.152v3.43h1.526V9.657c.134-.13.254-.296.357-.5.37-.739.248-1.639-.176-2.398-.1-.18-.21-.304-.32-.428-.21-.239-.42-.476-.557-1.104.188-.161.336-.205.55-.27.219-.064.506-.15.975-.4.786-.417 1.258-1.881 1.463-2.883A8.334 8.334 0 0118.334 10zm-7.776-.075v-1.88h.743c.152 0 .274.048.367.144a.79.79 0 01.206.367c.044.152.067.318.067.497 0 .167-.023.317-.067.452a.617.617 0 01-.206.309.567.567 0 01-.367.111h-.743z" fill="currentColor"/><path fill-rule="evenodd" clip-rule="evenodd" d="M8.888 4.557c.786-.417 1.258-1.881 1.464-2.883a8.336 8.336 0 00-8.5 6.575c.055.056.119.113.191.17.514.407 1.277.17 1.816.004.23-.072.42-.13.531-.12.177.015.419.275.7.577.31.334.669.72 1.043.888.136.061.27.112.4.152V6.833h1.526v2.824c.134-.13.254-.295.357-.5.37-.739.249-1.639-.176-2.398-.1-.18-.21-.304-.32-.428-.21-.239-.42-.476-.557-1.104.189-.161.336-.205.551-.27.218-.064.505-.15.974-.4zm7.446 8.615c.427.252.736.641.916.94a8.338 8.338 0 01-6.103 4.143c.147-.268.218-.768-.283-1.355-.163-.191-.352-.373-.547-.56-.708-.678-1.484-1.422-1.294-2.905.003-.029.007-.057.012-.086h1.522v-1.796c.706-.27 1.516-.274 2.117-.062.757.269 1.055.698 1.278 1.02.145.208.258.37.445.413.164.038.357.026.57.013.404-.025.879-.054 1.367.235z" fill-opacity=".5" fill="currentColor"/></svg>
