<svg xmlns="http://www.w3.org/2000/svg" viewBox="0 0 48 48" fill="none"><path d="M23.001 2.573a2 2 0 012 0l17.056 9.848a2 2 0 011 1.732v19.694a2 2 0 01-1 1.732l-17.056 9.848a2 2 0 01-2 0L5.945 35.579a2 2 0 01-1-1.732V14.153a2 2 0 011-1.732l17.056-9.848z" fill="url(#awosvg_8a67f5a869__paint0_linear_7496_35643)"/><g filter="url(#awosvg_8a67f5a869__filter0_d_7496_35643)"><path fill-rule="evenodd" clip-rule="evenodd" d="M18.707 14.846v-3.278h-3.382v6.667l9.007-.02-9.967 4.194.656 3.25h9.71l-10.077 4.317.666 3.245h13.65v3.21h3.38v-6.592H23.56l10.076-4.318-.666-3.244H23.4l10.01-4.212-.659-3.25-14.043.031z" fill="#fff"/></g><defs><linearGradient id="awosvg_8a67f5a869__paint0_linear_7496_35643" x1="24.001" y1="1.996" x2="24.001" y2="46.004" gradientUnits="userSpaceOnUse"><stop stop-color="#353D51"/><stop offset="1" stop-color="#818A9C"/></linearGradient><filter id="awosvg_8a67f5a869__filter0_d_7496_35643" x="6.365" y="5.568" width="35.27" height="40.862" filterUnits="userSpaceOnUse" color-interpolation-filters="sRGB"><feFlood flood-opacity="0" result="BackgroundImageFix"/><feColorMatrix in="SourceAlpha" values="0 0 0 0 0 0 0 0 0 0 0 0 0 0 0 0 0 0 127 0" result="hardAlpha"/><feOffset dy="2"/><feGaussianBlur stdDeviation="4"/><feComposite in2="hardAlpha" operator="out"/><feColorMatrix values="0 0 0 0 0 0 0 0 0 0 0 0 0 0 0 0 0 0 0.15 0"/><feBlend in2="BackgroundImageFix" result="effect1_dropShadow_7496_35643"/><feBlend in="SourceGraphic" in2="effect1_dropShadow_7496_35643" result="shape"/></filter></defs></svg>
