<svg xmlns="http://www.w3.org/2000/svg" viewBox="0 0 50 50" fill="none"><rect opacity=".06" width="50" height="50" rx="4" fill="url(#awwsvg_17c141e69f__paint0_linear_18705_56634)"/><rect x="18.957" y="12.147" width="12.079" height="13.495" rx="6.04" stroke="#97BCFF" stroke-width="3.958"/><rect x="18.363" y="11.553" width="13.267" height="14.682" rx="6.633" stroke="url(#awwsvg_17c141e69f__paint1_linear_18705_56634)" stroke-width="2.771"/><rect x="12.22" y="18.894" width="25.558" height="19.649" rx="1.583" fill="url(#awwsvg_17c141e69f__paint2_linear_18705_56634)"/><path fill-rule="evenodd" clip-rule="evenodd" d="M26.155 30.452a2.427 2.427 0 10-2.309 0v2.708c0 .132.107.238.238.238h1.833a.238.238 0 00.238-.238v-2.708z" fill="#fff"/><path d="M12.222 20.187c0-.874.709-1.583 1.583-1.583h22.39c.875 0 1.584.709 1.584 1.583v1.584H12.222v-1.584z" fill="#97BCFF"/><defs><linearGradient id="awwsvg_17c141e69f__paint0_linear_18705_56634" x1="25" y1="1.786" x2="25" y2="50" gradientUnits="userSpaceOnUse"><stop stop-color="#528CFF"/><stop offset="1" stop-color="#1664FF"/></linearGradient><linearGradient id="awwsvg_17c141e69f__paint1_linear_18705_56634" x1="24.997" y1="10.791" x2="24.997" y2="27.621" gradientUnits="userSpaceOnUse"><stop stop-color="#528CFF"/><stop offset="1" stop-color="#1664FF"/></linearGradient><linearGradient id="awwsvg_17c141e69f__paint2_linear_18705_56634" x1="24.999" y1="19.596" x2="24.999" y2="38.543" gradientUnits="userSpaceOnUse"><stop stop-color="#528CFF"/><stop offset="1" stop-color="#1664FF"/></linearGradient></defs></svg>
