<svg xmlns="http://www.w3.org/2000/svg" viewBox="0 0 48 48" fill="none"><path fill-rule="evenodd" clip-rule="evenodd" d="M13.959 11.779c0-5.543 4.494-10.037 10.037-10.037 5.543 0 10.037 4.494 10.037 10.037v3.012h-4v-3.012a6.037 6.037 0 00-12.074 0v3.012h-4v-3.012z" fill="currentColor"/><path fill-rule="evenodd" clip-rule="evenodd" d="M4.329 16.399a4 4 0 014-4h31.34a4 4 0 014 4v23.57a4 4 0 01-4 4H8.33a4 4 0 01-4-4V16.4zm35.34 0H8.33v23.57h31.34V16.4z" fill="currentColor"/><path fill-rule="evenodd" clip-rule="evenodd" d="M26 28.914a3.805 3.805 0 10-4 .002v4.58a1 1 0 001 1h2a1 1 0 001-1v-4.582z" fill="currentColor"/></svg>
