<svg xmlns="http://www.w3.org/2000/svg" viewBox="0 0 48 48" fill="none"><path d="M31.014 42.574l.784 1.84A19.868 19.868 0 0124 46c-2.762 0-5.398-.564-7.797-1.585l1.567-3.68A15.864 15.864 0 0024 42c2.214 0 4.318-.45 6.23-1.265l.784 1.84zM20.28 29.535l-6 5-2.56-3.072 6-5 2.56 3.072zm16 1.928l-2.56 3.072-6-5 2.56-3.072 6 5zM15.88 12.033A16.106 16.106 0 008 25.904c0 .515.024 1.023.07 1.525l-3.982.37A20.42 20.42 0 014 25.905c0-7.37 3.95-13.814 9.836-17.31l2.043 3.44zm18.285-3.44A20.106 20.106 0 0144 25.905c0 .639-.03 1.271-.088 1.896l-3.982-.371c.046-.501.07-1.01.07-1.525 0-5.907-3.162-11.07-7.879-13.87l2.043-3.44zM26 19h-4v-7h4v7z" fill="#B5BCC9"/><path d="M9.79 30.571c3.206 0 5.789 2.611 5.79 5.81 0 3.198-2.584 5.81-5.79 5.81-3.208 0-5.79-2.612-5.79-5.81 0-3.199 2.582-5.81 5.79-5.81zm28.42 0c3.207 0 5.79 2.611 5.79 5.81 0 3.198-2.583 5.81-5.79 5.81s-5.79-2.612-5.79-5.81c.001-3.199 2.583-5.81 5.79-5.81zm-28.42 4A1.8 1.8 0 008 36.381a1.8 1.8 0 001.79 1.81 1.8 1.8 0 001.79-1.81 1.8 1.8 0 00-1.79-1.81zm28.42 0a1.8 1.8 0 00-1.79 1.81 1.8 1.8 0 001.79 1.81A1.8 1.8 0 0040 36.38a1.8 1.8 0 00-1.79-1.81zM24 17a8 8 0 110 16 8 8 0 010-16zm0 4a4 4 0 100 8 4 4 0 000-8zm0-19c3.207 0 5.79 2.611 5.79 5.81 0 3.198-2.583 5.81-5.79 5.81-3.207-.001-5.789-2.612-5.79-5.81C18.21 4.61 20.794 2 24 2zm0 4a1.8 1.8 0 00-1.79 1.81A1.8 1.8 0 0024 9.62a1.8 1.8 0 001.79-1.81A1.8 1.8 0 0024 6z" fill="url(#acysvg_6eb467ff2e__paint0_linear_99119_8344)"/><defs><linearGradient id="acysvg_6eb467ff2e__paint0_linear_99119_8344" x1="24" y1="2" x2="24" y2="42.19" gradientUnits="userSpaceOnUse"><stop stop-color="#818A9C"/><stop offset="1" stop-color="#353D51"/></linearGradient></defs></svg>
