<svg xmlns="http://www.w3.org/2000/svg" viewBox="0 0 120 120" fill="none"><g filter="url(#axgsvg_6a81c10ded__filter0_dii_54_13384)"><path d="M10.209 94.547l42.919-72.016c3.102-5.206 10.642-5.206 13.744 0l42.919 72.016c3.178 5.333-.664 12.096-6.872 12.096H17.081c-6.208 0-10.05-6.763-6.872-12.096z" fill="url(#axgsvg_6a81c10ded__paint0_linear_54_13384)"/></g><path fill-rule="evenodd" clip-rule="evenodd" d="M53.643 22.838l-42.92 72.016c-2.939 4.933.615 11.189 6.358 11.189h85.838c5.742 0 9.297-6.256 6.357-11.189l-42.92-72.016c-2.87-4.815-9.843-4.815-12.713 0zm-.515-.307l-42.92 72.016c-3.178 5.333.665 12.096 6.873 12.096h85.838c6.208 0 10.05-6.763 6.872-12.096L66.872 22.531c-3.102-5.206-10.642-5.206-13.744 0z" fill="url(#axgsvg_6a81c10ded__paint1_linear_54_13384)"/><path d="M20.331 90.954l34.592-58.698c2.323-3.943 8.029-3.938 10.344.01L99.7 90.964c2.346 4-.538 9.036-5.176 9.036H25.5c-4.642 0-7.526-5.046-5.169-9.046z" fill="url(#axgsvg_6a81c10ded__paint2_linear_54_13384)"/><path fill-rule="evenodd" clip-rule="evenodd" d="M55.443 32.562L20.851 91.26c-2.12 3.598.474 8.136 4.65 8.136h69.023c4.17 0 6.765-4.529 4.655-8.126L64.747 32.572c-2.083-3.55-7.214-3.556-9.304-.01zm-.52-.306L20.331 90.953c-2.357 4 .527 9.046 5.17 9.046h69.023c4.638 0 7.522-5.036 5.176-9.036L65.267 32.266c-2.315-3.948-8.02-3.953-10.344-.01z" fill="url(#axgsvg_6a81c10ded__paint3_linear_54_13384)"/><g filter="url(#axgsvg_6a81c10ded__filter1_dii_54_13384)"><path d="M58.861 76.939l-3.458-24.702a4.642 4.642 0 119.194 0L61.14 76.94a1.15 1.15 0 01-2.278 0z" fill="url(#axgsvg_6a81c10ded__paint4_linear_54_13384)"/><path fill-rule="evenodd" clip-rule="evenodd" d="M62.45 47.948a4.392 4.392 0 00-6.8 4.254l3.459 24.702a.9.9 0 001.782 0l3.458-24.702a4.392 4.392 0 00-1.9-4.254zm-5.18-.415a4.892 4.892 0 017.574 4.739l-3.458 24.701a1.4 1.4 0 01-2.773 0l-3.458-24.701a4.892 4.892 0 012.115-4.739z" fill="url(#axgsvg_6a81c10ded__paint5_linear_54_13384)"/><ellipse cx="60" cy="87.754" rx="5" ry="4.912" fill="url(#axgsvg_6a81c10ded__paint6_linear_54_13384)"/><path fill-rule="evenodd" clip-rule="evenodd" d="M60 83.092c-2.628 0-4.75 2.092-4.75 4.662 0 2.571 2.122 4.663 4.75 4.663 2.627 0 4.75-2.092 4.75-4.663 0-2.57-2.123-4.662-4.75-4.662zm-5.25 4.662c0-2.855 2.355-5.162 5.25-5.162s5.25 2.307 5.25 5.162c0 2.856-2.355 5.163-5.25 5.163s-5.25-2.307-5.25-5.163z" fill="url(#axgsvg_6a81c10ded__paint7_linear_54_13384)"/></g><defs><linearGradient id="axgsvg_6a81c10ded__paint0_linear_54_13384" x1="96.428" y1="24.481" x2="45.894" y2="131.886" gradientUnits="userSpaceOnUse"><stop stop-color="#EBEBEC"/><stop offset=".855" stop-color="#EDEDEE"/></linearGradient><linearGradient id="axgsvg_6a81c10ded__paint1_linear_54_13384" x1="15.563" y1="5.63" x2="62.736" y2="106.904" gradientUnits="userSpaceOnUse"><stop stop-color="#E0DEDE"/><stop offset=".192" stop-color="#E7E7E7"/><stop offset=".704" stop-color="#D9D9D9"/><stop offset=".963" stop-color="#C3C3C7"/></linearGradient><linearGradient id="axgsvg_6a81c10ded__paint2_linear_54_13384" x1="89.412" y1="33.279" x2="48.546" y2="120.053" gradientUnits="userSpaceOnUse"><stop stop-color="#fff"/><stop offset=".855" stop-color="#fff"/></linearGradient><linearGradient id="axgsvg_6a81c10ded__paint3_linear_54_13384" x1="24.121" y1="18.044" x2="62.27" y2="99.865" gradientUnits="userSpaceOnUse"><stop stop-color="#E2E2E2"/><stop offset=".192" stop-color="#EEE"/><stop offset=".704" stop-color="#E3E3E3"/><stop offset=".963" stop-color="#C3C3C7"/></linearGradient><linearGradient id="axgsvg_6a81c10ded__paint4_linear_54_13384" x1="58.492" y1="48.387" x2="72.204" y2="54.805" gradientUnits="userSpaceOnUse"><stop stop-color="#A8AEC7"/><stop offset=".44" stop-color="#99A1BF"/><stop offset="1" stop-color="#7781A6"/></linearGradient><linearGradient id="axgsvg_6a81c10ded__paint5_linear_54_13384" x1="58.778" y1="57.686" x2="68.321" y2="62.511" gradientUnits="userSpaceOnUse"><stop stop-color="#818AB7"/><stop offset="1" stop-color="#49547D"/></linearGradient><linearGradient id="axgsvg_6a81c10ded__paint6_linear_54_13384" x1="58.492" y1="83.577" x2="63.536" y2="91.249" gradientUnits="userSpaceOnUse"><stop stop-color="#A8AEC7"/><stop offset="1" stop-color="#8992B5"/></linearGradient><linearGradient id="axgsvg_6a81c10ded__paint7_linear_54_13384" x1="58.779" y1="86.438" x2="62.017" y2="91.76" gradientUnits="userSpaceOnUse"><stop stop-color="#7B819D"/><stop offset="1" stop-color="#3D486B"/></linearGradient><filter id="axgsvg_6a81c10ded__filter0_dii_54_13384" x="8.536" y="18.094" width="103.993" height="90.679" filterUnits="userSpaceOnUse" color-interpolation-filters="sRGB"><feFlood flood-opacity="0" result="BackgroundImageFix"/><feColorMatrix in="SourceAlpha" values="0 0 0 0 0 0 0 0 0 0 0 0 0 0 0 0 0 0 127 0" result="hardAlpha"/><feOffset dx=".532" dy="1.065"/><feGaussianBlur stdDeviation=".532"/><feComposite in2="hardAlpha" operator="out"/><feColorMatrix values="0 0 0 0 0 0 0 0 0 0 0 0 0 0 0 0 0 0 0.1 0"/><feBlend in2="BackgroundImageFix" result="effect1_dropShadow_54_13384"/><feBlend in="SourceGraphic" in2="effect1_dropShadow_54_13384" result="shape"/><feColorMatrix in="SourceAlpha" values="0 0 0 0 0 0 0 0 0 0 0 0 0 0 0 0 0 0 127 0" result="hardAlpha"/><feOffset dx="1.597" dy="1.597"/><feGaussianBlur stdDeviation=".532"/><feComposite in2="hardAlpha" operator="arithmetic" k2="-1" k3="1"/><feColorMatrix values="0 0 0 0 1 0 0 0 0 1 0 0 0 0 1 0 0 0 1 0"/><feBlend in2="shape" result="effect2_innerShadow_54_13384"/><feColorMatrix in="SourceAlpha" values="0 0 0 0 0 0 0 0 0 0 0 0 0 0 0 0 0 0 127 0" result="hardAlpha"/><feOffset dx="-1.597" dy="-1.597"/><feGaussianBlur stdDeviation=".266"/><feComposite in2="hardAlpha" operator="arithmetic" k2="-1" k3="1"/><feColorMatrix values="0 0 0 0 0.879167 0 0 0 0 0.879167 0 0 0 0 0.879167 0 0 0 1 0"/><feBlend in2="effect2_innerShadow_54_13384" result="effect3_innerShadow_54_13384"/></filter><filter id="axgsvg_6a81c10ded__filter1_dii_54_13384" x="53.75" y="45.701" width="12.5" height="48.715" filterUnits="userSpaceOnUse" color-interpolation-filters="sRGB"><feFlood flood-opacity="0" result="BackgroundImageFix"/><feColorMatrix in="SourceAlpha" values="0 0 0 0 0 0 0 0 0 0 0 0 0 0 0 0 0 0 127 0" result="hardAlpha"/><feOffset dy=".5"/><feGaussianBlur stdDeviation=".5"/><feComposite in2="hardAlpha" operator="out"/><feColorMatrix values="0 0 0 0 0.9375 0 0 0 0 0.950893 0 0 0 0 1 0 0 0 1 0"/><feBlend in2="BackgroundImageFix" result="effect1_dropShadow_54_13384"/><feBlend in="SourceGraphic" in2="effect1_dropShadow_54_13384" result="shape"/><feColorMatrix in="SourceAlpha" values="0 0 0 0 0 0 0 0 0 0 0 0 0 0 0 0 0 0 127 0" result="hardAlpha"/><feOffset dx=".5"/><feGaussianBlur stdDeviation=".5"/><feComposite in2="hardAlpha" operator="arithmetic" k2="-1" k3="1"/><feColorMatrix values="0 0 0 0 0.868177 0 0 0 0 0.891503 0 0 0 0 0.9875 0 0 0 1 0"/><feBlend in2="shape" result="effect2_innerShadow_54_13384"/><feColorMatrix in="SourceAlpha" values="0 0 0 0 0 0 0 0 0 0 0 0 0 0 0 0 0 0 127 0" result="hardAlpha"/><feOffset dx="-.5" dy="-1"/><feGaussianBlur stdDeviation=".5"/><feComposite in2="hardAlpha" operator="arithmetic" k2="-1" k3="1"/><feColorMatrix values="0 0 0 0 0.367431 0 0 0 0 0.416374 0 0 0 0 0.595833 0 0 0 1 0"/><feBlend in2="effect2_innerShadow_54_13384" result="effect3_innerShadow_54_13384"/></filter></defs></svg>
