<svg xmlns="http://www.w3.org/2000/svg" viewBox="0 0 24 24" fill="none"><g clip-path="url(#actsvg_e3129767df__clip0_7850_36)"><mask id="acta" style="mask-type:luminance" maskUnits="userSpaceOnUse" x="0" y="0" width="24" height="24"><path d="M0 0h24v24H0V0z" fill="#fff"/></mask><g mask="url(#acta)"><path d="M12 0c6.627 0 12 5.373 12 12s-5.373 12-12 12S0 18.627 0 12 5.373 0 12 0zm4.238 8.45h-.225l-.044.043H15.7v.104h-.134l-.044.044v.136h.09v.08h-.043v.192l.09.091h.044v-.044l.044-.045h.044l.044.045-.044.091v.124l-.044.012v.363l-.09.092h-.044l-.135-.136v-.103l-.09-.092h-.044l-.044-.044v-.044h-.09l-.091.044-.044.044h-.044l-.044.092v.103l-.09.18-.044.283v.228l.044.147v.148h.102v.044l.044.045h.044l.044.044h-.067l-.012.023h-.158l-.012-.035-.035-.056-.067.012h-.044v.044h.044l-.044.092-.043.044h-.091v-.136l-.147.092v.044l-.078.068.079.035v.044l-.044.045h-.044v.135h-.135v-.044h-.043l-.135.044-.044-.044v-.136l-.043-.044v-.044h-.147l-.043.044h-.045l-.09-.044-.044.044h-.044v.044h-.044l-.044.045-.044-.045-.134.136h-.044l-.044.044h-.043v.012h-.179l-.09.045-.044.091-.044.044.044.045v.044l-.012-.012h-.066l-.044-.068v-.056h-.147v-.18h-.134v-.044l-.044-.044v-.044h-.044l-.043.044h-.091l-.178.092-.044-.045v.045h-.179l-.09-.045h.032v-.044h.044V11h-.09l-.044.044-.044-.091h-.091v-.045h-.09v-.044l.043-.044-.102-.103.024-.024h.044l-.091-.092.044-.044h.043l-.043-.044v-.044h.043v-.092h.044l.044-.044h.044v-.044l.09-.045.044-.091-.044-.045h-.046l.044-.044v-.091l-.044-.045h-.091v-.044h-.043V9.84l.043-.045h.044l-.044-.044v-.044h-.09v.044h-.147l-.043.044.043.045v.044l-.043-.044-.044.044v-.091h-.044l-.044.044v.044h-.043l-.044-.044h-.044v-.044h-.044v.044l-.044.044v.375l-.044.044.044.045h.044v.044l.044.044v.227h-.012v.16l.044.044v.044l-.09.045h-.044v.044h.044v.091l.09.045-.044.044.044.044h-.176v.18l-.043.044v.068l-.044-.091v-.091h-.044v.044h-.043v-.044l.043-.045-.09-.044h-.225v.068l-.044.044v.044h.044v.045l.044.044-.012.012-.044-.044-.044.044h-.044v-.18h-.09l-.044.044-.091.044v-.092l-.043.045h-.091l-.09.044-.045.045v.271l-.09.091h-.09v-.091l.043-.044h-.043l.09-.092v-.044l-.044-.044h-.09l-.044.091v.092l-.044.044v.044h-.044v.044l-.044.045h-.09v.091h.044v.044l-.091.045v-.091h-.044v.18h.044l.044.044h-.035l-.044.044v.044h-.178v-.044l-.044-.044H8.97v-.044h-.044l-.044.044-.044-.044v.044l-.09.044V12.2H8.48l-.043.044v.124l-.044.045v.18h-.091l-.044.044h-.044l-.178.091h-.178v.045h.043l.088.044.044.045H7.99v.044l-.09-.044H7.72v-.045H7.63l-.178-.091v.044l-.09-.044.043-.044-.044-.045v-.044l.044-.045h-.09l-.044-.044h-.044v.044l-.044.045v.135l.044.092-.044.044v.092l.044.044v.044h-.091l-.043-.044h-.091l.043-.044h-.178l-.044-.044v.044h-.09v-.148h-.09v-.044l-.09-.044-.044.044v.044h-.091v-.044h-.134l-.044-.044-.044.044h-.134v.044h.043v.092h-.043v.044h-.09l-.045.044h.044l.044.044.044.092v-.044l.09.044v-.044h.041v.044l.09.092h.045v.053h.044v.135h.178l-.044.045h.044l.044.044-.044.091h.044l.043.045v.044h.044v.045l-.09.091v.044l.043.092h.044v.091l.044.044v.045l.09.044.044-.044v.091l-.044.044h.044l-.044.045v.135l-.043.045v.047h.043v.092l.044.044v.18l-.044-.044v-.092l-.043-.044v-.044l-.044-.044v-.045l-.044.045v.18l-.044.044v.091h-.043l.09.045-.044.044h-.09v.091l-.044.045v.044H6.46v.097h-.044l-.044.045v.044l-.178.18h-.012l-.044-.044h-.09l-.09-.045-.045-.044h-.178l-.044-.044-.044-.092h-.09l-.044-.044h-.18l-.043-.044H5.2l-.09-.092h-.045l-.09-.044H4.93l-.09-.045v-.044H4.75l-.044-.044h-.135l-.09-.092-.09.045-.044-.091-.044-.045v-.091l-.091.044h-.043l-.044-.044v.044H3.99l.044.044-.09.092v-.044l-.045-.045h-.09l-.044-.044-.044.091-.044-.044-.09.092.044.044v.044l.044-.044v.136l-.044.044h.09v.044l-.044.044v.045l-.043.044h.043v.044l-.043.045-.044-.045-.044.045v.09h.012v.137l-.044.044v.136l-.09.091v.092l-.09.092v.091l-.045.044-.043.092-.09.091v.044l-.045.045-.044.091h-.134l-.044.044v.136l-.09.092v.092h.09l.044.044h.044v.136l-.09.091v.044l-.044.045.044.044-.044.091v.045h-.044l-.044.044v.044l-.044.092-.044.044v.026h.091l.044-.044.043.044v.045h.091l.044.044.09.044.045.045.043-.045v.045h.044l.135-.045h.043l.135.136v.045l.09.044.044.044v.044l-.044.044h.178l-.044.092v-.012h-.09l.044.044v.092l.044.044h.044l.043.044.044.092.044-.044v-.044l.09-.045h.091l.044-.044h.044l.09.044h.044l.044-.091h.09l.091.044.044.044h.102l.044.092h.28l.091.044.044-.044h.09l.044.044h.044v.044h.044l.044-.044v-.092l.09-.044v-.044h.091l.044-.044h.134l.09.044.045-.044.09-.044v-.092l.044-.044h.044l.044-.044v-.045l.09-.044h.134l.091-.092-.044-.044v-.044l-.043-.045v-.271l.09-.091.09-.045.091-.091h.044l.178-.18.09-.045v-.044h.045v-.044l.044-.045h.493l.09-.044h.057l.043-.044h.135l.044-.044h.043l.09-.092v-.044l.045-.044v-.136l-.012-.012.012-.012-.024-.012-.023-.044.044-.044-.044-.044.044-.092v-.044l.043-.044h.044l.044-.045h.155l.09-.091h.045l.09.091h.137v.091l.044-.044h.067l.044-.044h.047v.092h.09v.091l.044-.044.09.091v.044l.045.045h.225l.043-.045v-.091h.211v-.044h.09v.068l.08-.08.052-.023.044-.045h.09l.09-.044.045-.045v-.044l.09-.091h.135l.09.091.044-.044.147.092V16l.043-.044h.09L10.75 16v.045l.044.044-.044.044.09.092.044.192.044.18.044.044.09.239h.044l.091.091.043.092.506.51h.044l.044.092h.09l.044.092.044-.045.134.148.091.091h.044l.09.092h.044l.044.044v.18l.09.044h.091l.102.045.044.044v.045l.044.044.044.136.044.147v.136l-.044.044h-.091v.171l-.09.092v.044l.043.044h.135l.044-.044h.043v-.044l.103-.044v-.136l.134-.136h.135v-.319l-.044-.044-.091.044-.043-.08-.012-.123.012-.08h.043v-.044l.044-.045h-.044l.09-.091h.091v.044l.091.044h.17v.012l.043.044v.044l.044.045h.09l.044-.045v-.226l-.102-.045-.044-.091-.044-.045-.09-.044h-.09l-.091-.091-.147-.045-.09-.091h-.134l-.044-.044-.091-.045h-.043l.043-.044h.044l.044-.045v-.091l-.147-.044h-.268l-.09-.045-.044-.091-.135-.136-.043-.091-.091-.092v-.09l.044-.046-.09-.18V16.5l-.045-.044v-.092h-.044l-.178-.091h-.044l-.09-.045v-.044l-.044-.044v-.044l-.044-.092.044-.044v-.092l.09-.091v-.045h-.043l-.044-.044v-.044h-.044l.044-.044h.061v-.092h.269l.044-.044h.044v-.044h.09v.044l.044.044v-.091h.044l.012-.012.043.012.044-.045v.083l-.044.045h-.043l-.044.044.044.044v.18l.043.044v.044l.044.045.044-.091.044-.045.044-.091v-.045h.044l.134.136.044.091-.044.092v.136h.09v.044h.044l.091.092h-.147l.092.09.043.093h.044l.09.091v.044l.091.045.091-.045h.044l.178.18.044.092h.11l.045.092.09.044h.044l.044.09h.053l.043.046h.134l.044.044v.044l.044.044h.044v.092h.091v.044h.123l.043.044v.136h-.043v.319l-.044.045v.09l.044.045-.044.045v.044h.044v.044h-.044v.092h.09l.044.044h.09v.044l.044.092h-.012l.044.091.044.045h.088v.135l.044.045.044-.045h.134v.091h-.134l-.044.045.044.044v.092h.044l.09.044.044-.044h.09v.067l.091-.044h.178l.09.092v-.044h.091l.091.091.09.045-.043.044h-.044l-.044.044-.044-.044v-.044l-.044-.045-.09.045v-.045h-.178l-.044.045h-.178l-.044.044v.044l.044.092h.078l.091.091v.136l-.044.044.044.044v.092l.044.091h.09l.044-.044-.043-.044v-.044l.043-.045.044.045v.135l.044.045h.044l.043.091h.044v-.18l.044-.045v-.044h.044v.092h.236v-.044l-.09-.045v-.044l-.044-.044v-.092h-.044l-.044-.091-.043-.044v-.092h.043l.044.044v.044l.044.045h.044l.178-.092v-.091l-.09.044h-.044l-.044-.044v-.044l.134-.136h.044l.044.091.091.045v-.201l-.033-.015-.043-.044-.09-.044-.045-.045h-.146l-.044-.044.091-.045h.03l-.12-.062h-.103l-.044-.044.091-.091v-.045h-.044l-.044-.091.044-.044h.135l.043.044v.091h.044l.044-.091h-.044l-.134-.136-.044-.091-.09-.044-.045-.045v-.18l-.043-.044.043-.045.091-.044h.044v.092l.044.044.09.18.179.092v-.044l-.091-.045-.044-.044v-.091l.135.135.146.045v-.045h-.044l-.044-.091-.044-.044h.091v.091h.09l.09-.045.045-.044h-.044l-.178-.091-.091-.092v-.044h.225v-.091l.044-.045.09.092h.123l.044-.045-.044-.044h.135l.09.044h.146l.044.045h.044l.044.044h.134l.044-.044v.091h-.044l-.09.092.043.044.044-.044.135-.044.044-.045.09-.044v-.045l.044-.044.09-.044.091-.092.09-.044h.27l.043-.044v-.092h-.044l-.09-.044h-.044l-.102-.091h-.091v-.092l-.044-.044h-.011v-.136h-.044l-.044-.044v-.045h-.091l-.043.045v-.136l.043-.044h.044v-.045l.044-.044-.044-.044v-.092h.061v-.18h.179l.043-.044-.034-.08.011-.023v-.045l.044-.091-.044-.044v-.136l.09-.091h-.09v-.045l.044-.091v-.044l.044-.045.043.045v.091h.044l.044-.045v-.044h.067l.044-.091v-.18l-.035.067-.066-.091h-.012v-.091l-.044-.044v-.045l.044-.044h.043v.044l.044-.044h.09l.045-.045h.09v-.091l-.044-.044h-.044l-.09-.045v-.044h.044l.044-.044.09.092h.044v-.136l.044-.092h.052l.044.044.09-.044.091-.092h.067v.045h.044v-.227l.044.091.044.045v.044l.044.091h-.091v.136l.179.091.146-.091.078-.044h.044l.044-.045.044.148.044-.044.044-.092v-.044h.034l.056.044.044-.044h.19v.044h.044v-.044h.044l.043-.136.09-.044v.068h.056l.135-.148.09-.044.036-.044.043-.044h.044l.102.044.044-.044-.044-.045.09-.044.045-.092.044-.044h.055l.044-.044v-.045l.043.045h.044l.012-.045v-.226l.134-.045.044-.148.044-.044h.225l.044-.147v-.136l-.102-.148h-.044v-.044l.09-.092v-.044h-.09l-.044-.036.044-.044.09-.044.044-.044v-.148h-.043l-.044.056h-.091l-.09-.056h-.091v.056l-.044-.056v-.044h-.134v.044h-.091v-.044l-.102.044-.09-.092v.045l-.091.044-.146-.091-.044-.044v-.045h-.091l-.134.136h-.044l-.044-.045-.043.045-.044-.045h-.19v-.044l-.044-.136v-.044h-.091l-.055-.091v-.045h-.044l-.044.045h-.225v-.227l-.035-.045-.056-.08-.043-.055h-.044l-.09.056-.091-.056h-.044l-.044.056h-.044l-.09.035-.044-.035-.09.035v.091H18.4v-.056l-.09-.035-.045-.035v-.056l-.043-.092-.044-.104v-.18h.035l.09.045.044-.045.091-.044.135-.136-.044-.091h-.091v-.103h-.225v-.136l-.09-.044h-.044l-.147-.036v-.092H17.8l.09-.044-.044-.136-.091-.135v-.045l.044-.044v-.044h-.09l-.044-.092-.09-.044h-.045v.044l-.09.045h-.044v-.045l-.044-.044h-.28v-.044h-.091l-.178.092.015-.066.09-.044h.012l-.044-.103v-.091l-.044-.08v-.044h-.079l-.044-.092h.09v-.192h-.043l-.044.044v-.044h-.044v-.044h.026l.044-.092h-.044l-.044-.044v-.044l.044-.044.09.091.036-.045v-.044l-.036-.044-.09-.044v-.104l-.044-.091.044-.091-.044-.036v-.044l.091-.092v-.103l-.044-.045h-.28l-.045-.044h-.043l-.09.044V8.45zm-4.721 10.638l-.044.044h-.044v.091l-.044.045v.044l.044.045.09.044h.044l.044.044.134.044.044.044.044.092h.09l.044.044h.091l.09.045v.044l.045.091.09.045.044-.045.09.045v-.092l.091-.044v-.091h-.044l.044-.045h-.044v-.091l.044-.044v-.136l.044-.045h.043l.044-.091v-.092l-.087.056h-.09l-.045.044-.044-.044h-.043l-.044.044h-.135l-.09.045h-.094l-.178-.091-.044-.045h-.09l-.091.045v-.045l-.043-.044zm-1.236-1.63l-.044.045h-.044v.044h-.09l-.044.044h-.135l-.044.044-.043-.044v.044l-.044.045v.091l.044.092v.136h.134l-.091.091v.091l-.043.045h-.044l.044.044-.044.092.044.044v.091l.09.045h.09v-.068l.044-.045.091.045h.044l.044.044.043-.044v-.227l.044-.092v-.227h.044l.044-.045v-.044h-.044l.044-.091v-.068h-.044v-.041l-.044-.045h.044l-.09-.091v-.044zm.146-.726h-.044l-.044.024h-.044l-.023.012-.023.035-.044.024-.079.08.011.044-.011.044.011.044.024.044v.056l-.038.034.067.09v.045l.035.044.035.012.044.044v-.044l.044-.044v-.045l.043-.091v-.112l.091-.092v-.18l-.023-.044-.032-.024zm9.232-1.924l-.044.091-.044.044V14.9l-.043-.044h-.056v-.044h-.043v.136l-.044.044-.09.044v.044h-.103l-.044.044v.045l-.09.044v.045l.09-.045h.09l.044.045.09.044.045-.044v.044l.044.08-.044.044.044.091-.044.045v.044h.134l.044.044.146-.044.044-.136.09-.092.091-.044v.044l.055.044.044-.135v-.045l.09-.091h.092v.045h.178l.09-.045v-.044l-.044-.045v-.044h.044v-.044h-.044l-.006.015h-.078l-.091.044-.035.044-.044.045h-.178v-.045l-.056-.044-.09.044-.044-.044v-.044h-.09v-.092l-.044-.044-.056-.044zM7.94 7.98h-.043v.044l-.044.092h.023l-.044.044-.09-.044.043.044h-.044l-.043.045.043.044v.091l-.043-.044h-.044v-.045h-.09l-.045.045v.16l.044.043v.045h-.09v.091h-.044l-.044.044v.092l-.09.044.011.012-.024-.013v-.04h-.067l.047.038v.015l-.043.044h.09v-.044l.079.08.044-.092h.044l.043-.044h.044l-.134.136h.044v.059h-.091l-.043.044-.044.092v.091l.066-.044.044-.092h.044l.044.045v.044l-.044.044h-.044v.068h.091l.044.045h.044v.044H7.54v.044l-.135.136h-.043v.044l-.044.044h-.044v.044h-.043v.18h.043v-.091h.044l.044.045v.046l.043.045v-.091l.044-.045.044.045v.044l.091-.044v.044h.044v-.044h.043l.044.044h.044l.044-.044v.044l-.044.044h-.044v.044l-.044-.044-.09.092v.192l.044.044h.044l-.044.044h.035l.09.044v.044h-.09v.045h-.044v.091h-.044l-.043.044v.045h.043v.091h.044l-.044.044h-.043v-.044l-.044.044-.036-.035v-.044h-.09v-.045l-.146.045h-.044l-.044.044h-.09l-.044.045h-.044l-.015-.027v.056h.044l.044-.044.044.044.043-.044h.044v.044l-.044.044v.092h-.043l.043.044-.043.045H7.02l-.09.091-.045-.045-.043.045h-.135l-.044-.045-.043.045v.044l-.044.045h.134v.044h-.043v.044h.09l.044-.044h.079v.171h.134l-.044.044.09.092h.18l.043-.045v-.012h.122l-.09.092h-.09l-.044.044v.044h-.225l-.044-.044h-.044v-.044h-.135l.044.044-.044.044-.043-.044h-.044v.044l-.044.092h-.09l-.135.044v.045h-.044l-.09.044v.091h.111v-.044h.047v.044l.044-.044.09-.044.09.044h.091v.044l.044.045h.09l.045-.045v-.091l.043-.044.044.044h.225l.09.091v.045h.044l.044-.045h.091l.043.045h.091v-.045l.044-.044.09.092h.316l.044.044h.044l.043.044.091-.044h.041l.044.044.09-.091h.044l.091-.092-.044-.044h-.044l-.043.044-.044-.044h-.044l-.091-.091v-.045h.082l.044.045.043-.045v-.044h-.043l.043-.045h.135v-.044h.09l.091-.091v-.045l.044-.091v-.136l-.044-.044-.09-.044h-.091l-.044-.045-.043.045h-.044l-.044.044-.044-.044v-.092h.044l.09-.091v-.136l-.044-.044v-.044l-.09-.045h-.044v-.044h.111v-.375l-.044-.044v-.044h-.043l-.044-.045h-.044v-.18l.044-.044v-.045l-.044-.044v-.091l.044-.092-.044-.044-.044-.091V9.5l-.044-.091-.09-.092h-.179l-.043-.044h-.044v-.044h.044l.043.044h.088v-.044h.087l.044-.044h-.044l-.043-.045H7.99v-.044h.16l.045.044.043-.044h.044v-.045l.09-.044.045-.044v-.044l-.044-.044.044-.045h.023v-.044h.044l.043-.045V8.65h-.134v-.044l-.044-.045h-.315l-.09.045h-.045V8.47l.091-.044h.044v-.045l.043-.044h.091l.09-.091h.091v-.045l.044-.044-.044-.044h-.09v-.044l-.091.044-.09-.044v-.045l-.044.045-.044-.045h.04l-.09-.044zM6.663 9.261v.044H6.53l-.09-.044-.044.044h-.091l-.09.092-.147.044.044.044.091.045h.044l-.044.044h-.09v.091l-.103.045-.044-.045-.09-.044v-.044l-.091-.092h-.09l-.044.092h-.044l.044.044v.092l-.09.091h-.045l-.044.045.044.091v.044h.044v.113l.044-.045h.134v.045l-.044.044H5.65l-.147.044-.09.092h-.09l.043.044.09-.044.045.044h.09l.044.044H5.5l-.044-.044h-.134v.044h-.179l-.043.044v.045h.134l.044.044h-.135l-.09.091.044.045.044-.045.044.045-.044.044v.044h.09l-.09.045h.146v.088l.09-.044h.044l.044.044h.09l.044-.044.044.044h.091v-.044h.043l.044-.044v.014h.046l.044-.044h.315l.044.044.09-.044.044-.044v-.044h.044l.044-.045v-.044h.043v-.136l.044-.044v-.091l.044-.045v-.136l.044-.044.082-.044.09-.092h.091v-.091l.044-.044v.103h.044v-.092l-.044-.044-.044.044-.044-.044.044-.044h.044v-.092l-.044-.091V9.44h-.134v-.044h-.044l-.044.044h-.044l-.043-.044h.09l.044-.044-.092-.092zm5.663.898h-.09l-.004.017h-.043l-.044.045h.044l.043.044-.043.044h-.091v.092h-.044l-.044-.045.044-.044v-.044h-.044v.044l-.043.044h-.044l-.044.045v.044l.044.044-.044.044v.044l.044.045h.134v.044h-.044l.091.045h.043l-.043-.045.043-.044h.044l.044-.091-.044-.045.091-.103.044-.044-.044-.092.044-.044h-.044l.044-.044zm3.371-7.492h-.044l-.09.091v.045l-.09.044v.192l-.044-.045V2.95l-.044-.044V2.77h-.041l.04-.041-.043-.044-.146.091-.044-.045-.044.045v.044l.091.045-.135.044-.044-.044-.043.044V3h-.044l.044.045-.09.091-.045-.091-.044.044v.091l-.043.045-.044-.045h-.044v.05l-.044-.044h-.043l-.044.045v.044h-.044l-.044.044v.092l.044.044v.103l-.091-.091h-.043l-.044.103-.044-.103-.044.044v.112l.044.092v.044l-.044-.044-.044-.092v.1l-.044.092-.036-.037.039-.12-.044-.044h-.043v.045h-.091v.091l-.044.044.044.045v.02h-.003l-.044.044.044.045-.09.091v.044l.043.045-.043.044h-.147v-.044l-.043.044v.204l-.044.091V4.24l-.044.044H13.5l-.043.045h.043l.044.044v.044l-.044-.044-.043.044-.044-.044h-.044v.092l-.044.044.134-.044.044.044v.044h-.134l-.044.044v.05h.09v.092h-.09l-.09.092-.091-.045-.044.045v.091h-.044l-.043.044.043.045-.043.044h-.091l.09.091.044-.044v.112h-.134v.045l.043.044-.043.044h-.044l-.09.092.043.044v.044l-.044.044-.044-.044v-.044l-.043.091v.045h.043v.091l-.043.044h-.044v.092l-.044.044h-.044v.124h.044v.095l-.044.044-.09-.044v-.045l-.044-.044-.09.091h-.091v.092l-.044.044-.044.092h-.09v.136l-.044-.045-.091.092-.044-.045-.09.092h-.044v.092l-.044-.045h-.044l.044.045v.044h-.044l-.043-.044-.044.044h-.135v.044l.044.092h-.09l-.091-.045h-.044l-.044.045.044.044v.044h-.134l-.044.092v-.092h-.044l-.044.044-.044-.044h-.09v.092l.044.044h.044v.044h-.044l-.044.044h-.102v.045l.044.044v.044l-.091-.044v.091l.043.092h.103v.044h-.044l-.09-.044v.092l.043.091.044.045-.044.044-.044-.044-.044.044v.044l.091.044h-.09v.036l.09.091h.103l.09-.044-.178.18.102.091h-.09l-.044.045-.044-.045h-.044l-.044.092v.044l-.044.092.044.044.091-.147h.09v.17h-.043v.092l-.044.045v-.045l-.044.045v.18l.09.091.147.044-.103.092.102.044.044-.044v.091h.237l.09-.044v.044l.091-.044.044-.044.044-.092.044-.044.146-.044v-.044l.044-.045h.09v.045l.044.044.09-.044v-.092l.091-.092v-.091l-.044-.045.09-.103.091-.091h.044v.091l-.044.045h-.044v.091h.068l.134.091-.079.092v.407h.044v.092l.044-.045.044.045-.044.091v.148l.044.044-.044.044v.092l.044.044h.09v.148l.103.044V9.9h-.044v.044l-.044.044v.092l.044.044v.044l.044.044v.136l-.044.045.044.044.044-.044.043.044.135-.044.044.044h.09v-.227l.044-.044h.09l.044-.045h-.044l.044-.044.091-.045.09.045v.044h.179v-.136l.09-.135v-.092l.091-.092v-.044h-.044l.044-.091.043-.045-.043-.044V9.35l.043-.045v-.044l.044-.092v-.091l-.044-.091.091-.045-.146-.044.044-.044.09.044h.044l.09-.091v-.092h.147l.044.044.044-.091.044-.045.09-.044-.09-.044V8.49l.043-.044h.044l.09-.136-.043-.044v-.092l-.091.044v-.092l-.09-.091v-.091l-.09.044-.091-.092v-.091l-.044-.045v-.044l-.044-.044h.044l.044-.044v-.227h.044l-.044-.045.044-.044V7.22l.043-.044v-.092h-.146v-.091l.044-.044.09.044.044-.044h.044l.044-.045h.044l.09-.044-.043-.044.09-.092-.044-.044h.091l.044-.091.043.044.091-.044-.044-.045.044-.044h.044l.09-.044v-.18l.044-.092h.044l.044-.091.044-.045-.044-.044v-.227l.044-.045v-.091l.043-.044h.091v-.227h.044l.044.044.09-.092.044.044h.09l.045.045.044-.045-.001-.076.015.014v.104h.044l.044.044h.046v.044l.044.045v.227l.044.044v.044H15.5v.045l-.091.147v.045l-.044.091-.134.136v.092l-.09.044-.091.092v.135l-.091.045-.043-.045h-.044v.103l-.091.092v.136l.044.044v.092l-.044.044v.02l.09.045v.375l-.09.044v.092l.09.135h.135l.044.045h.134l.044.091v.091l.09.092h.19l.044-.092.044-.044.044.092.09-.092.091-.044.135-.044h.122v-.092l.044-.044.044.092.044-.045.09-.044.044-.091.044.044h.146l.044-.044.09-.192.044-.045.044-.091.09-.092.044-.103.044-.136v.045h.044l.044-.045-.044-.044.044-.045v-.091l.09-.091v-.045l.044-.091.091-.044.044-.092-.044-.092-.044-.044-.292-.092-.09-.091h-.045l-.043-.091h.09l.044-.044v-.092l-.044-.044V5.94h-.09v-.091l-.09-.044.09-.045-.044-.044v-.045l-.044.045-.044-.045v-.135l-.043-.045v-.044l.043-.044-.043-.092-.147-.103v-.091l-.09-.18-.044-.044-.103-.045v-.044l-.043-.045-.044-.091v-.227l.044-.044V4.26l-.09-.091-.091-.045V4.08l-.135-.136V3.9l.044-.045v-.044l.044-.044.023-.171.067-.103.103-.056.111-.024.043-.172-.011.012h-.135l.044-.044v-.092l-.044-.044h.044l.044-.044v-.092h-.044v-.044h-.09l-.091.044v-.09h-.09l-.044-.044-.09.091v.044l-.045.045-.044-.092v-.044l.044-.044v-.136zm-3.722 6.626h-.044l-.044.045h-.102l-.044.044h-.044l-.09.091v.045l-.044.044h-.272l-.044.045v.044l.044.091v-.091l.044-.044h.225l.044-.045h.135l.09.092v-.045l.09-.091v-.091h-.043v-.045l.055-.044.044-.045z" fill="#24758E"/></g></g><defs><clipPath id="actsvg_e3129767df__clip0_7850_36"><path fill="#fff" d="M0 0h24v24H0z"/></clipPath></defs></svg>
