<svg xmlns="http://www.w3.org/2000/svg" viewBox="0 0 24 24" fill="none"><path d="M17.22 8.446h-.277l-.053.055h-.332v.127h-.165l-.054.055v.168h.111v.098h-.054v.236l.112.112h.054v-.054l.054-.055h.054l.054.055-.054.113v.153l-.054.014v.447l-.111.114h-.055l-.165-.168v-.127l-.111-.113h-.055l-.054-.055v-.054h-.112l-.111.054-.053.055h-.055l-.054.113v.127l-.112.222-.053.349v.28l.053.181v.183h.127v.054l.053.055h.054l.055.054h-.082l-.015.03h-.195l-.015-.044-.043-.07-.082.015h-.055v.055h.055l-.055.113-.053.054h-.112v-.167l-.18.113v.054l-.097.084.097.043v.055l-.054.055h-.054v.167h-.166v-.055h-.053l-.166.055-.055-.055v-.167l-.053-.054v-.055h-.18l-.054.055h-.055l-.112-.055-.054.055h-.053v.054h-.055l-.054.055-.054-.055-.165.167h-.054l-.055.055h-.053v.014h-.22l-.112.055-.053.113-.055.054.055.055v.054l-.015-.014h-.082l-.054-.084v-.07h-.181v-.221h-.165v-.053l-.055-.056v-.054h-.054l-.053.054h-.112l-.22.114-.053-.055v.055h-.22l-.111-.055h.04v-.054h.053v-.114h-.111l-.055.054-.054-.112h-.112v-.055h-.11v-.054l.053-.055-.126-.127.029-.03h.054l-.111-.112.054-.055h.053l-.053-.054v-.054h.053v-.114h.054l.055-.054h.053v-.054l.112-.055.054-.113-.054-.055h-.058l.054-.054v-.113l-.054-.055h-.112v-.054h-.053v-.054l.053-.055h.055l-.055-.054v-.055h-.11v.055h-.181l-.054.054.054.055v.054l-.054-.054-.054.054v-.112h-.054l-.054.054v.055h-.054l-.054-.055h-.054v-.054h-.054v.054l-.054.055v.462l-.054.054.054.055h.054v.054l.054.055v.28h-.014v.197l.053.054v.054l-.11.055h-.055v.054h.055v.113l.11.055-.053.054.053.055h-.216v.222l-.053.054v.084l-.054-.113v-.112h-.054v.054h-.054v-.054l.054-.055-.112-.055h-.277v.084l-.054.054v.055h.054v.055l.054.054-.015.015-.054-.055-.053.055h-.054v-.222h-.112l-.054.054-.112.055v-.113l-.053.055h-.112l-.112.054-.054.055v.334l-.112.113h-.11v-.113l.053-.054h-.054l.111-.113v-.054l-.053-.055h-.112l-.054.113v.112l-.054.055v.055H8.86v.054l-.054.055h-.112v.113h.055v.054l-.112.055v-.113h-.054v.222h.054l.054.054H8.65l-.055.054v.056h-.219v-.056l-.054-.054h-.054v-.054h-.054l-.054.054-.054-.054v.054l-.112.054v-.014h-.331l-.053.055v.152l-.055.056v.221h-.111l-.055.054h-.054l-.219.113h-.22v.055h.054l.108.054.055.055h-.055v.054l-.111-.054h-.22v-.055h-.111l-.22-.112v.054l-.111-.054.053-.055-.053-.055v-.054l.053-.055h-.11l-.055-.054h-.054v.054l-.054.055v.167l.054.113-.054.055V14l.054.055v.054h-.112l-.053-.054H5.84L5.894 14h-.219l-.054-.054V14H5.51v-.181h-.111v-.055l-.112-.055-.054.055v.055h-.112v-.055h-.165l-.054-.055-.054.055h-.165v.055h.053v.112h-.053v.055H4.57l-.054.054h.054l.053.055.055.113v-.055l.111.055v-.055h.05v.055l.112.112h.054v.066h.055v.167h.219l-.054.055h.054l.054.054-.054.113h.054l.054.055v.054h.054v.055l-.112.113v.054l.054.113h.054v.113l.055.054v.055l.11.054.055-.054v.112l-.054.055h.054l-.054.055v.166l-.054.055v.058h.054v.113l.054.055v.221l-.054-.054v-.112l-.054-.055v-.055l-.054-.054v-.055l-.054.055v.222l-.054.054v.113h-.054l.112.055-.054.054H5.28v.112l-.054.055v.055h-.053v.12H5.12l-.054.055v.054l-.22.222h-.014l-.055-.055h-.11l-.112-.055-.054-.054h-.22l-.054-.054-.054-.113H4.06l-.053-.055h-.222l-.054-.054h-.11l-.112-.113h-.054l-.112-.054h-.054l-.111-.055v-.055h-.112l-.054-.054h-.166l-.11-.113-.113.055-.054-.113-.054-.055v-.112l-.112.054H2.35l-.054-.054v.054H2.13l.054.055-.112.113v-.055l-.054-.055h-.11l-.055-.054-.054.113-.055-.055-.111.113.054.054v.055l.054-.055v.168l-.054.054h.112v.055l-.055.054v.055l-.053.054h.053v.055l-.053.055-.054-.055-.054.055v.112h.014v.168l-.054.054v.168l-.112.112v.113l-.11.113v.113l-.055.054-.053.113-.112.113v.054l-.054.055-.054.113H.828l-.054.054v.167l-.112.113v.113h.112l.054.054h.054v.168l-.112.112v.055l-.054.055.054.054-.054.112v.055H.662l-.054.055v.055l-.054.112-.054.054v.033h.112l.054-.054.053.054v.055h.112l.054.055.112.054.054.055.054-.055v.055h.054l.166-.055h.053l.166.167v.055l.112.055.054.054v.055l-.054.054h.22l-.055.112v-.013H1.71l.053.054v.112l.055.055h.054l.053.055.054.113.055-.055v-.054l.111-.055h.112l.053-.055h.055l.111.055h.055l.053-.113h.112l.111.054.055.055h.125l.054.113h.345l.113.055.053-.055h.112l.054.055h.055v.054h.053l.054-.054v-.113l.112-.055v-.055h.112l.054-.054h.165l.112.054.054-.054.112-.054v-.113l.053-.055h.054l.054-.054v-.055l.112-.054h.165l.112-.113-.054-.055v-.054l-.054-.055v-.334l.112-.113.11-.055.113-.112h.054l.22-.222.11-.055v-.054h.055v-.055l.054-.055h.608l.112-.054h.069l.053-.055h.166l.054-.054h.054l.112-.113v-.055l.054-.054v-.167l-.015-.015.015-.014-.029-.015-.029-.054.054-.055-.054-.054.054-.114v-.054l.054-.054h.054l.054-.055h.19l.113-.113h.054l.11.113h.17v.112l.054-.054h.083l.054-.054h.058v.112h.111v.113l.054-.054.112.112v.054l.054.055h.277l.054-.055v-.112h.26v-.054h.111v.084l.097-.1.065-.028.054-.055h.111l.112-.054.054-.055v-.054l.112-.113H10l.11.113.055-.055.18.113v-.055l.054-.054h.112l-.055.054v.055l.055.054-.055.055.112.113.054.236.054.222.054.054.112.295h.054l.111.113.054.112.623.63h.054l.054.113h.112l.054.113.053-.056.166.183.112.112h.054l.111.113h.054l.054.055v.222l.112.054h.112l.126.055.054.054v.055l.053.054.054.168.055.181v.168l-.055.054h-.111v.211l-.112.113v.055l.054.054h.166l.054-.054h.054v-.055l.126-.054v-.168l.165-.167h.166v-.393l-.054-.054-.112.054-.053-.099-.015-.152.015-.098h.053v-.054l.055-.055h-.055l.112-.113h.112v.054l.111.055h.21v.015l.053.054v.054l.055.055h.11l.055-.055v-.279l-.126-.055-.054-.112-.054-.055-.112-.055h-.111l-.112-.112-.18-.055-.111-.113h-.166l-.055-.054-.111-.055h-.054l.054-.054h.054l.054-.055v-.113l-.18-.054h-.33l-.113-.055-.054-.113-.166-.167-.053-.113-.112-.112v-.113l.055-.055-.112-.221v-.055l-.054-.055v-.112h-.055l-.219-.113h-.054l-.112-.055v-.054l-.053-.055v-.054l-.055-.113.055-.055v-.113l.11-.112v-.055h-.053l-.054-.054v-.055h-.054l.054-.055h.076v-.112H12l.055-.055h.054v-.054h.112v.054l.053.055v-.113h.054l.015-.014.054.014.054-.055v.102l-.054.055h-.054l-.054.054.054.055v.221l.054.056v.054l.054.055.054-.113.053-.055.055-.112v-.055h.054l.166.167.053.113-.053.113v.167h.11v.055H13l.111.112h-.18l.112.113.054.113h.054l.112.113v.054l.111.055.112-.055h.054l.22.222.054.113h.136l.054.113.112.054h.053l.055.112h.066l.053.055h.165l.054.055v.055l.054.054h.055v.112h.111v.056h.151l.054.054v.167h-.054v.393l-.054.055v.113l.054.054-.054.055v.054h.054v.054h-.054v.114h.112l.053.054h.112v.055l.054.112h-.014l.054.113.054.055h.107v.167l.055.055.054-.055h.166v.112h-.166l-.054.055.054.055v.113h.054l.112.054.053-.054h.112v.083l.112-.055h.22l.11.113v-.054h.112l.112.112.112.056-.054.054h-.055l-.053.054-.054-.054v-.054l-.054-.056-.112.056v-.056h-.22l-.053.056h-.22l-.054.054v.054l.054.113h.097l.112.113v.167l-.054.055.054.054v.113l.054.113h.112l.053-.055-.053-.055v-.054l.053-.055.054.055v.167l.055.055h.054l.053.112h.054v-.221l.055-.055v-.054h.053v.112h.291v-.054l-.11-.055v-.054l-.055-.055v-.113h-.054l-.054-.113-.053-.054v-.113h.053l.054.055v.054l.054.055h.055l.219-.113v-.113l-.112.055h-.054l-.053-.055v-.054l.165-.168h.054l.054.113.112.055v-.247l-.04-.018-.054-.055-.111-.055-.055-.055h-.18l-.054-.054.112-.055h.037l-.148-.076h-.127l-.054-.054.112-.113v-.055h-.054l-.055-.112.055-.055h.166l.053.055v.112h.054l.055-.112h-.055l-.165-.168-.054-.113-.112-.054-.054-.055v-.222l-.053-.054.053-.055.112-.054h.054v.112l.054.056.111.221.22.113v-.054l-.111-.055-.055-.055v-.112l.166.167.18.055v-.055h-.054l-.054-.113-.054-.054h.112v.112h.111l.112-.055.054-.054H17.3l-.22-.113-.111-.113v-.054h.277v-.113l.054-.055.111.114h.152l.054-.055-.054-.055h.166l.111.055h.18l.054.055h.054l.054.054h.166l.053-.054v.112h-.053l-.112.113.053.055.055-.055.166-.054.054-.055.11-.055v-.055l.055-.054.112-.054.111-.113.112-.055h.331l.054-.054v-.113h-.054l-.112-.054h-.054l-.125-.113h-.112v-.113l-.054-.055h-.014v-.167h-.055l-.054-.054v-.055h-.111l-.054.055v-.168l.053-.054h.055v-.055l.054-.054-.054-.055v-.113h.075v-.222h.22l.054-.054-.043-.098.014-.03v-.054l.054-.113-.054-.054v-.168l.112-.112h-.112v-.055l.054-.113v-.054l.055-.055.053.055v.113h.054l.054-.055v-.055h.082l.055-.112v-.222l-.043.083-.082-.113h-.015v-.112l-.054-.054v-.055l.054-.055h.053v.055l.055-.055h.111l.054-.055h.111v-.112l-.053-.054h-.054l-.112-.055v-.055h.054l.054-.055.111.114h.055v-.168l.054-.112h.065l.054.054.11-.054.113-.114h.082v.055h.055v-.28l.054.113.053.055v.054l.055.113h-.112v.167l.22.113.18-.113.097-.054h.054l.053-.055.055.182.054-.055.054-.112v-.055h.043l.069.055.053-.055h.234v.055h.055v-.055h.054l.053-.167.112-.055v.084h.068l.166-.182.112-.055.043-.054.054-.054h.054l.125.054.055-.054-.055-.056.112-.054.054-.113.055-.054h.068l.054-.054v-.055l.053.055h.055l.014-.055v-.28l.166-.055.054-.182.054-.054h.277l.054-.182v-.168l-.126-.181h-.054v-.055l.112-.113v-.055h-.112l-.054-.043.054-.054.112-.055.053-.055v-.181h-.053l-.054.069h-.112l-.112-.07h-.112v.07l-.053-.07v-.054h-.166v.055h-.112v-.055l-.125.055-.112-.114v.056l-.112.054-.18-.113-.054-.054v-.055h-.112l-.165.168h-.054l-.054-.056-.053.056-.055-.056h-.234v-.054l-.054-.167v-.054h-.112l-.068-.113v-.055h-.054l-.054.055h-.277v-.28l-.043-.055-.069-.099-.053-.068h-.055l-.111.069-.112-.069h-.054l-.054.069h-.054l-.111.044-.055-.044-.111.044v.112h-.015v-.069l-.112-.043-.054-.044v-.069l-.053-.113-.055-.128v-.221h.043l.112.055.054-.055.112-.055.166-.167-.055-.113h-.111V11.6h-.278v-.168l-.11-.054h-.055l-.18-.043v-.114h-.165l.11-.054-.053-.168-.112-.166v-.055l.054-.055v-.055h-.111l-.054-.112-.112-.054h-.054v.054l-.112.055h-.054v-.055l-.053-.054h-.346v-.055h-.112l-.22.113.019-.08.11-.055h.016l-.054-.127v-.113l-.054-.098v-.054h-.098l-.054-.114h.112v-.236h-.054l-.054.055v-.055h-.055v-.054h.033l.053-.113h-.053l-.054-.055v-.054l.054-.054.11.112.044-.055v-.054l-.043-.054-.11-.055v-.128l-.055-.112.054-.113-.054-.043v-.055l.112-.113v-.127l-.055-.055h-.345l-.055-.055h-.053l-.112.055v-.055zm-5.816 13.109l-.055.054h-.054v.112l-.054.055v.055l.054.055.112.054h.054l.054.055.165.054.055.055.054.113h.11l.055.054h.112l.111.055v.054l.055.113.111.055.054-.055.111.055v-.113l.112-.055v-.112h-.054l.054-.055h-.054V22.1l.054-.054v-.168l.054-.055h.054l.054-.112v-.113l-.108.07h-.111l-.055.053-.054-.054h-.053l-.054.054h-.166l-.112.055h-.115l-.22-.112-.053-.055h-.112l-.112.055v-.055l-.053-.054zM9.88 19.547l-.055.055h-.054v.055h-.11l-.055.054h-.166l-.054.054-.053-.054v.054l-.055.055v.113l.055.112v.168h.165l-.112.112v.113l-.053.055h-.055l.055.054-.055.113.055.055v.112l.111.055h.111v-.084l.054-.055.112.055h.054l.055.054.053-.054v-.28l.054-.112v-.28h.054l.054-.056v-.054h-.054l.054-.112v-.084h-.054v-.05l-.054-.056h.054l-.111-.112v-.055zm.18-.895h-.055l-.053.03h-.054l-.029.014-.029.044-.054.029-.097.098.014.054-.014.055.014.055.029.054v.069l-.047.04.083.113v.055l.044.054.042.015.054.054v-.054l.055-.055v-.055l.053-.112v-.138l.112-.114v-.221l-.029-.055-.04-.03zm11.376-2.37l-.055.112-.054.054v-.054l-.053-.055h-.07v-.054h-.053v.167l-.054.054-.111.055v.055h-.126l-.054.054v.055l-.112.054v.055l.112-.055h.111l.053.055.112.054.055-.054v.054l.054.099-.054.054.054.113-.054.055v.054h.165l.054.054.18-.054.054-.168.112-.112.111-.055v.055l.069.054.054-.167v-.055l.111-.112h.112v.055h.22l.111-.055v-.055l-.054-.055v-.054h.054v-.055h-.054l-.007.019h-.097l-.112.054-.043.054-.054.055h-.22v-.055l-.068-.054-.112.054-.053-.054v-.054h-.112v-.113l-.054-.055-.068-.054zM6.997 7.867h-.054v.054l-.054.114h.029l-.054.054-.112-.054.054.054h-.054l-.054.055.054.054v.113l-.054-.054h-.054v-.055h-.111l-.055.055v.196l.055.054v.055H6.42v.113h-.054l-.054.054v.113l-.111.054.013.015-.03-.016v-.049h-.081l.057.046v.02l-.053.053h.112v-.054l.097.099.054-.114h.054l.053-.054h.055l-.166.167h.054v.073h-.112l-.053.054-.054.114v.112l.082-.055.054-.112h.054l.054.055v.054l-.054.054h-.054v.084h.112l.054.055h.054v.054h-.054v.055l-.166.167h-.054v.055l-.054.054h-.054v.054h-.053v.222h.053v-.112h.054l.054.055v.057l.054.055v-.112l.054-.055.054.055v.054l.112-.054v.054h.054v-.054h.054l.054.054h.054l.053-.054v.054l-.053.055H6.72v.054l-.054-.054-.112.112v.237l.054.054h.054l-.054.054h.044l.111.056v.054h-.111v.055h-.055v.112h-.054L6.49 11v.056h.053v.112h.054l-.054.054H6.49v-.054l-.054.054-.044-.043v-.055H6.28v-.054l-.18.054h-.054l-.053.055H5.88l-.054.055h-.054l-.018-.033v.069h.054l.054-.054.054.054.054-.054h.054v.054l-.054.054v.114h-.054l.054.054-.054.055h-.054l-.112.112-.054-.055-.053.055h-.166l-.054-.055-.054.055v.055l-.054.055h.165v.054h-.053v.054h.111l.054-.054h.098v.21h.165l-.055.055.112.113h.22l.054-.055v-.014h.15l-.11.113h-.112l-.054.054v.054h-.277l-.054-.054h-.054v-.054H5.51l.054.054-.054.054-.054-.054h-.054v.054l-.054.114h-.112l-.165.054v.055h-.054l-.112.054v.113h.138v-.055H5.1v.055l.054-.055.111-.054.112.055h.112v.054l.054.055h.111l.055-.055v-.113l.053-.054.054.054h.277l.112.113v.055h.054l.054-.055h.112l.053.055h.112v-.055l.054-.055.112.113h.389l.054.055h.054l.053.054.112-.054h.051l.053.054.112-.112h.054l.112-.114-.054-.054h-.054l-.054.054-.054-.054H7.53l-.112-.112v-.055h.101l.054.055.054-.055v-.055h-.054l.054-.055h.166v-.054h.111l.112-.112v-.055l.053-.113v-.168l-.053-.054-.112-.054h-.111l-.055-.055-.053.055h-.054l-.054.054-.055-.054v-.113h.055l.111-.113v-.167l-.054-.055v-.054l-.112-.055H7.47v-.054h.136v-.463l-.054-.054v-.054h-.053l-.054-.055h-.055v-.222l.055-.054v-.055l-.055-.054v-.113l.055-.113-.055-.054-.054-.113v.014l-.053-.112-.112-.113h-.22l-.054-.055h-.054v-.054h.054l.054.054h.108v-.054h.108l.054-.054h-.054l-.054-.056h-.054v-.054h.198l.054.054.054-.054h.054v-.055l.112-.054.054-.055v-.054L7.53 8.97l.054-.055h.029V8.86h.054l.053-.055v-.112h-.165V8.64l-.054-.056h-.389l-.111.056h-.054v-.168l.111-.054h.054v-.055l.054-.055h.112l.111-.112h.112V8.14l.054-.054-.054-.055h-.112v-.055l-.111.055-.112-.055v-.055l-.054.055-.054-.055h.05l-.111-.054zM5.424 9.447v.054h-.165l-.112-.054-.054.054H4.98l-.112.113-.18.055.054.054.112.055h.054l-.054.054h-.112v.113L4.618 10l-.054-.055-.112-.054v-.056l-.112-.112h-.112l-.053.112h-.054l.054.056v.112l-.112.113H4.01l-.054.055.054.112v.054h.054v.14l.054-.056h.166v.055l-.055.054h-.053l-.18.056-.112.112h-.111l.053.054.112-.054.054.054h.112l.054.055H3.99l-.054-.055h-.165v.055h-.22l-.054.054v.055h.166l.054.055H3.55l-.111.112.053.055.054-.055.055.055-.055.055v.054h.112l-.112.055h.181v.109l.111-.055h.054l.054.055h.111l.055-.055.054.055h.112v-.055h.053l.054-.054v.018h.056l.054-.054h.389l.054.054.112-.054.053-.055v-.055h.054l.055-.055v-.054h.053v-.168l.054-.054v-.112l.054-.055v-.168l.055-.054.1-.054.111-.114h.112v-.112l.054-.054v.127h.055v-.113l-.055-.055-.054.055-.054-.055.054-.054h.054v-.113l-.054-.113V9.67h-.165v-.055h-.054l-.054.055h-.055l-.053-.055h.111l.054-.055-.112-.112zm6.977 1.106h-.112l-.004.021h-.053l-.055.055h.055l.053.054-.053.055h-.112v.113h-.054l-.055-.055.055-.054v-.055h-.055v.055l-.053.054h-.054l-.054.055v.054l.054.055-.054.054v.055l.054.054h.165v.055h-.053l.111.055h.054l-.054-.055.054-.055h.054l.054-.112-.054-.055.112-.127.054-.055-.054-.112.054-.055h-.054l.054-.054zm4.154-9.232H16.5l-.112.113v.055l-.111.054v.237l-.054-.055V1.67l-.054-.055V1.45l-.05-.001.05-.05-.055-.054-.18.112-.053-.055-.054.055v.054l.112.055-.166.055-.055-.055-.053.055v.112h-.054l.054.055-.112.113-.054-.113-.054.054v.113l-.053.055-.055-.055h-.054v.062l-.054-.055h-.054l-.054.055v.055h-.054l-.054.055v.112l.054.054v.128l-.112-.113h-.053l-.054.127-.055-.127-.054.054v.14l.054.112v.054l-.054-.054-.053-.113v.123l-.054.113-.045-.045.048-.148-.054-.054h-.054v.055h-.111v.112l-.055.054.055.055-.001.025h-.004l-.053.055.053.055-.11.113v.054l.053.055-.053.054h-.181v-.054l-.053.054v.252l-.055.112v-.28l-.054.054h-.112l-.053.055h.053l.055.054v.055l-.055-.055-.053.055-.054-.055h-.054v.114l-.055.054.166-.054.054.054v.054h-.165l-.055.055v.062h.112v.112h-.112l-.11.114-.112-.055-.055.055V4.1H13.3l-.053.055.053.055-.053.054h-.112l.112.112.053-.054v.138h-.165v.055l.054.054-.054.055h-.054l-.112.113.055.054v.055l-.055.054-.054-.054v-.055l-.053.113v.055h.053v.112l-.053.054h-.055v.114l-.054.054H12.7v.153h.054v.116l-.054.055-.11-.055v-.055l-.055-.054-.112.113h-.112v.112l-.054.055-.053.113h-.112v.167l-.054-.055-.112.114-.054-.055-.11.113h-.055v.113l-.054-.055h-.054l.054.055v.054h-.054l-.054-.054-.054.054h-.166v.055l.054.112h-.111l-.112-.055H11.1l-.054.055.054.055v.055h-.166l-.054.112v-.112h-.054l-.053.054-.055-.054h-.111v.112l.054.054h.054v.055h-.054l-.054.055h-.126v.055l.054.054v.054l-.111-.054v.112l.053.114h.126v.054h-.054l-.112-.054v.112l.055.113.054.055-.054.054-.055-.054-.054.054v.054l.112.055h-.112v.044l.112.112h.127l.111-.054-.22.222.127.113h-.112l-.054.055-.055-.055h-.053l-.054.112v.055l-.054.113.054.054.111-.18h.112v.21h-.054v.112l-.054.055v-.055l-.054.055v.222l.111.112.181.055-.127.113.126.054.054-.054v.112h.292l.112-.055v.055l.111-.055.054-.054.054-.112.054-.055.18-.055v-.054l.054-.055h.112v.055l.053.054.112-.054v-.113l.112-.113v-.112l-.054-.055.111-.128.112-.112h.054v.112l-.054.055h-.054v.113h.083l.166.112-.098.114v.5h.054v.114l.054-.055.055.055-.055.113v.182l.055.054-.055.055v.113l.055.054h.11v.182l.127.055v.112h-.054v.055l-.054.054v.113l.054.055v.054l.054.054v.168l-.054.055.054.054.054-.054.054.054.166-.054.054.054h.111v-.28l.054-.054h.112l.054-.055h-.054l.054-.054.112-.055.111.055v.054h.22v-.168l.111-.166v-.113l.112-.113V9.89h-.054l.054-.113.053-.055-.053-.054v-.113l.053-.055v-.054l.055-.113V9.22l-.055-.112.112-.055-.18-.055.055-.054.111.054h.053l.112-.112v-.113h.181l.053.054.055-.112.054-.055.111-.054-.111-.055v-.055l.053-.054h.054l.112-.167-.054-.055v-.113l-.112.055V8.05l-.11-.113v-.112l-.112.054-.112-.113v-.112l-.054-.055v-.054l-.054-.055h.054l.054-.055v-.279h.054l-.054-.055.054-.055v-.113l.053-.054v-.113h-.18v-.113l.055-.054.112.054.053-.054h.054l.054-.055h.054l.112-.054-.054-.055.112-.113-.054-.054h.111l.055-.112.053.054.112-.054-.055-.056.055-.054h.054l.111-.055V5.77l.054-.112h.054l.054-.113.054-.055-.054-.054v-.28l.054-.055v-.113l.054-.054h.112v-.28h.054l.054.054.112-.112.053.054h.112l.054.055.054-.055v-.094l.018.018V4.7h.054l.054.055h.058v.054l.054.055v.28l.054.055v.054h-.166v.055l-.112.181v.055l-.054.113-.165.167v.113l-.112.054-.111.114v.166l-.112.055-.053-.055h-.055V6.4l-.111.112v.168l.054.055v.112l-.054.055v.025l.111.055v.462l-.111.054v.113l.111.167h.165l.055.055h.165l.055.113v.112l.11.113h.235l.054-.113.054-.054.054.112.111-.112.112-.055.166-.054h.15V7.78l.055-.055.054.113.054-.055.112-.054.054-.112.053.054h.18l.054-.054.112-.237.054-.055.054-.112.111-.113.055-.127.054-.168v.055h.054l.053-.055-.053-.054.053-.055v-.113l.112-.112v-.055l.054-.113.112-.054.054-.113-.054-.113-.054-.054-.36-.113-.112-.113h-.054l-.053-.113h.11l.055-.054v-.113l-.055-.054v-.055h-.11v-.113l-.112-.054.112-.055-.055-.054v-.055l-.054.055-.054-.055v-.167l-.053-.055v-.054l.053-.055-.053-.113-.181-.127V4.34l-.11-.222-.055-.054-.127-.055v-.054l-.053-.055-.054-.113v-.279l.054-.055v-.168l-.112-.113-.111-.055v-.054l-.166-.168v-.054l.054-.055v-.054l.054-.054.029-.212.082-.127.126-.069.138-.03.053-.21-.014.014h-.166l.054-.054v-.113l-.054-.055h.054l.054-.054v-.113h-.054V1.6h-.111l-.112.054v-.112h-.112l-.053-.054-.112.113v.054l-.054.055-.054-.113v-.055l.054-.054v-.168zm-4.586 8.165h-.054l-.055.055h-.125l-.054.055h-.055l-.11.112v.055l-.055.054h-.335l-.054.055v.055l.054.112v-.112l.054-.055h.277l.054-.055h.166l.112.114v-.055l.11-.113v-.112h-.053v-.055l.069-.055.054-.055z" fill="currentColor"/></svg>
