<svg xmlns="http://www.w3.org/2000/svg" viewBox="0 0 49 49" fill="none"><g clip-path="url(#axjsvg_bf57c906fa__clip0_7669_37741)"><path d="M34.224 3.086A2 2 0 0032.81 2.5H10.22a2 2 0 00-2 2v40a2 2 0 002 2h32a2 2 0 002-2V13.91a2 2 0 00-.585-1.413l-9.41-9.411z" fill="#309256"/><path d="M44.221 13.999h-9.5a2 2 0 01-2-2V2.5h.09a2 2 0 011.414.586l9.41 9.41a2 2 0 01.586 1.415v.088z" fill="#2A814B"/><rect x="15.09" y="19.885" width="14.184" height="2.702" rx=".5" fill="#fff"/><rect x="15.09" y="26.586" width="14.184" height="2.702" rx=".5" fill="#fff"/><rect x="15.09" y="33.289" width="14.184" height="2.702" rx=".5" fill="#fff"/><rect x="32.102" y="19.883" width="6.369" height="2.702" rx=".5" fill="#fff"/><rect x="32.102" y="26.586" width="6.369" height="2.702" rx=".5" fill="#fff"/><rect x="32.102" y="33.289" width="6.369" height="2.702" rx=".5" fill="#fff"/><g filter="url(#axjsvg_bf57c906fa__filter0_d_7669_37741)"><rect x="4.222" y="16.088" width="21.737" height="23" rx="1" fill="#35A15F"/></g><g filter="url(#axjsvg_bf57c906fa__filter1_d_7669_37741)"><path d="M9.287 33.436l3.446-5.86v-.066l-3.454-5.772h4.005l1.84 3.73h.065l1.848-3.73h3.81l-3.623 5.788v.065l3.607 5.845h-3.826l-2.019-3.526h-.065l-2.002 3.526H9.287z" fill="#FEFFFF"/></g></g><defs><filter id="axjsvg_bf57c906fa__filter0_d_7669_37741" x="-4.778" y="7.088" width="43.737" height="45" filterUnits="userSpaceOnUse" color-interpolation-filters="sRGB"><feFlood flood-opacity="0" result="BackgroundImageFix"/><feColorMatrix in="SourceAlpha" values="0 0 0 0 0 0 0 0 0 0 0 0 0 0 0 0 0 0 127 0" result="hardAlpha"/><feOffset dx="2" dy="2"/><feGaussianBlur stdDeviation="5.5"/><feColorMatrix values="0 0 0 0 0 0 0 0 0 0 0 0 0 0 0 0 0 0 0.18 0"/><feBlend in2="BackgroundImageFix" result="effect1_dropShadow_7669_37741"/><feBlend in="SourceGraphic" in2="effect1_dropShadow_7669_37741" result="shape"/></filter><filter id="axjsvg_bf57c906fa__filter1_d_7669_37741" x="1.279" y="15.738" width="27.568" height="27.697" filterUnits="userSpaceOnUse" color-interpolation-filters="sRGB"><feFlood flood-opacity="0" result="BackgroundImageFix"/><feColorMatrix in="SourceAlpha" values="0 0 0 0 0 0 0 0 0 0 0 0 0 0 0 0 0 0 127 0" result="hardAlpha"/><feOffset dy="2"/><feGaussianBlur stdDeviation="4"/><feComposite in2="hardAlpha" operator="out"/><feColorMatrix values="0 0 0 0 0 0 0 0 0 0 0 0 0 0 0 0 0 0 0.15 0"/><feBlend in2="BackgroundImageFix" result="effect1_dropShadow_7669_37741"/><feBlend in="SourceGraphic" in2="effect1_dropShadow_7669_37741" result="shape"/></filter><clipPath id="axjsvg_bf57c906fa__clip0_7669_37741"><path fill="#fff" transform="translate(.222 .5)" d="M0 0h48v48H0z"/></clipPath></defs></svg>
