<svg xmlns="http://www.w3.org/2000/svg" viewBox="0 -0.5 49 49" fill="none"><path fill-rule="evenodd" clip-rule="evenodd" d="M44.857 25.987c0 10.997-8.914 19.911-19.91 19.911-10.997 0-19.912-8.914-19.912-19.91 0-10.997 8.915-19.912 19.911-19.912 10.997 0 19.911 8.915 19.911 19.911z" fill="#141414" fill-opacity=".08"/><path d="M24.857 43.996c11.046 0 20-8.954 20-20s-8.954-20-20-20c-11.045 0-20 8.954-20 20s8.955 20 20 20z" fill="#EE3F38"/><path fill-rule="evenodd" clip-rule="evenodd" d="M24.857 40.663c9.205 0 16.667-7.462 16.667-16.667 0-9.205-7.462-16.667-16.667-16.667-9.204 0-16.666 7.462-16.666 16.667 0 9.205 7.462 16.667 16.666 16.667zm20-16.667c0 11.046-8.954 20-20 20-11.045 0-20-8.954-20-20s8.955-20 20-20c11.046 0 20 8.954 20 20z" fill="#D7312A"/><path fill-rule="evenodd" clip-rule="evenodd" d="M27.05 29.82c.55 0 .996.446.996.995v2.589c0 .55-.445.995-.995.995h-2.589a.996.996 0 01-.995-.995v-2.589c0-.55.446-.995.995-.995h2.589zm0-14.622c.55 0 .996.446.996.996v10.473c0 .55-.445.996-.995.996h-2.589a.996.996 0 01-.995-.996V16.194c0-.55.446-.996.995-.996h2.589z" fill="#141414" fill-opacity=".2"/><path fill-rule="evenodd" clip-rule="evenodd" d="M26.055 28.824c.55 0 .995.446.995.995v2.589c0 .55-.445.995-.995.995h-2.589a.996.996 0 01-.995-.995v-2.589c0-.55.445-.995.995-.995h2.589zm0-14.622c.55 0 .995.446.995.996V25.67c0 .55-.445.996-.995.996h-2.589a.996.996 0 01-.995-.996V15.198c0-.55.445-.996.995-.996h2.589z" fill="#fff"/></svg>
