<svg xmlns="http://www.w3.org/2000/svg" viewBox="0 -0.5 49 49" fill="none"><path fill-rule="evenodd" clip-rule="evenodd" d="M44.274 25.993c0 11.04-8.949 19.988-19.988 19.988-11.04 0-19.99-8.949-19.99-19.988 0-11.04 8.95-19.99 19.99-19.99s19.988 8.95 19.988 19.99z" fill="#141414" fill-opacity=".08"/><path d="M4.297 24c0-11.047 8.953-20 20-20s20 8.953 20 20-8.953 20-20 20-20-8.953-20-20z" fill="#F0A50F"/><path fill-rule="evenodd" clip-rule="evenodd" d="M24.297 7.333C15.091 7.333 7.63 14.794 7.63 24c0 9.206 7.461 16.667 16.667 16.667 9.206 0 16.667-7.46 16.667-16.667 0-9.206-7.461-16.667-16.667-16.667zm0-3.333c-11.047 0-20 8.953-20 20s8.953 20 20 20 20-8.953 20-20-8.953-20-20-20z" fill="#D08D06"/><path fill-rule="evenodd" clip-rule="evenodd" d="M26.123 29.702c.55 0 .996.446.996.995v2.589c0 .55-.446.995-.996.995h-2.588a.995.995 0 01-.996-.995v-2.589c0-.55.446-.995.996-.995h2.588zm0-14.622c.55 0 .996.446.996.996v10.473c0 .55-.446.996-.996.996h-2.588a.995.995 0 01-.996-.996V16.076c0-.55.446-.996.996-.996h2.588z" fill="#141414" fill-opacity=".2"/><path fill-rule="evenodd" clip-rule="evenodd" d="M25.128 28.707c.55 0 .995.445.995.995v2.589c0 .55-.445.995-.995.995H22.54a.996.996 0 01-.996-.995v-2.589c0-.55.446-.995.995-.995h2.589zm0-14.622c.55 0 .995.446.995.995v10.474c0 .55-.445.996-.995.996H22.54a.996.996 0 01-.996-.996V15.081c0-.55.446-.996.995-.996h2.589z" fill="#fff"/></svg>
