<svg xmlns="http://www.w3.org/2000/svg" viewBox="0 0 48 48" fill="none"><path fill-rule="evenodd" clip-rule="evenodd" d="M24 2c12.15 0 22 9.85 22 22s-9.85 22-22 22S2 36.15 2 24 11.85 2 24 2zm0 4C14.059 6 6 14.059 6 24s8.059 18 18 18 18-8.059 18-18S33.941 6 24 6zm1 26a1 1 0 011 1v2a1 1 0 01-1 1h-2a1 1 0 01-1-1v-2a1 1 0 011-1h2zm-.282-20c.446 0 .608.046.77.134a.906.906 0 01.378.378c.088.162.134.324.134.77v14.436c0 .446-.046.608-.134.77a.908.908 0 01-.378.378c-.162.088-.324.134-.77.134h-1.436c-.446 0-.608-.046-.77-.134a.908.908 0 01-.378-.378c-.088-.162-.134-.324-.134-.77V13.282c0-.446.046-.607.134-.77a.908.908 0 01.378-.378c.162-.088.324-.134.77-.134h1.436z" fill="currentColor"/></svg>
