<svg xmlns="http://www.w3.org/2000/svg" viewBox="0 0 16 16" fill="none"><g clip-path="url(#ayasvg_8c7dd922ad__clip0_4299_14414)"><path fill-rule="evenodd" clip-rule="evenodd" d="M11.39.667c.177 0 .347.07.472.195l1.943 1.944a.667.667 0 01.195.47v11.39a.667.667 0 01-.667.667H2.667A.667.667 0 012 14.666V1.333c0-.368.298-.666.667-.666h8.723zM10.666 2H3.333v12h9.334V4.012H11a.333.333 0 01-.333-.333V2zm-3 9c.185 0 .334.15.334.333V12c0 .184-.15.333-.333.333H5A.333.333 0 014.667 12v-.667c0-.184.149-.333.333-.333h2.667zM11 8.333c.184 0 .333.15.333.333v.667c0 .184-.149.333-.333.333H5a.333.333 0 01-.333-.333v-.667c0-.184.149-.333.333-.333h6zm0-2.667c.184 0 .333.15.333.334v.667c0 .184-.149.333-.333.333H5a.333.333 0 01-.333-.333V6c0-.184.149-.333.333-.333h6z" fill="currentColor"/></g><defs><clipPath id="ayasvg_8c7dd922ad__clip0_4299_14414"><path d="M0 0h16v16H0z" fill="currentColor"/></clipPath></defs></svg>
