<svg xmlns="http://www.w3.org/2000/svg" viewBox="0 0 48 48" fill="none"><path fill-rule="evenodd" clip-rule="evenodd" d="M9 42.718c0 .446-.046.607-.134.77a.908.908 0 01-.378.378c-.163.088-.324.134-.77.134H6.282c-.446 0-.607-.046-.77-.134a.908.908 0 01-.378-.378c-.088-.163-.134-.324-.134-.77V5.282c0-.446.046-.607.134-.77a.909.909 0 01.378-.378c.163-.088.324-.134.77-.134h1.436c.446 0 .607.046.77.134a.906.906 0 01.378.378c.088.163.134.324.134.77V6h19.436c.892 0 1.215.093 1.54.267.327.174.583.43.757.756.174.326.267.65.267 1.54V14h9.436c.892 0 1.215.093 1.54.267.327.174.583.43.757.756.174.326.267.65.267 1.54v16.873c0 .892-.093 1.215-.267 1.54a1.81 1.81 0 01-.756.757c-.326.174-.65.267-1.54.267H19.563c-.892 0-1.215-.093-1.54-.267a1.817 1.817 0 01-.757-.756c-.16-.301-.252-.6-.265-1.345L17 28H9v14.718zM39 18h-8v7.436c0 .892-.093 1.215-.267 1.54a1.81 1.81 0 01-.756.757c-.326.174-.65.267-1.54.267h-7.438L21 32h18V18zM9 10h18v14H9V10z" fill="currentColor"/></svg>
