<svg xmlns="http://www.w3.org/2000/svg" viewBox="0 0 12 12" fill="none"><g clip-path="url(#aylsvg_c5836008c1__clip0_76312_140262)"><path fill-rule="evenodd" clip-rule="evenodd" d="M2.25 10.68c0 .111-.012.151-.033.192a.227.227 0 01-.095.095c-.04.021-.081.033-.192.033h-.36c-.111 0-.151-.012-.192-.033a.227.227 0 01-.095-.095c-.021-.04-.033-.081-.033-.192V1.32c0-.111.012-.151.033-.192a.227.227 0 01.095-.095c.04-.021.081-.033.192-.033h.36c.111 0 .151.012.192.033.04.022.073.054.095.095.021.04.033.081.033.192v.18h4.859c.223 0 .304.023.385.067a.454.454 0 01.19.189c.043.081.066.162.066.385V3.5h2.359c.223 0 .304.023.385.067a.454.454 0 01.19.189c.043.081.066.162.066.385v4.218c0 .223-.023.304-.067.385a.454.454 0 01-.189.19c-.081.043-.162.066-.385.066H4.891c-.223 0-.304-.023-.385-.067a.454.454 0 01-.19-.189c-.04-.075-.062-.15-.066-.336V7h-2v3.68zm7.5-6.18h-2v1.859c0 .223-.023.304-.067.385a.454.454 0 01-.189.19C7.413 6.976 7.332 7 7.11 7h-1.86l.001 1h4.5V4.5zm-7.5-2h4.5V6h-4.5V2.5z" fill="currentColor"/></g><defs><clipPath id="aylsvg_c5836008c1__clip0_76312_140262"><path d="M0 0h12v12H0z" fill="currentColor"/></clipPath></defs></svg>
