<svg xmlns="http://www.w3.org/2000/svg" viewBox="0 0 48 48" fill="none"><rect x="10.264" y="5" width="32.736" height="29.524" rx="1.2" fill="#B5BCC9"/><rect x="5" y="12.253" width="32.736" height="30.747" rx="1.2" fill="url(#ayosvg_68c03a7615__paint0_linear_7496_35677)"/><mask id="ayoa" style="mask-type:alpha" maskUnits="userSpaceOnUse" x="5" y="12" width="33" height="31"><path d="M5 13.453a1.2 1.2 0 011.2-1.2h30.336a1.2 1.2 0 011.2 1.2V41.8a1.2 1.2 0 01-1.2 1.2H6.2A1.2 1.2 0 015 41.8V13.453z" fill="url(#ayosvg_68c03a7615__paint1_linear_7496_35677)"/></mask><g mask="url(#ayoa)"><path fill-rule="evenodd" clip-rule="evenodd" d="M13.458 18.57L5 12.812 7 9.8l13 8.77h-6.542z" fill="#B5BCC9"/><circle cx="16.748" cy="18.59" r="3.255" fill="#fff"/><path fill-rule="evenodd" clip-rule="evenodd" d="M29.251 35.385l9.901 6.925-2 3.013-13.147-9.034 5.246-.904z" fill="#B5BCC9"/><circle cx="25.963" cy="35.364" r="3.255" transform="rotate(180 25.963 35.364)" fill="#fff"/><path fill-rule="evenodd" clip-rule="evenodd" d="M3.578 17.534l13.372 9.597 8.99-3.6a2.683 2.683 0 012.477.252l16.24 10.739-2.115 3.197-15.737-10.407-9.015 3.611a2.683 2.683 0 01-2.562-.31L1.344 20.647l2.234-3.114z" fill="#B5BCC9"/></g><defs><linearGradient id="ayosvg_68c03a7615__paint0_linear_7496_35677" x1="21.368" y1="12.253" x2="21.368" y2="43" gradientUnits="userSpaceOnUse"><stop stop-color="#818A9C"/><stop offset="1" stop-color="#353D51"/></linearGradient><linearGradient id="ayosvg_68c03a7615__paint1_linear_7496_35677" x1="21.368" y1="12.253" x2="21.368" y2="43" gradientUnits="userSpaceOnUse"><stop stop-color="#818A9C"/><stop offset="1" stop-color="#353D51"/></linearGradient></defs></svg>
