<svg xmlns="http://www.w3.org/2000/svg" viewBox="-0.5 0 49 49" fill="none"><path d="M6.154 38.734V16.501H1.55v-2.686c.632 0 1.261 0 1.847-.076 2.086-.201 3.264-1.085 3.3-3.335h2.916v28.33h-3.46zm14.01-3.4l5.66-9.773c.43-.75.853-1.502 1.247-2.252 1.243-2.34 1.513-3.442 1.513-6.052 0-.161.037-.949-.114-1.58-.385-1.862-1.631-2.097-2.445-2.097-.929 0-1.323.357-1.629.677-.852.91-.776 2.182-.776 3.287v3.2h-3.142V17.26c0-.396.04-.79.04-1.144.037-.83.037-3.442 2.29-4.867a6.09 6.09 0 013.178-.83c3.649 0 4.963 2.575 5.394 3.917.193.632.43 1.74.43 3.366a14.165 14.165 0 01-1.206 5.816 25.983 25.983 0 01-1.36 2.573l-5.624 9.62h8.536v3.007H20.164v-3.383zm25.824-.379c-.502 1.411-1.995 3.712-5.587 3.712-.575 0-2.635-.077-4.244-1.366-1.068-.861-1.683-2.187-1.683-4.995 0-.742.04-1.484.04-2.263l3.06.04c-.037.815 0 1.677.04 2.501.036 1.093.113 1.91.99 2.578a2.7 2.7 0 001.607.507c.19 0 1.145-.037 1.796-.547 1.19-.934 1.032-2.733 1.032-3.986 0-.546.04-1.13.04-1.677 0-.156.036-1.91-.616-2.966-.614-.935-1.833-1.167-2.872-1.167-.34 0-.689 0-1.068.037l.036-3.088c.04 0 2.295.272 3.29-.703.841-.779.954-2.26.954-3.244 0-.861-.036-1.677-.113-2.538-.037-.78-.227-2.38-2.371-2.38-.303 0-.918-.04-1.493.544-.691.705-.842 1.677-.842 3.55 0 .354 0 .705.037 1.056h-3.054a21.763 21.763 0 010-2.223c.077-2.42.538-4.607 3.026-5.545a8.229 8.229 0 012.448-.388c1.643 0 2.674.51 3.286.898 1.61 1.094 2.298 2.734 2.298 6.369 0 2.808-.227 4.216-1.304 5.153-.728.666-1.53.74-1.833.816.765.196 2.522.51 3.137 2.734.34 1.167.425 4.097.425 5.349-.009.425-.009 1.946-.462 3.235v-.003zM12.887 35.135h3.6v3.6h-3.6v-3.6z" fill="currentColor"/></svg>
