<svg xmlns="http://www.w3.org/2000/svg" viewBox="0 0 48 48" fill="none"><path fill-rule="evenodd" clip-rule="evenodd" d="M39.264 21c2.406 0 4.194.677 5.353 2.042 1.006 1.193 1.512 2.914 1.512 5.133V38.81a1 1 0 01-1 1H43.69a1 1 0 01-1-1v-1.132a6.989 6.989 0 01-2.04 1.73c-1.112.584-2.387.886-3.805.886-1.602 0-2.893-.435-3.847-1.291l-.186-.177c-1.064-.971-1.592-2.242-1.592-3.804 0-2.084.748-3.708 2.222-4.817 1.318-1.05 3.195-1.595 5.63-1.666l3.4-.099v-.508c0-2.363-1.115-3.512-3.426-3.512-.994 0-1.794.2-2.38.592a2.79 2.79 0 00-1.1 1.354l-.042.124a1 1 0 01-1.05.7l-1.677-.16a1 1 0 01-.9-1.091l.01-.082.033-.133.014-.048c.448-1.506 1.266-2.666 2.428-3.432 1.19-.84 2.82-1.245 4.88-1.245zM17.8 9a.93.93 0 01.867.594l11.27 29.142A.93.93 0 0129.072 40h-2.246a.93.93 0 01-.867-.594l-3.767-9.74H9.845L6.042 39.41a.93.93 0 01-.866.591H2.928a.93.93 0 01-.865-1.267L13.439 9.59a.93.93 0 01.866-.59H17.8zm24.673 23.36v-.809l-3.175.098c-2.895.066-4.3 1.154-4.3 3.235 0 .626.222 1.112.702 1.522.463.42 1.104.641 1.889.641 1.333 0 2.47-.455 3.436-1.365.958-.902 1.448-2.02 1.448-3.323zM16.048 13.777l-4.736 12.13h9.427l-4.691-12.13z" fill="currentColor"/></svg>
