<svg xmlns="http://www.w3.org/2000/svg" viewBox="0 0 48 48" fill="none"><path fill-rule="evenodd" clip-rule="evenodd" d="M14.5 13.332l-.5.288v1.195a5.921 5.921 0 004.485 5.745 9.898 9.898 0 014.79 2.794l.725.765.726-.765a9.898 9.898 0 014.789-2.794A5.921 5.921 0 0034 14.815v-1.194l-.5-.29a5 5 0 114.999 0l-.499.29v1.194a9.921 9.921 0 01-7.515 9.625A5.921 5.921 0 0026 30.185v4.195l.5.288a5 5 0 11-4.999 0L22 34.38v-4.195a5.921 5.921 0 00-4.485-5.745A9.921 9.921 0 0110 14.815v-1.194l-.5-.29a5 5 0 114.999 0z" fill="currentColor"/></svg>
