<svg xmlns="http://www.w3.org/2000/svg" viewBox="0 0 49 49" fill="none"><path d="M6.71 15.873A20.056 20.056 0 0118.857 5.386c-.69 1.18-1.257 2.544-1.725 3.985-.616 1.902-1.109 4.101-1.457 6.502H6.71zM24.76 4.5c-2.579 0-4.806 4.646-5.85 11.373h11.698C29.564 9.146 27.338 4.5 24.759 4.5zM6.711 33.128h8.963c.348 2.4.841 4.6 1.457 6.5.468 1.443 1.036 2.807 1.724 3.986A20.056 20.056 0 016.711 33.128zM24.743 44.5h.031c2.572-.018 4.792-4.659 5.834-11.372H18.91C19.95 39.84 22.17 44.48 24.743 44.5zM42.752 33.128h-8.963c-.349 2.4-.842 4.6-1.458 6.5-.467 1.443-1.035 2.807-1.724 3.986a20.056 20.056 0 0012.145-10.486zM42.76 15.873A20.056 20.056 0 0030.614 5.386c.689 1.18 1.256 2.544 1.724 3.985.616 1.902 1.109 4.101 1.457 6.502h8.963zM44.015 19.073c.468 1.664.727 3.417.744 5.227v.4a20.005 20.005 0 01-.744 5.228h-9.801c.15-1.745.228-3.565.228-5.428s-.078-3.682-.228-5.427h9.801zM5.504 19.073A20.004 20.004 0 004.76 24.3v.4c.018 1.81.276 3.563.745 5.228h9.801a63.386 63.386 0 01-.229-5.428c0-1.863.079-3.682.23-5.427H5.503zM18.519 19.073a59.943 59.943 0 00-.242 5.427c0 1.881.084 3.702.242 5.428h12.48c.157-1.726.24-3.547.24-5.428 0-1.881-.083-3.701-.24-5.427h-12.48z" fill="currentColor"/></svg>
