<svg xmlns="http://www.w3.org/2000/svg" viewBox="0 -0.5 49 49" fill="none"><path fill-rule="evenodd" clip-rule="evenodd" d="M15.021 30.02c-1.69-2.482-2.29-5.275-2.522-6.898-.319-2.238.535-5.19 3.453-6.483 1.786-.791 4.464-1.425 8.487-1.425 4.024 0 6.702.634 8.488 1.425 2.918 1.293 3.772 4.245 3.453 6.483-.232 1.623-.832 4.416-2.522 6.898-1.828 2.684-4.89 4.902-9.419 4.902-4.528 0-7.59-2.218-9.418-4.901zm1.438-7.462c.391 2.745 1.931 8.364 7.98 8.364 6.05 0 7.59-5.619 7.98-8.364.136-.948-.237-1.874-1.112-2.262-1.153-.51-3.25-1.082-6.868-1.082-3.616 0-5.714.572-6.867 1.082-.875.388-1.248 1.314-1.113 2.262zm8.777.868a1 1 0 01.732-1.04l4.11-1.13a.5.5 0 01.633.459l.059 1.26a2 2 0 01-1.998 2.093h-2.484a1 1 0 01-.997-.924l-.055-.718zm-2.503-1.04a1 1 0 01.732 1.04l-.055.718a1 1 0 01-.997.924h-2.484a2 2 0 01-1.998-2.094l.06-1.26a.5.5 0 01.631-.458l4.11 1.13z" fill="currentColor"/><path fill-rule="evenodd" clip-rule="evenodd" d="M40.822 35.312c2.87 2.384 4.685 6.067 4.685 10.165h-4c0-2.972-1.343-5.575-3.37-7.193-.136-.109-.299-.228-.481-.362-.437-.32-.99-.726-1.581-1.28-.807-.754-.625-2.023.256-2.69l.407-.308.084-.069a9.942 9.942 0 003.728-8.648c-.898-6.55-4.256-12.327-9.127-16.36a5.303 5.303 0 00-.324-.25l-.111-.079-.106-.086A10.04 10.04 0 0024.51 5.89H24.368c-2.42 0-4.631.847-6.37 2.263l-.107.086-.111.08c-.1.07-.208.152-.324.248a25.826 25.826 0 00-8.823 14.596l-.015.071a25.74 25.74 0 00-.29 1.695l-.002.03a9.941 9.941 0 003.722 8.612l.407.309c.88.666 1.063 1.936.257 2.69-.598.56-1.157.97-1.598 1.294-.184.135-.348.255-.486.365-2.045 1.631-3.398 4.255-3.398 7.249h-4c0-4.137 1.841-7.854 4.748-10.25a13.91 13.91 0 01-3.685-9.45c0-.385.015-.766.046-1.142a.138.138 0 01-.001-.044l.014-.106v-.002c.096-.721.218-1.434.365-2.137v-.002c1.407-6.731 5.081-12.63 10.188-16.859.19-.157.379-.302.567-.435a14.04 14.04 0 018.896-3.16h.142a14.04 14.04 0 018.897 3.16c.188.133.377.278.567.435 5.662 4.69 9.564 11.431 10.564 19.085a.01.01 0 010 .005.016.016 0 01-.003.004c.034.395.05.794.05 1.197 0 3.687-1.428 7.04-3.763 9.536z" fill="currentColor"/></svg>
