<svg xmlns="http://www.w3.org/2000/svg" viewBox="0 -0.5 49 49" fill="none"><path fill-rule="evenodd" clip-rule="evenodd" d="M23.76 4.205a2 2 0 012 0l15.642 9.031a2 2 0 011 1.732v18.063a2 2 0 01-1 1.732l-15.643 9.031a2 2 0 01-2 0L8.117 34.763a2 2 0 01-1-1.732V14.968a2 2 0 011-1.732l15.642-9.03zM11.765 18.743l2.379 2.38 10.268-10.314 2.943 1.95-4.182 10.256 6.884-6.884 2.944 1.942-4.155 10.385 6.344-6.344 4.875 4.874-2.546 2.546-2.329-2.33-10 10.002-2.945-1.942 4.155-10.385-6.989 6.989-2.94-1.953 4.164-10.21-6.486 6.514-4.93-4.93 2.546-2.546z" fill="currentColor"/></svg>
