<svg xmlns="http://www.w3.org/2000/svg" viewBox="0 -0.5 49 49" fill="none"><path opacity=".5" d="M7.118 33.113a2 2 0 00.999 1.675l15.642 9.031a2 2 0 001.022.268l-.001-19.063c0-.552-.388-1.223-.866-1.5L7.39 13.985a1.998 1.998 0 00-.273.978v18.151z" fill="currentColor"/><path d="M23.76 4.206a2 2 0 012 0l15.642 9.03a2 2 0 011 1.733v18.062a2 2 0 01-1 1.732l-15.643 9.032c-.303.175-.64.264-.98.267V25c0-.552-.387-1.224-.866-1.5L7.39 13.96c.172-.295.42-.546.727-.723l15.642-9.031zM7.117 18.64V33.03 18.64z" fill="currentColor"/></svg>
