<svg xmlns="http://www.w3.org/2000/svg" viewBox="0 0 48 48" fill="none"><g clip-path="url(#bbasvg_a88f05b6c9__clip0_18705_56656)"><path d="M7.737 9.086a1 1 0 010-1.415l1.415-1.414a1 1 0 011.414 0l30.847 30.847a1 1 0 010 1.415l-1.414 1.414a1 1 0 01-1.414 0L7.737 9.086z" fill="currentColor"/><path fill-rule="evenodd" clip-rule="evenodd" d="M14.543 10.304c-7.177 3.19-10.856 9.381-11.96 11.528a3.624 3.624 0 000 3.335c1.513 2.94 7.862 13.477 21.416 13.477 6.1 0 10.74-2.133 14.136-4.747l-2.86-2.86c-2.787 2.022-6.497 3.608-11.276 3.608-10.952 0-16.29-8.33-17.775-11.146 1.163-2.203 4.684-7.783 11.408-10.105l-3.09-3.09zm5.29 5.29a8.934 8.934 0 1012.072 12.072l-3.09-3.089a4.936 4.936 0 01-9.75-1.078 4.936 4.936 0 013.856-4.816l-3.088-3.089zm4.64-1.017l8.448 8.45a8.935 8.935 0 00-8.448-8.45zm13.803 13.804a23.012 23.012 0 003.5-4.882c-1.487-2.815-6.824-11.145-17.777-11.145-.576 0-1.137.023-1.682.067l-3.515-3.515a24.09 24.09 0 015.197-.552c13.555 0 19.904 10.537 21.418 13.478a3.623 3.623 0 010 3.335c-.608 1.18-1.995 3.585-4.314 6.04l-2.827-2.826z" fill="currentColor"/></g><defs><clipPath id="bbasvg_a88f05b6c9__clip0_18705_56656"><path d="M0 0h47.999v47.999H0z" fill="currentColor"/></clipPath></defs></svg>
