<svg xmlns="http://www.w3.org/2000/svg" viewBox="0 0 48 48" fill="none"><path fill-rule="evenodd" clip-rule="evenodd" d="M8.633 3.28a1 1 0 00.186.256L43.503 38.22c.077.077.164.14.256.186l.107.107a1 1 0 010 1.414l-1.414 1.414a1 1 0 01-1.414 0l-5.65-5.65c-2.983 1.822-6.703 3.114-11.254 3.114-13.347 0-19.552-11.12-20.97-14.086a1.649 1.649 0 010-1.439c.905-1.893 3.76-7.108 9.179-10.634L5.807 6.111a1 1 0 010-1.414l1.415-1.415a1 1 0 011.41-.003zm11.8 6.213L41.39 30.45c1.988-2.378 3.185-4.623 3.715-5.73.22-.462.22-.979 0-1.44-1.418-2.966-7.623-14.086-20.97-14.086-1.302 0-2.535.106-3.702.3zM15.523 24a8.58 8.58 0 012.307-5.866l2.396 2.395a5.227 5.227 0 007.379 7.379L30 30.304A8.611 8.611 0 0115.523 24z" fill="currentColor"/></svg>
