<svg xmlns="http://www.w3.org/2000/svg" viewBox="0 0 48 48" fill="none"><path d="M41.999 3.999a2 2 0 012 2v28a2 2 0 01-2 2h-16v4h5a1 1 0 011 1v2a1 1 0 01-1 1h-14a1 1 0 01-1-1v-2a1 1 0 011-1h5v-4h-16a2 2 0 01-2-2v-28a2 2 0 012-2h36zM8.001 32.001h32v-24h-32v24z" fill="currentColor"/><path d="M21.993 24.051a1.401 1.401 0 00-.588 1.08c-.014.423.176.83.518 1.111a1.632 1.632 0 001.247.347 1.55 1.55 0 001.09-.658l3.067-4.59a.457.457 0 00-.102-.616.564.564 0 00-.677-.015l-4.555 3.341z" fill="currentColor"/><path d="M24 13.034c6.65 0 12.042 5.391 12.042 12.041l-.004.312a.202.202 0 01-.203.195h-2.903a.5.5 0 01-.49-.507 8.442 8.442 0 00-16.883 0 .5.5 0 01-.491.507h-2.59a.513.513 0 01-.519-.507c0-6.65 5.391-12.04 12.041-12.04z" fill="currentColor"/></svg>
