<svg xmlns="http://www.w3.org/2000/svg" viewBox="0 0 48 48" fill="none"><path d="M23.024 1.457a.51.51 0 00-.51.51v4.271c0 .282.228.51.51.51h2.353a.51.51 0 00.51-.51V1.966a.51.51 0 00-.51-.51h-2.353zM7.918 9.002a.51.51 0 01.716-.09l3.37 2.625a.51.51 0 01.09.715l-1.446 1.857a.51.51 0 01-.715.09l-3.371-2.625a.51.51 0 01-.09-.715l1.446-1.857zM40.043 8.98a.51.51 0 00-.717-.077l-3.324 2.684a.51.51 0 00-.076.717l1.478 1.83a.51.51 0 00.717.077l3.324-2.683a.51.51 0 00.076-.717L40.043 8.98z" fill="#BD2923"/><path d="M7.997 41.67c0-.558.453-1.01 1.012-1.01h29.983c.559 0 1.012.452 1.012 1.01v1.477c0 .559-.453 1.012-1.012 1.012H9.009a1.012 1.012 0 01-1.012-1.012v-1.476z" fill="#141414" fill-opacity=".08"/><path d="M7.997 40.169c0-.563.457-1.02 1.02-1.02h29.967c.563 0 1.02.456 1.02 1.02v1.46a1.02 1.02 0 01-1.02 1.02H9.017a1.02 1.02 0 01-1.02-1.02v-1.46z" fill="#BD2923"/><path d="M10.26 23.276c0-7.589 6.152-13.74 13.74-13.74s13.74 6.151 13.74 13.74v19.266H10.26V23.276z" fill="#D7312A"/><path fill-rule="evenodd" clip-rule="evenodd" d="M34.312 39.114V23.276c0-5.695-4.617-10.312-10.312-10.312-5.695 0-10.311 4.617-10.311 10.312v15.838h20.623zM24 9.536c-7.588 0-13.74 6.151-13.74 13.74v19.266h27.48V23.276c0-7.589-6.152-13.74-13.74-13.74z" fill="#BD2923"/><path fill-rule="evenodd" clip-rule="evenodd" d="M22.942 19.712a.386.386 0 01.342-.207h6.01c.323 0 .504.371.304.625l-3.32 4.225a.386.386 0 00.304.625h4.19c.336 0 .512.4.283.648l-7.735 8.38c-.273.295-.76.029-.657-.36l1.433-5.446a.386.386 0 00-.374-.485h-4.335a.386.386 0 01-.342-.565l3.897-7.44z" fill="#141414" fill-opacity=".2"/><path fill-rule="evenodd" clip-rule="evenodd" d="M21.942 19.712a.386.386 0 01.342-.207h6.01c.323 0 .504.371.304.625l-3.32 4.225a.386.386 0 00.304.625h4.19c.336 0 .512.4.283.648l-7.735 8.38c-.273.295-.76.029-.657-.36l1.433-5.446a.386.386 0 00-.374-.485h-4.335a.386.386 0 01-.342-.565l3.897-7.44z" fill="#F6F8FA"/></svg>
