<svg xmlns="http://www.w3.org/2000/svg" viewBox="0 -0.5 49 49" fill="none"><g clip-path="url(#bbosvg_b3ee70eb96__clip0_18705_56643)"><path fill-rule="evenodd" clip-rule="evenodd" d="M24.49 3.415c-9.47 0-14.263 4.095-15.834 5.799-.643.698-.919 1.543-.993 2.29L6.117 27.075c-.01.1-.017.202-.02.302l-.009.305c-.007.267-.01.375-.033.497-.137.701-.208 1.418-.208 2.147 0 4.171 2.3 7.782 5.688 10.278 3.39 2.497 7.976 3.98 12.955 3.98 4.978 0 9.565-1.483 12.954-3.98 3.389-2.496 5.689-6.107 5.689-10.278 0-.728-.071-1.445-.208-2.144-.023-.123-.026-.232-.033-.498v-.006l-.009-.3a4.523 4.523 0 00-.02-.303l-1.546-15.572c-.074-.747-.35-1.592-.993-2.29-1.57-1.704-6.365-5.8-15.834-5.8zm-9.684 10.081c-.215.246-.322.558-.354.883l-.876 8.85a2.07 2.07 0 002.061 2.276h17.566a2.07 2.07 0 002.058-2.3l-.987-8.883a1.515 1.515 0 00-.305-.793c-.774-.96-3.414-3.533-9.499-3.533-6.017 0-8.804 2.516-9.664 3.5zM4.16 29.695c-.09.909-1.177 1.218-1.61.413-.984-1.826-1.554-4-1.554-6.334 0-3.347 1.174-6.367 3.058-8.503.59-.669 1.555-.145 1.467.743L4.16 29.694zm40.674-.023c.09.91 1.179 1.218 1.61.412.976-1.822 1.541-3.986 1.541-6.31 0-3.336-1.167-6.347-3.04-8.482-.588-.67-1.556-.148-1.467.741l1.356 13.639zM21.5 17a2 2 0 11-4 0 2 2 0 014 0zm8 2a2 2 0 100-4 2 2 0 000 4z" fill="url(#bbosvg_b3ee70eb96__paint0_linear_18705_56643)"/></g><defs><linearGradient id="bbosvg_b3ee70eb96__paint0_linear_18705_56643" x1="24.491" y1="3.415" x2="24.491" y2="44.585" gradientUnits="userSpaceOnUse"><stop stop-color="#818A9C"/><stop offset="1" stop-color="#353D51"/></linearGradient><clipPath id="bbosvg_b3ee70eb96__clip0_18705_56643"><path fill="#fff" transform="translate(.5)" d="M0 0h48v48H0z"/></clipPath></defs></svg>
