<svg xmlns="http://www.w3.org/2000/svg" viewBox="0 0 48 48" fill="none"><g clip-path="url(#bbqsvg_e919c49d5f__clip0)"><path fill-rule="evenodd" clip-rule="evenodd" d="M32 4a2 2 0 012 2v14h6a2 2 0 012 2v18h1a1 1 0 011 1v2a1 1 0 01-1 1H5a1 1 0 01-1-1v-2a1 1 0 011-1h1V6a2 2 0 012-2h24zm-2 4H10v32h20V8zm8 16h-4v16h4V24zm-21 0a1 1 0 011 1v6a1 1 0 01-1 1h-2a1 1 0 01-1-1v-6a1 1 0 011-1h2zm8 0a1 1 0 011 1v6a1 1 0 01-1 1h-2a1 1 0 01-1-1v-6a1 1 0 011-1h2zm-8-12a1 1 0 011 1v6a1 1 0 01-1 1h-2a1 1 0 01-1-1v-6a1 1 0 011-1h2zm8 0a1 1 0 011 1v6a1 1 0 01-1 1h-2a1 1 0 01-1-1v-6a1 1 0 011-1h2z" fill="currentColor"/></g><defs><clipPath id="bbqsvg_e919c49d5f__clip0"><path d="M0 0h48v48H0z" fill="currentColor"/></clipPath></defs></svg>
