<svg xmlns="http://www.w3.org/2000/svg" viewBox="0 0 48 48" fill="none"><path opacity=".5" fill-rule="evenodd" clip-rule="evenodd" d="M25.085 4.967a2.101 2.101 0 00-2.172 0L5.014 15.773a2.101 2.101 0 00-1.015 1.799v6.088c0 .796.87 1.287 1.551.875l17.363-10.481a2.101 2.101 0 012.172 0L42.45 24.535A1.023 1.023 0 0044 23.66v-6.088c0-.736-.385-1.42-1.015-1.8l-17.9-10.805z" fill="currentColor"/><path fill-rule="evenodd" clip-rule="evenodd" d="M22.913 14.054l-15.61 9.423c-.08.224-.123.463-.123.708V40.9c0 1.16.941 2.101 2.102 2.101h29.435c1.16 0 2.101-.94 2.101-2.101V24.185c0-.245-.042-.484-.123-.708l-15.61-9.423a2.101 2.101 0 00-2.172 0zM28 36.579a1 1 0 001-1v-2a1 1 0 00-1-1h-8a1 1 0 00-1 1v2a1 1 0 001 1h8z" fill="currentColor"/></svg>
