<svg xmlns="http://www.w3.org/2000/svg" viewBox="0 -0.5 49 49" fill="none"><path fill-rule="evenodd" clip-rule="evenodd" d="M40.136 17.935a7.729 7.729 0 01-3.223 14.752H18.368a7.727 7.727 0 01-3.224-14.752c.994-6.003 6.21-10.581 12.496-10.581 6.286 0 11.502 4.577 12.496 10.58z" fill="#B5BCC9"/><path fill-rule="evenodd" clip-rule="evenodd" d="M8.42 24.585c1.083-6.534 6.76-11.516 13.6-11.516s12.516 4.982 13.598 11.516a8.409 8.409 0 01-3.508 16.054H11.93A8.409 8.409 0 018.42 24.585z" fill="url(#bbusvg_0585aa6674__paint0_linear_7496_35653)"/><path d="M15.561 33.598l6.41-11.216 6.41 11.216H15.56z" stroke="#B5BCC9" stroke-width="3"/><g filter="url(#bbusvg_0585aa6674__filter0_d_7496_35653)"><circle cx="21.977" cy="23.358" r="3" fill="#F5F8FD"/></g><g filter="url(#bbusvg_0585aa6674__filter1_d_7496_35653)"><circle cx="15.977" cy="33.227" r="3" fill="#F5F8FD"/></g><g filter="url(#bbusvg_0585aa6674__filter2_d_7496_35653)"><circle cx="28.037" cy="33.227" r="3" fill="#F5F8FD"/></g><defs><filter id="bbusvg_0585aa6674__filter0_d_7496_35653" x="10.977" y="14.358" width="22" height="22" filterUnits="userSpaceOnUse" color-interpolation-filters="sRGB"><feFlood flood-opacity="0" result="BackgroundImageFix"/><feColorMatrix in="SourceAlpha" values="0 0 0 0 0 0 0 0 0 0 0 0 0 0 0 0 0 0 127 0" result="hardAlpha"/><feOffset dy="2"/><feGaussianBlur stdDeviation="4"/><feComposite in2="hardAlpha" operator="out"/><feColorMatrix values="0 0 0 0 0 0 0 0 0 0 0 0 0 0 0 0 0 0 0.15 0"/><feBlend in2="BackgroundImageFix" result="effect1_dropShadow_7496_35653"/><feBlend in="SourceGraphic" in2="effect1_dropShadow_7496_35653" result="shape"/></filter><filter id="bbusvg_0585aa6674__filter1_d_7496_35653" x="4.977" y="24.227" width="22" height="22" filterUnits="userSpaceOnUse" color-interpolation-filters="sRGB"><feFlood flood-opacity="0" result="BackgroundImageFix"/><feColorMatrix in="SourceAlpha" values="0 0 0 0 0 0 0 0 0 0 0 0 0 0 0 0 0 0 127 0" result="hardAlpha"/><feOffset dy="2"/><feGaussianBlur stdDeviation="4"/><feComposite in2="hardAlpha" operator="out"/><feColorMatrix values="0 0 0 0 0 0 0 0 0 0 0 0 0 0 0 0 0 0 0.15 0"/><feBlend in2="BackgroundImageFix" result="effect1_dropShadow_7496_35653"/><feBlend in="SourceGraphic" in2="effect1_dropShadow_7496_35653" result="shape"/></filter><filter id="bbusvg_0585aa6674__filter2_d_7496_35653" x="17.037" y="24.227" width="22" height="22" filterUnits="userSpaceOnUse" color-interpolation-filters="sRGB"><feFlood flood-opacity="0" result="BackgroundImageFix"/><feColorMatrix in="SourceAlpha" values="0 0 0 0 0 0 0 0 0 0 0 0 0 0 0 0 0 0 127 0" result="hardAlpha"/><feOffset dy="2"/><feGaussianBlur stdDeviation="4"/><feComposite in2="hardAlpha" operator="out"/><feColorMatrix values="0 0 0 0 0 0 0 0 0 0 0 0 0 0 0 0 0 0 0.15 0"/><feBlend in2="BackgroundImageFix" result="effect1_dropShadow_7496_35653"/><feBlend in="SourceGraphic" in2="effect1_dropShadow_7496_35653" result="shape"/></filter><linearGradient id="bbusvg_0585aa6674__paint0_linear_7496_35653" x1="22.02" y1="13.069" x2="22.02" y2="40.639" gradientUnits="userSpaceOnUse"><stop stop-color="#818A9C"/><stop offset="1" stop-color="#353D51"/></linearGradient></defs></svg>
