<svg xmlns="http://www.w3.org/2000/svg" viewBox="0 0 48 48" fill="none"><path fill-rule="evenodd" clip-rule="evenodd" d="M41.18 17.318a8.268 8.268 0 01-3.448 15.786h-9.798a17.473 17.473 0 01-.251 0h-9.796a8.268 8.268 0 01-3.45-15.785c1.064-6.424 6.646-11.323 13.371-11.323 6.725 0 12.307 4.898 13.371 11.322z" fill="#B5BCC9"/><path fill-rule="evenodd" clip-rule="evenodd" d="M36.343 24.433A8.998 8.998 0 0132.59 41.61H10.997a8.998 8.998 0 01-3.754-17.178c1.158-6.99 7.232-12.322 14.55-12.322 7.32 0 13.393 5.331 14.551 12.322z" fill="url(#adnsvg_009ccd3c0a__paint0_linear_1828_1744499)"/><g filter="url(#adnsvg_009ccd3c0a__filter0_d_1828_1744499)" fill="#fff"><path d="M18.404 24.152L14.813 36H11l5.411-15h2.417l-.424 3.152zM21.377 36l-3.6-11.848L17.31 21h2.448L25.2 36h-3.823zm-.141-5.594v2.792H13.68v-2.792h7.556zM30 21v15h-3.54V21H30z"/></g><defs><linearGradient id="adnsvg_009ccd3c0a__paint0_linear_1828_1744499" x1="21.793" y1="12.111" x2="21.793" y2="41.611" gradientUnits="userSpaceOnUse"><stop stop-color="#818A9C"/><stop offset="1" stop-color="#353D51"/></linearGradient><filter id="adnsvg_009ccd3c0a__filter0_d_1828_1744499" x="3" y="15" width="35" height="31" filterUnits="userSpaceOnUse" color-interpolation-filters="sRGB"><feFlood flood-opacity="0" result="BackgroundImageFix"/><feColorMatrix in="SourceAlpha" values="0 0 0 0 0 0 0 0 0 0 0 0 0 0 0 0 0 0 127 0" result="hardAlpha"/><feOffset dy="2"/><feGaussianBlur stdDeviation="4"/><feComposite in2="hardAlpha" operator="out"/><feColorMatrix values="0 0 0 0 0 0 0 0 0 0 0 0 0 0 0 0 0 0 0.15 0"/><feBlend in2="BackgroundImageFix" result="effect1_dropShadow_1828_1744499"/><feBlend in="SourceGraphic" in2="effect1_dropShadow_1828_1744499" result="shape"/></filter></defs></svg>
