<svg xmlns="http://www.w3.org/2000/svg" viewBox="0 -0.5 49 49" fill="none"><path fill-rule="evenodd" clip-rule="evenodd" d="M8.472 14.14a2.572 2.572 0 10-3.824 3.441l11.242 12.49a3.086 3.086 0 004.27.306l5.566-4.64 10.61 13.26H24.558c-.71 0-1.286.575-1.286 1.285v2.572c0 .71.575 1.286 1.286 1.286h19.287c.71 0 1.286-.576 1.286-1.286V23.566c0-.71-.576-1.286-1.286-1.286h-2.571c-.71 0-1.286.576-1.286 1.286v11.761L28.43 20.885a3.086 3.086 0 00-4.386-.443l-5.657 4.716L8.472 14.14z" fill="#141414" fill-opacity=".08"/><path fill-rule="evenodd" clip-rule="evenodd" d="M8.472 11.14a2.572 2.572 0 10-3.824 3.441l11.242 12.49a3.086 3.086 0 004.27.306l5.566-4.64 10.61 13.26H24.558c-.71 0-1.286.575-1.286 1.285v2.572c0 .71.575 1.286 1.286 1.286h19.287c.71 0 1.286-.576 1.286-1.286V20.566c0-.71-.576-1.286-1.286-1.286h-2.571c-.71 0-1.286.576-1.286 1.286v11.761L28.43 17.885a3.086 3.086 0 00-4.386-.443l-5.657 4.716L8.472 11.14z" fill="#D7312A"/></svg>
