<svg xmlns="http://www.w3.org/2000/svg" viewBox="0 0 24 24" fill="none"><path d="M12.004 1.51c5.796 0 10.495 4.699 10.495 10.495C22.5 17.8 17.8 22.5 12.004 22.5c-5.797 0-10.496-4.699-10.496-10.495 0-5.796 4.699-10.495 10.495-10.495z" fill="#ECEDED"/><path fill-rule="evenodd" clip-rule="evenodd" d="M9.948 1.7a10.543 10.543 0 014.095 0 .787.787 0 11-.305 1.544 8.97 8.97 0 00-3.484 0A.787.787 0 119.948 1.7zM7.256 3.484a.787.787 0 01-.217 1.092A8.974 8.974 0 004.577 7.04a.787.787 0 01-1.309-.876 10.549 10.549 0 012.896-2.895.787.787 0 011.092.216zm9.48 0a.787.787 0 011.092-.216 10.55 10.55 0 012.895 2.895.787.787 0 01-1.308.876 8.974 8.974 0 00-2.463-2.463.787.787 0 01-.216-1.092zm4.63 5.844a.787.787 0 01.926.62 10.544 10.544 0 010 4.095.787.787 0 01-1.545-.306 8.97 8.97 0 000-3.484.787.787 0 01.62-.925zm-18.741 0a.787.787 0 01.62.925 8.968 8.968 0 000 3.484.787.787 0 11-1.545.306 10.541 10.541 0 010-4.095.787.787 0 01.925-.62zm.86 7.407a.787.787 0 011.092.216 8.975 8.975 0 002.462 2.463.787.787 0 11-.875 1.308 10.55 10.55 0 01-2.896-2.895.787.787 0 01.217-1.092zm17.022 0c.361.242.458.73.216 1.092a10.55 10.55 0 01-2.895 2.895.787.787 0 01-.876-1.308 8.974 8.974 0 002.463-2.463.787.787 0 011.092-.216zm-11.178 4.63a.787.787 0 01.925-.619 8.972 8.972 0 003.484 0 .787.787 0 11.305 1.545 10.539 10.539 0 01-4.095 0 .787.787 0 01-.62-.925z" fill="#C1C4CA"/></svg>
