<svg xmlns="http://www.w3.org/2000/svg" viewBox="0 0 49 49" fill="none"><g clip-path="url(#bcesvg_cca59b2276__clip0_7669_37739)"><path d="M32.225 3.086a2 2 0 00-1.414-.586H8.22a2 2 0 00-2 2v40a2 2 0 002 2h32a2 2 0 002-2V13.91a2 2 0 00-.585-1.413l-9.41-9.411z" fill="#F8AA10"/><path d="M42.221 13.999h-9.5a2 2 0 01-2-2V2.5h.09a2 2 0 011.414.586l9.41 9.41a2 2 0 01.586 1.415v.088z" fill="#FAC566"/><g filter="url(#bcesvg_cca59b2276__filter0_d_7669_37739)" fill="#fff"><path d="M15.848 20.064a2.096 2.096 0 00-2.096 2.096v.381c0 1.157.939 2.096 2.096 2.096h.381a2.096 2.096 0 002.096-2.096v-.381a2.096 2.096 0 00-2.096-2.096h-.38zM33.29 25.848c.777-.84 2.18-.29 2.18.854v11.175c0 .578-.47 1.047-1.048 1.047H13.814a.838.838 0 01-.643-1.376l6.13-7.313a2.096 2.096 0 013.213 0l3.19 3.806 7.586-8.193z"/></g></g><defs><clipPath id="bcesvg_cca59b2276__clip0_7669_37739"><path fill="#fff" transform="translate(.222 .5)" d="M0 0h48v48H0z"/></clipPath><filter id="bcesvg_cca59b2276__filter0_d_7669_37739" x="4.974" y="14.065" width="38.496" height="34.859" filterUnits="userSpaceOnUse" color-interpolation-filters="sRGB"><feFlood flood-opacity="0" result="BackgroundImageFix"/><feColorMatrix in="SourceAlpha" values="0 0 0 0 0 0 0 0 0 0 0 0 0 0 0 0 0 0 127 0" result="hardAlpha"/><feOffset dy="2"/><feGaussianBlur stdDeviation="4"/><feComposite in2="hardAlpha" operator="out"/><feColorMatrix values="0 0 0 0 0 0 0 0 0 0 0 0 0 0 0 0 0 0 0.1 0"/><feBlend in2="BackgroundImageFix" result="effect1_dropShadow_7669_37739"/><feBlend in="SourceGraphic" in2="effect1_dropShadow_7669_37739" result="shape"/></filter></defs></svg>
