<svg xmlns="http://www.w3.org/2000/svg" viewBox="0 -0.5 49 49" fill="none"><path fill-rule="evenodd" clip-rule="evenodd" d="M44.857 25.98c0 10.997-8.914 19.911-19.91 19.911-10.997 0-19.912-8.914-19.912-19.91 0-10.997 8.915-19.912 19.911-19.912 10.997 0 19.911 8.915 19.911 19.911z" fill="#141414" fill-opacity=".08"/><path d="M24.857 43.99c11.046 0 20-8.955 20-20 0-11.046-8.954-20-20-20-11.045 0-20 8.954-20 20 0 11.045 8.955 20 20 20z" fill="#387BFF"/><path fill-rule="evenodd" clip-rule="evenodd" d="M24.857 40.656c9.205 0 16.667-7.462 16.667-16.667 0-9.205-7.462-16.666-16.667-16.666-9.204 0-16.666 7.461-16.666 16.666s7.462 16.667 16.666 16.667zm20-16.667c0 11.046-8.954 20-20 20-11.045 0-20-8.954-20-20s8.955-20 20-20c11.046 0 20 8.954 20 20z" fill="#1664FF"/><path fill-rule="evenodd" clip-rule="evenodd" d="M27.088 20.49c.268 0 .484.216.484.483l.003 10.363h2.238c.268 0 .484.216.484.484v2.63a.484.484 0 01-.484.483h-8.099a.484.484 0 01-.483-.483v-2.63c0-.268.216-.484.483-.484h2.222l-.002-7.25h-.762a.484.484 0 01-.484-.483v-2.63c0-.267.216-.484.484-.484h3.916zm-.397-5.454c.267 0 .484.217.484.484v2.654a.484.484 0 01-.484.484h-2.765a.484.484 0 01-.484-.484V15.52c0-.267.216-.484.483-.484h2.766z" fill="#141414" fill-opacity=".2"/><path fill-rule="evenodd" clip-rule="evenodd" d="M26.093 19.493c.267 0 .484.217.484.484l.003 10.363h2.238c.267 0 .484.216.484.483v2.63a.484.484 0 01-.484.484H20.72a.484.484 0 01-.484-.483v-2.63c0-.268.217-.485.484-.485h2.222l-.002-7.248h-.762a.484.484 0 01-.484-.484v-2.63c0-.267.216-.484.484-.484h3.916zm-.397-5.453c.267 0 .484.217.484.484v2.654a.484.484 0 01-.484.484H22.93a.484.484 0 01-.483-.484v-2.654c0-.267.216-.484.483-.484h2.766z" fill="#fff"/></svg>
