<svg xmlns="http://www.w3.org/2000/svg" viewBox="0 0 48 48" fill="none"><path fill-rule="evenodd" clip-rule="evenodd" d="M26 5a1 1 0 00-1-1h-2a1 1 0 00-1 1v17H5a1 1 0 00-1 1v2a1 1 0 001 1h17v17a1 1 0 001 1h2a1 1 0 001-1V26h17a1 1 0 001-1v-2a1 1 0 00-1-1H26V5z" fill="currentColor"/><rect opacity=".4" x="4" y="4" width="4" height="4" rx="1" fill="currentColor"/><rect opacity=".4" x="10" y="4" width="4" height="4" rx="1" fill="currentColor"/><rect opacity=".4" x="4" y="10" width="4" height="4" rx="1" fill="currentColor"/><rect opacity=".4" x="16" y="4" width="4" height="4" rx="1" fill="currentColor"/><rect opacity=".4" x="10" y="40" width="4" height="4" rx="1" fill="currentColor"/><rect opacity=".4" x="16" y="40" width="4" height="4" rx="1" fill="currentColor"/><rect opacity=".4" x="4" y="16" width="4" height="4" rx="1" fill="currentColor"/><rect opacity=".4" x="4" y="28" width="4" height="4" rx="1" fill="currentColor"/><rect opacity=".4" x="4" y="34" width="4" height="4" rx="1" fill="currentColor"/><rect opacity=".4" x="40" y="10" width="4" height="4" rx="1" fill="currentColor"/><rect opacity=".4" x="40" y="16" width="4" height="4" rx="1" fill="currentColor"/><rect opacity=".4" x="40" y="28" width="4" height="4" rx="1" fill="currentColor"/><rect opacity=".4" x="40" y="34" width="4" height="4" rx="1" fill="currentColor"/><rect opacity=".4" x="4" y="40" width="4" height="4" rx="1" fill="currentColor"/><rect opacity=".4" x="28" y="4" width="4" height="4" rx="1" fill="currentColor"/><rect opacity=".4" x="34" y="4" width="4" height="4" rx="1" fill="currentColor"/><rect opacity=".4" x="40" y="4" width="4" height="4" rx="1" fill="currentColor"/><rect opacity=".4" x="28" y="40" width="4" height="4" rx="1" fill="currentColor"/><rect opacity=".4" x="34" y="40" width="4" height="4" rx="1" fill="currentColor"/><rect opacity=".4" x="40" y="40" width="4" height="4" rx="1" fill="currentColor"/></svg>
