<svg xmlns="http://www.w3.org/2000/svg" viewBox="0 -0.5 49 49" fill="none"><path d="M35.472 35.26c4.64-3.04 7.703-8.284 7.703-14.245 0-9.4-7.62-17.019-17.019-17.019-7.413 0-13.719 4.74-16.053 11.353L5.072 26.88a2.12 2.12 0 001.943 2.968H9.51v6.068c0 1.17.949 2.12 2.12 2.12h4.928v5.961h18.913v-8.735z" fill="url(#bcvsvg_ab92c6b835__paint0_linear_7496_35636)"/><path fill-rule="evenodd" clip-rule="evenodd" d="M36.325 25.772c.211 0 .382-.211.382-.472v-8.262c0-.261-.171-.473-.382-.473h-2.101c-.211 0-.382.212-.382.473V25.3c0 .26.17.472.382.472h2.101zM24.483 27.066c.211 0 .382-.225.382-.502v-10.79c0-.278-.17-.502-.382-.502h-2.1c-.212 0-.383.224-.383.501v10.79c0 .278.171.503.382.503h2.101z" fill="#B5BCC9"/><path fill-rule="evenodd" clip-rule="evenodd" d="M30.405 30.433c.211 0 .382-.198.382-.442V12.346c0-.243-.17-.44-.382-.44h-2.101c-.211 0-.382.197-.382.44v17.645c0 .244.171.442.382.442h2.101zM18.563 25.28c.211 0 .382-.1.382-.222V17.28c0-.123-.17-.222-.382-.222h-2.1c-.212 0-.383.1-.383.222v7.778c0 .123.171.222.382.222h2.101z" fill="#F5F8FD"/><defs><linearGradient id="bcvsvg_ab92c6b835__paint0_linear_7496_35636" x1="24.034" y1="3.996" x2="24.034" y2="43.996" gradientUnits="userSpaceOnUse"><stop stop-color="#818A9C"/><stop offset="1" stop-color="#353D51"/></linearGradient></defs></svg>
