<svg xmlns="http://www.w3.org/2000/svg" viewBox="-0.5 0 49 49" fill="none"><path d="M9.462 38.05V16.823H5.066v-2.564c.603 0 1.204 0 1.764-.074 1.99-.192 3.116-1.035 3.15-3.183h2.784V38.05H9.462zm7.376-.038v-3.208l5.404-9.331c.411-.717.814-1.434 1.19-2.15 1.187-2.235 1.444-3.287 1.444-5.778 0-.154.035-.906-.108-1.51-.368-1.776-1.558-2-2.334-2-.887 0-1.263.34-1.555.646-.815.868-.742 2.082-.742 3.137v3.057h-3v-3.327c0-.379.039-.755.039-1.093.035-.793.035-3.286 2.185-4.647a5.814 5.814 0 013.035-.793c3.484 0 4.739 2.46 5.15 3.741.184.603.411 1.661.411 3.214a13.523 13.523 0 01-1.152 5.553c-.387.842-.82 1.662-1.298 2.456l-5.37 9.185h8.15v2.87h-11.45v-.022zm25.655-3.57c-.479 1.347-1.904 3.543-5.334 3.543-.55 0-2.515-.073-4.052-1.303-1.02-.823-1.607-2.089-1.607-4.769 0-.709.038-1.417.038-2.161l2.922.038c-.036.779 0 1.601.038 2.388.035 1.044.108 1.823.946 2.462.447.32.984.49 1.534.484.181 0 1.093-.035 1.715-.522 1.136-.893.984-2.61.984-3.806 0-.522.038-1.08.038-1.601 0-.15.035-1.823-.587-2.832-.587-.893-1.75-1.115-2.743-1.115-.324 0-.657 0-1.02.035l.036-2.948c.038 0 2.19.26 3.14-.67.803-.744.912-2.159.912-3.098 0-.822-.035-1.6-.109-2.423-.035-.744-.216-2.272-2.263-2.272-.29 0-.877-.038-1.426.52-.66.673-.803 1.6-.803 3.388 0 .338 0 .674.035 1.01h-2.916a20.828 20.828 0 010-2.124c.073-2.31.514-4.398 2.889-5.293a7.858 7.858 0 012.337-.371c1.569 0 2.553.487 3.137.857 1.537 1.044 2.194 2.61 2.194 6.08 0 2.681-.216 4.026-1.244 4.92-.695.637-1.46.707-1.75.78.73.187 2.407.487 2.994 2.61.325 1.114.406 3.911.406 5.107-.008.406-.008 1.858-.441 3.089v-.003z" fill="currentColor"/><path fill-rule="evenodd" clip-rule="evenodd" d="M42.934 8.522H6.294V4.916h36.64v3.606zM42.934 44.6H6.294v-3.606h36.64v3.607z" fill="currentColor"/></svg>
