<svg xmlns="http://www.w3.org/2000/svg" viewBox="0 -0.5 49 49" fill="none"><path d="M8.6 16.234l15.48-8.937v38.06L8.6 36.418a2 2 0 01-1-1.732v-16.72a2 2 0 011-1.733z" fill="url(#bcusvg_10fd02c61a__paint0_linear_7496_35646)"/><path d="M39.56 11.572L24.08 2.635v38.06l15.48-8.938a2 2 0 001-1.732v-16.72a2 2 0 00-1-1.733z" fill="#B5BCC9"/><g filter="url(#bcusvg_10fd02c61a__filter0_d_7496_35646)"><path d="M24.08 33.294a9.294 9.294 0 00-9.294-9.293 9.293 9.293 0 009.294-9.294 9.294 9.294 0 009.293 9.294 9.294 9.294 0 00-9.293 9.293z" fill="#fff"/></g><defs><linearGradient id="bcusvg_10fd02c61a__paint0_linear_7496_35646" x1="15.84" y1="7.297" x2="15.84" y2="45.356" gradientUnits="userSpaceOnUse"><stop stop-color="#818A9C"/><stop offset="1" stop-color="#353D51"/></linearGradient><filter id="bcusvg_10fd02c61a__filter0_d_7496_35646" x="7.866" y="11.787" width="32.427" height="32.428" filterUnits="userSpaceOnUse" color-interpolation-filters="sRGB"><feFlood flood-opacity="0" result="BackgroundImageFix"/><feColorMatrix in="SourceAlpha" values="0 0 0 0 0 0 0 0 0 0 0 0 0 0 0 0 0 0 127 0" result="hardAlpha"/><feOffset dy="4"/><feGaussianBlur stdDeviation="3.46"/><feComposite in2="hardAlpha" operator="out"/><feColorMatrix values="0 0 0 0 0 0 0 0 0 0 0 0 0 0 0 0 0 0 0.12 0"/><feBlend in2="BackgroundImageFix" result="effect1_dropShadow_7496_35646"/><feBlend in="SourceGraphic" in2="effect1_dropShadow_7496_35646" result="shape"/></filter></defs></svg>
