<svg xmlns="http://www.w3.org/2000/svg" viewBox="0 0 48 48" fill="none"><path fill-rule="evenodd" clip-rule="evenodd" d="M12.266 38.752v-.004c-.089.003-.178.004-.267.004-5.523 0-10-4.477-10-10 0-4.162 2.542-7.73 6.159-9.236 1.346-7.698 8.063-13.55 16.147-13.55 8.316 0 15.185 6.193 16.25 14.218a9.995 9.995 0 014.839 8.568c0 5.523-4.477 10-10 10H12.266zm11.43-15.868a2.442 2.442 0 100-4.884 2.442 2.442 0 000 4.884zm5.443-2.442c0 2.5-1.686 4.606-3.983 5.244v1.692h1.02a1 1 0 011 1v1.349a1 1 0 01-1 1h-1.02V32a1 1 0 01-1 1h-1.349a1 1 0 01-1-1v-6.453A5.444 5.444 0 0123.697 15a5.442 5.442 0 015.442 5.442z" fill="currentColor"/></svg>
