<svg xmlns="http://www.w3.org/2000/svg" viewBox="0 0 48 48" fill="none"><path d="M4 44V24.375h40V44H4z" fill="#B5BCC9"/><path d="M33 4a1 1 0 011 1v3h4a2 2 0 012 2v26a2 2 0 01-2 2H10a2 2 0 01-2-2V10a2 2 0 012-2h18.555V5a1 1 0 01.999-1H33z" fill="url(#adosvg_b89342b926__paint0_linear_99119_7892)"/><path d="M14.336 18.656v8.532h-2.05v-8.532h2.05zm4.888 5.637h-2.122v-1.588h2.122c.289 0 .523-.049.703-.146a.892.892 0 00.392-.405 1.33 1.33 0 00.13-.591c0-.235-.044-.452-.13-.65a1.05 1.05 0 00-.392-.481c-.18-.125-.414-.188-.703-.188h-1.348v6.944h-2.057v-8.532h3.405c.683 0 1.271.125 1.763.375.496.25.877.594 1.143 1.032.265.433.398.93.398 1.488 0 .55-.133 1.031-.398 1.441-.266.41-.647.73-1.143.961-.492.227-1.08.34-1.763.34zm6.733 1.541l1.248-4.986h2.08l-2.074 6.34h-1.23l-.024-1.354zm-.739-4.986l1.231 4.986-.012 1.354h-1.236l-2.069-6.34h2.086zm9.107-2.315h.316v1.553h-.105c-.38 0-.735.053-1.067.158a2.48 2.48 0 00-.867.48 2.18 2.18 0 00-.58.803c-.137.325-.205.705-.205 1.143v1.494c0 .273.023.512.07.715.047.203.117.371.211.504a.903.903 0 00.346.299c.14.066.303.1.486.1a.867.867 0 00.422-.106c.129-.07.24-.17.334-.299.098-.129.172-.28.223-.451.05-.172.076-.36.076-.563 0-.218-.027-.416-.082-.591a1.27 1.27 0 00-.234-.446.925.925 0 00-.358-.281 1.019 1.019 0 00-.451-.1c-.25 0-.463.057-.639.17-.172.11-.302.25-.392.422a1.156 1.156 0 00-.13.522l-.474-.48a1.821 1.821 0 01.135-.727 2.25 2.25 0 01.44-.698c.195-.215.439-.388.732-.521s.633-.2 1.02-.2c.39 0 .734.075 1.03.223.301.149.553.356.757.621.206.266.363.576.468.932.106.355.158.74.158 1.154 0 .418-.074.807-.222 1.166a2.787 2.787 0 01-1.559 1.553 3.146 3.146 0 01-1.201.223c-.45 0-.865-.076-1.248-.229a2.938 2.938 0 01-.996-.674 3.183 3.183 0 01-.662-1.084 4.183 4.183 0 01-.235-1.447v-.72c0-.731.12-1.381.358-1.952a4.28 4.28 0 01.984-1.447 4.288 4.288 0 011.436-.908 4.713 4.713 0 011.705-.31z" fill="#fff"/><defs><linearGradient id="adosvg_b89342b926__paint0_linear_99119_7892" x1="24" y1="4" x2="24" y2="38" gradientUnits="userSpaceOnUse"><stop stop-color="#818A9C"/><stop offset="1" stop-color="#353D51"/></linearGradient></defs></svg>
