<svg xmlns="http://www.w3.org/2000/svg" viewBox="0 0 30 30" fill="none"><path fill-rule="evenodd" clip-rule="evenodd" d="M4.5 4.2c0-.663.522-1.2 1.167-1.2H10v1.25c0 .69.56 1.25 1.25 1.25h7.5c.69 0 1.25-.56 1.25-1.25V3h4.333c.645 0 1.167.537 1.167 1.2v21.6c0 .663-.522 1.2-1.167 1.2H5.667c-.645 0-1.167-.537-1.167-1.2V4.2zm7.825 5.142a1.167 1.167 0 00-1.65 1.65l2.092 2.091H11.5a1.167 1.167 0 000 2.334h2.338v1.166H11.5a1.167 1.167 0 000 2.334h2.338v2.333a1.167 1.167 0 102.334 0v-2.333H18.5a1.167 1.167 0 000-2.334h-2.328v-1.166H18.5a1.167 1.167 0 000-2.334h-1.267l2.092-2.091a1.167 1.167 0 10-1.65-1.65L15 12.017l-2.675-2.675z" fill="currentColor"/><path opacity=".5" d="M10 3h10v1.25c0 .69-.56 1.25-1.25 1.25h-7.5c-.69 0-1.25-.56-1.25-1.25V3z" fill="currentColor"/></svg>
